G75*
%MOIN*%
%OFA0B0*%
%FSLAX25Y25*%
%IPPOS*%
%LPD*%
%AMOC8*
5,1,8,0,0,1.08239X$1,22.5*
%
%ADD10R,0.00787X0.00157*%
%ADD11R,0.00630X0.00157*%
%ADD12R,0.00945X0.00157*%
%ADD13R,0.01102X0.00157*%
%ADD14R,0.00315X0.00157*%
%ADD15R,0.02205X0.00157*%
%ADD16R,0.02520X0.00157*%
%ADD17R,0.00157X0.00157*%
%ADD18R,0.03465X0.00157*%
%ADD19R,0.01890X0.00157*%
%ADD20R,0.02992X0.00157*%
%ADD21R,0.01732X0.00157*%
%ADD22R,0.03150X0.00157*%
%ADD23R,0.04094X0.00157*%
%ADD24R,0.02047X0.00157*%
%ADD25R,0.03307X0.00157*%
%ADD26R,0.02835X0.00157*%
%ADD27R,0.02362X0.00157*%
%ADD28R,0.01260X0.00157*%
%ADD29R,0.02677X0.00157*%
%ADD30R,0.01417X0.00157*%
%ADD31R,0.00472X0.00157*%
%ADD32R,0.01575X0.00157*%
%ADD33R,0.03780X0.00157*%
%ADD34R,0.04567X0.00157*%
%ADD35R,0.03622X0.00157*%
%ADD36R,0.03937X0.00157*%
%ADD37C,0.00591*%
%ADD38R,0.00157X0.31969*%
%ADD39R,0.00157X0.03465*%
%ADD40R,0.00157X0.02205*%
%ADD41R,0.00157X0.01890*%
%ADD42R,0.00157X0.00472*%
%ADD43R,0.00157X0.01732*%
%ADD44R,0.00157X0.00630*%
%ADD45R,0.00157X0.03307*%
%ADD46R,0.00157X0.02047*%
%ADD47R,0.00157X0.01575*%
%ADD48R,0.00157X0.00315*%
%ADD49R,0.00157X0.01417*%
%ADD50R,0.00157X0.03150*%
%ADD51R,0.00157X0.01260*%
%ADD52R,0.00157X0.01102*%
%ADD53R,0.00157X0.02992*%
%ADD54R,0.00157X0.00945*%
%ADD55R,0.00157X0.02677*%
%ADD56R,0.00157X0.00787*%
%ADD57R,0.00157X0.02835*%
%ADD58R,0.00157X0.02520*%
%ADD59R,0.00157X0.02362*%
%ADD60R,0.00157X0.15276*%
%ADD61R,0.00157X0.11024*%
%ADD62R,0.00157X0.22520*%
%ADD63R,0.00157X0.04094*%
%ADD64R,0.00157X0.40157*%
%ADD65R,0.00157X0.10709*%
%ADD66R,0.00157X0.04567*%
%ADD67R,0.00157X0.11654*%
%ADD68R,0.00157X0.03937*%
%ADD69R,0.00157X0.03780*%
%ADD70R,0.00157X0.04409*%
%ADD71C,0.00039*%
D10*
X0131877Y0127795D03*
X0129672Y0127953D03*
X0129672Y0130787D03*
X0135341Y0127953D03*
X0137861Y0127953D03*
X0137861Y0130787D03*
X0137861Y0132205D03*
X0142428Y0129843D03*
X0142585Y0128898D03*
X0146837Y0128740D03*
X0148097Y0127953D03*
X0150144Y0127953D03*
X0151562Y0127953D03*
X0152822Y0127953D03*
X0152822Y0130787D03*
X0151562Y0130787D03*
X0150144Y0130787D03*
X0155971Y0130787D03*
X0155971Y0127953D03*
X0162270Y0127953D03*
X0165735Y0127953D03*
X0169357Y0127953D03*
X0172349Y0127953D03*
X0184633Y0127953D03*
X0184633Y0130787D03*
X0184633Y0132205D03*
X0187940Y0129055D03*
X0190774Y0128898D03*
X0190774Y0129843D03*
X0193766Y0130787D03*
X0195184Y0130787D03*
X0195184Y0132205D03*
X0199751Y0130787D03*
X0198963Y0128110D03*
X0195184Y0127953D03*
X0193766Y0127953D03*
D11*
X0197310Y0127953D03*
X0198885Y0127953D03*
X0200774Y0127953D03*
X0198097Y0130787D03*
X0196522Y0130787D03*
X0193688Y0132205D03*
X0181247Y0127953D03*
X0164081Y0129055D03*
X0158097Y0127953D03*
X0139987Y0127795D03*
X0136522Y0130787D03*
X0134160Y0130787D03*
X0131168Y0128740D03*
D12*
X0129751Y0128268D03*
X0129751Y0128110D03*
X0128491Y0130787D03*
X0134160Y0130630D03*
X0136522Y0130630D03*
X0137940Y0131417D03*
X0139199Y0129843D03*
X0139199Y0129685D03*
X0145341Y0128740D03*
X0146759Y0130000D03*
X0148176Y0129528D03*
X0148176Y0129370D03*
X0148176Y0129213D03*
X0148176Y0129055D03*
X0148176Y0128898D03*
X0148176Y0128740D03*
X0148176Y0128583D03*
X0148176Y0128425D03*
X0148176Y0128268D03*
X0148176Y0128110D03*
X0148963Y0130787D03*
X0154790Y0130787D03*
X0158097Y0130787D03*
X0158097Y0130630D03*
X0158097Y0130472D03*
X0158097Y0130315D03*
X0158097Y0130157D03*
X0158097Y0130000D03*
X0158097Y0129843D03*
X0158097Y0129685D03*
X0158097Y0129528D03*
X0158097Y0129370D03*
X0158097Y0129213D03*
X0158097Y0129055D03*
X0158097Y0128898D03*
X0158097Y0128740D03*
X0158097Y0128583D03*
X0158097Y0128425D03*
X0158097Y0128268D03*
X0158097Y0128110D03*
X0158097Y0130945D03*
X0158097Y0131102D03*
X0162349Y0131890D03*
X0164081Y0129213D03*
X0165814Y0128268D03*
X0165814Y0128110D03*
X0162349Y0128110D03*
X0165814Y0131890D03*
X0169436Y0128110D03*
X0172270Y0128110D03*
X0174633Y0130630D03*
X0175735Y0132047D03*
X0176680Y0130630D03*
X0176680Y0130472D03*
X0176680Y0130315D03*
X0176680Y0130157D03*
X0179357Y0128425D03*
X0179357Y0128268D03*
X0179357Y0128110D03*
X0179357Y0127953D03*
X0181247Y0128110D03*
X0181247Y0128268D03*
X0181247Y0128425D03*
X0181247Y0128583D03*
X0181247Y0128740D03*
X0181247Y0128898D03*
X0181247Y0130157D03*
X0181247Y0130315D03*
X0181247Y0130472D03*
X0181247Y0130630D03*
X0181247Y0130787D03*
X0181247Y0130945D03*
X0181247Y0131102D03*
X0181247Y0131260D03*
X0181247Y0131417D03*
X0181247Y0131575D03*
X0181247Y0131732D03*
X0181247Y0131890D03*
X0182822Y0131890D03*
X0182822Y0131732D03*
X0184554Y0131417D03*
X0186286Y0131102D03*
X0187861Y0130945D03*
X0193688Y0130630D03*
X0193688Y0130472D03*
X0193688Y0130315D03*
X0193688Y0130157D03*
X0193688Y0130000D03*
X0193688Y0129843D03*
X0193688Y0129685D03*
X0193688Y0129528D03*
X0193688Y0129370D03*
X0193688Y0129213D03*
X0193688Y0129055D03*
X0193688Y0128898D03*
X0193688Y0128740D03*
X0193688Y0128583D03*
X0193688Y0128425D03*
X0193688Y0128268D03*
X0193688Y0128110D03*
X0193688Y0131417D03*
X0193688Y0131575D03*
X0193688Y0131732D03*
X0193688Y0131890D03*
X0193688Y0132047D03*
X0195105Y0131417D03*
X0196522Y0130630D03*
X0198097Y0130630D03*
X0199829Y0130630D03*
X0202664Y0132047D03*
X0197310Y0128268D03*
X0197310Y0128110D03*
X0172270Y0131890D03*
D13*
X0172349Y0131732D03*
X0172349Y0130157D03*
X0172349Y0130000D03*
X0172349Y0129843D03*
X0172349Y0129685D03*
X0172349Y0129528D03*
X0172349Y0129370D03*
X0172349Y0129213D03*
X0172349Y0129055D03*
X0172349Y0128898D03*
X0172349Y0128740D03*
X0172349Y0128583D03*
X0172349Y0128425D03*
X0172349Y0128268D03*
X0169357Y0128268D03*
X0169357Y0128425D03*
X0169357Y0128583D03*
X0169357Y0128740D03*
X0169357Y0128898D03*
X0169357Y0129055D03*
X0169357Y0129213D03*
X0169357Y0129370D03*
X0169357Y0130630D03*
X0169357Y0130787D03*
X0169357Y0130945D03*
X0165735Y0131732D03*
X0165735Y0129843D03*
X0165735Y0129685D03*
X0165735Y0129528D03*
X0165735Y0129370D03*
X0165735Y0129213D03*
X0165735Y0129055D03*
X0165735Y0128898D03*
X0165735Y0128740D03*
X0165735Y0128583D03*
X0165735Y0128425D03*
X0162270Y0128425D03*
X0162270Y0128268D03*
X0162270Y0128583D03*
X0162270Y0128740D03*
X0162270Y0128898D03*
X0162270Y0129055D03*
X0162270Y0129213D03*
X0162270Y0129370D03*
X0162270Y0129528D03*
X0162270Y0129685D03*
X0162270Y0129843D03*
X0162270Y0130000D03*
X0162428Y0131732D03*
X0155971Y0129685D03*
X0155971Y0129528D03*
X0155971Y0129370D03*
X0155971Y0129213D03*
X0155971Y0129055D03*
X0155971Y0128898D03*
X0155971Y0128740D03*
X0155971Y0128583D03*
X0155971Y0128425D03*
X0155971Y0128268D03*
X0155971Y0128110D03*
X0153609Y0129213D03*
X0153609Y0129370D03*
X0153609Y0129528D03*
X0151562Y0129370D03*
X0150144Y0129370D03*
X0150144Y0129213D03*
X0150144Y0129055D03*
X0150144Y0128898D03*
X0150144Y0128740D03*
X0150144Y0128583D03*
X0150144Y0128425D03*
X0150144Y0128268D03*
X0150144Y0128110D03*
X0150144Y0129528D03*
X0150144Y0129685D03*
X0148255Y0129685D03*
X0146680Y0129843D03*
X0144003Y0129685D03*
X0144003Y0129528D03*
X0144003Y0129370D03*
X0144003Y0129213D03*
X0144003Y0129055D03*
X0141168Y0129685D03*
X0137861Y0129685D03*
X0137861Y0129528D03*
X0137861Y0129370D03*
X0137861Y0129213D03*
X0137861Y0129055D03*
X0137861Y0128898D03*
X0137861Y0128740D03*
X0137861Y0128583D03*
X0137861Y0128425D03*
X0137861Y0128268D03*
X0137861Y0128110D03*
X0137861Y0129843D03*
X0137861Y0130000D03*
X0137861Y0130157D03*
X0137861Y0130315D03*
X0137861Y0130472D03*
X0137861Y0130630D03*
X0137861Y0131575D03*
X0137861Y0131732D03*
X0137861Y0131890D03*
X0137861Y0132047D03*
X0136601Y0130472D03*
X0136444Y0130157D03*
X0136286Y0129843D03*
X0136129Y0129685D03*
X0135971Y0129370D03*
X0134711Y0129370D03*
X0134554Y0129685D03*
X0134239Y0130157D03*
X0134239Y0130315D03*
X0134081Y0130472D03*
X0132979Y0129685D03*
X0132979Y0128898D03*
X0131089Y0129685D03*
X0131089Y0129843D03*
X0129672Y0129685D03*
X0129672Y0129528D03*
X0129672Y0129370D03*
X0129672Y0129213D03*
X0129672Y0129055D03*
X0129672Y0128898D03*
X0129672Y0128740D03*
X0129672Y0128583D03*
X0129672Y0128425D03*
X0135341Y0128268D03*
X0135341Y0128110D03*
X0174711Y0130315D03*
X0174711Y0130472D03*
X0174711Y0130787D03*
X0174711Y0130945D03*
X0176601Y0130945D03*
X0176601Y0130787D03*
X0178176Y0130787D03*
X0178176Y0130945D03*
X0178333Y0130630D03*
X0178963Y0129528D03*
X0179121Y0129213D03*
X0179278Y0128898D03*
X0179278Y0128740D03*
X0179278Y0128583D03*
X0183058Y0130315D03*
X0183058Y0130472D03*
X0183058Y0130630D03*
X0183058Y0130787D03*
X0182900Y0130945D03*
X0182900Y0131102D03*
X0182900Y0131260D03*
X0182900Y0131417D03*
X0182743Y0131575D03*
X0183215Y0130157D03*
X0184633Y0130157D03*
X0184633Y0130000D03*
X0184633Y0129843D03*
X0184633Y0129685D03*
X0184633Y0129528D03*
X0184633Y0129370D03*
X0184633Y0129213D03*
X0184633Y0129055D03*
X0184633Y0128898D03*
X0184633Y0128740D03*
X0184633Y0128583D03*
X0184633Y0128425D03*
X0184633Y0128268D03*
X0184633Y0128110D03*
X0185892Y0129055D03*
X0185892Y0129213D03*
X0186050Y0128898D03*
X0184633Y0130315D03*
X0184633Y0130472D03*
X0184633Y0130630D03*
X0184633Y0131575D03*
X0184633Y0131732D03*
X0184633Y0131890D03*
X0184633Y0132047D03*
X0186995Y0132047D03*
X0187782Y0131102D03*
X0187940Y0130787D03*
X0187782Y0130630D03*
X0192349Y0129528D03*
X0192349Y0129370D03*
X0192349Y0129213D03*
X0195184Y0129213D03*
X0195184Y0129370D03*
X0195184Y0129528D03*
X0195184Y0129685D03*
X0195184Y0129843D03*
X0195184Y0130000D03*
X0195184Y0130157D03*
X0195184Y0130315D03*
X0195184Y0130472D03*
X0195184Y0130630D03*
X0195184Y0131575D03*
X0195184Y0131732D03*
X0195184Y0131890D03*
X0195184Y0132047D03*
X0196444Y0130472D03*
X0196601Y0130157D03*
X0196601Y0130000D03*
X0198176Y0130315D03*
X0198176Y0130472D03*
X0199593Y0130000D03*
X0199593Y0129843D03*
X0199751Y0130157D03*
X0199751Y0130315D03*
X0199751Y0130472D03*
X0201168Y0130472D03*
X0201168Y0130315D03*
X0201168Y0130157D03*
X0201168Y0130000D03*
X0201168Y0129843D03*
X0201168Y0129685D03*
X0201168Y0129528D03*
X0201168Y0129370D03*
X0201325Y0129213D03*
X0200853Y0128110D03*
X0198963Y0128268D03*
X0198963Y0128425D03*
X0195184Y0128425D03*
X0195184Y0128268D03*
X0195184Y0128110D03*
X0195184Y0128583D03*
X0195184Y0128740D03*
X0195184Y0128898D03*
X0195184Y0129055D03*
X0204160Y0129370D03*
X0204160Y0129528D03*
X0204160Y0129685D03*
X0204160Y0129843D03*
X0204160Y0130000D03*
X0204160Y0130157D03*
X0204160Y0130315D03*
X0204160Y0130472D03*
D14*
X0193688Y0131260D03*
X0190696Y0129685D03*
X0190696Y0129055D03*
X0186916Y0127795D03*
X0182979Y0132047D03*
X0181247Y0132047D03*
X0172270Y0132047D03*
X0154633Y0129843D03*
X0146916Y0128898D03*
X0145341Y0130000D03*
X0142507Y0129685D03*
X0142507Y0129055D03*
X0140144Y0130945D03*
X0131955Y0130945D03*
D15*
X0131955Y0128110D03*
X0129121Y0130000D03*
X0129121Y0130157D03*
X0129121Y0130315D03*
X0129121Y0130630D03*
X0139987Y0128110D03*
X0142979Y0130472D03*
X0145971Y0130472D03*
X0146129Y0130315D03*
X0146129Y0130157D03*
X0146129Y0128110D03*
X0155420Y0130000D03*
X0162822Y0130315D03*
X0162822Y0130472D03*
X0165184Y0130315D03*
X0168806Y0130472D03*
X0178885Y0132047D03*
X0186916Y0131732D03*
X0191325Y0130472D03*
X0191325Y0128268D03*
X0202664Y0128110D03*
X0202664Y0131732D03*
D16*
X0191483Y0130000D03*
X0191483Y0128740D03*
X0186916Y0131575D03*
X0168648Y0130315D03*
X0168648Y0129528D03*
X0168333Y0132047D03*
X0149436Y0130630D03*
X0146129Y0128425D03*
X0146129Y0128268D03*
X0143136Y0128583D03*
X0143136Y0130157D03*
X0140144Y0130315D03*
X0140144Y0128425D03*
X0132270Y0129055D03*
X0132113Y0128583D03*
X0131955Y0128268D03*
D17*
X0128412Y0129843D03*
X0146050Y0130945D03*
X0146207Y0127795D03*
X0162270Y0132047D03*
X0165735Y0132047D03*
X0173294Y0130157D03*
X0115491Y0165748D03*
X0115333Y0169213D03*
X0115176Y0170630D03*
X0115333Y0181024D03*
X0115333Y0185118D03*
X0115176Y0186535D03*
X0131176Y0187315D03*
X0131333Y0185898D03*
X0183176Y0170346D03*
X0183333Y0168929D03*
X0233333Y0178685D03*
X0233176Y0180102D03*
X0233333Y0189236D03*
D18*
X0202664Y0131260D03*
X0202664Y0131102D03*
X0198097Y0129370D03*
X0198097Y0129213D03*
X0158097Y0132047D03*
D19*
X0162664Y0130787D03*
X0164081Y0129843D03*
X0165341Y0130630D03*
X0172743Y0130472D03*
X0172743Y0130945D03*
X0175577Y0129370D03*
X0186916Y0131890D03*
X0191325Y0130630D03*
X0202664Y0131890D03*
X0146286Y0129685D03*
X0139987Y0127953D03*
D20*
X0140223Y0129370D03*
X0140223Y0129528D03*
X0132192Y0129370D03*
X0132034Y0129528D03*
X0132034Y0130000D03*
X0149199Y0130000D03*
X0149199Y0129843D03*
X0152507Y0129843D03*
X0152507Y0130000D03*
X0152507Y0130157D03*
X0152507Y0128898D03*
X0152507Y0128740D03*
X0152507Y0128583D03*
X0175499Y0127953D03*
X0175656Y0131102D03*
X0178963Y0131260D03*
X0178963Y0131417D03*
X0178963Y0131575D03*
X0178963Y0131732D03*
X0178963Y0131890D03*
X0182270Y0130000D03*
X0182270Y0129843D03*
X0182270Y0129685D03*
X0182270Y0129528D03*
X0182270Y0129370D03*
X0182270Y0129213D03*
X0186995Y0128740D03*
X0186995Y0128583D03*
D21*
X0191247Y0128110D03*
X0201483Y0128898D03*
X0175971Y0129055D03*
X0175814Y0129213D03*
X0175341Y0129528D03*
X0175184Y0129685D03*
X0175656Y0131890D03*
X0172664Y0131102D03*
X0172664Y0130315D03*
X0165420Y0130787D03*
X0165420Y0130945D03*
X0162585Y0130945D03*
X0162585Y0131102D03*
X0145735Y0129055D03*
X0143058Y0128110D03*
X0143058Y0130630D03*
X0135341Y0128898D03*
X0135341Y0128740D03*
X0131877Y0127953D03*
D22*
X0168333Y0131102D03*
X0168333Y0131890D03*
X0175577Y0128740D03*
X0175577Y0128583D03*
X0175577Y0128425D03*
X0175577Y0128268D03*
X0175577Y0128110D03*
X0202664Y0131417D03*
D23*
X0158097Y0131417D03*
X0158097Y0131575D03*
X0158097Y0131732D03*
X0158097Y0131890D03*
D24*
X0162743Y0130630D03*
X0165262Y0130472D03*
X0172822Y0130630D03*
X0172822Y0130787D03*
X0175656Y0131732D03*
X0186522Y0129685D03*
X0187310Y0130315D03*
X0186995Y0128110D03*
X0146207Y0129528D03*
X0146050Y0129370D03*
X0145892Y0129213D03*
X0146050Y0130630D03*
X0143058Y0128268D03*
X0140066Y0130630D03*
X0135341Y0129055D03*
X0132034Y0130630D03*
D25*
X0164633Y0130000D03*
X0168255Y0131260D03*
X0168255Y0131417D03*
X0168255Y0131575D03*
X0168255Y0131732D03*
X0198176Y0129055D03*
D26*
X0202664Y0131575D03*
X0178885Y0131102D03*
X0152428Y0130315D03*
X0152428Y0128425D03*
X0149278Y0130157D03*
X0149278Y0130315D03*
X0140302Y0129213D03*
X0140144Y0130000D03*
X0140144Y0130157D03*
X0132113Y0129213D03*
D27*
X0132034Y0130472D03*
X0129042Y0130472D03*
X0135341Y0129213D03*
X0140066Y0128268D03*
X0140066Y0130472D03*
X0143058Y0130315D03*
X0143215Y0130000D03*
X0143215Y0128740D03*
X0143058Y0128425D03*
X0146050Y0128583D03*
X0152349Y0128110D03*
X0152349Y0130630D03*
X0155341Y0130630D03*
X0155341Y0130472D03*
X0155341Y0130315D03*
X0155341Y0130157D03*
X0175656Y0131575D03*
X0186680Y0129843D03*
X0186837Y0130000D03*
X0186995Y0130157D03*
X0186995Y0128268D03*
X0191404Y0128425D03*
X0191404Y0128583D03*
X0191404Y0130157D03*
X0191404Y0130315D03*
D28*
X0191325Y0130787D03*
X0192113Y0129843D03*
X0192270Y0129685D03*
X0192270Y0129055D03*
X0192113Y0128898D03*
X0191325Y0127953D03*
X0187861Y0128898D03*
X0185971Y0129370D03*
X0179199Y0129055D03*
X0179042Y0129370D03*
X0178885Y0129685D03*
X0178727Y0129843D03*
X0178727Y0130000D03*
X0178570Y0130157D03*
X0178570Y0130315D03*
X0178412Y0130472D03*
X0174790Y0130157D03*
X0172428Y0131575D03*
X0165656Y0131575D03*
X0165656Y0131417D03*
X0164081Y0129370D03*
X0162349Y0131575D03*
X0155892Y0129843D03*
X0153530Y0129685D03*
X0153530Y0129055D03*
X0151640Y0129055D03*
X0151640Y0129213D03*
X0151640Y0129528D03*
X0151640Y0129685D03*
X0145499Y0128898D03*
X0142979Y0127953D03*
X0141089Y0128898D03*
X0140932Y0128740D03*
X0141089Y0129843D03*
X0142979Y0130787D03*
X0136522Y0130315D03*
X0136365Y0130000D03*
X0136050Y0129528D03*
X0134633Y0129528D03*
X0134475Y0129843D03*
X0134318Y0130000D03*
X0132900Y0129843D03*
X0129593Y0129843D03*
X0196522Y0130315D03*
X0198097Y0130157D03*
X0197310Y0128740D03*
X0197310Y0128583D03*
X0197310Y0128425D03*
X0198885Y0128583D03*
X0201404Y0129055D03*
X0201247Y0130630D03*
X0201404Y0130787D03*
X0203924Y0130787D03*
X0204081Y0130630D03*
X0204081Y0129213D03*
X0203924Y0129055D03*
D29*
X0197546Y0129843D03*
X0186995Y0131260D03*
X0186995Y0131417D03*
X0186995Y0128425D03*
X0182113Y0129055D03*
X0175656Y0128898D03*
X0175656Y0131260D03*
X0175656Y0131417D03*
X0168570Y0130157D03*
X0168570Y0130000D03*
X0168570Y0129843D03*
X0168570Y0129685D03*
X0152349Y0130472D03*
X0152349Y0128268D03*
X0149357Y0130472D03*
X0140381Y0129055D03*
X0140223Y0128583D03*
X0132034Y0128425D03*
X0132034Y0130157D03*
X0132034Y0130315D03*
D30*
X0132822Y0128740D03*
X0135341Y0128583D03*
X0135341Y0128425D03*
X0140066Y0130787D03*
X0143845Y0129843D03*
X0143845Y0128898D03*
X0162428Y0131417D03*
X0164003Y0129528D03*
X0165577Y0131260D03*
X0172507Y0131417D03*
X0174869Y0130000D03*
X0175026Y0129843D03*
X0186995Y0127953D03*
X0187625Y0130472D03*
X0198176Y0130000D03*
X0198963Y0128898D03*
X0198963Y0128740D03*
X0201483Y0130945D03*
X0203845Y0130945D03*
D31*
X0202585Y0127795D03*
X0195184Y0131260D03*
X0187940Y0129213D03*
X0186207Y0130945D03*
X0184633Y0131260D03*
X0139278Y0128740D03*
X0137861Y0131260D03*
D32*
X0131955Y0130787D03*
X0145971Y0130787D03*
X0146129Y0127953D03*
X0162507Y0131260D03*
X0164081Y0129685D03*
X0165499Y0131102D03*
X0172585Y0131260D03*
X0186286Y0129528D03*
X0197310Y0128898D03*
X0202664Y0127953D03*
X0203766Y0128898D03*
D33*
X0202192Y0128425D03*
X0198097Y0129685D03*
X0158097Y0131260D03*
D34*
X0164003Y0130157D03*
D35*
X0198176Y0129528D03*
X0202113Y0128268D03*
D36*
X0202270Y0128583D03*
X0202428Y0128740D03*
D37*
X0164890Y0112848D02*
X0163680Y0111364D01*
X0164698Y0110346D01*
X0166182Y0111557D01*
X0166779Y0111249D01*
X0167627Y0113295D01*
X0167242Y0113512D01*
X0166920Y0113814D01*
X0166678Y0114184D01*
X0166532Y0114600D01*
X0166489Y0115040D01*
X0166551Y0115477D01*
X0166716Y0115887D01*
X0166973Y0116246D01*
X0167308Y0116534D01*
X0167702Y0116734D01*
X0168133Y0116834D01*
X0168574Y0116829D01*
X0169002Y0116720D01*
X0169392Y0116511D01*
X0169721Y0116217D01*
X0169970Y0115852D01*
X0170126Y0115439D01*
X0170179Y0115000D01*
X0170128Y0114569D01*
X0169978Y0114162D01*
X0169737Y0113801D01*
X0169418Y0113507D01*
X0169040Y0113295D01*
X0169887Y0111249D01*
X0170485Y0111557D01*
X0171969Y0110346D01*
X0172987Y0111364D01*
X0171777Y0112848D01*
X0172085Y0113446D01*
X0172290Y0114087D01*
X0174195Y0114280D01*
X0174195Y0115720D01*
X0172290Y0115913D01*
X0172085Y0116554D01*
X0171777Y0117152D01*
X0172987Y0118636D01*
X0171969Y0119654D01*
X0170485Y0118443D01*
X0169887Y0118751D01*
X0169247Y0118956D01*
X0169053Y0120861D01*
X0167614Y0120861D01*
X0167420Y0118956D01*
X0166780Y0118751D01*
X0166182Y0118443D01*
X0164698Y0119654D01*
X0163680Y0118636D01*
X0164890Y0117152D01*
X0164582Y0116554D01*
X0164377Y0115913D01*
X0162472Y0115720D01*
X0162472Y0114280D01*
X0164377Y0114087D01*
X0164582Y0113446D01*
X0164890Y0112848D01*
X0164804Y0113016D02*
X0167511Y0113016D01*
X0167267Y0112427D02*
X0164546Y0112427D01*
X0164066Y0111837D02*
X0167023Y0111837D01*
X0165804Y0111248D02*
X0163796Y0111248D01*
X0164385Y0110659D02*
X0165081Y0110659D01*
X0169399Y0112427D02*
X0172121Y0112427D01*
X0171863Y0113016D02*
X0169155Y0113016D01*
X0169524Y0113605D02*
X0172135Y0113605D01*
X0173343Y0114194D02*
X0169990Y0114194D01*
X0170153Y0114783D02*
X0174195Y0114783D01*
X0174195Y0115372D02*
X0170134Y0115372D01*
X0169896Y0115961D02*
X0172274Y0115961D01*
X0172086Y0116550D02*
X0169320Y0116550D01*
X0167340Y0116550D02*
X0164581Y0116550D01*
X0164392Y0115961D02*
X0166769Y0115961D01*
X0166536Y0115372D02*
X0162472Y0115372D01*
X0162472Y0114783D02*
X0166514Y0114783D01*
X0166675Y0114194D02*
X0163323Y0114194D01*
X0164531Y0113605D02*
X0167143Y0113605D01*
X0169643Y0111837D02*
X0172601Y0111837D01*
X0172871Y0111248D02*
X0170863Y0111248D01*
X0171585Y0110659D02*
X0172282Y0110659D01*
X0171783Y0117139D02*
X0164884Y0117139D01*
X0164420Y0117728D02*
X0172247Y0117728D01*
X0172727Y0118317D02*
X0163940Y0118317D01*
X0163950Y0118906D02*
X0165614Y0118906D01*
X0164892Y0119495D02*
X0164539Y0119495D01*
X0167264Y0118906D02*
X0169403Y0118906D01*
X0169192Y0119495D02*
X0167475Y0119495D01*
X0167535Y0120084D02*
X0169132Y0120084D01*
X0169072Y0120673D02*
X0167595Y0120673D01*
X0171053Y0118906D02*
X0172716Y0118906D01*
X0172127Y0119495D02*
X0171775Y0119495D01*
D38*
X0118483Y0177874D03*
X0118325Y0177874D03*
X0118168Y0177874D03*
X0118010Y0177874D03*
X0117853Y0177874D03*
X0117696Y0177874D03*
X0117538Y0177874D03*
X0117381Y0177874D03*
X0113129Y0177874D03*
X0112971Y0177874D03*
X0112814Y0177874D03*
X0112656Y0177874D03*
X0112499Y0177874D03*
X0112341Y0177874D03*
X0112184Y0177874D03*
D39*
X0117223Y0163622D03*
X0117223Y0192126D03*
X0185223Y0179559D03*
D40*
X0183491Y0179087D03*
X0182073Y0179402D03*
X0183176Y0182236D03*
X0183333Y0182236D03*
X0182073Y0189008D03*
X0181916Y0189008D03*
X0183176Y0165386D03*
X0183333Y0165386D03*
X0232073Y0174984D03*
X0232231Y0174984D03*
X0232388Y0174984D03*
X0232546Y0174984D03*
X0232703Y0174984D03*
X0232861Y0174984D03*
X0233018Y0174984D03*
X0233176Y0174984D03*
X0233333Y0174984D03*
X0233491Y0174984D03*
X0233648Y0174984D03*
X0233806Y0174984D03*
X0233963Y0174984D03*
X0234121Y0174984D03*
X0234278Y0174984D03*
X0234436Y0174984D03*
X0234593Y0174984D03*
X0234751Y0174984D03*
X0234908Y0174984D03*
X0132751Y0179992D03*
X0132593Y0179992D03*
X0129916Y0179992D03*
X0117223Y0188661D03*
X0113444Y0190079D03*
X0114546Y0192756D03*
X0114703Y0192756D03*
X0129916Y0193063D03*
X0132593Y0193063D03*
X0113286Y0175433D03*
X0113286Y0172598D03*
X0117223Y0167087D03*
X0113444Y0165669D03*
X0114546Y0162992D03*
X0114703Y0162992D03*
D41*
X0114073Y0162835D03*
X0113916Y0162835D03*
X0113444Y0162835D03*
X0113759Y0165669D03*
X0116751Y0167244D03*
X0116908Y0167244D03*
X0117223Y0169921D03*
X0116436Y0172598D03*
X0116278Y0172598D03*
X0116121Y0172598D03*
X0115963Y0172598D03*
X0115806Y0172598D03*
X0115648Y0172598D03*
X0115491Y0172598D03*
X0115333Y0172598D03*
X0115176Y0172598D03*
X0115018Y0172598D03*
X0114861Y0172598D03*
X0114703Y0172598D03*
X0114546Y0172598D03*
X0114388Y0172598D03*
X0114231Y0172598D03*
X0114073Y0172598D03*
X0113916Y0172598D03*
X0113759Y0172598D03*
X0113601Y0172598D03*
X0113444Y0172598D03*
X0113286Y0169921D03*
X0113444Y0175433D03*
X0113601Y0175433D03*
X0113759Y0175433D03*
X0113916Y0175433D03*
X0114073Y0175433D03*
X0114231Y0175433D03*
X0114388Y0175433D03*
X0114546Y0175433D03*
X0114703Y0175433D03*
X0114861Y0175433D03*
X0115018Y0175433D03*
X0115176Y0175433D03*
X0115333Y0175433D03*
X0115491Y0175433D03*
X0115648Y0175433D03*
X0115806Y0175433D03*
X0115963Y0175433D03*
X0116121Y0175433D03*
X0116278Y0175433D03*
X0116436Y0175433D03*
X0113286Y0181732D03*
X0113286Y0185827D03*
X0117223Y0185827D03*
X0116908Y0188504D03*
X0116751Y0188504D03*
X0113759Y0190079D03*
X0113916Y0192913D03*
X0114073Y0192913D03*
X0130388Y0193220D03*
X0130546Y0193220D03*
X0132121Y0193220D03*
X0132278Y0193220D03*
X0133223Y0186606D03*
X0129286Y0186606D03*
X0130388Y0179835D03*
X0130546Y0179835D03*
X0130703Y0179835D03*
X0131963Y0179835D03*
X0132121Y0179835D03*
X0132278Y0179835D03*
X0182231Y0179402D03*
X0182388Y0179402D03*
X0182546Y0179402D03*
X0183018Y0179244D03*
X0183176Y0179244D03*
X0183018Y0175465D03*
X0181286Y0169638D03*
X0185223Y0169638D03*
X0183806Y0165386D03*
X0182703Y0165386D03*
X0182703Y0154992D03*
X0182546Y0154992D03*
X0182388Y0154992D03*
X0182231Y0154992D03*
X0182073Y0154992D03*
X0181916Y0154992D03*
X0181759Y0154992D03*
X0181601Y0154992D03*
X0181444Y0154992D03*
X0182861Y0154992D03*
X0183018Y0154992D03*
X0183176Y0154992D03*
X0183333Y0154992D03*
X0183491Y0154992D03*
X0183648Y0154992D03*
X0183806Y0154992D03*
X0183963Y0154992D03*
X0184121Y0154992D03*
X0184278Y0154992D03*
X0184436Y0154992D03*
X0184593Y0154992D03*
X0184751Y0154992D03*
X0184908Y0154992D03*
X0185066Y0154992D03*
X0185223Y0154992D03*
X0183806Y0182236D03*
X0182703Y0182236D03*
X0182703Y0189165D03*
X0182546Y0189165D03*
X0182861Y0189165D03*
X0183018Y0189165D03*
X0183176Y0189165D03*
X0183333Y0189165D03*
X0183491Y0189165D03*
X0183648Y0189165D03*
X0183806Y0189165D03*
X0183963Y0189165D03*
X0184121Y0189165D03*
X0184278Y0189165D03*
X0184436Y0189165D03*
X0231286Y0189945D03*
X0231286Y0192622D03*
X0235223Y0192622D03*
X0235223Y0185850D03*
X0235066Y0185850D03*
X0234908Y0185850D03*
X0234751Y0185850D03*
X0234593Y0185850D03*
X0232073Y0185850D03*
X0231916Y0185850D03*
X0231759Y0185850D03*
X0231601Y0185850D03*
X0231444Y0185850D03*
X0231286Y0179394D03*
X0235223Y0179394D03*
X0235223Y0171992D03*
X0231444Y0171992D03*
X0231286Y0171992D03*
D42*
X0231444Y0176008D03*
X0231601Y0177425D03*
X0231759Y0177425D03*
X0231916Y0177425D03*
X0232073Y0177425D03*
X0232231Y0177425D03*
X0232388Y0177425D03*
X0232546Y0177425D03*
X0232703Y0177425D03*
X0232861Y0177425D03*
X0233018Y0177425D03*
X0233176Y0177425D03*
X0233333Y0177425D03*
X0233491Y0177425D03*
X0233648Y0177425D03*
X0233806Y0177425D03*
X0233963Y0177425D03*
X0234121Y0177425D03*
X0234278Y0177425D03*
X0234436Y0177425D03*
X0234593Y0177425D03*
X0234751Y0177425D03*
X0234908Y0177425D03*
X0233018Y0178843D03*
X0232861Y0178843D03*
X0233648Y0179945D03*
X0233648Y0187976D03*
X0233491Y0187976D03*
X0233333Y0187976D03*
X0233176Y0187976D03*
X0233018Y0187976D03*
X0232861Y0187976D03*
X0232703Y0187976D03*
X0232546Y0187976D03*
X0232388Y0187976D03*
X0232231Y0187976D03*
X0232073Y0187976D03*
X0231916Y0187976D03*
X0231759Y0187976D03*
X0231601Y0187976D03*
X0231444Y0187976D03*
X0233018Y0189394D03*
X0233491Y0190654D03*
X0233806Y0187976D03*
X0233963Y0187976D03*
X0234121Y0187976D03*
X0234278Y0187976D03*
X0234436Y0187976D03*
X0234593Y0187976D03*
X0234751Y0187976D03*
X0234908Y0187976D03*
X0235066Y0187976D03*
X0185223Y0188457D03*
X0184751Y0188457D03*
X0184593Y0188457D03*
X0184121Y0184362D03*
X0183963Y0184362D03*
X0183806Y0184362D03*
X0182703Y0184362D03*
X0181759Y0175386D03*
X0182073Y0175228D03*
X0184436Y0175228D03*
X0184593Y0175386D03*
X0184751Y0175386D03*
X0184751Y0171606D03*
X0184908Y0171606D03*
X0185066Y0171606D03*
X0184593Y0171606D03*
X0184436Y0171606D03*
X0184278Y0171606D03*
X0184121Y0171606D03*
X0183963Y0171606D03*
X0183806Y0171606D03*
X0183648Y0171606D03*
X0183491Y0171606D03*
X0183333Y0171606D03*
X0183176Y0171606D03*
X0183018Y0171606D03*
X0182861Y0171606D03*
X0182703Y0171606D03*
X0182546Y0171606D03*
X0182388Y0171606D03*
X0182231Y0171606D03*
X0182073Y0171606D03*
X0181916Y0171606D03*
X0181759Y0171606D03*
X0181601Y0171606D03*
X0183491Y0170189D03*
X0183648Y0170189D03*
X0182861Y0169087D03*
X0182703Y0167512D03*
X0182546Y0167512D03*
X0182388Y0167512D03*
X0183806Y0167512D03*
X0183963Y0167512D03*
X0184121Y0167512D03*
X0183806Y0163102D03*
X0183648Y0163102D03*
X0183491Y0163102D03*
X0183333Y0163102D03*
X0183176Y0163102D03*
X0183018Y0163102D03*
X0182861Y0163102D03*
X0182703Y0163102D03*
X0183176Y0159165D03*
X0183333Y0159165D03*
X0184278Y0159165D03*
X0184436Y0159165D03*
X0184593Y0159165D03*
X0133066Y0188575D03*
X0132908Y0188575D03*
X0132751Y0188575D03*
X0132593Y0188575D03*
X0132436Y0188575D03*
X0132278Y0188575D03*
X0132121Y0188575D03*
X0131963Y0188575D03*
X0131806Y0188575D03*
X0131648Y0188575D03*
X0131491Y0188575D03*
X0131333Y0188575D03*
X0131176Y0188575D03*
X0131018Y0188575D03*
X0130861Y0188575D03*
X0130703Y0188575D03*
X0130546Y0188575D03*
X0130388Y0188575D03*
X0130231Y0188575D03*
X0130073Y0188575D03*
X0129916Y0188575D03*
X0129759Y0188575D03*
X0129601Y0188575D03*
X0131491Y0187157D03*
X0131648Y0187157D03*
X0130861Y0186055D03*
X0130861Y0184480D03*
X0131018Y0184480D03*
X0131176Y0184480D03*
X0131333Y0184480D03*
X0131491Y0184480D03*
X0130703Y0184480D03*
X0130546Y0184480D03*
X0130388Y0184480D03*
X0130231Y0184480D03*
X0130073Y0184480D03*
X0129916Y0184480D03*
X0129759Y0184480D03*
X0117066Y0183858D03*
X0116908Y0183858D03*
X0116751Y0183858D03*
X0116593Y0183858D03*
X0116436Y0183858D03*
X0116278Y0183858D03*
X0116121Y0183858D03*
X0115963Y0183858D03*
X0115806Y0183858D03*
X0115648Y0183858D03*
X0115491Y0183858D03*
X0115333Y0183858D03*
X0115176Y0183858D03*
X0115018Y0183858D03*
X0114861Y0183858D03*
X0114703Y0183858D03*
X0114546Y0183858D03*
X0114388Y0183858D03*
X0114231Y0183858D03*
X0114073Y0183858D03*
X0113916Y0183858D03*
X0113759Y0183858D03*
X0113601Y0183858D03*
X0113444Y0183858D03*
X0114861Y0185276D03*
X0115018Y0185276D03*
X0115648Y0186378D03*
X0113916Y0187795D03*
X0113759Y0187795D03*
X0113601Y0187795D03*
X0113444Y0187795D03*
X0115176Y0190000D03*
X0115491Y0182441D03*
X0115018Y0181181D03*
X0114073Y0179764D03*
X0113916Y0179764D03*
X0113759Y0179764D03*
X0113601Y0179764D03*
X0113444Y0179764D03*
X0116593Y0179764D03*
X0116751Y0179764D03*
X0116908Y0179764D03*
X0117066Y0179764D03*
X0117223Y0179764D03*
X0117223Y0176142D03*
X0116593Y0176142D03*
X0116751Y0171890D03*
X0116908Y0171890D03*
X0117066Y0171890D03*
X0117223Y0171890D03*
X0115648Y0170472D03*
X0115018Y0169370D03*
X0114861Y0169370D03*
X0113916Y0167953D03*
X0113759Y0167953D03*
X0113601Y0167953D03*
X0113444Y0167953D03*
X0115176Y0165748D03*
D43*
X0113916Y0165748D03*
X0116436Y0167323D03*
X0116593Y0167323D03*
X0113759Y0162756D03*
X0113601Y0162756D03*
X0130861Y0179756D03*
X0131018Y0179756D03*
X0131176Y0179756D03*
X0131333Y0179756D03*
X0131491Y0179756D03*
X0131648Y0179756D03*
X0131806Y0179756D03*
X0129444Y0186528D03*
X0130703Y0193299D03*
X0130861Y0193299D03*
X0131018Y0193299D03*
X0131176Y0193299D03*
X0131333Y0193299D03*
X0131491Y0193299D03*
X0131648Y0193299D03*
X0131806Y0193299D03*
X0131963Y0193299D03*
X0116593Y0188425D03*
X0116436Y0188425D03*
X0116278Y0188425D03*
X0113916Y0190000D03*
X0113759Y0192992D03*
X0113601Y0192992D03*
X0113444Y0192992D03*
X0117066Y0181811D03*
X0117223Y0181811D03*
X0181601Y0184362D03*
X0182861Y0186409D03*
X0183018Y0186409D03*
X0183176Y0186409D03*
X0183333Y0186409D03*
X0183491Y0186409D03*
X0183648Y0186409D03*
X0183806Y0186409D03*
X0183963Y0186409D03*
X0184121Y0186409D03*
X0184278Y0186409D03*
X0184436Y0186409D03*
X0184593Y0186409D03*
X0184751Y0186409D03*
X0184908Y0186409D03*
X0185066Y0186409D03*
X0185223Y0186409D03*
X0183963Y0182157D03*
X0182861Y0179323D03*
X0182703Y0179323D03*
X0181444Y0169559D03*
X0181286Y0167039D03*
X0183963Y0165307D03*
X0185223Y0167039D03*
X0181286Y0163732D03*
X0181286Y0161213D03*
X0185223Y0161213D03*
X0231601Y0171913D03*
X0231759Y0171913D03*
X0231916Y0171913D03*
X0232073Y0171913D03*
X0232231Y0171913D03*
X0232388Y0171913D03*
X0232546Y0171913D03*
X0232703Y0171913D03*
X0232861Y0171913D03*
X0233018Y0171913D03*
X0233176Y0171913D03*
X0233333Y0171913D03*
X0233491Y0171913D03*
X0233648Y0171913D03*
X0233806Y0171913D03*
X0233963Y0171913D03*
X0234121Y0171913D03*
X0234278Y0171913D03*
X0234436Y0171913D03*
X0234593Y0171913D03*
X0234751Y0171913D03*
X0234908Y0171913D03*
X0235066Y0171913D03*
X0235066Y0190024D03*
X0235223Y0190024D03*
X0235066Y0192701D03*
X0234908Y0192701D03*
X0234751Y0192701D03*
X0234593Y0192701D03*
X0234436Y0192701D03*
X0234278Y0192701D03*
X0234121Y0192701D03*
X0233963Y0192701D03*
X0233806Y0192701D03*
X0233648Y0192701D03*
X0233491Y0192701D03*
X0233333Y0192701D03*
X0233176Y0192701D03*
X0233018Y0192701D03*
X0232861Y0192701D03*
X0232703Y0192701D03*
X0232546Y0192701D03*
X0232388Y0192701D03*
X0232231Y0192701D03*
X0232073Y0192701D03*
X0231916Y0192701D03*
X0231759Y0192701D03*
X0231601Y0192701D03*
X0231444Y0192701D03*
X0185223Y0193339D03*
X0184751Y0193339D03*
X0184593Y0193339D03*
D44*
X0184436Y0184283D03*
X0184278Y0184283D03*
X0182546Y0184441D03*
X0182388Y0184441D03*
X0184436Y0176882D03*
X0184908Y0175465D03*
X0181601Y0175465D03*
X0181444Y0171685D03*
X0183806Y0170110D03*
X0182703Y0169165D03*
X0182231Y0167433D03*
X0182073Y0167433D03*
X0184278Y0167433D03*
X0184436Y0167433D03*
X0184278Y0163181D03*
X0184121Y0163181D03*
X0183963Y0163181D03*
X0182546Y0163181D03*
X0182388Y0163181D03*
X0182231Y0163181D03*
X0183018Y0159087D03*
X0184751Y0159087D03*
X0185223Y0171685D03*
X0231286Y0175929D03*
X0231286Y0177346D03*
X0231444Y0177346D03*
X0232703Y0178921D03*
X0233806Y0179866D03*
X0233806Y0181441D03*
X0233963Y0181441D03*
X0234121Y0181441D03*
X0234278Y0181441D03*
X0234436Y0181441D03*
X0234593Y0181441D03*
X0234751Y0181441D03*
X0234908Y0181441D03*
X0235066Y0181441D03*
X0235223Y0181441D03*
X0233648Y0181441D03*
X0233491Y0181441D03*
X0233333Y0181441D03*
X0233176Y0181441D03*
X0233018Y0181441D03*
X0232861Y0181441D03*
X0232703Y0181441D03*
X0232546Y0181441D03*
X0232388Y0181441D03*
X0232231Y0181441D03*
X0232073Y0181441D03*
X0231916Y0181441D03*
X0231759Y0181441D03*
X0231601Y0181441D03*
X0231444Y0181441D03*
X0235066Y0177346D03*
X0235223Y0177346D03*
X0235223Y0187898D03*
X0232861Y0189472D03*
X0232703Y0189472D03*
X0233648Y0190575D03*
X0133223Y0188654D03*
X0131806Y0187079D03*
X0130703Y0186134D03*
X0131648Y0184402D03*
X0132436Y0184402D03*
X0132593Y0184402D03*
X0132751Y0184402D03*
X0132908Y0184402D03*
X0129601Y0184402D03*
X0129444Y0188654D03*
X0130231Y0190228D03*
X0117223Y0183780D03*
X0115648Y0182362D03*
X0114861Y0181260D03*
X0114703Y0181260D03*
X0116436Y0179685D03*
X0113286Y0183780D03*
X0114703Y0185354D03*
X0115806Y0186299D03*
X0114231Y0187874D03*
X0114073Y0187874D03*
X0115018Y0190079D03*
X0116593Y0171969D03*
X0115806Y0170394D03*
X0114703Y0169449D03*
X0114231Y0167874D03*
X0114073Y0167874D03*
X0113286Y0167874D03*
X0115018Y0165669D03*
D45*
X0116908Y0163543D03*
X0117066Y0163543D03*
X0133381Y0180543D03*
X0129286Y0192512D03*
X0117066Y0192205D03*
X0116908Y0192205D03*
X0181286Y0192551D03*
X0181444Y0179480D03*
X0183806Y0178535D03*
D46*
X0183333Y0179165D03*
X0183491Y0182157D03*
X0183648Y0182157D03*
X0183018Y0182157D03*
X0182861Y0182157D03*
X0181444Y0184362D03*
X0182231Y0189087D03*
X0182388Y0189087D03*
X0182861Y0165307D03*
X0183018Y0165307D03*
X0183491Y0165307D03*
X0183648Y0165307D03*
X0181286Y0155071D03*
X0132436Y0179913D03*
X0130231Y0179913D03*
X0130073Y0179913D03*
X0117066Y0188583D03*
X0113601Y0190000D03*
X0113286Y0192835D03*
X0114231Y0192835D03*
X0114388Y0192835D03*
X0130073Y0193142D03*
X0130231Y0193142D03*
X0132436Y0193142D03*
X0117066Y0167165D03*
X0113601Y0165748D03*
X0113286Y0162913D03*
X0114231Y0162913D03*
X0114388Y0162913D03*
X0231286Y0185772D03*
X0234436Y0185772D03*
D47*
X0234908Y0190102D03*
X0231601Y0189945D03*
X0231444Y0189945D03*
X0231444Y0179394D03*
X0235066Y0179394D03*
X0185223Y0183811D03*
X0182546Y0182236D03*
X0183176Y0175307D03*
X0185066Y0169638D03*
X0182546Y0165386D03*
X0185223Y0163654D03*
X0185066Y0161134D03*
X0181444Y0161134D03*
X0182388Y0158614D03*
X0133066Y0186606D03*
X0131648Y0190701D03*
X0131491Y0190701D03*
X0131333Y0190701D03*
X0131176Y0190701D03*
X0131018Y0190701D03*
X0130861Y0182512D03*
X0130703Y0182512D03*
X0116908Y0181890D03*
X0113601Y0181732D03*
X0113444Y0181732D03*
X0113444Y0185827D03*
X0115963Y0188346D03*
X0116121Y0188346D03*
X0114073Y0190079D03*
X0117066Y0185827D03*
X0117066Y0169921D03*
X0116278Y0167402D03*
X0116121Y0167402D03*
X0115963Y0167402D03*
X0114073Y0165669D03*
X0113444Y0169921D03*
X0184908Y0193417D03*
X0185066Y0193417D03*
D48*
X0185066Y0188378D03*
X0184908Y0188378D03*
X0183648Y0184441D03*
X0183491Y0184441D03*
X0183333Y0184441D03*
X0183176Y0184441D03*
X0183018Y0184441D03*
X0182861Y0184441D03*
X0181916Y0175307D03*
X0183333Y0170268D03*
X0183176Y0169008D03*
X0183018Y0169008D03*
X0183018Y0167591D03*
X0182861Y0167591D03*
X0183176Y0167591D03*
X0183333Y0167591D03*
X0183491Y0167591D03*
X0183648Y0167591D03*
X0183648Y0159244D03*
X0183491Y0159244D03*
X0183806Y0159244D03*
X0183963Y0159244D03*
X0184121Y0159244D03*
X0231601Y0175929D03*
X0231759Y0175929D03*
X0231916Y0175929D03*
X0233176Y0178764D03*
X0233333Y0180024D03*
X0233491Y0180024D03*
X0233176Y0189315D03*
X0233176Y0190732D03*
X0233333Y0190732D03*
X0131333Y0187236D03*
X0131176Y0185976D03*
X0131018Y0185976D03*
X0115491Y0186457D03*
X0115333Y0186457D03*
X0115176Y0185197D03*
X0115176Y0182520D03*
X0115333Y0182520D03*
X0115176Y0181102D03*
X0116751Y0176220D03*
X0116908Y0176220D03*
X0117066Y0176220D03*
X0115491Y0170551D03*
X0115333Y0170551D03*
X0115176Y0169291D03*
X0115333Y0165669D03*
X0115333Y0190079D03*
X0115491Y0190079D03*
D49*
X0115648Y0188268D03*
X0115806Y0188268D03*
X0116908Y0185906D03*
X0113759Y0185748D03*
X0113601Y0185748D03*
X0113759Y0181654D03*
X0116751Y0181969D03*
X0129601Y0186528D03*
X0132751Y0186685D03*
X0132908Y0186685D03*
X0131806Y0190622D03*
X0130861Y0190622D03*
X0130703Y0190622D03*
X0130546Y0182591D03*
X0116908Y0170000D03*
X0115806Y0167480D03*
X0115648Y0167480D03*
X0113759Y0169843D03*
X0113601Y0169843D03*
X0181444Y0167197D03*
X0181601Y0169559D03*
X0184751Y0169717D03*
X0184908Y0169717D03*
X0184121Y0165307D03*
X0185066Y0163575D03*
X0184908Y0161213D03*
X0184751Y0161213D03*
X0184593Y0161213D03*
X0184436Y0161213D03*
X0184278Y0161213D03*
X0184121Y0161213D03*
X0183963Y0161213D03*
X0183806Y0161213D03*
X0182861Y0161213D03*
X0182703Y0161213D03*
X0182546Y0161213D03*
X0182388Y0161213D03*
X0182231Y0161213D03*
X0182073Y0161213D03*
X0181916Y0161213D03*
X0181759Y0161213D03*
X0181601Y0161213D03*
X0181444Y0163575D03*
X0185223Y0158850D03*
X0182546Y0176803D03*
X0184121Y0182157D03*
X0181759Y0184362D03*
X0182546Y0186409D03*
X0182703Y0186409D03*
X0231759Y0189866D03*
X0234751Y0190181D03*
X0234908Y0179472D03*
X0231759Y0179315D03*
X0231601Y0179315D03*
D50*
X0185066Y0179559D03*
X0181286Y0188693D03*
X0181444Y0192630D03*
X0181601Y0192630D03*
X0181759Y0192630D03*
X0181916Y0192630D03*
X0182073Y0192630D03*
X0182231Y0192630D03*
X0182388Y0192630D03*
X0182546Y0192630D03*
X0182703Y0192630D03*
X0182861Y0192630D03*
X0183018Y0192630D03*
X0183176Y0192630D03*
X0183333Y0192630D03*
X0183491Y0192630D03*
X0183648Y0192630D03*
X0183806Y0192630D03*
X0183963Y0192630D03*
X0184121Y0192630D03*
X0184278Y0192630D03*
X0184436Y0192630D03*
X0129286Y0180465D03*
X0116751Y0192283D03*
X0116593Y0192283D03*
X0116593Y0163465D03*
X0116436Y0163465D03*
X0116751Y0163465D03*
D51*
X0115491Y0167559D03*
X0115333Y0167559D03*
X0113916Y0169764D03*
X0116593Y0170079D03*
X0116751Y0170079D03*
X0114861Y0179370D03*
X0113916Y0181575D03*
X0116436Y0182047D03*
X0116593Y0182047D03*
X0113916Y0185669D03*
X0116593Y0185984D03*
X0116751Y0185984D03*
X0115491Y0188189D03*
X0115333Y0188189D03*
X0129286Y0184244D03*
X0130388Y0182669D03*
X0133223Y0184244D03*
X0132593Y0186764D03*
X0129916Y0186449D03*
X0129759Y0186449D03*
X0130546Y0190543D03*
X0131963Y0190543D03*
X0182388Y0182236D03*
X0185066Y0183969D03*
X0181286Y0175622D03*
X0183333Y0175150D03*
X0183491Y0175150D03*
X0183648Y0174992D03*
X0184593Y0169795D03*
X0181916Y0169480D03*
X0181759Y0169480D03*
X0185066Y0167118D03*
X0182388Y0165386D03*
X0181601Y0163496D03*
X0183806Y0157512D03*
X0183963Y0157512D03*
X0231916Y0179236D03*
X0234593Y0179551D03*
X0234751Y0179551D03*
X0231916Y0189787D03*
X0234436Y0190260D03*
X0234593Y0190260D03*
D52*
X0234278Y0190339D03*
X0232231Y0189709D03*
X0232073Y0189709D03*
X0234436Y0179630D03*
X0232073Y0179157D03*
X0185223Y0175543D03*
X0182388Y0176961D03*
X0184436Y0169874D03*
X0182073Y0169402D03*
X0181601Y0167197D03*
X0184908Y0167197D03*
X0184908Y0163417D03*
X0181759Y0163417D03*
X0182546Y0158850D03*
X0183491Y0157433D03*
X0183648Y0157433D03*
X0184121Y0157433D03*
X0184908Y0184047D03*
X0181916Y0184362D03*
X0182388Y0186409D03*
X0132436Y0186843D03*
X0130073Y0186370D03*
X0130388Y0190465D03*
X0132121Y0190465D03*
X0132278Y0182748D03*
X0131648Y0182118D03*
X0116278Y0182126D03*
X0114231Y0181496D03*
X0114073Y0181496D03*
X0115018Y0179449D03*
X0115176Y0179449D03*
X0115333Y0179449D03*
X0115491Y0179449D03*
X0115648Y0179449D03*
X0114073Y0185591D03*
X0116436Y0186063D03*
X0115176Y0188110D03*
X0115018Y0188110D03*
X0116436Y0170157D03*
X0114073Y0169685D03*
X0115018Y0167638D03*
X0115176Y0167638D03*
D53*
X0116121Y0163386D03*
X0116278Y0163386D03*
X0133223Y0180386D03*
X0131963Y0183220D03*
X0131806Y0183220D03*
X0133223Y0192669D03*
X0116436Y0192362D03*
X0116278Y0192362D03*
X0116121Y0192362D03*
D54*
X0114861Y0188031D03*
X0114703Y0188031D03*
X0116278Y0186142D03*
X0114388Y0185512D03*
X0114231Y0185512D03*
X0116121Y0182205D03*
X0114388Y0181417D03*
X0116278Y0170236D03*
X0114388Y0169606D03*
X0114231Y0169606D03*
X0114703Y0167717D03*
X0114861Y0167717D03*
X0131018Y0182039D03*
X0131176Y0182039D03*
X0131333Y0182039D03*
X0131491Y0182039D03*
X0129444Y0184402D03*
X0130231Y0186291D03*
X0132121Y0186921D03*
X0132278Y0186921D03*
X0132278Y0190386D03*
X0182073Y0184441D03*
X0184751Y0184126D03*
X0184278Y0182236D03*
X0184278Y0169953D03*
X0184121Y0169953D03*
X0182231Y0169323D03*
X0181759Y0167276D03*
X0184751Y0167276D03*
X0184278Y0165386D03*
X0184593Y0163339D03*
X0184751Y0163339D03*
X0181916Y0163339D03*
X0182703Y0158929D03*
X0184278Y0157354D03*
X0185066Y0158929D03*
X0232231Y0179079D03*
X0232388Y0179079D03*
X0234278Y0179709D03*
X0232388Y0189630D03*
X0234121Y0190417D03*
D55*
X0232861Y0185457D03*
X0184908Y0179480D03*
X0183648Y0178850D03*
X0181759Y0179480D03*
X0182388Y0174283D03*
X0183806Y0174283D03*
X0181286Y0184362D03*
X0181444Y0188772D03*
X0133066Y0192827D03*
X0115648Y0192520D03*
X0115491Y0192520D03*
X0133066Y0180228D03*
X0116278Y0178661D03*
X0116121Y0178661D03*
X0115963Y0178661D03*
X0115806Y0178661D03*
X0114703Y0178661D03*
X0114546Y0178661D03*
X0114388Y0178661D03*
X0114231Y0178661D03*
X0115491Y0163228D03*
X0115648Y0163228D03*
X0181444Y0158220D03*
D56*
X0182861Y0159008D03*
X0184908Y0159008D03*
X0184436Y0163260D03*
X0182073Y0163260D03*
X0182231Y0165307D03*
X0181916Y0167354D03*
X0182388Y0169244D03*
X0182546Y0169244D03*
X0183963Y0170031D03*
X0184593Y0167354D03*
X0181286Y0171606D03*
X0181444Y0175543D03*
X0182231Y0176961D03*
X0184278Y0176961D03*
X0185066Y0175543D03*
X0182231Y0182157D03*
X0182231Y0184362D03*
X0182231Y0186409D03*
X0184593Y0184205D03*
X0231286Y0181362D03*
X0232546Y0179000D03*
X0233963Y0179787D03*
X0234121Y0179787D03*
X0231286Y0187976D03*
X0232546Y0189551D03*
X0233806Y0190496D03*
X0233963Y0190496D03*
X0133066Y0184323D03*
X0132278Y0184323D03*
X0130546Y0186213D03*
X0130388Y0186213D03*
X0131963Y0187000D03*
X0129286Y0188575D03*
X0130231Y0182748D03*
X0115963Y0182283D03*
X0115806Y0182283D03*
X0114546Y0181339D03*
X0113286Y0179764D03*
X0114546Y0185433D03*
X0115963Y0186220D03*
X0116121Y0186220D03*
X0114546Y0187953D03*
X0114388Y0187953D03*
X0113286Y0187795D03*
X0115963Y0170315D03*
X0116121Y0170315D03*
X0114546Y0169528D03*
X0114546Y0167795D03*
X0114388Y0167795D03*
D57*
X0115806Y0163307D03*
X0115963Y0163307D03*
X0129444Y0180307D03*
X0132121Y0183299D03*
X0129444Y0192748D03*
X0115963Y0192441D03*
X0115806Y0192441D03*
X0181601Y0179559D03*
X0182546Y0174362D03*
X0181286Y0158142D03*
D58*
X0181601Y0158142D03*
X0181759Y0158142D03*
X0181916Y0158142D03*
X0182073Y0158142D03*
X0182231Y0158142D03*
X0182231Y0174205D03*
X0182861Y0175622D03*
X0183963Y0174205D03*
X0184121Y0174205D03*
X0184278Y0174205D03*
X0184278Y0179087D03*
X0184436Y0179244D03*
X0184593Y0179402D03*
X0184751Y0179402D03*
X0181601Y0188850D03*
X0132908Y0192906D03*
X0129601Y0192906D03*
X0115333Y0192598D03*
X0115176Y0192598D03*
X0129601Y0180150D03*
X0132908Y0180150D03*
X0115333Y0163150D03*
X0115176Y0163150D03*
X0233018Y0185535D03*
X0233176Y0185535D03*
X0233333Y0185535D03*
X0233491Y0185535D03*
X0233648Y0185535D03*
X0235223Y0174984D03*
D59*
X0235066Y0174906D03*
X0181916Y0179480D03*
X0181759Y0188929D03*
X0132751Y0192984D03*
X0129759Y0192984D03*
X0115018Y0192677D03*
X0114861Y0192677D03*
X0113286Y0190000D03*
X0129759Y0180071D03*
X0113286Y0165748D03*
X0114861Y0163071D03*
X0115018Y0163071D03*
D60*
X0128184Y0186528D03*
X0128341Y0186528D03*
X0128499Y0186528D03*
X0128656Y0186528D03*
X0128814Y0186528D03*
X0128971Y0186528D03*
X0129129Y0186528D03*
X0133538Y0186528D03*
X0133696Y0186528D03*
X0133853Y0186528D03*
X0134010Y0186528D03*
X0134168Y0186528D03*
X0134325Y0186528D03*
X0134483Y0186528D03*
D61*
X0133381Y0188654D03*
X0185381Y0159559D03*
D62*
X0230184Y0182307D03*
X0230341Y0182307D03*
X0230499Y0182307D03*
X0230656Y0182307D03*
X0230814Y0182307D03*
X0230971Y0182307D03*
X0231129Y0182307D03*
X0235381Y0182307D03*
X0235538Y0182307D03*
X0235696Y0182307D03*
X0235853Y0182307D03*
X0236010Y0182307D03*
X0236168Y0182307D03*
X0236325Y0182307D03*
X0236483Y0182307D03*
D63*
X0234278Y0184748D03*
X0234121Y0184748D03*
X0233963Y0184748D03*
X0233806Y0184748D03*
X0232703Y0184748D03*
X0232546Y0184748D03*
X0232388Y0184748D03*
X0232231Y0184748D03*
D64*
X0186483Y0174126D03*
X0186325Y0174126D03*
X0186168Y0174126D03*
X0186010Y0174126D03*
X0185853Y0174126D03*
X0185696Y0174126D03*
X0185538Y0174126D03*
X0181129Y0174126D03*
X0180971Y0174126D03*
X0180814Y0174126D03*
X0180656Y0174126D03*
X0180499Y0174126D03*
X0180341Y0174126D03*
X0180184Y0174126D03*
D65*
X0185381Y0171055D03*
D66*
X0185381Y0179638D03*
D67*
X0185381Y0188378D03*
D68*
X0181286Y0179480D03*
X0184121Y0178378D03*
D69*
X0183963Y0178457D03*
D70*
X0182703Y0175150D03*
D71*
X0186333Y0144982D02*
X0158376Y0144982D01*
X0150333Y0144982D01*
X0150333Y0139515D01*
X0150333Y0135018D01*
X0158700Y0135018D01*
X0158700Y0135943D01*
X0158376Y0135943D01*
X0158376Y0139515D01*
X0155341Y0139515D01*
X0156666Y0137584D01*
X0155460Y0137584D01*
X0154369Y0139240D01*
X0153285Y0137584D01*
X0152036Y0137584D01*
X0153353Y0139515D01*
X0150333Y0139515D01*
X0153353Y0139515D01*
X0153721Y0140054D01*
X0152108Y0142412D01*
X0153314Y0142412D01*
X0154337Y0140846D01*
X0155352Y0142412D01*
X0156594Y0142412D01*
X0154981Y0140040D01*
X0155341Y0139515D01*
X0158376Y0139515D01*
X0158376Y0144057D01*
X0185408Y0144057D01*
X0185408Y0135943D01*
X0158700Y0135943D01*
X0158700Y0135018D01*
X0186333Y0135018D01*
X0186333Y0144982D01*
X0186333Y0144968D02*
X0150333Y0144968D01*
X0150333Y0144930D02*
X0186333Y0144930D01*
X0186333Y0144892D02*
X0150333Y0144892D01*
X0150333Y0144854D02*
X0186333Y0144854D01*
X0186333Y0144816D02*
X0150333Y0144816D01*
X0150333Y0144779D02*
X0186333Y0144779D01*
X0186333Y0144741D02*
X0150333Y0144741D01*
X0150333Y0144703D02*
X0186333Y0144703D01*
X0186333Y0144665D02*
X0150333Y0144665D01*
X0150333Y0144627D02*
X0186333Y0144627D01*
X0186333Y0144589D02*
X0150333Y0144589D01*
X0150333Y0144551D02*
X0186333Y0144551D01*
X0186333Y0144513D02*
X0150333Y0144513D01*
X0150333Y0144476D02*
X0186333Y0144476D01*
X0186333Y0144438D02*
X0150333Y0144438D01*
X0150333Y0144400D02*
X0186333Y0144400D01*
X0186333Y0144362D02*
X0150333Y0144362D01*
X0150333Y0144324D02*
X0186333Y0144324D01*
X0186333Y0144286D02*
X0150333Y0144286D01*
X0150333Y0144248D02*
X0186333Y0144248D01*
X0186333Y0144210D02*
X0150333Y0144210D01*
X0150333Y0144172D02*
X0186333Y0144172D01*
X0186333Y0144135D02*
X0150333Y0144135D01*
X0150333Y0144097D02*
X0186333Y0144097D01*
X0186333Y0144059D02*
X0150333Y0144059D01*
X0150333Y0144021D02*
X0158376Y0144021D01*
X0158376Y0143983D02*
X0150333Y0143983D01*
X0150333Y0143945D02*
X0158376Y0143945D01*
X0158376Y0143907D02*
X0150333Y0143907D01*
X0150333Y0143869D02*
X0158376Y0143869D01*
X0158376Y0143832D02*
X0150333Y0143832D01*
X0150333Y0143794D02*
X0158376Y0143794D01*
X0158376Y0143756D02*
X0150333Y0143756D01*
X0150333Y0143718D02*
X0158376Y0143718D01*
X0158376Y0143680D02*
X0150333Y0143680D01*
X0150333Y0143642D02*
X0158376Y0143642D01*
X0158376Y0143604D02*
X0150333Y0143604D01*
X0150333Y0143566D02*
X0158376Y0143566D01*
X0158376Y0143528D02*
X0150333Y0143528D01*
X0150333Y0143491D02*
X0158376Y0143491D01*
X0158376Y0143453D02*
X0150333Y0143453D01*
X0150333Y0143415D02*
X0158376Y0143415D01*
X0158376Y0143377D02*
X0150333Y0143377D01*
X0150333Y0143339D02*
X0158376Y0143339D01*
X0158376Y0143301D02*
X0150333Y0143301D01*
X0150333Y0143263D02*
X0158376Y0143263D01*
X0158376Y0143225D02*
X0150333Y0143225D01*
X0150333Y0143188D02*
X0158376Y0143188D01*
X0158376Y0143150D02*
X0150333Y0143150D01*
X0150333Y0143112D02*
X0158376Y0143112D01*
X0158376Y0143074D02*
X0150333Y0143074D01*
X0150333Y0143036D02*
X0158376Y0143036D01*
X0158376Y0142998D02*
X0150333Y0142998D01*
X0150333Y0142960D02*
X0158376Y0142960D01*
X0158376Y0142922D02*
X0150333Y0142922D01*
X0150333Y0142884D02*
X0158376Y0142884D01*
X0158376Y0142847D02*
X0150333Y0142847D01*
X0150333Y0142809D02*
X0158376Y0142809D01*
X0158376Y0142771D02*
X0150333Y0142771D01*
X0150333Y0142733D02*
X0158376Y0142733D01*
X0158376Y0142695D02*
X0150333Y0142695D01*
X0150333Y0142657D02*
X0158376Y0142657D01*
X0158376Y0142619D02*
X0150333Y0142619D01*
X0150333Y0142581D02*
X0158376Y0142581D01*
X0158376Y0142544D02*
X0150333Y0142544D01*
X0150333Y0142506D02*
X0158376Y0142506D01*
X0158376Y0142468D02*
X0150333Y0142468D01*
X0150333Y0142430D02*
X0158376Y0142430D01*
X0158376Y0142392D02*
X0156580Y0142392D01*
X0156554Y0142354D02*
X0158376Y0142354D01*
X0158376Y0142316D02*
X0156529Y0142316D01*
X0156503Y0142278D02*
X0158376Y0142278D01*
X0158376Y0142241D02*
X0156477Y0142241D01*
X0156451Y0142203D02*
X0158376Y0142203D01*
X0158376Y0142165D02*
X0156426Y0142165D01*
X0156400Y0142127D02*
X0158376Y0142127D01*
X0158376Y0142089D02*
X0156374Y0142089D01*
X0156348Y0142051D02*
X0158376Y0142051D01*
X0158376Y0142013D02*
X0156323Y0142013D01*
X0156297Y0141975D02*
X0158376Y0141975D01*
X0158376Y0141937D02*
X0156271Y0141937D01*
X0156245Y0141900D02*
X0158376Y0141900D01*
X0158376Y0141862D02*
X0156220Y0141862D01*
X0156194Y0141824D02*
X0158376Y0141824D01*
X0158376Y0141786D02*
X0156168Y0141786D01*
X0156142Y0141748D02*
X0158376Y0141748D01*
X0158376Y0141710D02*
X0156117Y0141710D01*
X0156091Y0141672D02*
X0158376Y0141672D01*
X0158376Y0141634D02*
X0156065Y0141634D01*
X0156039Y0141597D02*
X0158376Y0141597D01*
X0158376Y0141559D02*
X0156014Y0141559D01*
X0155988Y0141521D02*
X0158376Y0141521D01*
X0158376Y0141483D02*
X0155962Y0141483D01*
X0155936Y0141445D02*
X0158376Y0141445D01*
X0158376Y0141407D02*
X0155911Y0141407D01*
X0155885Y0141369D02*
X0158376Y0141369D01*
X0158376Y0141331D02*
X0155859Y0141331D01*
X0155833Y0141293D02*
X0158376Y0141293D01*
X0158376Y0141256D02*
X0155808Y0141256D01*
X0155782Y0141218D02*
X0158376Y0141218D01*
X0158376Y0141180D02*
X0155756Y0141180D01*
X0155730Y0141142D02*
X0158376Y0141142D01*
X0158376Y0141104D02*
X0155705Y0141104D01*
X0155679Y0141066D02*
X0158376Y0141066D01*
X0158376Y0141028D02*
X0155653Y0141028D01*
X0155627Y0140990D02*
X0158376Y0140990D01*
X0158376Y0140953D02*
X0155602Y0140953D01*
X0155576Y0140915D02*
X0158376Y0140915D01*
X0158376Y0140877D02*
X0155550Y0140877D01*
X0155524Y0140839D02*
X0158376Y0140839D01*
X0158376Y0140801D02*
X0155499Y0140801D01*
X0155473Y0140763D02*
X0158376Y0140763D01*
X0158376Y0140725D02*
X0155447Y0140725D01*
X0155421Y0140687D02*
X0158376Y0140687D01*
X0158376Y0140649D02*
X0155396Y0140649D01*
X0155370Y0140612D02*
X0158376Y0140612D01*
X0158376Y0140574D02*
X0155344Y0140574D01*
X0155318Y0140536D02*
X0158376Y0140536D01*
X0158376Y0140498D02*
X0155293Y0140498D01*
X0155267Y0140460D02*
X0158376Y0140460D01*
X0158376Y0140422D02*
X0155241Y0140422D01*
X0155215Y0140384D02*
X0158376Y0140384D01*
X0158376Y0140346D02*
X0155190Y0140346D01*
X0155164Y0140309D02*
X0158376Y0140309D01*
X0158376Y0140271D02*
X0155138Y0140271D01*
X0155112Y0140233D02*
X0158376Y0140233D01*
X0158376Y0140195D02*
X0155087Y0140195D01*
X0155061Y0140157D02*
X0158376Y0140157D01*
X0158376Y0140119D02*
X0155035Y0140119D01*
X0155009Y0140081D02*
X0158376Y0140081D01*
X0158376Y0140043D02*
X0154984Y0140043D01*
X0155004Y0140006D02*
X0158376Y0140006D01*
X0158376Y0139968D02*
X0155030Y0139968D01*
X0155056Y0139930D02*
X0158376Y0139930D01*
X0158376Y0139892D02*
X0155082Y0139892D01*
X0155108Y0139854D02*
X0158376Y0139854D01*
X0158376Y0139816D02*
X0155134Y0139816D01*
X0155160Y0139778D02*
X0158376Y0139778D01*
X0158376Y0139740D02*
X0155186Y0139740D01*
X0155212Y0139702D02*
X0158376Y0139702D01*
X0158376Y0139665D02*
X0155238Y0139665D01*
X0155264Y0139627D02*
X0158376Y0139627D01*
X0158376Y0139589D02*
X0155290Y0139589D01*
X0155316Y0139551D02*
X0158376Y0139551D01*
X0158376Y0139513D02*
X0155342Y0139513D01*
X0155368Y0139475D02*
X0158376Y0139475D01*
X0158376Y0139437D02*
X0155394Y0139437D01*
X0155420Y0139399D02*
X0158376Y0139399D01*
X0158376Y0139362D02*
X0155446Y0139362D01*
X0155472Y0139324D02*
X0158376Y0139324D01*
X0158376Y0139286D02*
X0155498Y0139286D01*
X0155524Y0139248D02*
X0158376Y0139248D01*
X0158376Y0139210D02*
X0155550Y0139210D01*
X0155576Y0139172D02*
X0158376Y0139172D01*
X0158376Y0139134D02*
X0155602Y0139134D01*
X0155628Y0139096D02*
X0158376Y0139096D01*
X0158376Y0139058D02*
X0155654Y0139058D01*
X0155680Y0139021D02*
X0158376Y0139021D01*
X0158376Y0138983D02*
X0155706Y0138983D01*
X0155732Y0138945D02*
X0158376Y0138945D01*
X0158376Y0138907D02*
X0155758Y0138907D01*
X0155784Y0138869D02*
X0158376Y0138869D01*
X0158376Y0138831D02*
X0155810Y0138831D01*
X0155836Y0138793D02*
X0158376Y0138793D01*
X0158376Y0138755D02*
X0155862Y0138755D01*
X0155888Y0138718D02*
X0158376Y0138718D01*
X0158376Y0138680D02*
X0155914Y0138680D01*
X0155940Y0138642D02*
X0158376Y0138642D01*
X0158376Y0138604D02*
X0155966Y0138604D01*
X0155992Y0138566D02*
X0158376Y0138566D01*
X0158376Y0138528D02*
X0156018Y0138528D01*
X0156044Y0138490D02*
X0158376Y0138490D01*
X0158376Y0138452D02*
X0156070Y0138452D01*
X0156096Y0138414D02*
X0158376Y0138414D01*
X0158376Y0138377D02*
X0156122Y0138377D01*
X0156148Y0138339D02*
X0158376Y0138339D01*
X0158376Y0138301D02*
X0156174Y0138301D01*
X0156200Y0138263D02*
X0158376Y0138263D01*
X0158376Y0138225D02*
X0156226Y0138225D01*
X0156252Y0138187D02*
X0158376Y0138187D01*
X0158376Y0138149D02*
X0156278Y0138149D01*
X0156304Y0138111D02*
X0158376Y0138111D01*
X0158376Y0138074D02*
X0156330Y0138074D01*
X0156356Y0138036D02*
X0158376Y0138036D01*
X0158376Y0137998D02*
X0156382Y0137998D01*
X0156408Y0137960D02*
X0158376Y0137960D01*
X0158376Y0137922D02*
X0156434Y0137922D01*
X0156460Y0137884D02*
X0158376Y0137884D01*
X0158376Y0137846D02*
X0156486Y0137846D01*
X0156512Y0137808D02*
X0158376Y0137808D01*
X0158376Y0137771D02*
X0156538Y0137771D01*
X0156564Y0137733D02*
X0158376Y0137733D01*
X0158376Y0137695D02*
X0156590Y0137695D01*
X0156616Y0137657D02*
X0158376Y0137657D01*
X0158376Y0137619D02*
X0156642Y0137619D01*
X0155437Y0137619D02*
X0153308Y0137619D01*
X0153333Y0137657D02*
X0155412Y0137657D01*
X0155387Y0137695D02*
X0153358Y0137695D01*
X0153382Y0137733D02*
X0155362Y0137733D01*
X0155337Y0137771D02*
X0153407Y0137771D01*
X0153432Y0137808D02*
X0155312Y0137808D01*
X0155287Y0137846D02*
X0153457Y0137846D01*
X0153481Y0137884D02*
X0155262Y0137884D01*
X0155237Y0137922D02*
X0153506Y0137922D01*
X0153531Y0137960D02*
X0155212Y0137960D01*
X0155187Y0137998D02*
X0153556Y0137998D01*
X0153581Y0138036D02*
X0155162Y0138036D01*
X0155138Y0138074D02*
X0153605Y0138074D01*
X0153630Y0138111D02*
X0155113Y0138111D01*
X0155088Y0138149D02*
X0153655Y0138149D01*
X0153680Y0138187D02*
X0155063Y0138187D01*
X0155038Y0138225D02*
X0153705Y0138225D01*
X0153729Y0138263D02*
X0155013Y0138263D01*
X0154988Y0138301D02*
X0153754Y0138301D01*
X0153779Y0138339D02*
X0154963Y0138339D01*
X0154938Y0138377D02*
X0153804Y0138377D01*
X0153828Y0138414D02*
X0154913Y0138414D01*
X0154888Y0138452D02*
X0153853Y0138452D01*
X0153878Y0138490D02*
X0154863Y0138490D01*
X0154838Y0138528D02*
X0153903Y0138528D01*
X0153928Y0138566D02*
X0154813Y0138566D01*
X0154788Y0138604D02*
X0153952Y0138604D01*
X0153977Y0138642D02*
X0154763Y0138642D01*
X0154738Y0138680D02*
X0154002Y0138680D01*
X0154027Y0138718D02*
X0154713Y0138718D01*
X0154688Y0138755D02*
X0154052Y0138755D01*
X0154076Y0138793D02*
X0154663Y0138793D01*
X0154638Y0138831D02*
X0154101Y0138831D01*
X0154126Y0138869D02*
X0154614Y0138869D01*
X0154589Y0138907D02*
X0154151Y0138907D01*
X0154176Y0138945D02*
X0154564Y0138945D01*
X0154539Y0138983D02*
X0154200Y0138983D01*
X0154225Y0139021D02*
X0154514Y0139021D01*
X0154489Y0139058D02*
X0154250Y0139058D01*
X0154275Y0139096D02*
X0154464Y0139096D01*
X0154439Y0139134D02*
X0154299Y0139134D01*
X0154324Y0139172D02*
X0154414Y0139172D01*
X0154389Y0139210D02*
X0154349Y0139210D01*
X0153533Y0139778D02*
X0150333Y0139778D01*
X0150333Y0139740D02*
X0153507Y0139740D01*
X0153481Y0139702D02*
X0150333Y0139702D01*
X0150333Y0139665D02*
X0153455Y0139665D01*
X0153429Y0139627D02*
X0150333Y0139627D01*
X0150333Y0139589D02*
X0153403Y0139589D01*
X0153378Y0139551D02*
X0150333Y0139551D01*
X0150333Y0139513D02*
X0153352Y0139513D01*
X0153326Y0139475D02*
X0150333Y0139475D01*
X0150333Y0139437D02*
X0153300Y0139437D01*
X0153274Y0139399D02*
X0150333Y0139399D01*
X0150333Y0139362D02*
X0153248Y0139362D01*
X0153223Y0139324D02*
X0150333Y0139324D01*
X0150333Y0139286D02*
X0153197Y0139286D01*
X0153171Y0139248D02*
X0150333Y0139248D01*
X0150333Y0139210D02*
X0153145Y0139210D01*
X0153119Y0139172D02*
X0150333Y0139172D01*
X0150333Y0139134D02*
X0153093Y0139134D01*
X0153067Y0139096D02*
X0150333Y0139096D01*
X0150333Y0139058D02*
X0153042Y0139058D01*
X0153016Y0139021D02*
X0150333Y0139021D01*
X0150333Y0138983D02*
X0152990Y0138983D01*
X0152964Y0138945D02*
X0150333Y0138945D01*
X0150333Y0138907D02*
X0152938Y0138907D01*
X0152912Y0138869D02*
X0150333Y0138869D01*
X0150333Y0138831D02*
X0152887Y0138831D01*
X0152861Y0138793D02*
X0150333Y0138793D01*
X0150333Y0138755D02*
X0152835Y0138755D01*
X0152809Y0138718D02*
X0150333Y0138718D01*
X0150333Y0138680D02*
X0152783Y0138680D01*
X0152757Y0138642D02*
X0150333Y0138642D01*
X0150333Y0138604D02*
X0152732Y0138604D01*
X0152706Y0138566D02*
X0150333Y0138566D01*
X0150333Y0138528D02*
X0152680Y0138528D01*
X0152654Y0138490D02*
X0150333Y0138490D01*
X0150333Y0138452D02*
X0152628Y0138452D01*
X0152602Y0138414D02*
X0150333Y0138414D01*
X0150333Y0138377D02*
X0152577Y0138377D01*
X0152551Y0138339D02*
X0150333Y0138339D01*
X0150333Y0138301D02*
X0152525Y0138301D01*
X0152499Y0138263D02*
X0150333Y0138263D01*
X0150333Y0138225D02*
X0152473Y0138225D01*
X0152447Y0138187D02*
X0150333Y0138187D01*
X0150333Y0138149D02*
X0152421Y0138149D01*
X0152396Y0138111D02*
X0150333Y0138111D01*
X0150333Y0138074D02*
X0152370Y0138074D01*
X0152344Y0138036D02*
X0150333Y0138036D01*
X0150333Y0137998D02*
X0152318Y0137998D01*
X0152292Y0137960D02*
X0150333Y0137960D01*
X0150333Y0137922D02*
X0152266Y0137922D01*
X0152241Y0137884D02*
X0150333Y0137884D01*
X0150333Y0137846D02*
X0152215Y0137846D01*
X0152189Y0137808D02*
X0150333Y0137808D01*
X0150333Y0137771D02*
X0152163Y0137771D01*
X0152137Y0137733D02*
X0150333Y0137733D01*
X0150333Y0137695D02*
X0152111Y0137695D01*
X0152086Y0137657D02*
X0150333Y0137657D01*
X0150333Y0137619D02*
X0152060Y0137619D01*
X0150333Y0137581D02*
X0158376Y0137581D01*
X0158376Y0137543D02*
X0150333Y0137543D01*
X0150333Y0137505D02*
X0158376Y0137505D01*
X0158376Y0137467D02*
X0150333Y0137467D01*
X0150333Y0137430D02*
X0158376Y0137430D01*
X0158376Y0137392D02*
X0150333Y0137392D01*
X0150333Y0137354D02*
X0158376Y0137354D01*
X0158376Y0137316D02*
X0150333Y0137316D01*
X0150333Y0137278D02*
X0158376Y0137278D01*
X0158376Y0137240D02*
X0150333Y0137240D01*
X0150333Y0137202D02*
X0158376Y0137202D01*
X0158376Y0137164D02*
X0150333Y0137164D01*
X0150333Y0137127D02*
X0158376Y0137127D01*
X0158376Y0137089D02*
X0150333Y0137089D01*
X0150333Y0137051D02*
X0158376Y0137051D01*
X0158376Y0137013D02*
X0150333Y0137013D01*
X0150333Y0136975D02*
X0158376Y0136975D01*
X0158376Y0136937D02*
X0150333Y0136937D01*
X0150333Y0136899D02*
X0158376Y0136899D01*
X0158376Y0136861D02*
X0150333Y0136861D01*
X0150333Y0136823D02*
X0158376Y0136823D01*
X0158376Y0136786D02*
X0150333Y0136786D01*
X0150333Y0136748D02*
X0158376Y0136748D01*
X0158376Y0136710D02*
X0150333Y0136710D01*
X0150333Y0136672D02*
X0158376Y0136672D01*
X0158376Y0136634D02*
X0150333Y0136634D01*
X0150333Y0136596D02*
X0158376Y0136596D01*
X0158376Y0136558D02*
X0150333Y0136558D01*
X0150333Y0136520D02*
X0158376Y0136520D01*
X0158376Y0136483D02*
X0150333Y0136483D01*
X0150333Y0136445D02*
X0158376Y0136445D01*
X0158376Y0136407D02*
X0150333Y0136407D01*
X0150333Y0136369D02*
X0158376Y0136369D01*
X0158376Y0136331D02*
X0150333Y0136331D01*
X0150333Y0136293D02*
X0158376Y0136293D01*
X0158376Y0136255D02*
X0150333Y0136255D01*
X0150333Y0136217D02*
X0158376Y0136217D01*
X0158376Y0136179D02*
X0150333Y0136179D01*
X0150333Y0136142D02*
X0158376Y0136142D01*
X0158376Y0136104D02*
X0150333Y0136104D01*
X0150333Y0136066D02*
X0158376Y0136066D01*
X0158376Y0136028D02*
X0150333Y0136028D01*
X0150333Y0135990D02*
X0158376Y0135990D01*
X0158376Y0135952D02*
X0150333Y0135952D01*
X0150333Y0135914D02*
X0158700Y0135914D01*
X0186333Y0135914D01*
X0186333Y0135876D02*
X0158700Y0135876D01*
X0150333Y0135876D01*
X0150333Y0135839D02*
X0158700Y0135839D01*
X0186333Y0135839D01*
X0186333Y0135801D02*
X0158700Y0135801D01*
X0150333Y0135801D01*
X0150333Y0135763D02*
X0158700Y0135763D01*
X0186333Y0135763D01*
X0186333Y0135725D02*
X0158700Y0135725D01*
X0150333Y0135725D01*
X0150333Y0135687D02*
X0158700Y0135687D01*
X0186333Y0135687D01*
X0186333Y0135649D02*
X0158700Y0135649D01*
X0150333Y0135649D01*
X0150333Y0135611D02*
X0158700Y0135611D01*
X0186333Y0135611D01*
X0186333Y0135573D02*
X0158700Y0135573D01*
X0150333Y0135573D01*
X0150333Y0135536D02*
X0158700Y0135536D01*
X0186333Y0135536D01*
X0186333Y0135498D02*
X0158700Y0135498D01*
X0150333Y0135498D01*
X0150333Y0135460D02*
X0158700Y0135460D01*
X0186333Y0135460D01*
X0186333Y0135422D02*
X0158700Y0135422D01*
X0150333Y0135422D01*
X0150333Y0135384D02*
X0158700Y0135384D01*
X0186333Y0135384D01*
X0186333Y0135346D02*
X0158700Y0135346D01*
X0150333Y0135346D01*
X0150333Y0135308D02*
X0158700Y0135308D01*
X0186333Y0135308D01*
X0186333Y0135270D02*
X0158700Y0135270D01*
X0150333Y0135270D01*
X0150333Y0135232D02*
X0158700Y0135232D01*
X0186333Y0135232D01*
X0186333Y0135195D02*
X0158700Y0135195D01*
X0150333Y0135195D01*
X0150333Y0135157D02*
X0158700Y0135157D01*
X0186333Y0135157D01*
X0186333Y0135119D02*
X0158700Y0135119D01*
X0150333Y0135119D01*
X0150333Y0135081D02*
X0158700Y0135081D01*
X0186333Y0135081D01*
X0186333Y0135043D02*
X0158700Y0135043D01*
X0150333Y0135043D01*
X0150333Y0139816D02*
X0153559Y0139816D01*
X0153584Y0139854D02*
X0150333Y0139854D01*
X0150333Y0139892D02*
X0153610Y0139892D01*
X0153636Y0139930D02*
X0150333Y0139930D01*
X0150333Y0139968D02*
X0153662Y0139968D01*
X0153688Y0140006D02*
X0150333Y0140006D01*
X0150333Y0140043D02*
X0153714Y0140043D01*
X0153702Y0140081D02*
X0150333Y0140081D01*
X0150333Y0140119D02*
X0153676Y0140119D01*
X0153650Y0140157D02*
X0150333Y0140157D01*
X0150333Y0140195D02*
X0153625Y0140195D01*
X0153599Y0140233D02*
X0150333Y0140233D01*
X0150333Y0140271D02*
X0153573Y0140271D01*
X0153547Y0140309D02*
X0150333Y0140309D01*
X0150333Y0140346D02*
X0153521Y0140346D01*
X0153495Y0140384D02*
X0150333Y0140384D01*
X0150333Y0140422D02*
X0153469Y0140422D01*
X0153443Y0140460D02*
X0150333Y0140460D01*
X0150333Y0140498D02*
X0153417Y0140498D01*
X0153391Y0140536D02*
X0150333Y0140536D01*
X0150333Y0140574D02*
X0153365Y0140574D01*
X0153340Y0140612D02*
X0150333Y0140612D01*
X0150333Y0140649D02*
X0153314Y0140649D01*
X0153288Y0140687D02*
X0150333Y0140687D01*
X0150333Y0140725D02*
X0153262Y0140725D01*
X0153236Y0140763D02*
X0150333Y0140763D01*
X0150333Y0140801D02*
X0153210Y0140801D01*
X0153184Y0140839D02*
X0150333Y0140839D01*
X0150333Y0140877D02*
X0153158Y0140877D01*
X0153132Y0140915D02*
X0150333Y0140915D01*
X0150333Y0140953D02*
X0153106Y0140953D01*
X0153080Y0140990D02*
X0150333Y0140990D01*
X0150333Y0141028D02*
X0153055Y0141028D01*
X0153029Y0141066D02*
X0150333Y0141066D01*
X0150333Y0141104D02*
X0153003Y0141104D01*
X0152977Y0141142D02*
X0150333Y0141142D01*
X0150333Y0141180D02*
X0152951Y0141180D01*
X0152925Y0141218D02*
X0150333Y0141218D01*
X0150333Y0141256D02*
X0152899Y0141256D01*
X0152873Y0141293D02*
X0150333Y0141293D01*
X0150333Y0141331D02*
X0152847Y0141331D01*
X0152821Y0141369D02*
X0150333Y0141369D01*
X0150333Y0141407D02*
X0152795Y0141407D01*
X0152770Y0141445D02*
X0150333Y0141445D01*
X0150333Y0141483D02*
X0152744Y0141483D01*
X0152718Y0141521D02*
X0150333Y0141521D01*
X0150333Y0141559D02*
X0152692Y0141559D01*
X0152666Y0141597D02*
X0150333Y0141597D01*
X0150333Y0141634D02*
X0152640Y0141634D01*
X0152614Y0141672D02*
X0150333Y0141672D01*
X0150333Y0141710D02*
X0152588Y0141710D01*
X0152562Y0141748D02*
X0150333Y0141748D01*
X0150333Y0141786D02*
X0152536Y0141786D01*
X0152510Y0141824D02*
X0150333Y0141824D01*
X0150333Y0141862D02*
X0152485Y0141862D01*
X0152459Y0141900D02*
X0150333Y0141900D01*
X0150333Y0141937D02*
X0152433Y0141937D01*
X0152407Y0141975D02*
X0150333Y0141975D01*
X0150333Y0142013D02*
X0152381Y0142013D01*
X0152355Y0142051D02*
X0150333Y0142051D01*
X0150333Y0142089D02*
X0152329Y0142089D01*
X0152303Y0142127D02*
X0150333Y0142127D01*
X0150333Y0142165D02*
X0152277Y0142165D01*
X0152251Y0142203D02*
X0150333Y0142203D01*
X0150333Y0142241D02*
X0152225Y0142241D01*
X0152200Y0142278D02*
X0150333Y0142278D01*
X0150333Y0142316D02*
X0152174Y0142316D01*
X0152148Y0142354D02*
X0150333Y0142354D01*
X0150333Y0142392D02*
X0152122Y0142392D01*
X0153327Y0142392D02*
X0155339Y0142392D01*
X0155314Y0142354D02*
X0153352Y0142354D01*
X0153377Y0142316D02*
X0155290Y0142316D01*
X0155265Y0142278D02*
X0153401Y0142278D01*
X0153426Y0142241D02*
X0155241Y0142241D01*
X0155216Y0142203D02*
X0153451Y0142203D01*
X0153476Y0142165D02*
X0155191Y0142165D01*
X0155167Y0142127D02*
X0153500Y0142127D01*
X0153525Y0142089D02*
X0155142Y0142089D01*
X0155118Y0142051D02*
X0153550Y0142051D01*
X0153574Y0142013D02*
X0155093Y0142013D01*
X0155069Y0141975D02*
X0153599Y0141975D01*
X0153624Y0141937D02*
X0155044Y0141937D01*
X0155020Y0141900D02*
X0153649Y0141900D01*
X0153673Y0141862D02*
X0154995Y0141862D01*
X0154970Y0141824D02*
X0153698Y0141824D01*
X0153723Y0141786D02*
X0154946Y0141786D01*
X0154921Y0141748D02*
X0153748Y0141748D01*
X0153772Y0141710D02*
X0154897Y0141710D01*
X0154872Y0141672D02*
X0153797Y0141672D01*
X0153822Y0141634D02*
X0154848Y0141634D01*
X0154823Y0141597D02*
X0153847Y0141597D01*
X0153871Y0141559D02*
X0154799Y0141559D01*
X0154774Y0141521D02*
X0153896Y0141521D01*
X0153921Y0141483D02*
X0154749Y0141483D01*
X0154725Y0141445D02*
X0153945Y0141445D01*
X0153970Y0141407D02*
X0154700Y0141407D01*
X0154676Y0141369D02*
X0153995Y0141369D01*
X0154020Y0141331D02*
X0154651Y0141331D01*
X0154627Y0141293D02*
X0154044Y0141293D01*
X0154069Y0141256D02*
X0154602Y0141256D01*
X0154578Y0141218D02*
X0154094Y0141218D01*
X0154119Y0141180D02*
X0154553Y0141180D01*
X0154528Y0141142D02*
X0154143Y0141142D01*
X0154168Y0141104D02*
X0154504Y0141104D01*
X0154479Y0141066D02*
X0154193Y0141066D01*
X0154218Y0141028D02*
X0154455Y0141028D01*
X0154430Y0140990D02*
X0154242Y0140990D01*
X0154267Y0140953D02*
X0154406Y0140953D01*
X0154381Y0140915D02*
X0154292Y0140915D01*
X0154316Y0140877D02*
X0154356Y0140877D01*
X0159819Y0142412D02*
X0161101Y0142412D01*
X0162241Y0141184D01*
X0160998Y0141184D01*
X0159819Y0142412D01*
X0159838Y0142392D02*
X0161119Y0142392D01*
X0161155Y0142354D02*
X0159875Y0142354D01*
X0159911Y0142316D02*
X0161190Y0142316D01*
X0161225Y0142278D02*
X0159948Y0142278D01*
X0159984Y0142241D02*
X0161260Y0142241D01*
X0161295Y0142203D02*
X0160020Y0142203D01*
X0160057Y0142165D02*
X0161330Y0142165D01*
X0161366Y0142127D02*
X0160093Y0142127D01*
X0160129Y0142089D02*
X0161401Y0142089D01*
X0161436Y0142051D02*
X0160166Y0142051D01*
X0160202Y0142013D02*
X0161471Y0142013D01*
X0161506Y0141975D02*
X0160238Y0141975D01*
X0160275Y0141937D02*
X0161541Y0141937D01*
X0161577Y0141900D02*
X0160311Y0141900D01*
X0160347Y0141862D02*
X0161612Y0141862D01*
X0161647Y0141824D02*
X0160384Y0141824D01*
X0160420Y0141786D02*
X0161682Y0141786D01*
X0161717Y0141748D02*
X0160456Y0141748D01*
X0160493Y0141710D02*
X0161752Y0141710D01*
X0161788Y0141672D02*
X0160529Y0141672D01*
X0160566Y0141634D02*
X0161823Y0141634D01*
X0161858Y0141597D02*
X0160602Y0141597D01*
X0160638Y0141559D02*
X0161893Y0141559D01*
X0161928Y0141521D02*
X0160675Y0141521D01*
X0160711Y0141483D02*
X0161963Y0141483D01*
X0161999Y0141445D02*
X0160747Y0141445D01*
X0160784Y0141407D02*
X0162034Y0141407D01*
X0162069Y0141369D02*
X0160820Y0141369D01*
X0160856Y0141331D02*
X0162104Y0141331D01*
X0162139Y0141293D02*
X0160893Y0141293D01*
X0160929Y0141256D02*
X0162174Y0141256D01*
X0162210Y0141218D02*
X0160965Y0141218D01*
X0160998Y0141184D02*
X0161785Y0140364D01*
X0159729Y0137584D01*
X0161004Y0137584D01*
X0162501Y0139640D01*
X0163059Y0139060D01*
X0163059Y0137584D01*
X0164121Y0137584D01*
X0164121Y0141184D01*
X0163059Y0141184D01*
X0163059Y0142412D01*
X0164121Y0142412D01*
X0164121Y0141184D01*
X0163059Y0141184D01*
X0163059Y0140302D01*
X0162241Y0141184D01*
X0160998Y0141184D01*
X0161002Y0141180D02*
X0162245Y0141180D01*
X0162280Y0141142D02*
X0161038Y0141142D01*
X0161074Y0141104D02*
X0162315Y0141104D01*
X0162350Y0141066D02*
X0161111Y0141066D01*
X0161147Y0141028D02*
X0162385Y0141028D01*
X0162421Y0140990D02*
X0161183Y0140990D01*
X0161220Y0140953D02*
X0162456Y0140953D01*
X0162491Y0140915D02*
X0161256Y0140915D01*
X0161293Y0140877D02*
X0162526Y0140877D01*
X0162561Y0140839D02*
X0161329Y0140839D01*
X0161365Y0140801D02*
X0162596Y0140801D01*
X0162632Y0140763D02*
X0161402Y0140763D01*
X0161438Y0140725D02*
X0162667Y0140725D01*
X0162702Y0140687D02*
X0161474Y0140687D01*
X0161511Y0140649D02*
X0162737Y0140649D01*
X0162772Y0140612D02*
X0161547Y0140612D01*
X0161583Y0140574D02*
X0162807Y0140574D01*
X0162843Y0140536D02*
X0161620Y0140536D01*
X0161656Y0140498D02*
X0162878Y0140498D01*
X0162913Y0140460D02*
X0161692Y0140460D01*
X0161729Y0140422D02*
X0162948Y0140422D01*
X0162983Y0140384D02*
X0161765Y0140384D01*
X0161772Y0140346D02*
X0163018Y0140346D01*
X0163059Y0140346D02*
X0164121Y0140346D01*
X0164121Y0140309D02*
X0163059Y0140309D01*
X0163054Y0140309D02*
X0161744Y0140309D01*
X0161716Y0140271D02*
X0164121Y0140271D01*
X0164121Y0140233D02*
X0161688Y0140233D01*
X0161660Y0140195D02*
X0164121Y0140195D01*
X0164121Y0140157D02*
X0161632Y0140157D01*
X0161604Y0140119D02*
X0164121Y0140119D01*
X0164121Y0140081D02*
X0161576Y0140081D01*
X0161548Y0140043D02*
X0164121Y0140043D01*
X0164121Y0140006D02*
X0161520Y0140006D01*
X0161492Y0139968D02*
X0164121Y0139968D01*
X0164121Y0139930D02*
X0161464Y0139930D01*
X0161436Y0139892D02*
X0164121Y0139892D01*
X0164121Y0139854D02*
X0161408Y0139854D01*
X0161380Y0139816D02*
X0164121Y0139816D01*
X0164121Y0139778D02*
X0161352Y0139778D01*
X0161324Y0139740D02*
X0164121Y0139740D01*
X0164121Y0139702D02*
X0161296Y0139702D01*
X0161268Y0139665D02*
X0164121Y0139665D01*
X0164121Y0139627D02*
X0162514Y0139627D01*
X0162492Y0139627D02*
X0161240Y0139627D01*
X0161212Y0139589D02*
X0162464Y0139589D01*
X0162436Y0139551D02*
X0161184Y0139551D01*
X0161156Y0139513D02*
X0162409Y0139513D01*
X0162381Y0139475D02*
X0161128Y0139475D01*
X0161100Y0139437D02*
X0162354Y0139437D01*
X0162326Y0139399D02*
X0161072Y0139399D01*
X0161044Y0139362D02*
X0162298Y0139362D01*
X0162271Y0139324D02*
X0161016Y0139324D01*
X0160988Y0139286D02*
X0162243Y0139286D01*
X0162216Y0139248D02*
X0160960Y0139248D01*
X0160932Y0139210D02*
X0162188Y0139210D01*
X0162160Y0139172D02*
X0160904Y0139172D01*
X0160876Y0139134D02*
X0162133Y0139134D01*
X0162105Y0139096D02*
X0160848Y0139096D01*
X0160820Y0139058D02*
X0162078Y0139058D01*
X0162050Y0139021D02*
X0160792Y0139021D01*
X0160764Y0138983D02*
X0162022Y0138983D01*
X0161995Y0138945D02*
X0160736Y0138945D01*
X0160708Y0138907D02*
X0161967Y0138907D01*
X0161940Y0138869D02*
X0160680Y0138869D01*
X0160652Y0138831D02*
X0161912Y0138831D01*
X0161884Y0138793D02*
X0160623Y0138793D01*
X0160595Y0138755D02*
X0161857Y0138755D01*
X0161829Y0138718D02*
X0160567Y0138718D01*
X0160539Y0138680D02*
X0161802Y0138680D01*
X0161774Y0138642D02*
X0160511Y0138642D01*
X0160483Y0138604D02*
X0161746Y0138604D01*
X0161719Y0138566D02*
X0160455Y0138566D01*
X0160427Y0138528D02*
X0161691Y0138528D01*
X0161664Y0138490D02*
X0160399Y0138490D01*
X0160371Y0138452D02*
X0161636Y0138452D01*
X0161609Y0138414D02*
X0160343Y0138414D01*
X0160315Y0138377D02*
X0161581Y0138377D01*
X0161553Y0138339D02*
X0160287Y0138339D01*
X0160259Y0138301D02*
X0161526Y0138301D01*
X0161498Y0138263D02*
X0160231Y0138263D01*
X0160203Y0138225D02*
X0161471Y0138225D01*
X0161443Y0138187D02*
X0160175Y0138187D01*
X0160147Y0138149D02*
X0161415Y0138149D01*
X0161388Y0138111D02*
X0160119Y0138111D01*
X0160091Y0138074D02*
X0161360Y0138074D01*
X0161333Y0138036D02*
X0160063Y0138036D01*
X0160035Y0137998D02*
X0161305Y0137998D01*
X0161277Y0137960D02*
X0160007Y0137960D01*
X0159979Y0137922D02*
X0161250Y0137922D01*
X0161222Y0137884D02*
X0159951Y0137884D01*
X0159923Y0137846D02*
X0161195Y0137846D01*
X0161167Y0137808D02*
X0159895Y0137808D01*
X0159867Y0137771D02*
X0161139Y0137771D01*
X0161112Y0137733D02*
X0159839Y0137733D01*
X0159811Y0137695D02*
X0161084Y0137695D01*
X0161057Y0137657D02*
X0159783Y0137657D01*
X0159755Y0137619D02*
X0161029Y0137619D01*
X0163059Y0137619D02*
X0164121Y0137619D01*
X0164121Y0137657D02*
X0163059Y0137657D01*
X0163059Y0137695D02*
X0164121Y0137695D01*
X0164121Y0137733D02*
X0163059Y0137733D01*
X0163059Y0137771D02*
X0164121Y0137771D01*
X0164121Y0137808D02*
X0163059Y0137808D01*
X0163059Y0137846D02*
X0164121Y0137846D01*
X0164121Y0137884D02*
X0163059Y0137884D01*
X0163059Y0137922D02*
X0164121Y0137922D01*
X0164121Y0137960D02*
X0163059Y0137960D01*
X0163059Y0137998D02*
X0164121Y0137998D01*
X0164121Y0138036D02*
X0163059Y0138036D01*
X0163059Y0138074D02*
X0164121Y0138074D01*
X0164121Y0138111D02*
X0163059Y0138111D01*
X0163059Y0138149D02*
X0164121Y0138149D01*
X0164121Y0138187D02*
X0163059Y0138187D01*
X0163059Y0138225D02*
X0164121Y0138225D01*
X0164121Y0138263D02*
X0163059Y0138263D01*
X0163059Y0138301D02*
X0164121Y0138301D01*
X0164121Y0138339D02*
X0163059Y0138339D01*
X0163059Y0138377D02*
X0164121Y0138377D01*
X0164121Y0138414D02*
X0163059Y0138414D01*
X0163059Y0138452D02*
X0164121Y0138452D01*
X0164121Y0138490D02*
X0163059Y0138490D01*
X0163059Y0138528D02*
X0164121Y0138528D01*
X0164121Y0138566D02*
X0163059Y0138566D01*
X0163059Y0138604D02*
X0164121Y0138604D01*
X0164121Y0138642D02*
X0163059Y0138642D01*
X0163059Y0138680D02*
X0164121Y0138680D01*
X0164121Y0138718D02*
X0163059Y0138718D01*
X0163059Y0138755D02*
X0164121Y0138755D01*
X0164121Y0138793D02*
X0163059Y0138793D01*
X0163059Y0138831D02*
X0164121Y0138831D01*
X0164121Y0138869D02*
X0163059Y0138869D01*
X0163059Y0138907D02*
X0164121Y0138907D01*
X0164121Y0138945D02*
X0163059Y0138945D01*
X0163059Y0138983D02*
X0164121Y0138983D01*
X0164121Y0139021D02*
X0163059Y0139021D01*
X0163059Y0139058D02*
X0164121Y0139058D01*
X0164121Y0139096D02*
X0163025Y0139096D01*
X0162988Y0139134D02*
X0164121Y0139134D01*
X0164121Y0139172D02*
X0162952Y0139172D01*
X0162915Y0139210D02*
X0164121Y0139210D01*
X0164121Y0139248D02*
X0162879Y0139248D01*
X0162842Y0139286D02*
X0164121Y0139286D01*
X0164121Y0139324D02*
X0162806Y0139324D01*
X0162769Y0139362D02*
X0164121Y0139362D01*
X0164121Y0139399D02*
X0162733Y0139399D01*
X0162696Y0139437D02*
X0164121Y0139437D01*
X0164121Y0139475D02*
X0162660Y0139475D01*
X0162624Y0139513D02*
X0164121Y0139513D01*
X0164121Y0139551D02*
X0162587Y0139551D01*
X0162551Y0139589D02*
X0164121Y0139589D01*
X0164121Y0140384D02*
X0163059Y0140384D01*
X0163059Y0140422D02*
X0164121Y0140422D01*
X0164121Y0140460D02*
X0163059Y0140460D01*
X0163059Y0140498D02*
X0164121Y0140498D01*
X0164121Y0140536D02*
X0163059Y0140536D01*
X0163059Y0140574D02*
X0164121Y0140574D01*
X0164121Y0140612D02*
X0163059Y0140612D01*
X0163059Y0140649D02*
X0164121Y0140649D01*
X0164121Y0140687D02*
X0163059Y0140687D01*
X0163059Y0140725D02*
X0164121Y0140725D01*
X0164121Y0140763D02*
X0163059Y0140763D01*
X0163059Y0140801D02*
X0164121Y0140801D01*
X0164121Y0140839D02*
X0163059Y0140839D01*
X0163059Y0140877D02*
X0164121Y0140877D01*
X0164121Y0140915D02*
X0163059Y0140915D01*
X0163059Y0140953D02*
X0164121Y0140953D01*
X0164121Y0140990D02*
X0163059Y0140990D01*
X0163059Y0141028D02*
X0164121Y0141028D01*
X0164121Y0141066D02*
X0163059Y0141066D01*
X0163059Y0141104D02*
X0164121Y0141104D01*
X0164121Y0141142D02*
X0163059Y0141142D01*
X0163059Y0141180D02*
X0164121Y0141180D01*
X0164121Y0141218D02*
X0163059Y0141218D01*
X0163059Y0141256D02*
X0164121Y0141256D01*
X0164121Y0141293D02*
X0163059Y0141293D01*
X0163059Y0141331D02*
X0164121Y0141331D01*
X0164121Y0141369D02*
X0163059Y0141369D01*
X0163059Y0141407D02*
X0164121Y0141407D01*
X0164121Y0141445D02*
X0163059Y0141445D01*
X0163059Y0141483D02*
X0164121Y0141483D01*
X0164121Y0141521D02*
X0163059Y0141521D01*
X0163059Y0141559D02*
X0164121Y0141559D01*
X0164121Y0141597D02*
X0163059Y0141597D01*
X0163059Y0141634D02*
X0164121Y0141634D01*
X0164121Y0141672D02*
X0163059Y0141672D01*
X0163059Y0141710D02*
X0164121Y0141710D01*
X0164121Y0141748D02*
X0163059Y0141748D01*
X0163059Y0141786D02*
X0164121Y0141786D01*
X0164121Y0141824D02*
X0163059Y0141824D01*
X0163059Y0141862D02*
X0164121Y0141862D01*
X0164121Y0141900D02*
X0163059Y0141900D01*
X0163059Y0141937D02*
X0164121Y0141937D01*
X0164121Y0141975D02*
X0163059Y0141975D01*
X0163059Y0142013D02*
X0164121Y0142013D01*
X0164121Y0142051D02*
X0163059Y0142051D01*
X0163059Y0142089D02*
X0164121Y0142089D01*
X0164121Y0142127D02*
X0163059Y0142127D01*
X0163059Y0142165D02*
X0164121Y0142165D01*
X0164121Y0142203D02*
X0163059Y0142203D01*
X0163059Y0142241D02*
X0164121Y0142241D01*
X0164121Y0142278D02*
X0163059Y0142278D01*
X0163059Y0142316D02*
X0164121Y0142316D01*
X0164121Y0142354D02*
X0163059Y0142354D01*
X0163059Y0142392D02*
X0164121Y0142392D01*
X0165324Y0141710D02*
X0169111Y0141710D01*
X0169111Y0141672D02*
X0165304Y0141672D01*
X0165283Y0141634D02*
X0169111Y0141634D01*
X0169111Y0141597D02*
X0165262Y0141597D01*
X0165241Y0141559D02*
X0169111Y0141559D01*
X0169111Y0141521D02*
X0165221Y0141521D01*
X0165202Y0141486D02*
X0165351Y0141759D01*
X0165561Y0141991D01*
X0165825Y0142175D01*
X0166137Y0142307D01*
X0166497Y0142386D01*
X0166904Y0142412D01*
X0169111Y0142412D01*
X0169111Y0141184D01*
X0168049Y0141184D01*
X0168049Y0141454D01*
X0166994Y0141454D01*
X0166643Y0141411D01*
X0166379Y0141282D01*
X0166304Y0141184D01*
X0165116Y0141184D01*
X0165202Y0141486D01*
X0165201Y0141483D02*
X0169111Y0141483D01*
X0169111Y0141445D02*
X0168049Y0141445D01*
X0168049Y0141407D02*
X0169111Y0141407D01*
X0169111Y0141369D02*
X0168049Y0141369D01*
X0168049Y0141331D02*
X0169111Y0141331D01*
X0169111Y0141293D02*
X0168049Y0141293D01*
X0168049Y0141256D02*
X0169111Y0141256D01*
X0169111Y0141218D02*
X0168049Y0141218D01*
X0168049Y0141184D02*
X0169111Y0141184D01*
X0169111Y0137584D01*
X0168049Y0137584D01*
X0168049Y0139129D01*
X0167214Y0139129D01*
X0166181Y0137584D01*
X0164939Y0137584D01*
X0166119Y0139309D01*
X0165701Y0139530D01*
X0165371Y0139849D01*
X0165155Y0140272D01*
X0165083Y0140803D01*
X0165083Y0140817D01*
X0165112Y0141172D01*
X0165116Y0141184D01*
X0166304Y0141184D01*
X0166213Y0141066D01*
X0166159Y0140763D01*
X0165088Y0140763D01*
X0165093Y0140725D02*
X0166164Y0140725D01*
X0166159Y0140752D02*
X0166211Y0140474D01*
X0166368Y0140256D01*
X0166624Y0140116D01*
X0166973Y0140068D01*
X0168049Y0140068D01*
X0168049Y0141184D01*
X0168049Y0141180D02*
X0169111Y0141180D01*
X0169111Y0141142D02*
X0168049Y0141142D01*
X0168049Y0141104D02*
X0169111Y0141104D01*
X0169111Y0141066D02*
X0168049Y0141066D01*
X0168049Y0141028D02*
X0169111Y0141028D01*
X0169111Y0140990D02*
X0168049Y0140990D01*
X0168049Y0140953D02*
X0169111Y0140953D01*
X0169111Y0140915D02*
X0168049Y0140915D01*
X0168049Y0140877D02*
X0169111Y0140877D01*
X0169111Y0140839D02*
X0168049Y0140839D01*
X0168049Y0140801D02*
X0169111Y0140801D01*
X0169111Y0140763D02*
X0168049Y0140763D01*
X0168049Y0140725D02*
X0169111Y0140725D01*
X0169111Y0140687D02*
X0168049Y0140687D01*
X0168049Y0140649D02*
X0169111Y0140649D01*
X0169111Y0140612D02*
X0168049Y0140612D01*
X0168049Y0140574D02*
X0169111Y0140574D01*
X0169111Y0140536D02*
X0168049Y0140536D01*
X0168049Y0140498D02*
X0169111Y0140498D01*
X0169111Y0140460D02*
X0168049Y0140460D01*
X0168049Y0140422D02*
X0169111Y0140422D01*
X0169111Y0140384D02*
X0168049Y0140384D01*
X0168049Y0140346D02*
X0169111Y0140346D01*
X0169111Y0140309D02*
X0168049Y0140309D01*
X0168049Y0140271D02*
X0169111Y0140271D01*
X0169111Y0140233D02*
X0168049Y0140233D01*
X0168049Y0140195D02*
X0169111Y0140195D01*
X0169111Y0140157D02*
X0168049Y0140157D01*
X0168049Y0140119D02*
X0169111Y0140119D01*
X0169111Y0140081D02*
X0168049Y0140081D01*
X0168049Y0139096D02*
X0169111Y0139096D01*
X0169111Y0139058D02*
X0168049Y0139058D01*
X0168049Y0139021D02*
X0169111Y0139021D01*
X0169111Y0138983D02*
X0168049Y0138983D01*
X0168049Y0138945D02*
X0169111Y0138945D01*
X0169111Y0138907D02*
X0168049Y0138907D01*
X0168049Y0138869D02*
X0169111Y0138869D01*
X0169111Y0138831D02*
X0168049Y0138831D01*
X0168049Y0138793D02*
X0169111Y0138793D01*
X0169111Y0138755D02*
X0168049Y0138755D01*
X0168049Y0138718D02*
X0169111Y0138718D01*
X0169111Y0138680D02*
X0168049Y0138680D01*
X0168049Y0138642D02*
X0169111Y0138642D01*
X0169111Y0138604D02*
X0168049Y0138604D01*
X0168049Y0138566D02*
X0169111Y0138566D01*
X0169111Y0138528D02*
X0168049Y0138528D01*
X0168049Y0138490D02*
X0169111Y0138490D01*
X0169111Y0138452D02*
X0168049Y0138452D01*
X0168049Y0138414D02*
X0169111Y0138414D01*
X0169111Y0138377D02*
X0168049Y0138377D01*
X0168049Y0138339D02*
X0169111Y0138339D01*
X0169111Y0138301D02*
X0168049Y0138301D01*
X0168049Y0138263D02*
X0169111Y0138263D01*
X0169111Y0138225D02*
X0168049Y0138225D01*
X0168049Y0138187D02*
X0169111Y0138187D01*
X0169111Y0138149D02*
X0168049Y0138149D01*
X0168049Y0138111D02*
X0169111Y0138111D01*
X0169111Y0138074D02*
X0168049Y0138074D01*
X0168049Y0138036D02*
X0169111Y0138036D01*
X0169111Y0137998D02*
X0168049Y0137998D01*
X0168049Y0137960D02*
X0169111Y0137960D01*
X0169111Y0137922D02*
X0168049Y0137922D01*
X0168049Y0137884D02*
X0169111Y0137884D01*
X0169111Y0137846D02*
X0168049Y0137846D01*
X0168049Y0137808D02*
X0169111Y0137808D01*
X0169111Y0137771D02*
X0168049Y0137771D01*
X0168049Y0137733D02*
X0169111Y0137733D01*
X0169111Y0137695D02*
X0168049Y0137695D01*
X0168049Y0137657D02*
X0169111Y0137657D01*
X0169111Y0137619D02*
X0168049Y0137619D01*
X0166787Y0138490D02*
X0165559Y0138490D01*
X0165533Y0138452D02*
X0166761Y0138452D01*
X0166736Y0138414D02*
X0165507Y0138414D01*
X0165481Y0138377D02*
X0166711Y0138377D01*
X0166685Y0138339D02*
X0165455Y0138339D01*
X0165429Y0138301D02*
X0166660Y0138301D01*
X0166634Y0138263D02*
X0165403Y0138263D01*
X0165377Y0138225D02*
X0166609Y0138225D01*
X0166584Y0138187D02*
X0165351Y0138187D01*
X0165325Y0138149D02*
X0166558Y0138149D01*
X0166533Y0138111D02*
X0165299Y0138111D01*
X0165273Y0138074D02*
X0166508Y0138074D01*
X0166482Y0138036D02*
X0165248Y0138036D01*
X0165222Y0137998D02*
X0166457Y0137998D01*
X0166432Y0137960D02*
X0165196Y0137960D01*
X0165170Y0137922D02*
X0166406Y0137922D01*
X0166381Y0137884D02*
X0165144Y0137884D01*
X0165118Y0137846D02*
X0166356Y0137846D01*
X0166330Y0137808D02*
X0165092Y0137808D01*
X0165066Y0137771D02*
X0166305Y0137771D01*
X0166280Y0137733D02*
X0165040Y0137733D01*
X0165014Y0137695D02*
X0166254Y0137695D01*
X0166229Y0137657D02*
X0164988Y0137657D01*
X0164962Y0137619D02*
X0166204Y0137619D01*
X0166812Y0138528D02*
X0165585Y0138528D01*
X0165611Y0138566D02*
X0166837Y0138566D01*
X0166863Y0138604D02*
X0165637Y0138604D01*
X0165663Y0138642D02*
X0166888Y0138642D01*
X0166913Y0138680D02*
X0165689Y0138680D01*
X0165714Y0138718D02*
X0166939Y0138718D01*
X0166964Y0138755D02*
X0165740Y0138755D01*
X0165766Y0138793D02*
X0166989Y0138793D01*
X0167015Y0138831D02*
X0165792Y0138831D01*
X0165818Y0138869D02*
X0167040Y0138869D01*
X0167065Y0138907D02*
X0165844Y0138907D01*
X0165870Y0138945D02*
X0167091Y0138945D01*
X0167116Y0138983D02*
X0165896Y0138983D01*
X0165922Y0139021D02*
X0167141Y0139021D01*
X0167167Y0139058D02*
X0165948Y0139058D01*
X0165974Y0139096D02*
X0167192Y0139096D01*
X0166878Y0140081D02*
X0165252Y0140081D01*
X0165271Y0140043D02*
X0169111Y0140043D01*
X0169111Y0140006D02*
X0165291Y0140006D01*
X0165310Y0139968D02*
X0169111Y0139968D01*
X0169111Y0139930D02*
X0165329Y0139930D01*
X0165349Y0139892D02*
X0169111Y0139892D01*
X0169111Y0139854D02*
X0165368Y0139854D01*
X0165404Y0139816D02*
X0169111Y0139816D01*
X0169111Y0139778D02*
X0165444Y0139778D01*
X0165483Y0139740D02*
X0169111Y0139740D01*
X0169111Y0139702D02*
X0165522Y0139702D01*
X0165561Y0139665D02*
X0169111Y0139665D01*
X0169111Y0139627D02*
X0165601Y0139627D01*
X0165640Y0139589D02*
X0169111Y0139589D01*
X0169111Y0139551D02*
X0165679Y0139551D01*
X0165733Y0139513D02*
X0169111Y0139513D01*
X0169111Y0139475D02*
X0165805Y0139475D01*
X0165877Y0139437D02*
X0169111Y0139437D01*
X0169111Y0139399D02*
X0165948Y0139399D01*
X0166020Y0139362D02*
X0169111Y0139362D01*
X0169111Y0139324D02*
X0166091Y0139324D01*
X0166104Y0139286D02*
X0169111Y0139286D01*
X0169111Y0139248D02*
X0166078Y0139248D01*
X0166052Y0139210D02*
X0169111Y0139210D01*
X0169111Y0139172D02*
X0166026Y0139172D01*
X0166000Y0139134D02*
X0169111Y0139134D01*
X0170306Y0138642D02*
X0171400Y0138642D01*
X0171415Y0138680D02*
X0170322Y0138680D01*
X0170338Y0138718D02*
X0171430Y0138718D01*
X0171446Y0138755D02*
X0170355Y0138755D01*
X0170371Y0138793D02*
X0171461Y0138793D01*
X0171477Y0138831D02*
X0170387Y0138831D01*
X0170403Y0138869D02*
X0171492Y0138869D01*
X0171508Y0138907D02*
X0170419Y0138907D01*
X0170435Y0138945D02*
X0171523Y0138945D01*
X0171539Y0138983D02*
X0170451Y0138983D01*
X0170467Y0139021D02*
X0171554Y0139021D01*
X0171569Y0139058D02*
X0170484Y0139058D01*
X0170500Y0139096D02*
X0171585Y0139096D01*
X0171600Y0139134D02*
X0170516Y0139134D01*
X0170532Y0139172D02*
X0171616Y0139172D01*
X0171631Y0139210D02*
X0170548Y0139210D01*
X0170564Y0139248D02*
X0171647Y0139248D01*
X0171662Y0139286D02*
X0170580Y0139286D01*
X0170596Y0139324D02*
X0171678Y0139324D01*
X0171693Y0139362D02*
X0170613Y0139362D01*
X0170629Y0139399D02*
X0171708Y0139399D01*
X0171724Y0139437D02*
X0170645Y0139437D01*
X0170661Y0139475D02*
X0171739Y0139475D01*
X0171755Y0139513D02*
X0170677Y0139513D01*
X0170693Y0139551D02*
X0171770Y0139551D01*
X0171786Y0139589D02*
X0170709Y0139589D01*
X0170725Y0139627D02*
X0171801Y0139627D01*
X0171816Y0139665D02*
X0170742Y0139665D01*
X0170758Y0139702D02*
X0171832Y0139702D01*
X0171847Y0139740D02*
X0170774Y0139740D01*
X0170790Y0139778D02*
X0171863Y0139778D01*
X0171878Y0139816D02*
X0170806Y0139816D01*
X0170822Y0139854D02*
X0171894Y0139854D01*
X0171909Y0139892D02*
X0170838Y0139892D01*
X0170854Y0139930D02*
X0171925Y0139930D01*
X0171940Y0139968D02*
X0170871Y0139968D01*
X0170887Y0140006D02*
X0171955Y0140006D01*
X0171971Y0140043D02*
X0170903Y0140043D01*
X0170919Y0140081D02*
X0171986Y0140081D01*
X0172002Y0140119D02*
X0170935Y0140119D01*
X0170951Y0140157D02*
X0172017Y0140157D01*
X0172033Y0140195D02*
X0170967Y0140195D01*
X0170983Y0140233D02*
X0172048Y0140233D01*
X0172064Y0140271D02*
X0171000Y0140271D01*
X0171016Y0140309D02*
X0172079Y0140309D01*
X0172094Y0140346D02*
X0171032Y0140346D01*
X0171048Y0140384D02*
X0172110Y0140384D01*
X0172125Y0140422D02*
X0171064Y0140422D01*
X0171080Y0140460D02*
X0172141Y0140460D01*
X0172156Y0140498D02*
X0171096Y0140498D01*
X0171112Y0140536D02*
X0172172Y0140536D01*
X0172187Y0140574D02*
X0171129Y0140574D01*
X0171145Y0140612D02*
X0172203Y0140612D01*
X0172218Y0140649D02*
X0171161Y0140649D01*
X0171177Y0140687D02*
X0172233Y0140687D01*
X0172249Y0140725D02*
X0171193Y0140725D01*
X0171209Y0140763D02*
X0172264Y0140763D01*
X0172280Y0140801D02*
X0171225Y0140801D01*
X0171241Y0140839D02*
X0172295Y0140839D01*
X0172311Y0140877D02*
X0171258Y0140877D01*
X0171274Y0140915D02*
X0172326Y0140915D01*
X0172341Y0140953D02*
X0171290Y0140953D01*
X0171306Y0140990D02*
X0172357Y0140990D01*
X0172372Y0141028D02*
X0171322Y0141028D01*
X0171338Y0141066D02*
X0172388Y0141066D01*
X0172403Y0141104D02*
X0171354Y0141104D01*
X0171370Y0141142D02*
X0172419Y0141142D01*
X0172442Y0141142D02*
X0173461Y0141142D01*
X0173445Y0141180D02*
X0171387Y0141180D01*
X0171388Y0141184D02*
X0173444Y0141184D01*
X0172905Y0142448D01*
X0171926Y0142448D01*
X0171388Y0141184D01*
X0169856Y0137584D01*
X0170969Y0137584D01*
X0172430Y0141170D01*
X0173892Y0137584D01*
X0174975Y0137584D01*
X0173444Y0141184D01*
X0171388Y0141184D01*
X0171403Y0141218D02*
X0173429Y0141218D01*
X0173413Y0141256D02*
X0171419Y0141256D01*
X0171435Y0141293D02*
X0173397Y0141293D01*
X0173381Y0141331D02*
X0171451Y0141331D01*
X0171467Y0141369D02*
X0173365Y0141369D01*
X0173349Y0141407D02*
X0171483Y0141407D01*
X0171499Y0141445D02*
X0173332Y0141445D01*
X0173316Y0141483D02*
X0171515Y0141483D01*
X0171532Y0141521D02*
X0173300Y0141521D01*
X0173284Y0141559D02*
X0171548Y0141559D01*
X0171564Y0141597D02*
X0173268Y0141597D01*
X0173252Y0141634D02*
X0171580Y0141634D01*
X0171596Y0141672D02*
X0173236Y0141672D01*
X0173220Y0141710D02*
X0171612Y0141710D01*
X0171628Y0141748D02*
X0173203Y0141748D01*
X0173187Y0141786D02*
X0171644Y0141786D01*
X0171661Y0141824D02*
X0173171Y0141824D01*
X0173155Y0141862D02*
X0171677Y0141862D01*
X0171693Y0141900D02*
X0173139Y0141900D01*
X0173123Y0141937D02*
X0171709Y0141937D01*
X0171725Y0141975D02*
X0173107Y0141975D01*
X0173090Y0142013D02*
X0171741Y0142013D01*
X0171757Y0142051D02*
X0173074Y0142051D01*
X0173058Y0142089D02*
X0171773Y0142089D01*
X0171789Y0142127D02*
X0173042Y0142127D01*
X0173026Y0142165D02*
X0171806Y0142165D01*
X0171822Y0142203D02*
X0173010Y0142203D01*
X0172994Y0142241D02*
X0171838Y0142241D01*
X0171854Y0142278D02*
X0172978Y0142278D01*
X0172961Y0142316D02*
X0171870Y0142316D01*
X0171886Y0142354D02*
X0172945Y0142354D01*
X0172929Y0142392D02*
X0171902Y0142392D01*
X0171918Y0142430D02*
X0172913Y0142430D01*
X0172457Y0141104D02*
X0173478Y0141104D01*
X0173494Y0141066D02*
X0172472Y0141066D01*
X0172488Y0141028D02*
X0173510Y0141028D01*
X0173526Y0140990D02*
X0172503Y0140990D01*
X0172519Y0140953D02*
X0173542Y0140953D01*
X0173558Y0140915D02*
X0172534Y0140915D01*
X0172550Y0140877D02*
X0173574Y0140877D01*
X0173590Y0140839D02*
X0172565Y0140839D01*
X0172581Y0140801D02*
X0173607Y0140801D01*
X0173623Y0140763D02*
X0172596Y0140763D01*
X0172611Y0140725D02*
X0173639Y0140725D01*
X0173655Y0140687D02*
X0172627Y0140687D01*
X0172642Y0140649D02*
X0173671Y0140649D01*
X0173687Y0140612D02*
X0172658Y0140612D01*
X0172673Y0140574D02*
X0173703Y0140574D01*
X0173719Y0140536D02*
X0172689Y0140536D01*
X0172704Y0140498D02*
X0173735Y0140498D01*
X0173752Y0140460D02*
X0172720Y0140460D01*
X0172735Y0140422D02*
X0173768Y0140422D01*
X0173784Y0140384D02*
X0172750Y0140384D01*
X0172766Y0140346D02*
X0173800Y0140346D01*
X0173816Y0140309D02*
X0172781Y0140309D01*
X0172797Y0140271D02*
X0173832Y0140271D01*
X0173848Y0140233D02*
X0172812Y0140233D01*
X0172828Y0140195D02*
X0173864Y0140195D01*
X0173881Y0140157D02*
X0172843Y0140157D01*
X0172858Y0140119D02*
X0173897Y0140119D01*
X0173913Y0140081D02*
X0172874Y0140081D01*
X0172889Y0140043D02*
X0173929Y0140043D01*
X0173945Y0140006D02*
X0172905Y0140006D01*
X0172920Y0139968D02*
X0173961Y0139968D01*
X0173977Y0139930D02*
X0172936Y0139930D01*
X0172951Y0139892D02*
X0173993Y0139892D01*
X0174010Y0139854D02*
X0172967Y0139854D01*
X0172982Y0139816D02*
X0174026Y0139816D01*
X0174042Y0139778D02*
X0172997Y0139778D01*
X0173013Y0139740D02*
X0174058Y0139740D01*
X0174074Y0139702D02*
X0173028Y0139702D01*
X0173044Y0139665D02*
X0174090Y0139665D01*
X0174106Y0139627D02*
X0173059Y0139627D01*
X0173075Y0139589D02*
X0174122Y0139589D01*
X0174138Y0139551D02*
X0173090Y0139551D01*
X0173106Y0139513D02*
X0174155Y0139513D01*
X0174171Y0139475D02*
X0173121Y0139475D01*
X0173136Y0139437D02*
X0174187Y0139437D01*
X0174203Y0139399D02*
X0173152Y0139399D01*
X0173167Y0139362D02*
X0174219Y0139362D01*
X0174235Y0139324D02*
X0173183Y0139324D01*
X0173198Y0139286D02*
X0174251Y0139286D01*
X0174267Y0139248D02*
X0173214Y0139248D01*
X0173229Y0139210D02*
X0174284Y0139210D01*
X0174300Y0139172D02*
X0173245Y0139172D01*
X0173260Y0139134D02*
X0174316Y0139134D01*
X0174332Y0139096D02*
X0173275Y0139096D01*
X0173291Y0139058D02*
X0174348Y0139058D01*
X0174364Y0139021D02*
X0173306Y0139021D01*
X0173322Y0138983D02*
X0174380Y0138983D01*
X0174396Y0138945D02*
X0173337Y0138945D01*
X0173353Y0138907D02*
X0174413Y0138907D01*
X0174429Y0138869D02*
X0173368Y0138869D01*
X0173384Y0138831D02*
X0174445Y0138831D01*
X0174461Y0138793D02*
X0173399Y0138793D01*
X0173414Y0138755D02*
X0174477Y0138755D01*
X0174493Y0138718D02*
X0173430Y0138718D01*
X0173445Y0138680D02*
X0174509Y0138680D01*
X0174525Y0138642D02*
X0173461Y0138642D01*
X0173476Y0138604D02*
X0174541Y0138604D01*
X0174558Y0138566D02*
X0173492Y0138566D01*
X0173507Y0138528D02*
X0174574Y0138528D01*
X0174590Y0138490D02*
X0173522Y0138490D01*
X0173538Y0138452D02*
X0174606Y0138452D01*
X0174622Y0138414D02*
X0173553Y0138414D01*
X0173569Y0138377D02*
X0174638Y0138377D01*
X0174654Y0138339D02*
X0173584Y0138339D01*
X0173600Y0138301D02*
X0174670Y0138301D01*
X0174687Y0138263D02*
X0173615Y0138263D01*
X0173631Y0138225D02*
X0174703Y0138225D01*
X0174719Y0138187D02*
X0173646Y0138187D01*
X0173661Y0138149D02*
X0174735Y0138149D01*
X0174751Y0138111D02*
X0173677Y0138111D01*
X0173692Y0138074D02*
X0174767Y0138074D01*
X0174783Y0138036D02*
X0173708Y0138036D01*
X0173723Y0137998D02*
X0174799Y0137998D01*
X0174816Y0137960D02*
X0173739Y0137960D01*
X0173754Y0137922D02*
X0174832Y0137922D01*
X0174848Y0137884D02*
X0173770Y0137884D01*
X0173785Y0137846D02*
X0174864Y0137846D01*
X0174880Y0137808D02*
X0173800Y0137808D01*
X0173816Y0137771D02*
X0174896Y0137771D01*
X0174912Y0137733D02*
X0173831Y0137733D01*
X0173847Y0137695D02*
X0174928Y0137695D01*
X0174944Y0137657D02*
X0173862Y0137657D01*
X0173878Y0137619D02*
X0174961Y0137619D01*
X0176081Y0139362D02*
X0179169Y0139362D01*
X0179169Y0139399D02*
X0176023Y0139399D01*
X0175965Y0139437D02*
X0179169Y0139437D01*
X0179169Y0139475D02*
X0175911Y0139475D01*
X0175919Y0139467D02*
X0175681Y0139708D01*
X0175501Y0140000D01*
X0175388Y0140343D01*
X0175350Y0140738D01*
X0175346Y0140731D01*
X0175346Y0140745D01*
X0175378Y0141102D01*
X0175402Y0141184D01*
X0176590Y0141184D01*
X0176653Y0141267D01*
X0176925Y0141408D01*
X0177283Y0141454D01*
X0178104Y0141454D01*
X0178104Y0141184D01*
X0179169Y0141184D01*
X0179169Y0142419D01*
X0177197Y0142419D01*
X0176783Y0142388D01*
X0176419Y0142297D01*
X0176103Y0142150D01*
X0175839Y0141955D01*
X0175627Y0141712D01*
X0175472Y0141426D01*
X0175402Y0141184D01*
X0176590Y0141184D01*
X0176480Y0141038D01*
X0176423Y0140724D01*
X0176423Y0140709D01*
X0176477Y0140424D01*
X0176642Y0140187D01*
X0176907Y0140030D01*
X0177261Y0139978D01*
X0178104Y0139978D01*
X0178104Y0141184D01*
X0179169Y0141184D01*
X0179169Y0137592D01*
X0178107Y0137592D01*
X0178107Y0139039D01*
X0177301Y0139039D01*
X0176907Y0139066D01*
X0176538Y0139147D01*
X0176205Y0139281D01*
X0175919Y0139467D01*
X0175873Y0139513D02*
X0179169Y0139513D01*
X0179169Y0139551D02*
X0175836Y0139551D01*
X0175799Y0139589D02*
X0179169Y0139589D01*
X0179169Y0139627D02*
X0175761Y0139627D01*
X0175724Y0139665D02*
X0179169Y0139665D01*
X0179169Y0139702D02*
X0175687Y0139702D01*
X0175661Y0139740D02*
X0179169Y0139740D01*
X0179169Y0139778D02*
X0175638Y0139778D01*
X0175615Y0139816D02*
X0179169Y0139816D01*
X0179169Y0139854D02*
X0175591Y0139854D01*
X0175568Y0139892D02*
X0179169Y0139892D01*
X0179169Y0139930D02*
X0175544Y0139930D01*
X0175521Y0139968D02*
X0179169Y0139968D01*
X0179169Y0140006D02*
X0178104Y0140006D01*
X0178104Y0140043D02*
X0179169Y0140043D01*
X0179169Y0140081D02*
X0178104Y0140081D01*
X0178104Y0140119D02*
X0179169Y0140119D01*
X0179169Y0140157D02*
X0178104Y0140157D01*
X0178104Y0140195D02*
X0179169Y0140195D01*
X0179169Y0140233D02*
X0178104Y0140233D01*
X0178104Y0140271D02*
X0179169Y0140271D01*
X0179169Y0140309D02*
X0178104Y0140309D01*
X0178104Y0140346D02*
X0179169Y0140346D01*
X0179169Y0140384D02*
X0178104Y0140384D01*
X0178104Y0140422D02*
X0179169Y0140422D01*
X0179169Y0140460D02*
X0178104Y0140460D01*
X0178104Y0140498D02*
X0179169Y0140498D01*
X0179169Y0140536D02*
X0178104Y0140536D01*
X0178104Y0140574D02*
X0179169Y0140574D01*
X0179169Y0140612D02*
X0178104Y0140612D01*
X0178104Y0140649D02*
X0179169Y0140649D01*
X0179169Y0140687D02*
X0178104Y0140687D01*
X0178104Y0140725D02*
X0179169Y0140725D01*
X0179169Y0140763D02*
X0178104Y0140763D01*
X0178104Y0140801D02*
X0179169Y0140801D01*
X0179169Y0140839D02*
X0178104Y0140839D01*
X0178104Y0140877D02*
X0179169Y0140877D01*
X0179169Y0140915D02*
X0178104Y0140915D01*
X0178104Y0140953D02*
X0179169Y0140953D01*
X0179169Y0140990D02*
X0178104Y0140990D01*
X0178104Y0141028D02*
X0179169Y0141028D01*
X0179169Y0141066D02*
X0178104Y0141066D01*
X0178104Y0141104D02*
X0179169Y0141104D01*
X0179169Y0141142D02*
X0178104Y0141142D01*
X0178104Y0141180D02*
X0179169Y0141180D01*
X0179169Y0141218D02*
X0178104Y0141218D01*
X0178104Y0141256D02*
X0179169Y0141256D01*
X0179169Y0141293D02*
X0178104Y0141293D01*
X0178104Y0141331D02*
X0179169Y0141331D01*
X0179169Y0141369D02*
X0178104Y0141369D01*
X0178104Y0141407D02*
X0179169Y0141407D01*
X0179169Y0141445D02*
X0178104Y0141445D01*
X0177210Y0141445D02*
X0175483Y0141445D01*
X0175467Y0141407D02*
X0176923Y0141407D01*
X0176850Y0141369D02*
X0175456Y0141369D01*
X0175445Y0141331D02*
X0176777Y0141331D01*
X0176704Y0141293D02*
X0175434Y0141293D01*
X0175423Y0141256D02*
X0176644Y0141256D01*
X0176616Y0141218D02*
X0175412Y0141218D01*
X0175401Y0141180D02*
X0176587Y0141180D01*
X0176558Y0141142D02*
X0175390Y0141142D01*
X0175379Y0141104D02*
X0176529Y0141104D01*
X0176501Y0141066D02*
X0175375Y0141066D01*
X0175372Y0141028D02*
X0176478Y0141028D01*
X0176471Y0140990D02*
X0175368Y0140990D01*
X0175365Y0140953D02*
X0176464Y0140953D01*
X0176457Y0140915D02*
X0175361Y0140915D01*
X0175358Y0140877D02*
X0176450Y0140877D01*
X0176443Y0140839D02*
X0175355Y0140839D01*
X0175351Y0140801D02*
X0176437Y0140801D01*
X0176430Y0140763D02*
X0175348Y0140763D01*
X0175351Y0140725D02*
X0176423Y0140725D01*
X0176427Y0140687D02*
X0175355Y0140687D01*
X0175358Y0140649D02*
X0176434Y0140649D01*
X0176441Y0140612D02*
X0175362Y0140612D01*
X0175366Y0140574D02*
X0176448Y0140574D01*
X0176456Y0140536D02*
X0175369Y0140536D01*
X0175373Y0140498D02*
X0176463Y0140498D01*
X0176470Y0140460D02*
X0175376Y0140460D01*
X0175380Y0140422D02*
X0176478Y0140422D01*
X0176505Y0140384D02*
X0175384Y0140384D01*
X0175387Y0140346D02*
X0176531Y0140346D01*
X0176557Y0140309D02*
X0175399Y0140309D01*
X0175412Y0140271D02*
X0176584Y0140271D01*
X0176610Y0140233D02*
X0175424Y0140233D01*
X0175437Y0140195D02*
X0176637Y0140195D01*
X0176693Y0140157D02*
X0175449Y0140157D01*
X0175462Y0140119D02*
X0176757Y0140119D01*
X0176821Y0140081D02*
X0175474Y0140081D01*
X0175487Y0140043D02*
X0176885Y0140043D01*
X0177075Y0140006D02*
X0175499Y0140006D01*
X0176140Y0139324D02*
X0179169Y0139324D01*
X0179169Y0139286D02*
X0176198Y0139286D01*
X0176288Y0139248D02*
X0179169Y0139248D01*
X0179169Y0139210D02*
X0176381Y0139210D01*
X0176475Y0139172D02*
X0179169Y0139172D01*
X0179169Y0139134D02*
X0176595Y0139134D01*
X0176768Y0139096D02*
X0179169Y0139096D01*
X0179169Y0139058D02*
X0177016Y0139058D01*
X0178107Y0139021D02*
X0179169Y0139021D01*
X0179169Y0138983D02*
X0178107Y0138983D01*
X0178107Y0138945D02*
X0179169Y0138945D01*
X0179169Y0138907D02*
X0178107Y0138907D01*
X0178107Y0138869D02*
X0179169Y0138869D01*
X0179169Y0138831D02*
X0178107Y0138831D01*
X0178107Y0138793D02*
X0179169Y0138793D01*
X0179169Y0138755D02*
X0178107Y0138755D01*
X0178107Y0138718D02*
X0179169Y0138718D01*
X0179169Y0138680D02*
X0178107Y0138680D01*
X0178107Y0138642D02*
X0179169Y0138642D01*
X0179169Y0138604D02*
X0178107Y0138604D01*
X0178107Y0138566D02*
X0179169Y0138566D01*
X0179169Y0138528D02*
X0178107Y0138528D01*
X0178107Y0138490D02*
X0179169Y0138490D01*
X0179169Y0138452D02*
X0178107Y0138452D01*
X0178107Y0138414D02*
X0179169Y0138414D01*
X0179169Y0138377D02*
X0178107Y0138377D01*
X0178107Y0138339D02*
X0179169Y0138339D01*
X0179169Y0138301D02*
X0178107Y0138301D01*
X0178107Y0138263D02*
X0179169Y0138263D01*
X0179169Y0138225D02*
X0178107Y0138225D01*
X0178107Y0138187D02*
X0179169Y0138187D01*
X0179169Y0138149D02*
X0178107Y0138149D01*
X0178107Y0138111D02*
X0179169Y0138111D01*
X0179169Y0138074D02*
X0178107Y0138074D01*
X0178107Y0138036D02*
X0179169Y0138036D01*
X0179169Y0137998D02*
X0178107Y0137998D01*
X0178107Y0137960D02*
X0179169Y0137960D01*
X0179169Y0137922D02*
X0178107Y0137922D01*
X0178107Y0137884D02*
X0179169Y0137884D01*
X0179169Y0137846D02*
X0178107Y0137846D01*
X0178107Y0137808D02*
X0179169Y0137808D01*
X0179169Y0137771D02*
X0178107Y0137771D01*
X0178107Y0137733D02*
X0179169Y0137733D01*
X0179169Y0137695D02*
X0178107Y0137695D01*
X0178107Y0137657D02*
X0179169Y0137657D01*
X0179169Y0137619D02*
X0178107Y0137619D01*
X0180221Y0138362D02*
X0180377Y0138106D01*
X0180584Y0137894D01*
X0180842Y0137728D01*
X0181142Y0137606D01*
X0181483Y0137530D01*
X0181859Y0137505D01*
X0182406Y0137553D01*
X0182942Y0137696D01*
X0183449Y0137936D01*
X0183907Y0138279D01*
X0183281Y0139032D01*
X0182945Y0138789D01*
X0182600Y0138603D01*
X0182235Y0138485D01*
X0181837Y0138445D01*
X0181542Y0138476D01*
X0181322Y0138567D01*
X0181185Y0138710D01*
X0181139Y0138902D01*
X0181139Y0138916D01*
X0181178Y0139100D01*
X0181322Y0139248D01*
X0181621Y0139384D01*
X0182114Y0139528D01*
X0182780Y0139730D01*
X0183284Y0140004D01*
X0183467Y0140185D01*
X0183605Y0140407D01*
X0183691Y0140679D01*
X0183720Y0141008D01*
X0183720Y0141022D01*
X0183705Y0141184D01*
X0182654Y0141184D01*
X0182669Y0141120D01*
X0182669Y0141105D01*
X0182625Y0140900D01*
X0182463Y0140745D01*
X0182143Y0140616D01*
X0181628Y0140472D01*
X0180973Y0140256D01*
X0180491Y0139968D01*
X0183218Y0139968D01*
X0183286Y0140006D02*
X0180554Y0140006D01*
X0180617Y0140043D02*
X0183324Y0140043D01*
X0183363Y0140081D02*
X0180681Y0140081D01*
X0180744Y0140119D02*
X0183401Y0140119D01*
X0183439Y0140157D02*
X0180808Y0140157D01*
X0180871Y0140195D02*
X0183474Y0140195D01*
X0183497Y0140233D02*
X0180935Y0140233D01*
X0181019Y0140271D02*
X0183520Y0140271D01*
X0183544Y0140309D02*
X0181134Y0140309D01*
X0181248Y0140346D02*
X0183567Y0140346D01*
X0183591Y0140384D02*
X0181363Y0140384D01*
X0181478Y0140422D02*
X0183609Y0140422D01*
X0183621Y0140460D02*
X0181593Y0140460D01*
X0181722Y0140498D02*
X0183633Y0140498D01*
X0183645Y0140536D02*
X0181858Y0140536D01*
X0181993Y0140574D02*
X0183657Y0140574D01*
X0183669Y0140612D02*
X0182129Y0140612D01*
X0182227Y0140649D02*
X0183681Y0140649D01*
X0183691Y0140687D02*
X0182320Y0140687D01*
X0182414Y0140725D02*
X0183695Y0140725D01*
X0183698Y0140763D02*
X0182482Y0140763D01*
X0182522Y0140801D02*
X0183701Y0140801D01*
X0183705Y0140839D02*
X0182561Y0140839D01*
X0182601Y0140877D02*
X0183708Y0140877D01*
X0183711Y0140915D02*
X0182628Y0140915D01*
X0182636Y0140953D02*
X0183715Y0140953D01*
X0183718Y0140990D02*
X0182644Y0140990D01*
X0182652Y0141028D02*
X0183719Y0141028D01*
X0183716Y0141066D02*
X0182660Y0141066D01*
X0182668Y0141104D02*
X0183712Y0141104D01*
X0183708Y0141142D02*
X0182663Y0141142D01*
X0182655Y0141180D02*
X0183705Y0141180D01*
X0183705Y0141184D02*
X0182654Y0141184D01*
X0182630Y0141284D01*
X0182514Y0141418D01*
X0182319Y0141509D01*
X0182049Y0141541D01*
X0181740Y0141509D01*
X0181430Y0141415D01*
X0181011Y0141184D01*
X0180797Y0141066D01*
X0180715Y0141184D01*
X0181011Y0141184D01*
X0180715Y0141184D01*
X0180246Y0141865D01*
X0180637Y0142127D01*
X0183180Y0142127D01*
X0183235Y0142089D02*
X0180580Y0142089D01*
X0180524Y0142051D02*
X0183276Y0142051D01*
X0183252Y0142077D02*
X0183449Y0141866D01*
X0183597Y0141620D01*
X0183690Y0141339D01*
X0183705Y0141184D01*
X0183701Y0141218D02*
X0182646Y0141218D01*
X0182637Y0141256D02*
X0183698Y0141256D01*
X0183694Y0141293D02*
X0182622Y0141293D01*
X0182589Y0141331D02*
X0183690Y0141331D01*
X0183680Y0141369D02*
X0182556Y0141369D01*
X0182524Y0141407D02*
X0183667Y0141407D01*
X0183655Y0141445D02*
X0182457Y0141445D01*
X0182376Y0141483D02*
X0183642Y0141483D01*
X0183630Y0141521D02*
X0182220Y0141521D01*
X0181856Y0141521D02*
X0180483Y0141521D01*
X0180457Y0141559D02*
X0183617Y0141559D01*
X0183605Y0141597D02*
X0180431Y0141597D01*
X0180405Y0141634D02*
X0183589Y0141634D01*
X0183566Y0141672D02*
X0180378Y0141672D01*
X0180352Y0141710D02*
X0183543Y0141710D01*
X0183520Y0141748D02*
X0180326Y0141748D01*
X0180300Y0141786D02*
X0183497Y0141786D01*
X0183474Y0141824D02*
X0180274Y0141824D01*
X0180248Y0141862D02*
X0183452Y0141862D01*
X0183418Y0141900D02*
X0180298Y0141900D01*
X0180354Y0141937D02*
X0183382Y0141937D01*
X0183347Y0141975D02*
X0180411Y0141975D01*
X0180467Y0142013D02*
X0183311Y0142013D01*
X0183252Y0142077D02*
X0183007Y0142246D01*
X0182719Y0142372D01*
X0182395Y0142450D01*
X0182039Y0142477D01*
X0181529Y0142437D01*
X0181063Y0142318D01*
X0180637Y0142127D01*
X0180721Y0142165D02*
X0183125Y0142165D01*
X0183070Y0142203D02*
X0180806Y0142203D01*
X0180890Y0142241D02*
X0183015Y0142241D01*
X0182934Y0142278D02*
X0180974Y0142278D01*
X0181058Y0142316D02*
X0182847Y0142316D01*
X0182761Y0142354D02*
X0181204Y0142354D01*
X0181353Y0142392D02*
X0182637Y0142392D01*
X0182480Y0142430D02*
X0181502Y0142430D01*
X0181924Y0142468D02*
X0182160Y0142468D01*
X0181654Y0141483D02*
X0180509Y0141483D01*
X0180535Y0141445D02*
X0181530Y0141445D01*
X0181416Y0141407D02*
X0180561Y0141407D01*
X0180587Y0141369D02*
X0181347Y0141369D01*
X0181279Y0141331D02*
X0180613Y0141331D01*
X0180640Y0141293D02*
X0181210Y0141293D01*
X0181141Y0141256D02*
X0180666Y0141256D01*
X0180692Y0141218D02*
X0181072Y0141218D01*
X0181004Y0141180D02*
X0180718Y0141180D01*
X0180744Y0141142D02*
X0180935Y0141142D01*
X0180866Y0141104D02*
X0180770Y0141104D01*
X0180796Y0141066D02*
X0180798Y0141066D01*
X0180491Y0139968D02*
X0180317Y0139784D01*
X0180192Y0139572D01*
X0180116Y0139323D01*
X0180091Y0139028D01*
X0180091Y0138999D01*
X0180123Y0138662D01*
X0180221Y0138362D01*
X0180216Y0138377D02*
X0183826Y0138377D01*
X0183794Y0138414D02*
X0180204Y0138414D01*
X0180191Y0138452D02*
X0181766Y0138452D01*
X0181912Y0138452D02*
X0183763Y0138452D01*
X0183731Y0138490D02*
X0182252Y0138490D01*
X0182369Y0138528D02*
X0183700Y0138528D01*
X0183668Y0138566D02*
X0182485Y0138566D01*
X0182601Y0138604D02*
X0183637Y0138604D01*
X0183605Y0138642D02*
X0182672Y0138642D01*
X0182742Y0138680D02*
X0183574Y0138680D01*
X0183542Y0138718D02*
X0182812Y0138718D01*
X0182882Y0138755D02*
X0183510Y0138755D01*
X0183479Y0138793D02*
X0182950Y0138793D01*
X0183003Y0138831D02*
X0183447Y0138831D01*
X0183416Y0138869D02*
X0183055Y0138869D01*
X0183108Y0138907D02*
X0183384Y0138907D01*
X0183353Y0138945D02*
X0183160Y0138945D01*
X0183213Y0138983D02*
X0183321Y0138983D01*
X0183290Y0139021D02*
X0183265Y0139021D01*
X0182869Y0139778D02*
X0180313Y0139778D01*
X0180291Y0139740D02*
X0182799Y0139740D01*
X0182689Y0139702D02*
X0180269Y0139702D01*
X0180246Y0139665D02*
X0182564Y0139665D01*
X0182439Y0139627D02*
X0180224Y0139627D01*
X0180202Y0139589D02*
X0182314Y0139589D01*
X0182189Y0139551D02*
X0180185Y0139551D01*
X0180174Y0139513D02*
X0182062Y0139513D01*
X0181932Y0139475D02*
X0180162Y0139475D01*
X0180151Y0139437D02*
X0181802Y0139437D01*
X0181672Y0139399D02*
X0180139Y0139399D01*
X0180128Y0139362D02*
X0181571Y0139362D01*
X0181488Y0139324D02*
X0180116Y0139324D01*
X0180113Y0139286D02*
X0181405Y0139286D01*
X0181323Y0139248D02*
X0180109Y0139248D01*
X0180106Y0139210D02*
X0181285Y0139210D01*
X0181248Y0139172D02*
X0180103Y0139172D01*
X0180100Y0139134D02*
X0181212Y0139134D01*
X0181177Y0139096D02*
X0180097Y0139096D01*
X0180093Y0139058D02*
X0181169Y0139058D01*
X0181161Y0139021D02*
X0180091Y0139021D01*
X0180093Y0138983D02*
X0181153Y0138983D01*
X0181145Y0138945D02*
X0180096Y0138945D01*
X0180100Y0138907D02*
X0181139Y0138907D01*
X0181146Y0138869D02*
X0180103Y0138869D01*
X0180107Y0138831D02*
X0181156Y0138831D01*
X0181165Y0138793D02*
X0180111Y0138793D01*
X0180114Y0138755D02*
X0181174Y0138755D01*
X0181183Y0138718D02*
X0180118Y0138718D01*
X0180122Y0138680D02*
X0181214Y0138680D01*
X0181250Y0138642D02*
X0180130Y0138642D01*
X0180142Y0138604D02*
X0181287Y0138604D01*
X0181325Y0138566D02*
X0180154Y0138566D01*
X0180167Y0138528D02*
X0181417Y0138528D01*
X0181508Y0138490D02*
X0180179Y0138490D01*
X0180235Y0138339D02*
X0183857Y0138339D01*
X0183889Y0138301D02*
X0180258Y0138301D01*
X0180281Y0138263D02*
X0183885Y0138263D01*
X0183835Y0138225D02*
X0180304Y0138225D01*
X0180327Y0138187D02*
X0183784Y0138187D01*
X0183733Y0138149D02*
X0180350Y0138149D01*
X0180373Y0138111D02*
X0183683Y0138111D01*
X0183632Y0138074D02*
X0180409Y0138074D01*
X0180446Y0138036D02*
X0183582Y0138036D01*
X0183531Y0137998D02*
X0180483Y0137998D01*
X0180520Y0137960D02*
X0183480Y0137960D01*
X0183419Y0137922D02*
X0180557Y0137922D01*
X0180599Y0137884D02*
X0183339Y0137884D01*
X0183259Y0137846D02*
X0180658Y0137846D01*
X0180717Y0137808D02*
X0183179Y0137808D01*
X0183099Y0137771D02*
X0180776Y0137771D01*
X0180835Y0137733D02*
X0183019Y0137733D01*
X0182937Y0137695D02*
X0180924Y0137695D01*
X0181017Y0137657D02*
X0182795Y0137657D01*
X0182653Y0137619D02*
X0181110Y0137619D01*
X0181254Y0137581D02*
X0182511Y0137581D01*
X0182292Y0137543D02*
X0181424Y0137543D01*
X0181856Y0137505D02*
X0181860Y0137505D01*
X0182939Y0139816D02*
X0180347Y0139816D01*
X0180383Y0139854D02*
X0183009Y0139854D01*
X0183078Y0139892D02*
X0180419Y0139892D01*
X0180455Y0139930D02*
X0183148Y0139930D01*
X0185408Y0139930D02*
X0186333Y0139930D01*
X0186333Y0139968D02*
X0185408Y0139968D01*
X0185408Y0140006D02*
X0186333Y0140006D01*
X0186333Y0140043D02*
X0185408Y0140043D01*
X0185408Y0140081D02*
X0186333Y0140081D01*
X0186333Y0140119D02*
X0185408Y0140119D01*
X0185408Y0140157D02*
X0186333Y0140157D01*
X0186333Y0140195D02*
X0185408Y0140195D01*
X0185408Y0140233D02*
X0186333Y0140233D01*
X0186333Y0140271D02*
X0185408Y0140271D01*
X0185408Y0140309D02*
X0186333Y0140309D01*
X0186333Y0140346D02*
X0185408Y0140346D01*
X0185408Y0140384D02*
X0186333Y0140384D01*
X0186333Y0140422D02*
X0185408Y0140422D01*
X0185408Y0140460D02*
X0186333Y0140460D01*
X0186333Y0140498D02*
X0185408Y0140498D01*
X0185408Y0140536D02*
X0186333Y0140536D01*
X0186333Y0140574D02*
X0185408Y0140574D01*
X0185408Y0140612D02*
X0186333Y0140612D01*
X0186333Y0140649D02*
X0185408Y0140649D01*
X0185408Y0140687D02*
X0186333Y0140687D01*
X0186333Y0140725D02*
X0185408Y0140725D01*
X0185408Y0140763D02*
X0186333Y0140763D01*
X0186333Y0140801D02*
X0185408Y0140801D01*
X0185408Y0140839D02*
X0186333Y0140839D01*
X0186333Y0140877D02*
X0185408Y0140877D01*
X0185408Y0140915D02*
X0186333Y0140915D01*
X0186333Y0140953D02*
X0185408Y0140953D01*
X0185408Y0140990D02*
X0186333Y0140990D01*
X0186333Y0141028D02*
X0185408Y0141028D01*
X0185408Y0141066D02*
X0186333Y0141066D01*
X0186333Y0141104D02*
X0185408Y0141104D01*
X0185408Y0141142D02*
X0186333Y0141142D01*
X0186333Y0141180D02*
X0185408Y0141180D01*
X0185408Y0141218D02*
X0186333Y0141218D01*
X0186333Y0141256D02*
X0185408Y0141256D01*
X0185408Y0141293D02*
X0186333Y0141293D01*
X0186333Y0141331D02*
X0185408Y0141331D01*
X0185408Y0141369D02*
X0186333Y0141369D01*
X0186333Y0141407D02*
X0185408Y0141407D01*
X0185408Y0141445D02*
X0186333Y0141445D01*
X0186333Y0141483D02*
X0185408Y0141483D01*
X0185408Y0141521D02*
X0186333Y0141521D01*
X0186333Y0141559D02*
X0185408Y0141559D01*
X0185408Y0141597D02*
X0186333Y0141597D01*
X0186333Y0141634D02*
X0185408Y0141634D01*
X0185408Y0141672D02*
X0186333Y0141672D01*
X0186333Y0141710D02*
X0185408Y0141710D01*
X0185408Y0141748D02*
X0186333Y0141748D01*
X0186333Y0141786D02*
X0185408Y0141786D01*
X0185408Y0141824D02*
X0186333Y0141824D01*
X0186333Y0141862D02*
X0185408Y0141862D01*
X0185408Y0141900D02*
X0186333Y0141900D01*
X0186333Y0141937D02*
X0185408Y0141937D01*
X0185408Y0141975D02*
X0186333Y0141975D01*
X0186333Y0142013D02*
X0185408Y0142013D01*
X0185408Y0142051D02*
X0186333Y0142051D01*
X0186333Y0142089D02*
X0185408Y0142089D01*
X0185408Y0142127D02*
X0186333Y0142127D01*
X0186333Y0142165D02*
X0185408Y0142165D01*
X0185408Y0142203D02*
X0186333Y0142203D01*
X0186333Y0142241D02*
X0185408Y0142241D01*
X0185408Y0142278D02*
X0186333Y0142278D01*
X0186333Y0142316D02*
X0185408Y0142316D01*
X0185408Y0142354D02*
X0186333Y0142354D01*
X0186333Y0142392D02*
X0185408Y0142392D01*
X0185408Y0142430D02*
X0186333Y0142430D01*
X0186333Y0142468D02*
X0185408Y0142468D01*
X0185408Y0142506D02*
X0186333Y0142506D01*
X0186333Y0142544D02*
X0185408Y0142544D01*
X0185408Y0142581D02*
X0186333Y0142581D01*
X0186333Y0142619D02*
X0185408Y0142619D01*
X0185408Y0142657D02*
X0186333Y0142657D01*
X0186333Y0142695D02*
X0185408Y0142695D01*
X0185408Y0142733D02*
X0186333Y0142733D01*
X0186333Y0142771D02*
X0185408Y0142771D01*
X0185408Y0142809D02*
X0186333Y0142809D01*
X0186333Y0142847D02*
X0185408Y0142847D01*
X0185408Y0142884D02*
X0186333Y0142884D01*
X0186333Y0142922D02*
X0185408Y0142922D01*
X0185408Y0142960D02*
X0186333Y0142960D01*
X0186333Y0142998D02*
X0185408Y0142998D01*
X0185408Y0143036D02*
X0186333Y0143036D01*
X0186333Y0143074D02*
X0185408Y0143074D01*
X0185408Y0143112D02*
X0186333Y0143112D01*
X0186333Y0143150D02*
X0185408Y0143150D01*
X0185408Y0143188D02*
X0186333Y0143188D01*
X0186333Y0143225D02*
X0185408Y0143225D01*
X0185408Y0143263D02*
X0186333Y0143263D01*
X0186333Y0143301D02*
X0185408Y0143301D01*
X0185408Y0143339D02*
X0186333Y0143339D01*
X0186333Y0143377D02*
X0185408Y0143377D01*
X0185408Y0143415D02*
X0186333Y0143415D01*
X0186333Y0143453D02*
X0185408Y0143453D01*
X0185408Y0143491D02*
X0186333Y0143491D01*
X0186333Y0143528D02*
X0185408Y0143528D01*
X0185408Y0143566D02*
X0186333Y0143566D01*
X0186333Y0143604D02*
X0185408Y0143604D01*
X0185408Y0143642D02*
X0186333Y0143642D01*
X0186333Y0143680D02*
X0185408Y0143680D01*
X0185408Y0143718D02*
X0186333Y0143718D01*
X0186333Y0143756D02*
X0185408Y0143756D01*
X0185408Y0143794D02*
X0186333Y0143794D01*
X0186333Y0143832D02*
X0185408Y0143832D01*
X0185408Y0143869D02*
X0186333Y0143869D01*
X0186333Y0143907D02*
X0185408Y0143907D01*
X0185408Y0143945D02*
X0186333Y0143945D01*
X0186333Y0143983D02*
X0185408Y0143983D01*
X0185408Y0144021D02*
X0186333Y0144021D01*
X0186333Y0139892D02*
X0185408Y0139892D01*
X0185408Y0139854D02*
X0186333Y0139854D01*
X0186333Y0139816D02*
X0185408Y0139816D01*
X0185408Y0139778D02*
X0186333Y0139778D01*
X0186333Y0139740D02*
X0185408Y0139740D01*
X0185408Y0139702D02*
X0186333Y0139702D01*
X0186333Y0139665D02*
X0185408Y0139665D01*
X0185408Y0139627D02*
X0186333Y0139627D01*
X0186333Y0139589D02*
X0185408Y0139589D01*
X0185408Y0139551D02*
X0186333Y0139551D01*
X0186333Y0139513D02*
X0185408Y0139513D01*
X0185408Y0139475D02*
X0186333Y0139475D01*
X0186333Y0139437D02*
X0185408Y0139437D01*
X0185408Y0139399D02*
X0186333Y0139399D01*
X0186333Y0139362D02*
X0185408Y0139362D01*
X0185408Y0139324D02*
X0186333Y0139324D01*
X0186333Y0139286D02*
X0185408Y0139286D01*
X0185408Y0139248D02*
X0186333Y0139248D01*
X0186333Y0139210D02*
X0185408Y0139210D01*
X0185408Y0139172D02*
X0186333Y0139172D01*
X0186333Y0139134D02*
X0185408Y0139134D01*
X0185408Y0139096D02*
X0186333Y0139096D01*
X0186333Y0139058D02*
X0185408Y0139058D01*
X0185408Y0139021D02*
X0186333Y0139021D01*
X0186333Y0138983D02*
X0185408Y0138983D01*
X0185408Y0138945D02*
X0186333Y0138945D01*
X0186333Y0138907D02*
X0185408Y0138907D01*
X0185408Y0138869D02*
X0186333Y0138869D01*
X0186333Y0138831D02*
X0185408Y0138831D01*
X0185408Y0138793D02*
X0186333Y0138793D01*
X0186333Y0138755D02*
X0185408Y0138755D01*
X0185408Y0138718D02*
X0186333Y0138718D01*
X0186333Y0138680D02*
X0185408Y0138680D01*
X0185408Y0138642D02*
X0186333Y0138642D01*
X0186333Y0138604D02*
X0185408Y0138604D01*
X0185408Y0138566D02*
X0186333Y0138566D01*
X0186333Y0138528D02*
X0185408Y0138528D01*
X0185408Y0138490D02*
X0186333Y0138490D01*
X0186333Y0138452D02*
X0185408Y0138452D01*
X0185408Y0138414D02*
X0186333Y0138414D01*
X0186333Y0138377D02*
X0185408Y0138377D01*
X0185408Y0138339D02*
X0186333Y0138339D01*
X0186333Y0138301D02*
X0185408Y0138301D01*
X0185408Y0138263D02*
X0186333Y0138263D01*
X0186333Y0138225D02*
X0185408Y0138225D01*
X0185408Y0138187D02*
X0186333Y0138187D01*
X0186333Y0138149D02*
X0185408Y0138149D01*
X0185408Y0138111D02*
X0186333Y0138111D01*
X0186333Y0138074D02*
X0185408Y0138074D01*
X0185408Y0138036D02*
X0186333Y0138036D01*
X0186333Y0137998D02*
X0185408Y0137998D01*
X0185408Y0137960D02*
X0186333Y0137960D01*
X0186333Y0137922D02*
X0185408Y0137922D01*
X0185408Y0137884D02*
X0186333Y0137884D01*
X0186333Y0137846D02*
X0185408Y0137846D01*
X0185408Y0137808D02*
X0186333Y0137808D01*
X0186333Y0137771D02*
X0185408Y0137771D01*
X0185408Y0137733D02*
X0186333Y0137733D01*
X0186333Y0137695D02*
X0185408Y0137695D01*
X0185408Y0137657D02*
X0186333Y0137657D01*
X0186333Y0137619D02*
X0185408Y0137619D01*
X0185408Y0137581D02*
X0186333Y0137581D01*
X0186333Y0137543D02*
X0185408Y0137543D01*
X0185408Y0137505D02*
X0186333Y0137505D01*
X0186333Y0137467D02*
X0185408Y0137467D01*
X0185408Y0137430D02*
X0186333Y0137430D01*
X0186333Y0137392D02*
X0185408Y0137392D01*
X0185408Y0137354D02*
X0186333Y0137354D01*
X0186333Y0137316D02*
X0185408Y0137316D01*
X0185408Y0137278D02*
X0186333Y0137278D01*
X0186333Y0137240D02*
X0185408Y0137240D01*
X0185408Y0137202D02*
X0186333Y0137202D01*
X0186333Y0137164D02*
X0185408Y0137164D01*
X0185408Y0137127D02*
X0186333Y0137127D01*
X0186333Y0137089D02*
X0185408Y0137089D01*
X0185408Y0137051D02*
X0186333Y0137051D01*
X0186333Y0137013D02*
X0185408Y0137013D01*
X0185408Y0136975D02*
X0186333Y0136975D01*
X0186333Y0136937D02*
X0185408Y0136937D01*
X0185408Y0136899D02*
X0186333Y0136899D01*
X0186333Y0136861D02*
X0185408Y0136861D01*
X0185408Y0136823D02*
X0186333Y0136823D01*
X0186333Y0136786D02*
X0185408Y0136786D01*
X0185408Y0136748D02*
X0186333Y0136748D01*
X0186333Y0136710D02*
X0185408Y0136710D01*
X0185408Y0136672D02*
X0186333Y0136672D01*
X0186333Y0136634D02*
X0185408Y0136634D01*
X0185408Y0136596D02*
X0186333Y0136596D01*
X0186333Y0136558D02*
X0185408Y0136558D01*
X0185408Y0136520D02*
X0186333Y0136520D01*
X0186333Y0136483D02*
X0185408Y0136483D01*
X0185408Y0136445D02*
X0186333Y0136445D01*
X0186333Y0136407D02*
X0185408Y0136407D01*
X0185408Y0136369D02*
X0186333Y0136369D01*
X0186333Y0136331D02*
X0185408Y0136331D01*
X0185408Y0136293D02*
X0186333Y0136293D01*
X0186333Y0136255D02*
X0185408Y0136255D01*
X0185408Y0136217D02*
X0186333Y0136217D01*
X0186333Y0136179D02*
X0185408Y0136179D01*
X0185408Y0136142D02*
X0186333Y0136142D01*
X0186333Y0136104D02*
X0185408Y0136104D01*
X0185408Y0136066D02*
X0186333Y0136066D01*
X0186333Y0136028D02*
X0185408Y0136028D01*
X0185408Y0135990D02*
X0186333Y0135990D01*
X0186333Y0135952D02*
X0185408Y0135952D01*
X0179169Y0141483D02*
X0175503Y0141483D01*
X0175524Y0141521D02*
X0179169Y0141521D01*
X0179169Y0141559D02*
X0175544Y0141559D01*
X0175565Y0141597D02*
X0179169Y0141597D01*
X0179169Y0141634D02*
X0175585Y0141634D01*
X0175606Y0141672D02*
X0179169Y0141672D01*
X0179169Y0141710D02*
X0175627Y0141710D01*
X0175659Y0141748D02*
X0179169Y0141748D01*
X0179169Y0141786D02*
X0175692Y0141786D01*
X0175725Y0141824D02*
X0179169Y0141824D01*
X0179169Y0141862D02*
X0175758Y0141862D01*
X0175791Y0141900D02*
X0179169Y0141900D01*
X0179169Y0141937D02*
X0175824Y0141937D01*
X0175867Y0141975D02*
X0179169Y0141975D01*
X0179169Y0142013D02*
X0175918Y0142013D01*
X0175970Y0142051D02*
X0179169Y0142051D01*
X0179169Y0142089D02*
X0176021Y0142089D01*
X0176072Y0142127D02*
X0179169Y0142127D01*
X0179169Y0142165D02*
X0176135Y0142165D01*
X0176216Y0142203D02*
X0179169Y0142203D01*
X0179169Y0142241D02*
X0176298Y0142241D01*
X0176379Y0142278D02*
X0179169Y0142278D01*
X0179169Y0142316D02*
X0176497Y0142316D01*
X0176649Y0142354D02*
X0179169Y0142354D01*
X0179169Y0142392D02*
X0176841Y0142392D01*
X0171384Y0138604D02*
X0170290Y0138604D01*
X0170274Y0138566D02*
X0171369Y0138566D01*
X0171353Y0138528D02*
X0170258Y0138528D01*
X0170242Y0138490D02*
X0171338Y0138490D01*
X0171322Y0138452D02*
X0170226Y0138452D01*
X0170209Y0138414D02*
X0171307Y0138414D01*
X0171291Y0138377D02*
X0170193Y0138377D01*
X0170177Y0138339D02*
X0171276Y0138339D01*
X0171261Y0138301D02*
X0170161Y0138301D01*
X0170145Y0138263D02*
X0171245Y0138263D01*
X0171230Y0138225D02*
X0170129Y0138225D01*
X0170113Y0138187D02*
X0171214Y0138187D01*
X0171199Y0138149D02*
X0170097Y0138149D01*
X0170080Y0138111D02*
X0171183Y0138111D01*
X0171168Y0138074D02*
X0170064Y0138074D01*
X0170048Y0138036D02*
X0171152Y0138036D01*
X0171137Y0137998D02*
X0170032Y0137998D01*
X0170016Y0137960D02*
X0171122Y0137960D01*
X0171106Y0137922D02*
X0170000Y0137922D01*
X0169984Y0137884D02*
X0171091Y0137884D01*
X0171075Y0137846D02*
X0169968Y0137846D01*
X0169951Y0137808D02*
X0171060Y0137808D01*
X0171044Y0137771D02*
X0169935Y0137771D01*
X0169919Y0137733D02*
X0171029Y0137733D01*
X0171014Y0137695D02*
X0169903Y0137695D01*
X0169887Y0137657D02*
X0170998Y0137657D01*
X0170983Y0137619D02*
X0169871Y0137619D01*
X0166618Y0140119D02*
X0165233Y0140119D01*
X0165213Y0140157D02*
X0166549Y0140157D01*
X0166479Y0140195D02*
X0165194Y0140195D01*
X0165175Y0140233D02*
X0166410Y0140233D01*
X0166357Y0140271D02*
X0165155Y0140271D01*
X0165150Y0140309D02*
X0166330Y0140309D01*
X0166302Y0140346D02*
X0165145Y0140346D01*
X0165140Y0140384D02*
X0166275Y0140384D01*
X0166248Y0140422D02*
X0165134Y0140422D01*
X0165129Y0140460D02*
X0166221Y0140460D01*
X0166206Y0140498D02*
X0165124Y0140498D01*
X0165119Y0140536D02*
X0166199Y0140536D01*
X0166192Y0140574D02*
X0165114Y0140574D01*
X0165109Y0140612D02*
X0166185Y0140612D01*
X0166178Y0140649D02*
X0165103Y0140649D01*
X0165098Y0140687D02*
X0166171Y0140687D01*
X0166159Y0140752D02*
X0166159Y0140763D01*
X0166166Y0140801D02*
X0165083Y0140801D01*
X0165084Y0140839D02*
X0166173Y0140839D01*
X0166179Y0140877D02*
X0165088Y0140877D01*
X0165091Y0140915D02*
X0166186Y0140915D01*
X0166193Y0140953D02*
X0165094Y0140953D01*
X0165097Y0140990D02*
X0166200Y0140990D01*
X0166207Y0141028D02*
X0165100Y0141028D01*
X0165103Y0141066D02*
X0166214Y0141066D01*
X0166243Y0141104D02*
X0165106Y0141104D01*
X0165110Y0141142D02*
X0166272Y0141142D01*
X0166301Y0141180D02*
X0165115Y0141180D01*
X0165125Y0141218D02*
X0166330Y0141218D01*
X0166359Y0141256D02*
X0165136Y0141256D01*
X0165147Y0141293D02*
X0166403Y0141293D01*
X0166480Y0141331D02*
X0165158Y0141331D01*
X0165168Y0141369D02*
X0166557Y0141369D01*
X0166635Y0141407D02*
X0165179Y0141407D01*
X0165190Y0141445D02*
X0166918Y0141445D01*
X0166596Y0142392D02*
X0169111Y0142392D01*
X0169111Y0142354D02*
X0166353Y0142354D01*
X0166180Y0142316D02*
X0169111Y0142316D01*
X0169111Y0142278D02*
X0166070Y0142278D01*
X0165980Y0142241D02*
X0169111Y0142241D01*
X0169111Y0142203D02*
X0165890Y0142203D01*
X0165810Y0142165D02*
X0169111Y0142165D01*
X0169111Y0142127D02*
X0165756Y0142127D01*
X0165702Y0142089D02*
X0169111Y0142089D01*
X0169111Y0142051D02*
X0165648Y0142051D01*
X0165593Y0142013D02*
X0169111Y0142013D01*
X0169111Y0141975D02*
X0165547Y0141975D01*
X0165513Y0141937D02*
X0169111Y0141937D01*
X0169111Y0141900D02*
X0165479Y0141900D01*
X0165444Y0141862D02*
X0169111Y0141862D01*
X0169111Y0141824D02*
X0165410Y0141824D01*
X0165376Y0141786D02*
X0169111Y0141786D01*
X0169111Y0141748D02*
X0165345Y0141748D01*
M02*
