%
M48
M72
T01C0.0120
T02C0.0787
T03C0.1300
%
T01
X12133Y6700
X10333Y7300
X11283Y8500
X11333Y9000
X12133Y8500
X13833Y9000
X13733Y10000
X13733Y10400
X14833Y11000
X14036Y12297
X13833Y12600
X12033Y11400
X11333Y10900
X11333Y10500
X11533Y9700
X10833Y11500
X9033Y12400
X9033Y12800
X7733Y12800
X7133Y13200
X8833Y14000
X8333Y15500
X9833Y16500
X14833Y17500
X15533Y15600
X19233Y13700
X20133Y13700
X21833Y12100
X19833Y10500
X18833Y10800
X17833Y11000
X15933Y9000
X16433Y8400
X17833Y8000
X19933Y8300
X21033Y6900
X23833Y8000
X25333Y10500
X26533Y12800
X27533Y15900
X25333Y17500
X21033Y16700
X21033Y16100
X20833Y17500
X7133Y9900
T02
X17333Y15366
X17333Y18122
X22333Y18122
X22333Y15366
T03
X7333Y7000
X7333Y18500
X26833Y18500
X26833Y7000
M30
