G75*
%MOIN*%
%OFA0B0*%
%FSLAX25Y25*%
%IPPOS*%
%LPD*%
%AMOC8*
5,1,8,0,0,1.08239X$1,22.5*
%
%ADD10C,0.02200*%
%ADD11C,0.00800*%
%ADD12C,0.01000*%
%ADD13C,0.02000*%
%ADD14C,0.00010*%
%ADD15C,0.00050*%
%ADD16R,0.00945X0.00039*%
%ADD17R,0.01417X0.00039*%
%ADD18R,0.01811X0.00000*%
%ADD19R,0.02205X0.00039*%
%ADD20R,0.02441X0.00039*%
%ADD21R,0.02677X0.00039*%
%ADD22R,0.02992X0.00000*%
%ADD23R,0.03189X0.00039*%
%ADD24R,0.03386X0.00039*%
%ADD25R,0.03622X0.00039*%
%ADD26R,0.03780X0.00000*%
%ADD27R,0.03937X0.00039*%
%ADD28R,0.04016X0.00039*%
%ADD29R,0.04252X0.00039*%
%ADD30R,0.04409X0.00000*%
%ADD31R,0.04488X0.00039*%
%ADD32R,0.04724X0.00039*%
%ADD33R,0.04803X0.00039*%
%ADD34R,0.04961X0.00000*%
%ADD35R,0.05039X0.00039*%
%ADD36R,0.05197X0.00039*%
%ADD37R,0.05276X0.00039*%
%ADD38R,0.05433X0.00000*%
%ADD39R,0.05512X0.00039*%
%ADD40R,0.05591X0.00039*%
%ADD41R,0.05748X0.00000*%
%ADD42R,0.05827X0.00039*%
%ADD43R,0.05906X0.00039*%
%ADD44R,0.06063X0.00039*%
%ADD45R,0.06142X0.00000*%
%ADD46R,0.06220X0.00039*%
%ADD47R,0.06299X0.00039*%
%ADD48R,0.06378X0.00039*%
%ADD49R,0.06535X0.00000*%
%ADD50R,0.06535X0.00039*%
%ADD51R,0.06693X0.00039*%
%ADD52R,0.06772X0.00039*%
%ADD53R,0.06811X0.00000*%
%ADD54R,0.06929X0.00039*%
%ADD55R,0.07008X0.00039*%
%ADD56R,0.07087X0.00039*%
%ADD57R,0.07165X0.00000*%
%ADD58R,0.07165X0.00039*%
%ADD59R,0.07323X0.00039*%
%ADD60R,0.07402X0.00039*%
%ADD61R,0.07402X0.00000*%
%ADD62R,0.07480X0.00039*%
%ADD63R,0.07559X0.00039*%
%ADD64R,0.07638X0.00039*%
%ADD65R,0.07717X0.00000*%
%ADD66R,0.07795X0.00039*%
%ADD67R,0.07874X0.00039*%
%ADD68R,0.07874X0.00000*%
%ADD69R,0.07953X0.00039*%
%ADD70R,0.08031X0.00039*%
%ADD71R,0.03583X0.00039*%
%ADD72R,0.03386X0.00000*%
%ADD73R,0.03307X0.00039*%
%ADD74R,0.03071X0.00039*%
%ADD75R,0.03031X0.00000*%
%ADD76R,0.02953X0.00039*%
%ADD77R,0.02874X0.00039*%
%ADD78R,0.02835X0.00039*%
%ADD79R,0.02756X0.00000*%
%ADD80R,0.02717X0.00000*%
%ADD81R,0.02717X0.00039*%
%ADD82R,0.02638X0.00039*%
%ADD83R,0.02598X0.00039*%
%ADD84R,0.02598X0.00000*%
%ADD85R,0.02559X0.00039*%
%ADD86R,0.02480X0.00039*%
%ADD87R,0.02480X0.00000*%
%ADD88R,0.02402X0.00039*%
%ADD89R,0.02362X0.00000*%
%ADD90R,0.02323X0.00039*%
%ADD91R,0.02283X0.00039*%
%ADD92R,0.02323X0.00000*%
%ADD93R,0.02244X0.00039*%
%ADD94R,0.02205X0.00000*%
%ADD95R,0.02165X0.00039*%
%ADD96R,0.02126X0.00000*%
%ADD97R,0.02126X0.00039*%
%ADD98R,0.02087X0.00000*%
%ADD99R,0.02087X0.00039*%
%ADD100R,0.02047X0.00039*%
%ADD101R,0.02047X0.00000*%
%ADD102R,0.02008X0.00039*%
%ADD103R,0.02008X0.00000*%
%ADD104R,0.01969X0.00039*%
%ADD105R,0.01929X0.00039*%
%ADD106R,0.01969X0.00000*%
%ADD107R,0.01890X0.00000*%
%ADD108R,0.01890X0.00039*%
%ADD109R,0.01850X0.00000*%
%ADD110R,0.01850X0.00039*%
%ADD111R,0.01811X0.00039*%
%ADD112R,0.01772X0.00039*%
%ADD113R,0.01772X0.00000*%
%ADD114R,0.01732X0.00039*%
%ADD115R,0.01732X0.00000*%
%ADD116R,0.01693X0.00039*%
%ADD117R,0.01693X0.00000*%
%ADD118R,0.01654X0.00039*%
%ADD119R,0.01654X0.00000*%
%ADD120R,0.01614X0.00039*%
%ADD121R,0.01614X0.00000*%
%ADD122R,0.02677X0.00000*%
%ADD123R,0.02402X0.00000*%
%ADD124R,0.02756X0.00039*%
%ADD125R,0.02520X0.00039*%
%ADD126R,0.02913X0.00000*%
%ADD127R,0.02953X0.00000*%
%ADD128R,0.02874X0.00000*%
%ADD129R,0.02992X0.00039*%
%ADD130R,0.02913X0.00039*%
%ADD131R,0.03031X0.00039*%
%ADD132R,0.03071X0.00000*%
%ADD133R,0.03110X0.00039*%
%ADD134R,0.03110X0.00000*%
%ADD135R,0.03150X0.00039*%
%ADD136R,0.03150X0.00000*%
%ADD137R,0.03189X0.00000*%
%ADD138R,0.02795X0.00039*%
%ADD139R,0.02638X0.00000*%
%ADD140R,0.02795X0.00000*%
%ADD141R,0.02283X0.00000*%
%ADD142R,0.02559X0.00000*%
%ADD143R,0.00315X0.00039*%
%ADD144R,0.00472X0.00000*%
%ADD145R,0.00551X0.00039*%
%ADD146R,0.00709X0.00039*%
%ADD147R,0.00787X0.00039*%
%ADD148R,0.00787X0.00000*%
%ADD149R,0.00866X0.00039*%
%ADD150R,0.01024X0.00039*%
%ADD151R,0.01024X0.00000*%
%ADD152R,0.01102X0.00039*%
%ADD153R,0.01181X0.00039*%
%ADD154R,0.01181X0.00000*%
%ADD155R,0.01260X0.00039*%
%ADD156R,0.01260X0.00000*%
%ADD157R,0.00236X0.00039*%
%ADD158R,0.00433X0.00039*%
%ADD159R,0.00591X0.00000*%
%ADD160R,0.00748X0.00039*%
%ADD161R,0.00827X0.00039*%
%ADD162R,0.00906X0.00000*%
%ADD163R,0.00984X0.00039*%
%ADD164R,0.01063X0.00039*%
%ADD165R,0.01102X0.00000*%
%ADD166R,0.01142X0.00039*%
%ADD167R,0.01220X0.00039*%
%ADD168R,0.01299X0.00000*%
%ADD169R,0.01339X0.00039*%
%ADD170R,0.01378X0.00039*%
%ADD171R,0.01417X0.00000*%
%ADD172R,0.01457X0.00039*%
%ADD173R,0.01496X0.00039*%
%ADD174R,0.01535X0.00000*%
%ADD175R,0.01575X0.00039*%
%ADD176R,0.04646X0.00000*%
%ADD177R,0.04646X0.00039*%
%ADD178R,0.04567X0.00039*%
%ADD179R,0.04409X0.00039*%
%ADD180R,0.04331X0.00039*%
%ADD181R,0.04173X0.00000*%
%ADD182R,0.04173X0.00039*%
%ADD183R,0.04094X0.00039*%
%ADD184R,0.04055X0.00039*%
%ADD185R,0.03937X0.00000*%
%ADD186R,0.03858X0.00039*%
%ADD187R,0.03819X0.00039*%
%ADD188R,0.03701X0.00000*%
%ADD189R,0.03701X0.00039*%
%ADD190R,0.03504X0.00000*%
%ADD191R,0.03465X0.00039*%
%ADD192R,0.03307X0.00000*%
%ADD193R,0.03228X0.00039*%
%ADD194R,0.00512X0.00039*%
%ADD195R,0.02835X0.00000*%
%ADD196R,0.01063X0.00000*%
%ADD197R,0.02362X0.00039*%
%ADD198R,0.01220X0.00000*%
%ADD199R,0.02165X0.00000*%
%ADD200R,0.01299X0.00039*%
%ADD201R,0.01575X0.00000*%
%ADD202R,0.01339X0.00000*%
%ADD203R,0.00866X0.00000*%
%ADD204R,0.00630X0.00039*%
%ADD205R,0.00551X0.00000*%
%ADD206R,0.00079X0.00039*%
%ADD207R,0.01457X0.00000*%
%ADD208R,0.05748X0.00039*%
%ADD209R,0.05669X0.00039*%
%ADD210R,0.05512X0.00000*%
%ADD211R,0.05433X0.00039*%
%ADD212R,0.05354X0.00039*%
%ADD213R,0.05276X0.00000*%
%ADD214R,0.05118X0.00039*%
%ADD215R,0.05039X0.00000*%
%ADD216R,0.04882X0.00039*%
%ADD217R,0.04803X0.00000*%
%ADD218R,0.04567X0.00000*%
%ADD219R,0.03858X0.00000*%
%ADD220R,0.00236X0.00000*%
%ADD221R,0.00394X0.00039*%
%ADD222R,0.01496X0.00000*%
%ADD223R,0.10551X0.00039*%
%ADD224R,0.10787X0.00039*%
%ADD225R,0.10945X0.00000*%
%ADD226R,0.11024X0.00039*%
%ADD227R,0.11102X0.00039*%
%ADD228R,0.11181X0.00039*%
%ADD229R,0.11260X0.00000*%
%ADD230R,0.11339X0.00039*%
%ADD231R,0.11417X0.00039*%
%ADD232R,0.11496X0.00000*%
%ADD233R,0.11496X0.00039*%
%ADD234R,0.11575X0.00039*%
%ADD235R,0.11654X0.00000*%
%ADD236R,0.11654X0.00039*%
%ADD237R,0.11732X0.00039*%
%ADD238R,0.11732X0.00000*%
%ADD239R,0.11811X0.00039*%
%ADD240R,0.11811X0.00000*%
%ADD241R,0.11260X0.00039*%
%ADD242R,0.05591X0.00000*%
%ADD243R,0.05984X0.00000*%
%ADD244R,0.06142X0.00039*%
%ADD245R,0.06299X0.00000*%
%ADD246R,0.06457X0.00000*%
%ADD247R,0.06457X0.00039*%
%ADD248R,0.06614X0.00039*%
%ADD249R,0.06614X0.00000*%
%ADD250R,0.03465X0.00000*%
%ADD251R,0.03543X0.00039*%
%ADD252R,0.03780X0.00039*%
%ADD253R,0.04252X0.00000*%
%ADD254R,0.01535X0.00039*%
%ADD255R,0.01142X0.00000*%
%ADD256R,0.00984X0.00000*%
%ADD257R,0.00945X0.00000*%
%ADD258R,0.00906X0.00039*%
%ADD259R,0.00827X0.00000*%
%ADD260R,0.00748X0.00000*%
%ADD261R,0.00709X0.00000*%
%ADD262R,0.00669X0.00039*%
%ADD263R,0.00669X0.00000*%
%ADD264R,0.00630X0.00000*%
%ADD265R,0.00591X0.00039*%
%ADD266R,0.00472X0.00039*%
%ADD267R,0.00354X0.00000*%
%ADD268R,0.00394X0.00000*%
%ADD269R,0.00039X0.00039*%
%ADD270R,0.00354X0.00039*%
%ADD271R,0.00433X0.00000*%
%ADD272R,0.03228X0.00000*%
%ADD273R,0.03543X0.00000*%
%ADD274R,0.03622X0.00000*%
%ADD275R,0.04724X0.00000*%
%ADD276R,0.04882X0.00000*%
%ADD277R,0.04961X0.00039*%
%ADD278R,0.00157X0.00039*%
%ADD279R,0.00787X0.00157*%
%ADD280R,0.00630X0.00157*%
%ADD281R,0.00945X0.00157*%
%ADD282R,0.01102X0.00157*%
%ADD283R,0.00315X0.00157*%
%ADD284R,0.02205X0.00157*%
%ADD285R,0.02520X0.00157*%
%ADD286R,0.00157X0.00157*%
%ADD287R,0.03465X0.00157*%
%ADD288R,0.01890X0.00157*%
%ADD289R,0.02992X0.00157*%
%ADD290R,0.01732X0.00157*%
%ADD291R,0.03150X0.00157*%
%ADD292R,0.04094X0.00157*%
%ADD293R,0.02047X0.00157*%
%ADD294R,0.03307X0.00157*%
%ADD295R,0.02835X0.00157*%
%ADD296R,0.02362X0.00157*%
%ADD297R,0.01260X0.00157*%
%ADD298R,0.02677X0.00157*%
%ADD299R,0.01417X0.00157*%
%ADD300R,0.00472X0.00157*%
%ADD301R,0.01575X0.00157*%
%ADD302R,0.03780X0.00157*%
%ADD303R,0.04567X0.00157*%
%ADD304R,0.03622X0.00157*%
%ADD305R,0.03937X0.00157*%
%ADD306R,0.00079X0.00709*%
%ADD307R,0.00079X0.00591*%
%ADD308R,0.00118X0.01063*%
%ADD309R,0.00118X0.00945*%
%ADD310R,0.00118X0.00827*%
%ADD311R,0.00118X0.00709*%
%ADD312R,0.00118X0.00118*%
%ADD313R,0.00157X0.01772*%
%ADD314R,0.00157X0.01181*%
%ADD315R,0.00157X0.00827*%
%ADD316R,0.00157X0.00236*%
%ADD317R,0.00157X0.00591*%
%ADD318R,0.00118X0.02008*%
%ADD319R,0.00118X0.01181*%
%ADD320R,0.00118X0.01535*%
%ADD321R,0.00118X0.02126*%
%ADD322R,0.00118X0.01299*%
%ADD323R,0.00118X0.01654*%
%ADD324R,0.00118X0.02244*%
%ADD325R,0.00118X0.01890*%
%ADD326R,0.00157X0.02362*%
%ADD327R,0.00157X0.01063*%
%ADD328R,0.00157X0.02008*%
%ADD329R,0.00118X0.02480*%
%ADD330R,0.00118X0.01417*%
%ADD331R,0.00118X0.00236*%
%ADD332R,0.00118X0.00591*%
%ADD333R,0.00118X0.00472*%
%ADD334R,0.00157X0.01535*%
%ADD335R,0.00157X0.01890*%
%ADD336R,0.00157X0.00709*%
%ADD337R,0.00118X0.01772*%
%ADD338R,0.00157X0.02244*%
%ADD339R,0.00157X0.01654*%
%ADD340R,0.00157X0.02126*%
%ADD341R,0.00118X0.00354*%
%ADD342R,0.00157X0.00945*%
%ADD343R,0.00157X0.02480*%
%ADD344R,0.00157X0.00472*%
%ADD345R,0.00118X0.02362*%
%ADD346R,0.00157X0.01417*%
%ADD347R,0.10748X0.00118*%
%ADD348R,0.11457X0.00118*%
%ADD349R,0.11929X0.00079*%
%ADD350R,0.12402X0.00157*%
%ADD351R,0.12638X0.00118*%
%ADD352R,0.12874X0.00118*%
%ADD353R,0.13110X0.00079*%
%ADD354R,0.04961X0.00118*%
%ADD355R,0.03071X0.00118*%
%ADD356R,0.05079X0.00118*%
%ADD357R,0.02244X0.00157*%
%ADD358R,0.01181X0.00157*%
%ADD359R,0.02244X0.00118*%
%ADD360R,0.00591X0.00118*%
%ADD361R,0.00945X0.00118*%
%ADD362R,0.00354X0.00118*%
%ADD363R,0.02598X0.00118*%
%ADD364R,0.02362X0.00118*%
%ADD365R,0.00472X0.00118*%
%ADD366R,0.00827X0.00118*%
%ADD367R,0.02480X0.00118*%
%ADD368R,0.02480X0.00157*%
%ADD369R,0.00236X0.00157*%
%ADD370R,0.00709X0.00157*%
%ADD371R,0.00354X0.00157*%
%ADD372R,0.00709X0.00118*%
%ADD373R,0.00236X0.00118*%
%ADD374R,0.02598X0.00157*%
%ADD375R,0.00591X0.00157*%
%ADD376R,0.00118X0.00157*%
%ADD377R,0.02717X0.00118*%
%ADD378R,0.02835X0.00118*%
%ADD379R,0.00827X0.00157*%
%ADD380R,0.01299X0.00118*%
%ADD381R,0.01654X0.00118*%
%ADD382R,0.01063X0.00118*%
%ADD383R,0.01063X0.00157*%
%ADD384R,0.01181X0.00118*%
%ADD385R,0.02126X0.00118*%
%ADD386R,0.02126X0.00157*%
%ADD387R,0.01417X0.00118*%
%ADD388R,0.13110X0.00118*%
%ADD389R,0.12402X0.00118*%
%ADD390R,0.11929X0.00118*%
%ADD391R,0.00118X0.07205*%
%ADD392R,0.00118X0.07913*%
%ADD393R,0.00079X0.08386*%
%ADD394R,0.00157X0.08858*%
%ADD395R,0.00118X0.09094*%
%ADD396R,0.00118X0.09331*%
%ADD397R,0.00079X0.09567*%
%ADD398R,0.00118X0.03661*%
%ADD399R,0.00118X0.02953*%
%ADD400R,0.00157X0.02598*%
%ADD401R,0.00157X0.00354*%
%ADD402R,0.00118X0.02598*%
%ADD403R,0.00118X0.02835*%
%ADD404R,0.00157X0.04252*%
%ADD405R,0.00118X0.04370*%
%ADD406R,0.00118X0.04488*%
%ADD407R,0.00157X0.04488*%
%ADD408R,0.00157X0.00118*%
%ADD409R,0.00157X0.04370*%
%ADD410R,0.00118X0.04252*%
%ADD411R,0.00118X0.02717*%
%ADD412R,0.00157X0.03071*%
%ADD413R,0.00118X0.03425*%
%ADD414R,0.00118X0.09567*%
%ADD415R,0.00118X0.08858*%
%ADD416R,0.00118X0.08386*%
%ADD417R,0.00118X0.10039*%
%ADD418R,0.00118X0.10748*%
%ADD419R,0.00079X0.11220*%
%ADD420R,0.00157X0.11693*%
%ADD421R,0.00118X0.11929*%
%ADD422R,0.00118X0.12165*%
%ADD423R,0.00079X0.12402*%
%ADD424R,0.00118X0.12638*%
%ADD425R,0.00157X0.03307*%
%ADD426R,0.00157X0.01299*%
%ADD427R,0.00157X0.02717*%
%ADD428R,0.00118X0.03307*%
%ADD429R,0.00118X0.03189*%
%ADD430R,0.00157X0.03189*%
%ADD431R,0.00118X0.03071*%
%ADD432R,0.00157X0.02953*%
%ADD433R,0.00157X0.02835*%
%ADD434R,0.00118X0.12402*%
%ADD435R,0.00118X0.11693*%
%ADD436R,0.00118X0.11220*%
D10*
X0125213Y0075000D02*
X0125453Y0075000D01*
X0133213Y0075000D02*
X0133453Y0075000D01*
D11*
X0109680Y0093031D02*
X0109680Y0096969D01*
X0102987Y0096969D02*
X0102987Y0093031D01*
X0119837Y0095504D02*
X0122003Y0095504D01*
X0119837Y0095504D02*
X0119837Y0097669D01*
X0130664Y0095504D02*
X0132829Y0095504D01*
X0132829Y0097669D01*
X0133617Y0107118D02*
X0131451Y0109283D01*
X0122003Y0108496D02*
X0119837Y0108496D01*
X0119837Y0106331D01*
X0081955Y0118189D02*
X0075459Y0118189D01*
X0081955Y0118189D02*
X0081955Y0121142D01*
X0065223Y0124094D02*
X0065223Y0135906D01*
X0075459Y0141811D02*
X0081955Y0141811D01*
X0081955Y0138858D01*
X0084114Y0139843D02*
X0084116Y0139883D01*
X0084122Y0139922D01*
X0084132Y0139961D01*
X0084145Y0139998D01*
X0084163Y0140034D01*
X0084184Y0140068D01*
X0084208Y0140100D01*
X0084235Y0140129D01*
X0084265Y0140156D01*
X0084297Y0140179D01*
X0084332Y0140199D01*
X0084368Y0140215D01*
X0084406Y0140228D01*
X0084445Y0140237D01*
X0084484Y0140242D01*
X0084524Y0140243D01*
X0084564Y0140240D01*
X0084603Y0140233D01*
X0084641Y0140222D01*
X0084679Y0140208D01*
X0084714Y0140189D01*
X0084747Y0140168D01*
X0084779Y0140143D01*
X0084807Y0140115D01*
X0084833Y0140085D01*
X0084855Y0140052D01*
X0084874Y0140017D01*
X0084890Y0139980D01*
X0084902Y0139942D01*
X0084910Y0139903D01*
X0084914Y0139863D01*
X0084914Y0139823D01*
X0084910Y0139783D01*
X0084902Y0139744D01*
X0084890Y0139706D01*
X0084874Y0139669D01*
X0084855Y0139634D01*
X0084833Y0139601D01*
X0084807Y0139571D01*
X0084779Y0139543D01*
X0084747Y0139518D01*
X0084714Y0139497D01*
X0084679Y0139478D01*
X0084641Y0139464D01*
X0084603Y0139453D01*
X0084564Y0139446D01*
X0084524Y0139443D01*
X0084484Y0139444D01*
X0084445Y0139449D01*
X0084406Y0139458D01*
X0084368Y0139471D01*
X0084332Y0139487D01*
X0084297Y0139507D01*
X0084265Y0139530D01*
X0084235Y0139557D01*
X0084208Y0139586D01*
X0084184Y0139618D01*
X0084163Y0139652D01*
X0084145Y0139688D01*
X0084132Y0139725D01*
X0084122Y0139764D01*
X0084116Y0139803D01*
X0084114Y0139843D01*
X0107585Y0147996D02*
X0107585Y0194059D01*
X0131207Y0194059D01*
X0139081Y0194059D01*
X0139081Y0147996D01*
X0107585Y0147996D01*
X0082333Y0162000D02*
X0082333Y0168000D01*
X0082331Y0168083D01*
X0082325Y0168166D01*
X0082316Y0168249D01*
X0082302Y0168331D01*
X0082285Y0168412D01*
X0082264Y0168493D01*
X0082240Y0168572D01*
X0082211Y0168650D01*
X0082180Y0168727D01*
X0082144Y0168802D01*
X0082106Y0168876D01*
X0082063Y0168948D01*
X0082018Y0169017D01*
X0081969Y0169085D01*
X0081918Y0169150D01*
X0081863Y0169213D01*
X0081806Y0169273D01*
X0081746Y0169330D01*
X0081683Y0169385D01*
X0081618Y0169436D01*
X0081550Y0169485D01*
X0081481Y0169530D01*
X0081409Y0169573D01*
X0081335Y0169611D01*
X0081260Y0169647D01*
X0081183Y0169678D01*
X0081105Y0169707D01*
X0081026Y0169731D01*
X0080945Y0169752D01*
X0080864Y0169769D01*
X0080782Y0169783D01*
X0080699Y0169792D01*
X0080616Y0169798D01*
X0080533Y0169800D01*
X0076133Y0169800D01*
X0076050Y0169798D01*
X0075967Y0169792D01*
X0075884Y0169783D01*
X0075802Y0169769D01*
X0075721Y0169752D01*
X0075640Y0169731D01*
X0075561Y0169707D01*
X0075483Y0169678D01*
X0075406Y0169647D01*
X0075331Y0169611D01*
X0075257Y0169573D01*
X0075185Y0169530D01*
X0075116Y0169485D01*
X0075048Y0169436D01*
X0074983Y0169385D01*
X0074920Y0169330D01*
X0074860Y0169273D01*
X0074803Y0169213D01*
X0074748Y0169150D01*
X0074697Y0169085D01*
X0074648Y0169017D01*
X0074603Y0168948D01*
X0074560Y0168876D01*
X0074522Y0168802D01*
X0074486Y0168727D01*
X0074455Y0168650D01*
X0074426Y0168572D01*
X0074402Y0168493D01*
X0074381Y0168412D01*
X0074364Y0168331D01*
X0074350Y0168249D01*
X0074341Y0168166D01*
X0074335Y0168083D01*
X0074333Y0168000D01*
X0074333Y0162000D01*
X0074335Y0161917D01*
X0074341Y0161834D01*
X0074350Y0161751D01*
X0074364Y0161669D01*
X0074381Y0161588D01*
X0074402Y0161507D01*
X0074426Y0161428D01*
X0074455Y0161350D01*
X0074486Y0161273D01*
X0074522Y0161198D01*
X0074560Y0161124D01*
X0074603Y0161052D01*
X0074648Y0160983D01*
X0074697Y0160915D01*
X0074748Y0160850D01*
X0074803Y0160787D01*
X0074860Y0160727D01*
X0074920Y0160670D01*
X0074983Y0160615D01*
X0075048Y0160564D01*
X0075116Y0160515D01*
X0075185Y0160470D01*
X0075257Y0160427D01*
X0075331Y0160389D01*
X0075406Y0160353D01*
X0075483Y0160322D01*
X0075561Y0160293D01*
X0075640Y0160269D01*
X0075721Y0160248D01*
X0075802Y0160231D01*
X0075884Y0160217D01*
X0075967Y0160208D01*
X0076050Y0160202D01*
X0076133Y0160200D01*
X0080533Y0160200D01*
X0080616Y0160202D01*
X0080699Y0160208D01*
X0080782Y0160217D01*
X0080864Y0160231D01*
X0080945Y0160248D01*
X0081026Y0160269D01*
X0081105Y0160293D01*
X0081183Y0160322D01*
X0081260Y0160353D01*
X0081335Y0160389D01*
X0081409Y0160427D01*
X0081481Y0160470D01*
X0081550Y0160515D01*
X0081618Y0160564D01*
X0081683Y0160615D01*
X0081746Y0160670D01*
X0081806Y0160727D01*
X0081863Y0160787D01*
X0081918Y0160850D01*
X0081969Y0160915D01*
X0082018Y0160983D01*
X0082063Y0161052D01*
X0082106Y0161124D01*
X0082144Y0161198D01*
X0082180Y0161273D01*
X0082211Y0161350D01*
X0082240Y0161428D01*
X0082264Y0161507D01*
X0082285Y0161588D01*
X0082302Y0161669D01*
X0082316Y0161751D01*
X0082325Y0161834D01*
X0082331Y0161917D01*
X0082333Y0162000D01*
X0075083Y0108875D02*
X0075083Y0105125D01*
X0183270Y0084602D02*
X0193495Y0084602D01*
X0202633Y0088837D02*
X0202633Y0101163D01*
X0202633Y0101162D02*
X0202624Y0101233D01*
X0202619Y0101304D01*
X0202618Y0101376D01*
X0202621Y0101447D01*
X0202628Y0101518D01*
X0202638Y0101589D01*
X0202652Y0101658D01*
X0202671Y0101728D01*
X0202692Y0101796D01*
X0202718Y0101862D01*
X0202747Y0101927D01*
X0202779Y0101991D01*
X0202815Y0102053D01*
X0202854Y0102112D01*
X0202897Y0102170D01*
X0202942Y0102225D01*
X0202991Y0102277D01*
X0203042Y0102327D01*
X0203095Y0102374D01*
X0203152Y0102418D01*
X0203210Y0102459D01*
X0203271Y0102497D01*
X0203333Y0102531D01*
X0203398Y0102562D01*
X0203464Y0102589D01*
X0203531Y0102613D01*
X0203599Y0102633D01*
X0203669Y0102650D01*
X0203739Y0102662D01*
X0203740Y0102663D02*
X0222533Y0102663D01*
X0222534Y0102662D02*
X0222604Y0102671D01*
X0222676Y0102676D01*
X0222747Y0102677D01*
X0222818Y0102674D01*
X0222889Y0102667D01*
X0222960Y0102657D01*
X0223030Y0102643D01*
X0223099Y0102625D01*
X0223167Y0102603D01*
X0223234Y0102577D01*
X0223299Y0102548D01*
X0223362Y0102516D01*
X0223424Y0102480D01*
X0223484Y0102441D01*
X0223541Y0102398D01*
X0223596Y0102353D01*
X0223649Y0102305D01*
X0223699Y0102253D01*
X0223746Y0102200D01*
X0223790Y0102144D01*
X0223830Y0102085D01*
X0223868Y0102024D01*
X0223902Y0101962D01*
X0223933Y0101898D01*
X0223961Y0101832D01*
X0223984Y0101764D01*
X0224004Y0101696D01*
X0224021Y0101626D01*
X0224033Y0101556D01*
X0224033Y0097600D01*
X0223833Y0097600D02*
X0223735Y0097598D01*
X0223637Y0097592D01*
X0223539Y0097583D01*
X0223442Y0097569D01*
X0223345Y0097552D01*
X0223249Y0097531D01*
X0223154Y0097506D01*
X0223060Y0097478D01*
X0222968Y0097445D01*
X0222876Y0097410D01*
X0222786Y0097370D01*
X0222698Y0097328D01*
X0222611Y0097281D01*
X0222527Y0097232D01*
X0222444Y0097179D01*
X0222364Y0097123D01*
X0222285Y0097063D01*
X0222209Y0097001D01*
X0222136Y0096936D01*
X0222065Y0096868D01*
X0221997Y0096797D01*
X0221932Y0096724D01*
X0221870Y0096648D01*
X0221810Y0096569D01*
X0221754Y0096489D01*
X0221701Y0096406D01*
X0221652Y0096322D01*
X0221605Y0096235D01*
X0221563Y0096147D01*
X0221523Y0096057D01*
X0221488Y0095965D01*
X0221455Y0095873D01*
X0221427Y0095779D01*
X0221402Y0095684D01*
X0221381Y0095588D01*
X0221364Y0095491D01*
X0221350Y0095394D01*
X0221341Y0095296D01*
X0221335Y0095198D01*
X0221333Y0095100D01*
X0221335Y0095002D01*
X0221341Y0094904D01*
X0221350Y0094806D01*
X0221364Y0094709D01*
X0221381Y0094612D01*
X0221402Y0094516D01*
X0221427Y0094421D01*
X0221455Y0094327D01*
X0221488Y0094235D01*
X0221523Y0094143D01*
X0221563Y0094053D01*
X0221605Y0093965D01*
X0221652Y0093878D01*
X0221701Y0093794D01*
X0221754Y0093711D01*
X0221810Y0093631D01*
X0221870Y0093552D01*
X0221932Y0093476D01*
X0221997Y0093403D01*
X0222065Y0093332D01*
X0222136Y0093264D01*
X0222209Y0093199D01*
X0222285Y0093137D01*
X0222364Y0093077D01*
X0222444Y0093021D01*
X0222527Y0092968D01*
X0222611Y0092919D01*
X0222698Y0092872D01*
X0222786Y0092830D01*
X0222876Y0092790D01*
X0222968Y0092755D01*
X0223060Y0092722D01*
X0223154Y0092694D01*
X0223249Y0092669D01*
X0223345Y0092648D01*
X0223442Y0092631D01*
X0223539Y0092617D01*
X0223637Y0092608D01*
X0223735Y0092602D01*
X0223833Y0092600D01*
X0224033Y0092600D02*
X0224033Y0089281D01*
X0224034Y0089231D02*
X0224041Y0089150D01*
X0224045Y0089069D01*
X0224044Y0088988D01*
X0224040Y0088906D01*
X0224032Y0088826D01*
X0224020Y0088745D01*
X0224005Y0088665D01*
X0223985Y0088586D01*
X0223962Y0088508D01*
X0223935Y0088432D01*
X0223905Y0088356D01*
X0223871Y0088282D01*
X0223833Y0088210D01*
X0223792Y0088140D01*
X0223748Y0088072D01*
X0223701Y0088006D01*
X0223650Y0087942D01*
X0223597Y0087881D01*
X0223540Y0087822D01*
X0223481Y0087766D01*
X0223420Y0087713D01*
X0223356Y0087663D01*
X0223289Y0087616D01*
X0223221Y0087572D01*
X0223150Y0087532D01*
X0223078Y0087495D01*
X0223004Y0087461D01*
X0222928Y0087432D01*
X0222851Y0087405D01*
X0222773Y0087383D01*
X0222694Y0087364D01*
X0222614Y0087349D01*
X0222533Y0087337D01*
X0204133Y0087337D01*
X0204057Y0087339D01*
X0203982Y0087345D01*
X0203906Y0087354D01*
X0203831Y0087368D01*
X0203757Y0087385D01*
X0203684Y0087406D01*
X0203612Y0087430D01*
X0203542Y0087458D01*
X0203473Y0087490D01*
X0203405Y0087525D01*
X0203340Y0087564D01*
X0203276Y0087606D01*
X0203215Y0087651D01*
X0203156Y0087699D01*
X0203100Y0087750D01*
X0203046Y0087804D01*
X0202995Y0087860D01*
X0202947Y0087919D01*
X0202902Y0087980D01*
X0202860Y0088044D01*
X0202821Y0088109D01*
X0202786Y0088177D01*
X0202754Y0088246D01*
X0202726Y0088316D01*
X0202702Y0088388D01*
X0202681Y0088461D01*
X0202664Y0088535D01*
X0202650Y0088610D01*
X0202641Y0088686D01*
X0202635Y0088761D01*
X0202633Y0088837D01*
X0233172Y0105398D02*
X0243396Y0105398D01*
X0259711Y0118189D02*
X0259711Y0121142D01*
X0256752Y0120157D02*
X0256754Y0120197D01*
X0256760Y0120236D01*
X0256770Y0120275D01*
X0256783Y0120312D01*
X0256801Y0120348D01*
X0256822Y0120382D01*
X0256846Y0120414D01*
X0256873Y0120443D01*
X0256903Y0120470D01*
X0256935Y0120493D01*
X0256970Y0120513D01*
X0257006Y0120529D01*
X0257044Y0120542D01*
X0257083Y0120551D01*
X0257122Y0120556D01*
X0257162Y0120557D01*
X0257202Y0120554D01*
X0257241Y0120547D01*
X0257279Y0120536D01*
X0257317Y0120522D01*
X0257352Y0120503D01*
X0257385Y0120482D01*
X0257417Y0120457D01*
X0257445Y0120429D01*
X0257471Y0120399D01*
X0257493Y0120366D01*
X0257512Y0120331D01*
X0257528Y0120294D01*
X0257540Y0120256D01*
X0257548Y0120217D01*
X0257552Y0120177D01*
X0257552Y0120137D01*
X0257548Y0120097D01*
X0257540Y0120058D01*
X0257528Y0120020D01*
X0257512Y0119983D01*
X0257493Y0119948D01*
X0257471Y0119915D01*
X0257445Y0119885D01*
X0257417Y0119857D01*
X0257385Y0119832D01*
X0257352Y0119811D01*
X0257317Y0119792D01*
X0257279Y0119778D01*
X0257241Y0119767D01*
X0257202Y0119760D01*
X0257162Y0119757D01*
X0257122Y0119758D01*
X0257083Y0119763D01*
X0257044Y0119772D01*
X0257006Y0119785D01*
X0256970Y0119801D01*
X0256935Y0119821D01*
X0256903Y0119844D01*
X0256873Y0119871D01*
X0256846Y0119900D01*
X0256822Y0119932D01*
X0256801Y0119966D01*
X0256783Y0120002D01*
X0256770Y0120039D01*
X0256760Y0120078D01*
X0256754Y0120117D01*
X0256752Y0120157D01*
X0259711Y0118189D02*
X0266207Y0118189D01*
X0276444Y0124094D02*
X0276444Y0135906D01*
X0266207Y0141811D02*
X0259711Y0141811D01*
X0259711Y0138858D01*
X0268133Y0152200D02*
X0272533Y0152200D01*
X0272616Y0152202D01*
X0272699Y0152208D01*
X0272782Y0152217D01*
X0272864Y0152231D01*
X0272945Y0152248D01*
X0273026Y0152269D01*
X0273105Y0152293D01*
X0273183Y0152322D01*
X0273260Y0152353D01*
X0273335Y0152389D01*
X0273409Y0152427D01*
X0273481Y0152470D01*
X0273550Y0152515D01*
X0273618Y0152564D01*
X0273683Y0152615D01*
X0273746Y0152670D01*
X0273806Y0152727D01*
X0273863Y0152787D01*
X0273918Y0152850D01*
X0273969Y0152915D01*
X0274018Y0152983D01*
X0274063Y0153052D01*
X0274106Y0153124D01*
X0274144Y0153198D01*
X0274180Y0153273D01*
X0274211Y0153350D01*
X0274240Y0153428D01*
X0274264Y0153507D01*
X0274285Y0153588D01*
X0274302Y0153669D01*
X0274316Y0153751D01*
X0274325Y0153834D01*
X0274331Y0153917D01*
X0274333Y0154000D01*
X0274333Y0164000D01*
X0274331Y0164083D01*
X0274325Y0164166D01*
X0274316Y0164249D01*
X0274302Y0164331D01*
X0274285Y0164412D01*
X0274264Y0164493D01*
X0274240Y0164572D01*
X0274211Y0164650D01*
X0274180Y0164727D01*
X0274144Y0164802D01*
X0274106Y0164876D01*
X0274063Y0164948D01*
X0274018Y0165017D01*
X0273969Y0165085D01*
X0273918Y0165150D01*
X0273863Y0165213D01*
X0273806Y0165273D01*
X0273746Y0165330D01*
X0273683Y0165385D01*
X0273618Y0165436D01*
X0273550Y0165485D01*
X0273481Y0165530D01*
X0273409Y0165573D01*
X0273335Y0165611D01*
X0273260Y0165647D01*
X0273183Y0165678D01*
X0273105Y0165707D01*
X0273026Y0165731D01*
X0272945Y0165752D01*
X0272864Y0165769D01*
X0272782Y0165783D01*
X0272699Y0165792D01*
X0272616Y0165798D01*
X0272533Y0165800D01*
X0268133Y0165800D01*
X0268050Y0165798D01*
X0267967Y0165792D01*
X0267884Y0165783D01*
X0267802Y0165769D01*
X0267721Y0165752D01*
X0267640Y0165731D01*
X0267561Y0165707D01*
X0267483Y0165678D01*
X0267406Y0165647D01*
X0267331Y0165611D01*
X0267257Y0165573D01*
X0267185Y0165530D01*
X0267116Y0165485D01*
X0267048Y0165436D01*
X0266983Y0165385D01*
X0266920Y0165330D01*
X0266860Y0165273D01*
X0266803Y0165213D01*
X0266748Y0165150D01*
X0266697Y0165085D01*
X0266648Y0165017D01*
X0266603Y0164948D01*
X0266560Y0164876D01*
X0266522Y0164802D01*
X0266486Y0164727D01*
X0266455Y0164650D01*
X0266426Y0164572D01*
X0266402Y0164493D01*
X0266381Y0164412D01*
X0266364Y0164331D01*
X0266350Y0164249D01*
X0266341Y0164166D01*
X0266335Y0164083D01*
X0266333Y0164000D01*
X0266333Y0154000D01*
X0266335Y0153917D01*
X0266341Y0153834D01*
X0266350Y0153751D01*
X0266364Y0153669D01*
X0266381Y0153588D01*
X0266402Y0153507D01*
X0266426Y0153428D01*
X0266455Y0153350D01*
X0266486Y0153273D01*
X0266522Y0153198D01*
X0266560Y0153124D01*
X0266603Y0153052D01*
X0266648Y0152983D01*
X0266697Y0152915D01*
X0266748Y0152850D01*
X0266803Y0152787D01*
X0266860Y0152727D01*
X0266920Y0152670D01*
X0266983Y0152615D01*
X0267048Y0152564D01*
X0267116Y0152515D01*
X0267185Y0152470D01*
X0267257Y0152427D01*
X0267331Y0152389D01*
X0267406Y0152353D01*
X0267483Y0152322D01*
X0267561Y0152293D01*
X0267640Y0152269D01*
X0267721Y0152248D01*
X0267802Y0152231D01*
X0267884Y0152217D01*
X0267967Y0152208D01*
X0268050Y0152202D01*
X0268133Y0152200D01*
D12*
X0235144Y0137913D02*
X0235144Y0172559D01*
X0211522Y0179646D02*
X0211522Y0154843D01*
X0211522Y0143031D02*
X0211522Y0137913D01*
X0220833Y0137913D01*
X0232033Y0137913D02*
X0235144Y0137913D01*
X0185144Y0137913D02*
X0185144Y0172559D01*
X0161522Y0179646D02*
X0161522Y0154843D01*
X0161522Y0143031D02*
X0161522Y0137913D01*
X0170833Y0137913D01*
X0182033Y0137913D02*
X0185144Y0137913D01*
D13*
X0133707Y0109374D03*
D14*
X0223958Y0104375D02*
X0223990Y0104653D01*
X0224082Y0104917D01*
X0224231Y0105154D01*
X0224429Y0105352D01*
X0224666Y0105501D01*
X0224930Y0105594D01*
X0225208Y0105625D01*
X0225486Y0105594D01*
X0225751Y0105501D01*
X0225988Y0105352D01*
X0226186Y0105154D01*
X0226335Y0104917D01*
X0226427Y0104653D01*
X0226458Y0104375D01*
X0226427Y0104097D01*
X0226335Y0103833D01*
X0226186Y0103596D01*
X0225988Y0103398D01*
X0225751Y0103249D01*
X0225486Y0103156D01*
X0225208Y0103125D01*
X0224930Y0103156D01*
X0225487Y0103156D01*
X0225511Y0103165D02*
X0224906Y0103165D01*
X0224930Y0103156D02*
X0224666Y0103249D01*
X0224429Y0103398D01*
X0224231Y0103596D01*
X0224082Y0103833D01*
X0223990Y0104097D01*
X0223958Y0104375D01*
X0223958Y0104374D02*
X0226458Y0104374D01*
X0226458Y0104382D02*
X0223959Y0104382D01*
X0223960Y0104391D02*
X0226457Y0104391D01*
X0226456Y0104399D02*
X0223961Y0104399D01*
X0223962Y0104408D02*
X0226455Y0104408D01*
X0226454Y0104416D02*
X0223963Y0104416D01*
X0223964Y0104425D02*
X0226453Y0104425D01*
X0226452Y0104433D02*
X0223965Y0104433D01*
X0223966Y0104442D02*
X0226451Y0104442D01*
X0226450Y0104450D02*
X0223967Y0104450D01*
X0223968Y0104459D02*
X0226449Y0104459D01*
X0226448Y0104467D02*
X0223969Y0104467D01*
X0223970Y0104476D02*
X0226447Y0104476D01*
X0226446Y0104484D02*
X0223971Y0104484D01*
X0223972Y0104493D02*
X0226445Y0104493D01*
X0226444Y0104502D02*
X0223973Y0104502D01*
X0223974Y0104510D02*
X0226443Y0104510D01*
X0226442Y0104519D02*
X0223975Y0104519D01*
X0223975Y0104527D02*
X0226441Y0104527D01*
X0226440Y0104536D02*
X0223976Y0104536D01*
X0223977Y0104544D02*
X0226439Y0104544D01*
X0226438Y0104553D02*
X0223978Y0104553D01*
X0223979Y0104561D02*
X0226437Y0104561D01*
X0226436Y0104570D02*
X0223980Y0104570D01*
X0223981Y0104578D02*
X0226435Y0104578D01*
X0226434Y0104587D02*
X0223982Y0104587D01*
X0223983Y0104595D02*
X0226434Y0104595D01*
X0226433Y0104604D02*
X0223984Y0104604D01*
X0223985Y0104612D02*
X0226432Y0104612D01*
X0226431Y0104621D02*
X0223986Y0104621D01*
X0223987Y0104629D02*
X0226430Y0104629D01*
X0226429Y0104638D02*
X0223988Y0104638D01*
X0223989Y0104646D02*
X0226428Y0104646D01*
X0226426Y0104655D02*
X0223990Y0104655D01*
X0223993Y0104663D02*
X0226423Y0104663D01*
X0226420Y0104672D02*
X0223996Y0104672D01*
X0223999Y0104680D02*
X0226417Y0104680D01*
X0226415Y0104689D02*
X0224002Y0104689D01*
X0224005Y0104697D02*
X0226412Y0104697D01*
X0226409Y0104706D02*
X0224008Y0104706D01*
X0224011Y0104714D02*
X0226406Y0104714D01*
X0226403Y0104723D02*
X0224014Y0104723D01*
X0224017Y0104731D02*
X0226400Y0104731D01*
X0226397Y0104740D02*
X0224020Y0104740D01*
X0224023Y0104748D02*
X0226394Y0104748D01*
X0226391Y0104757D02*
X0224026Y0104757D01*
X0224029Y0104765D02*
X0226388Y0104765D01*
X0226385Y0104774D02*
X0224032Y0104774D01*
X0224035Y0104782D02*
X0226382Y0104782D01*
X0226379Y0104791D02*
X0224038Y0104791D01*
X0224041Y0104800D02*
X0226376Y0104800D01*
X0226373Y0104808D02*
X0224044Y0104808D01*
X0224047Y0104817D02*
X0226370Y0104817D01*
X0226367Y0104825D02*
X0224050Y0104825D01*
X0224053Y0104834D02*
X0226364Y0104834D01*
X0226361Y0104842D02*
X0224056Y0104842D01*
X0224059Y0104851D02*
X0226358Y0104851D01*
X0226355Y0104859D02*
X0224062Y0104859D01*
X0224065Y0104868D02*
X0226352Y0104868D01*
X0226349Y0104876D02*
X0224068Y0104876D01*
X0224071Y0104885D02*
X0226346Y0104885D01*
X0226343Y0104893D02*
X0224074Y0104893D01*
X0224077Y0104902D02*
X0226340Y0104902D01*
X0226337Y0104910D02*
X0224080Y0104910D01*
X0224083Y0104919D02*
X0226334Y0104919D01*
X0226328Y0104927D02*
X0224088Y0104927D01*
X0224094Y0104936D02*
X0226323Y0104936D01*
X0226318Y0104944D02*
X0224099Y0104944D01*
X0224104Y0104953D02*
X0226312Y0104953D01*
X0226307Y0104961D02*
X0224110Y0104961D01*
X0224115Y0104970D02*
X0226302Y0104970D01*
X0226296Y0104978D02*
X0224120Y0104978D01*
X0224126Y0104987D02*
X0226291Y0104987D01*
X0226286Y0104995D02*
X0224131Y0104995D01*
X0224136Y0105004D02*
X0226280Y0105004D01*
X0226275Y0105012D02*
X0224142Y0105012D01*
X0224147Y0105021D02*
X0226270Y0105021D01*
X0226264Y0105029D02*
X0224153Y0105029D01*
X0224158Y0105038D02*
X0226259Y0105038D01*
X0226253Y0105046D02*
X0224163Y0105046D01*
X0224169Y0105055D02*
X0226248Y0105055D01*
X0226243Y0105063D02*
X0224174Y0105063D01*
X0224179Y0105072D02*
X0226237Y0105072D01*
X0226232Y0105080D02*
X0224185Y0105080D01*
X0224190Y0105089D02*
X0226227Y0105089D01*
X0226221Y0105097D02*
X0224195Y0105097D01*
X0224201Y0105106D02*
X0226216Y0105106D01*
X0226211Y0105115D02*
X0224206Y0105115D01*
X0224211Y0105123D02*
X0226205Y0105123D01*
X0226200Y0105132D02*
X0224217Y0105132D01*
X0224222Y0105140D02*
X0226195Y0105140D01*
X0226189Y0105149D02*
X0224227Y0105149D01*
X0224234Y0105157D02*
X0226183Y0105157D01*
X0226174Y0105166D02*
X0224242Y0105166D01*
X0224251Y0105174D02*
X0226166Y0105174D01*
X0226157Y0105183D02*
X0224259Y0105183D01*
X0224268Y0105191D02*
X0226149Y0105191D01*
X0226140Y0105200D02*
X0224276Y0105200D01*
X0224285Y0105208D02*
X0226132Y0105208D01*
X0226123Y0105217D02*
X0224293Y0105217D01*
X0224302Y0105225D02*
X0226115Y0105225D01*
X0226106Y0105234D02*
X0224310Y0105234D01*
X0224319Y0105242D02*
X0226098Y0105242D01*
X0226089Y0105251D02*
X0224327Y0105251D01*
X0224336Y0105259D02*
X0226081Y0105259D01*
X0226072Y0105268D02*
X0224344Y0105268D01*
X0224353Y0105276D02*
X0226064Y0105276D01*
X0226055Y0105285D02*
X0224361Y0105285D01*
X0224370Y0105293D02*
X0226047Y0105293D01*
X0226038Y0105302D02*
X0224378Y0105302D01*
X0224387Y0105310D02*
X0226030Y0105310D01*
X0226021Y0105319D02*
X0224396Y0105319D01*
X0224404Y0105327D02*
X0226013Y0105327D01*
X0226004Y0105336D02*
X0224413Y0105336D01*
X0224421Y0105344D02*
X0225996Y0105344D01*
X0225987Y0105353D02*
X0224430Y0105353D01*
X0224443Y0105361D02*
X0225973Y0105361D01*
X0225960Y0105370D02*
X0224457Y0105370D01*
X0224471Y0105378D02*
X0225946Y0105378D01*
X0225933Y0105387D02*
X0224484Y0105387D01*
X0224498Y0105395D02*
X0225919Y0105395D01*
X0225905Y0105404D02*
X0224511Y0105404D01*
X0224525Y0105412D02*
X0225892Y0105412D01*
X0225878Y0105421D02*
X0224538Y0105421D01*
X0224552Y0105430D02*
X0225865Y0105430D01*
X0225851Y0105438D02*
X0224565Y0105438D01*
X0224579Y0105447D02*
X0225838Y0105447D01*
X0225824Y0105455D02*
X0224593Y0105455D01*
X0224606Y0105464D02*
X0225811Y0105464D01*
X0225797Y0105472D02*
X0224620Y0105472D01*
X0224633Y0105481D02*
X0225783Y0105481D01*
X0225770Y0105489D02*
X0224647Y0105489D01*
X0224660Y0105498D02*
X0225756Y0105498D01*
X0225737Y0105506D02*
X0224680Y0105506D01*
X0224704Y0105515D02*
X0225712Y0105515D01*
X0225688Y0105523D02*
X0224729Y0105523D01*
X0224753Y0105532D02*
X0225664Y0105532D01*
X0225639Y0105540D02*
X0224777Y0105540D01*
X0224802Y0105549D02*
X0225615Y0105549D01*
X0225591Y0105557D02*
X0224826Y0105557D01*
X0224850Y0105566D02*
X0225566Y0105566D01*
X0225542Y0105574D02*
X0224875Y0105574D01*
X0224899Y0105583D02*
X0225518Y0105583D01*
X0225493Y0105591D02*
X0224923Y0105591D01*
X0224985Y0105600D02*
X0225432Y0105600D01*
X0225356Y0105608D02*
X0225060Y0105608D01*
X0225136Y0105617D02*
X0225281Y0105617D01*
X0226457Y0104365D02*
X0223959Y0104365D01*
X0223960Y0104357D02*
X0226456Y0104357D01*
X0226455Y0104348D02*
X0223961Y0104348D01*
X0223962Y0104340D02*
X0226454Y0104340D01*
X0226453Y0104331D02*
X0223963Y0104331D01*
X0223964Y0104323D02*
X0226452Y0104323D01*
X0226451Y0104314D02*
X0223965Y0104314D01*
X0223966Y0104306D02*
X0226451Y0104306D01*
X0226450Y0104297D02*
X0223967Y0104297D01*
X0223968Y0104289D02*
X0226449Y0104289D01*
X0226448Y0104280D02*
X0223969Y0104280D01*
X0223970Y0104272D02*
X0226447Y0104272D01*
X0226446Y0104263D02*
X0223971Y0104263D01*
X0223972Y0104255D02*
X0226445Y0104255D01*
X0226444Y0104246D02*
X0223973Y0104246D01*
X0223974Y0104238D02*
X0226443Y0104238D01*
X0226442Y0104229D02*
X0223975Y0104229D01*
X0223976Y0104221D02*
X0226441Y0104221D01*
X0226440Y0104212D02*
X0223977Y0104212D01*
X0223978Y0104204D02*
X0226439Y0104204D01*
X0226438Y0104195D02*
X0223979Y0104195D01*
X0223980Y0104187D02*
X0226437Y0104187D01*
X0226436Y0104178D02*
X0223981Y0104178D01*
X0223981Y0104169D02*
X0226435Y0104169D01*
X0226434Y0104161D02*
X0223982Y0104161D01*
X0223983Y0104152D02*
X0226433Y0104152D01*
X0226432Y0104144D02*
X0223984Y0104144D01*
X0223985Y0104135D02*
X0226431Y0104135D01*
X0226430Y0104127D02*
X0223986Y0104127D01*
X0223987Y0104118D02*
X0226429Y0104118D01*
X0226428Y0104110D02*
X0223988Y0104110D01*
X0223989Y0104101D02*
X0226427Y0104101D01*
X0226426Y0104093D02*
X0223991Y0104093D01*
X0223994Y0104084D02*
X0226423Y0104084D01*
X0226420Y0104076D02*
X0223997Y0104076D01*
X0224000Y0104067D02*
X0226417Y0104067D01*
X0226414Y0104059D02*
X0224003Y0104059D01*
X0224006Y0104050D02*
X0226411Y0104050D01*
X0226408Y0104042D02*
X0224009Y0104042D01*
X0224012Y0104033D02*
X0226405Y0104033D01*
X0226402Y0104025D02*
X0224015Y0104025D01*
X0224018Y0104016D02*
X0226399Y0104016D01*
X0226396Y0104008D02*
X0224021Y0104008D01*
X0224024Y0103999D02*
X0226393Y0103999D01*
X0226390Y0103991D02*
X0224027Y0103991D01*
X0224030Y0103982D02*
X0226387Y0103982D01*
X0226384Y0103974D02*
X0224033Y0103974D01*
X0224036Y0103965D02*
X0226381Y0103965D01*
X0226378Y0103957D02*
X0224039Y0103957D01*
X0224042Y0103948D02*
X0226375Y0103948D01*
X0226372Y0103940D02*
X0224045Y0103940D01*
X0224048Y0103931D02*
X0226369Y0103931D01*
X0226366Y0103923D02*
X0224051Y0103923D01*
X0224054Y0103914D02*
X0226363Y0103914D01*
X0226360Y0103906D02*
X0224057Y0103906D01*
X0224060Y0103897D02*
X0226357Y0103897D01*
X0226354Y0103889D02*
X0224063Y0103889D01*
X0224066Y0103880D02*
X0226351Y0103880D01*
X0226348Y0103872D02*
X0224069Y0103872D01*
X0224071Y0103863D02*
X0226345Y0103863D01*
X0226342Y0103854D02*
X0224074Y0103854D01*
X0224077Y0103846D02*
X0226339Y0103846D01*
X0226336Y0103837D02*
X0224080Y0103837D01*
X0224084Y0103829D02*
X0226332Y0103829D01*
X0226327Y0103820D02*
X0224090Y0103820D01*
X0224095Y0103812D02*
X0226322Y0103812D01*
X0226316Y0103803D02*
X0224100Y0103803D01*
X0224106Y0103795D02*
X0226311Y0103795D01*
X0226305Y0103786D02*
X0224111Y0103786D01*
X0224117Y0103778D02*
X0226300Y0103778D01*
X0226295Y0103769D02*
X0224122Y0103769D01*
X0224127Y0103761D02*
X0226289Y0103761D01*
X0226284Y0103752D02*
X0224133Y0103752D01*
X0224138Y0103744D02*
X0226279Y0103744D01*
X0226273Y0103735D02*
X0224143Y0103735D01*
X0224149Y0103727D02*
X0226268Y0103727D01*
X0226263Y0103718D02*
X0224154Y0103718D01*
X0224159Y0103710D02*
X0226257Y0103710D01*
X0226252Y0103701D02*
X0224165Y0103701D01*
X0224170Y0103693D02*
X0226247Y0103693D01*
X0226241Y0103684D02*
X0224175Y0103684D01*
X0224181Y0103676D02*
X0226236Y0103676D01*
X0226231Y0103667D02*
X0224186Y0103667D01*
X0224191Y0103659D02*
X0226225Y0103659D01*
X0226220Y0103650D02*
X0224197Y0103650D01*
X0224202Y0103642D02*
X0226215Y0103642D01*
X0226209Y0103633D02*
X0224207Y0103633D01*
X0224213Y0103625D02*
X0226204Y0103625D01*
X0226198Y0103616D02*
X0224218Y0103616D01*
X0224224Y0103608D02*
X0226193Y0103608D01*
X0226188Y0103599D02*
X0224229Y0103599D01*
X0224236Y0103591D02*
X0226181Y0103591D01*
X0226172Y0103582D02*
X0224245Y0103582D01*
X0224253Y0103574D02*
X0226164Y0103574D01*
X0226155Y0103565D02*
X0224262Y0103565D01*
X0224270Y0103556D02*
X0226146Y0103556D01*
X0226138Y0103548D02*
X0224279Y0103548D01*
X0224287Y0103539D02*
X0226129Y0103539D01*
X0226121Y0103531D02*
X0224296Y0103531D01*
X0224304Y0103522D02*
X0226112Y0103522D01*
X0226104Y0103514D02*
X0224313Y0103514D01*
X0224321Y0103505D02*
X0226095Y0103505D01*
X0226087Y0103497D02*
X0224330Y0103497D01*
X0224338Y0103488D02*
X0226078Y0103488D01*
X0226070Y0103480D02*
X0224347Y0103480D01*
X0224355Y0103471D02*
X0226061Y0103471D01*
X0226053Y0103463D02*
X0224364Y0103463D01*
X0224372Y0103454D02*
X0226044Y0103454D01*
X0226036Y0103446D02*
X0224381Y0103446D01*
X0224389Y0103437D02*
X0226027Y0103437D01*
X0226019Y0103429D02*
X0224398Y0103429D01*
X0224406Y0103420D02*
X0226010Y0103420D01*
X0226002Y0103412D02*
X0224415Y0103412D01*
X0224423Y0103403D02*
X0225993Y0103403D01*
X0225983Y0103395D02*
X0224434Y0103395D01*
X0224447Y0103386D02*
X0225969Y0103386D01*
X0225956Y0103378D02*
X0224461Y0103378D01*
X0224474Y0103369D02*
X0225942Y0103369D01*
X0225929Y0103361D02*
X0224488Y0103361D01*
X0224501Y0103352D02*
X0225915Y0103352D01*
X0225902Y0103344D02*
X0224515Y0103344D01*
X0224529Y0103335D02*
X0225888Y0103335D01*
X0225875Y0103327D02*
X0224542Y0103327D01*
X0224556Y0103318D02*
X0225861Y0103318D01*
X0225847Y0103310D02*
X0224569Y0103310D01*
X0224583Y0103301D02*
X0225834Y0103301D01*
X0225820Y0103293D02*
X0224596Y0103293D01*
X0224610Y0103284D02*
X0225807Y0103284D01*
X0225793Y0103276D02*
X0224623Y0103276D01*
X0224637Y0103267D02*
X0225780Y0103267D01*
X0225766Y0103259D02*
X0224650Y0103259D01*
X0224664Y0103250D02*
X0225753Y0103250D01*
X0225730Y0103241D02*
X0224687Y0103241D01*
X0224711Y0103233D02*
X0225705Y0103233D01*
X0225681Y0103224D02*
X0224736Y0103224D01*
X0224760Y0103216D02*
X0225657Y0103216D01*
X0225632Y0103207D02*
X0224784Y0103207D01*
X0224808Y0103199D02*
X0225608Y0103199D01*
X0225584Y0103190D02*
X0224833Y0103190D01*
X0224857Y0103182D02*
X0225559Y0103182D01*
X0225535Y0103173D02*
X0224881Y0103173D01*
X0225006Y0103148D02*
X0225411Y0103148D01*
X0225335Y0103139D02*
X0225081Y0103139D01*
X0225157Y0103131D02*
X0225260Y0103131D01*
D15*
X0260507Y0109476D02*
X0260631Y0109078D01*
X0260826Y0108709D01*
X0260942Y0108538D01*
X0261213Y0108221D01*
X0261534Y0107955D01*
X0261897Y0107751D01*
X0262087Y0107668D01*
X0262486Y0107547D01*
X0262901Y0107505D01*
X0263109Y0107496D01*
X0263775Y0107496D01*
X0263780Y0107660D01*
X0263780Y0108911D01*
X0263654Y0108793D01*
X0263489Y0108667D01*
X0263301Y0108577D01*
X0263099Y0108529D01*
X0262891Y0108515D01*
X0262684Y0108534D01*
X0262482Y0108581D01*
X0262288Y0108655D01*
X0262107Y0108759D01*
X0261952Y0108898D01*
X0261821Y0109060D01*
X0261715Y0109238D01*
X0261632Y0109429D01*
X0261582Y0109632D01*
X0261553Y0109838D01*
X0261539Y0110045D01*
X0261555Y0110253D01*
X0261588Y0110459D01*
X0261641Y0110660D01*
X0261727Y0110850D01*
X0261840Y0111024D01*
X0261978Y0111179D01*
X0260713Y0111179D01*
X0260686Y0111131D02*
X0261935Y0111131D01*
X0261978Y0111179D02*
X0262138Y0111311D01*
X0262321Y0111413D01*
X0262519Y0111476D01*
X0262723Y0111512D01*
X0262931Y0111525D01*
X0263138Y0111502D01*
X0263337Y0111442D01*
X0263522Y0111347D01*
X0263684Y0111215D01*
X0263780Y0111143D01*
X0263780Y0111381D01*
X0263785Y0111494D01*
X0264739Y0111494D01*
X0264737Y0111373D01*
X0264953Y0111386D01*
X0264911Y0111494D01*
X0265885Y0111494D01*
X0265913Y0111399D01*
X0266444Y0109599D01*
X0266503Y0109608D01*
X0267035Y0111490D01*
X0267170Y0111494D01*
X0267796Y0111494D01*
X0267973Y0111495D01*
X0268509Y0109664D01*
X0268548Y0109523D01*
X0269099Y0111343D01*
X0269145Y0111494D01*
X0269980Y0111494D01*
X0270248Y0111486D01*
X0270397Y0111494D01*
X0271162Y0111494D01*
X0271158Y0111447D01*
X0271362Y0111413D01*
X0271360Y0111494D01*
X0272324Y0111494D01*
X0272323Y0111351D01*
X0272897Y0111065D01*
X0273009Y0111172D01*
X0273360Y0111396D01*
X0273560Y0111447D01*
X0273971Y0111519D01*
X0274208Y0111519D01*
X0275708Y0111519D01*
X0275741Y0111471D02*
X0274208Y0111471D01*
X0274208Y0111519D02*
X0274206Y0111337D01*
X0274206Y0110711D01*
X0274049Y0110726D01*
X0273845Y0110682D01*
X0273675Y0110564D01*
X0273559Y0110395D01*
X0273496Y0110200D01*
X0273471Y0109994D01*
X0273502Y0109787D01*
X0273578Y0109596D01*
X0273707Y0109438D01*
X0273885Y0109338D01*
X0274090Y0109303D01*
X0274206Y0109285D01*
X0274206Y0108499D01*
X0274069Y0108520D01*
X0273863Y0108543D01*
X0273452Y0108614D01*
X0273266Y0108702D01*
X0272914Y0108925D01*
X0272684Y0109273D01*
X0272593Y0109456D01*
X0272520Y0109867D01*
X0272506Y0110072D01*
X0272578Y0110483D01*
X0272635Y0110680D01*
X0272894Y0111060D01*
X0272320Y0111358D01*
X0272320Y0108551D01*
X0272275Y0108551D01*
X0271441Y0108551D01*
X0271358Y0108557D01*
X0271362Y0111417D01*
X0271158Y0111451D01*
X0271162Y0108554D01*
X0271020Y0108551D01*
X0270395Y0108551D01*
X0270199Y0108564D01*
X0270199Y0111486D01*
X0270084Y0111485D01*
X0270040Y0111356D01*
X0269026Y0108554D01*
X0268879Y0108551D01*
X0268254Y0108551D01*
X0268053Y0108561D01*
X0267499Y0110355D01*
X0267437Y0110183D01*
X0266931Y0108560D01*
X0268078Y0108560D01*
X0268038Y0108608D02*
X0266947Y0108608D01*
X0266931Y0108560D02*
X0266761Y0108551D01*
X0266136Y0108551D01*
X0265977Y0108553D01*
X0264947Y0111385D01*
X0264740Y0111374D01*
X0264748Y0107571D01*
X0264752Y0107496D01*
X0273641Y0107497D01*
X0274056Y0107538D01*
X0274259Y0107582D01*
X0274655Y0107712D01*
X0275021Y0107911D01*
X0275348Y0108169D01*
X0275496Y0108314D01*
X0275759Y0108638D01*
X0275958Y0109004D01*
X0276030Y0109199D01*
X0276092Y0109398D01*
X0276140Y0109600D01*
X0276182Y0110015D01*
X0273474Y0110015D01*
X0273475Y0109967D02*
X0276177Y0109967D01*
X0276182Y0110015D02*
X0276147Y0110430D01*
X0276111Y0110635D01*
X0275988Y0111033D01*
X0275791Y0111400D01*
X0275671Y0111571D01*
X0275539Y0111731D01*
X0275399Y0111885D01*
X0275078Y0112151D01*
X0274713Y0112354D01*
X0274522Y0112433D01*
X0274122Y0112552D01*
X0273707Y0112594D01*
X0273633Y0112601D01*
X0262997Y0112601D01*
X0262582Y0112560D01*
X0262378Y0112519D01*
X0261981Y0112392D01*
X0274620Y0112392D01*
X0274731Y0112344D02*
X0261892Y0112344D01*
X0261981Y0112392D02*
X0261615Y0112193D01*
X0261448Y0112070D01*
X0261287Y0111937D01*
X0261136Y0111794D01*
X0260871Y0111472D01*
X0260672Y0111105D01*
X0260598Y0110912D01*
X0260536Y0110713D01*
X0260484Y0110511D01*
X0260442Y0110096D01*
X0260454Y0109889D01*
X0260475Y0109681D01*
X0260507Y0109476D01*
X0260506Y0109482D02*
X0261619Y0109482D01*
X0261607Y0109530D02*
X0260499Y0109530D01*
X0260491Y0109579D02*
X0261595Y0109579D01*
X0261583Y0109627D02*
X0260483Y0109627D01*
X0260475Y0109676D02*
X0261576Y0109676D01*
X0261569Y0109724D02*
X0260470Y0109724D01*
X0260465Y0109773D02*
X0261562Y0109773D01*
X0261556Y0109821D02*
X0260460Y0109821D01*
X0260456Y0109870D02*
X0261551Y0109870D01*
X0261548Y0109918D02*
X0260452Y0109918D01*
X0260449Y0109967D02*
X0261544Y0109967D01*
X0261541Y0110015D02*
X0260447Y0110015D01*
X0260444Y0110064D02*
X0261540Y0110064D01*
X0261544Y0110112D02*
X0260444Y0110112D01*
X0260449Y0110161D02*
X0261548Y0110161D01*
X0261552Y0110209D02*
X0260454Y0110209D01*
X0260459Y0110258D02*
X0261556Y0110258D01*
X0261563Y0110306D02*
X0260463Y0110306D01*
X0260468Y0110355D02*
X0261571Y0110355D01*
X0261579Y0110403D02*
X0260473Y0110403D01*
X0260478Y0110452D02*
X0261587Y0110452D01*
X0261599Y0110500D02*
X0260483Y0110500D01*
X0260494Y0110549D02*
X0261612Y0110549D01*
X0261624Y0110597D02*
X0260506Y0110597D01*
X0260519Y0110646D02*
X0261637Y0110646D01*
X0261656Y0110694D02*
X0260531Y0110694D01*
X0260545Y0110743D02*
X0261678Y0110743D01*
X0261701Y0110791D02*
X0260560Y0110791D01*
X0260575Y0110840D02*
X0261723Y0110840D01*
X0261752Y0110888D02*
X0260590Y0110888D01*
X0260607Y0110937D02*
X0261784Y0110937D01*
X0261815Y0110985D02*
X0260626Y0110985D01*
X0260645Y0111034D02*
X0261849Y0111034D01*
X0261892Y0111082D02*
X0260664Y0111082D01*
X0260739Y0111228D02*
X0262037Y0111228D01*
X0262096Y0111276D02*
X0260765Y0111276D01*
X0260792Y0111325D02*
X0262163Y0111325D01*
X0262250Y0111373D02*
X0260818Y0111373D01*
X0260844Y0111422D02*
X0262350Y0111422D01*
X0262501Y0111471D02*
X0260871Y0111471D01*
X0260910Y0111519D02*
X0262840Y0111519D01*
X0262984Y0111519D02*
X0274067Y0111519D01*
X0274207Y0111422D02*
X0275775Y0111422D01*
X0275805Y0111373D02*
X0274206Y0111373D01*
X0274206Y0111325D02*
X0275831Y0111325D01*
X0275857Y0111276D02*
X0274206Y0111276D01*
X0274206Y0111228D02*
X0275883Y0111228D01*
X0275909Y0111179D02*
X0274206Y0111179D01*
X0274206Y0111131D02*
X0275935Y0111131D01*
X0275961Y0111082D02*
X0274206Y0111082D01*
X0274206Y0111034D02*
X0275987Y0111034D01*
X0276003Y0110985D02*
X0274206Y0110985D01*
X0274206Y0110937D02*
X0276018Y0110937D01*
X0276033Y0110888D02*
X0274206Y0110888D01*
X0274206Y0110840D02*
X0276048Y0110840D01*
X0276063Y0110791D02*
X0274206Y0110791D01*
X0274206Y0110743D02*
X0276078Y0110743D01*
X0276093Y0110694D02*
X0273904Y0110694D01*
X0273793Y0110646D02*
X0276108Y0110646D01*
X0276118Y0110597D02*
X0273723Y0110597D01*
X0273665Y0110549D02*
X0276126Y0110549D01*
X0276135Y0110500D02*
X0273631Y0110500D01*
X0273598Y0110452D02*
X0276143Y0110452D01*
X0276149Y0110403D02*
X0273565Y0110403D01*
X0273546Y0110355D02*
X0276153Y0110355D01*
X0276158Y0110306D02*
X0273530Y0110306D01*
X0273515Y0110258D02*
X0276162Y0110258D01*
X0276166Y0110209D02*
X0273499Y0110209D01*
X0273491Y0110161D02*
X0276170Y0110161D01*
X0276174Y0110112D02*
X0273485Y0110112D01*
X0273480Y0110064D02*
X0276178Y0110064D01*
X0276172Y0109918D02*
X0273482Y0109918D01*
X0273490Y0109870D02*
X0276167Y0109870D01*
X0276163Y0109821D02*
X0273497Y0109821D01*
X0273507Y0109773D02*
X0276158Y0109773D01*
X0276153Y0109724D02*
X0273527Y0109724D01*
X0273547Y0109676D02*
X0276148Y0109676D01*
X0276143Y0109627D02*
X0273566Y0109627D01*
X0273593Y0109579D02*
X0276135Y0109579D01*
X0276123Y0109530D02*
X0273632Y0109530D01*
X0273672Y0109482D02*
X0276112Y0109482D01*
X0276100Y0109433D02*
X0273717Y0109433D01*
X0273803Y0109385D02*
X0276087Y0109385D01*
X0276072Y0109336D02*
X0273899Y0109336D01*
X0274190Y0109287D02*
X0276057Y0109287D01*
X0276042Y0109239D02*
X0274206Y0109239D01*
X0274206Y0109190D02*
X0276026Y0109190D01*
X0276008Y0109142D02*
X0274206Y0109142D01*
X0274206Y0109093D02*
X0275991Y0109093D01*
X0275973Y0109045D02*
X0274206Y0109045D01*
X0274206Y0108996D02*
X0275953Y0108996D01*
X0275927Y0108948D02*
X0274206Y0108948D01*
X0274206Y0108899D02*
X0275900Y0108899D01*
X0275874Y0108851D02*
X0274206Y0108851D01*
X0274206Y0108802D02*
X0275848Y0108802D01*
X0275822Y0108754D02*
X0274206Y0108754D01*
X0274206Y0108705D02*
X0275795Y0108705D01*
X0275769Y0108657D02*
X0274206Y0108657D01*
X0274206Y0108608D02*
X0275735Y0108608D01*
X0275695Y0108560D02*
X0274206Y0108560D01*
X0274206Y0108511D02*
X0275656Y0108511D01*
X0275617Y0108463D02*
X0264746Y0108463D01*
X0264746Y0108511D02*
X0274127Y0108511D01*
X0273767Y0108560D02*
X0272320Y0108560D01*
X0272320Y0108608D02*
X0273485Y0108608D01*
X0273361Y0108657D02*
X0272320Y0108657D01*
X0272320Y0108705D02*
X0273261Y0108705D01*
X0273184Y0108754D02*
X0272320Y0108754D01*
X0272320Y0108802D02*
X0273107Y0108802D01*
X0273031Y0108851D02*
X0272320Y0108851D01*
X0272320Y0108899D02*
X0272954Y0108899D01*
X0272899Y0108948D02*
X0272320Y0108948D01*
X0272320Y0108996D02*
X0272867Y0108996D01*
X0272835Y0109045D02*
X0272320Y0109045D01*
X0272320Y0109093D02*
X0272803Y0109093D01*
X0272771Y0109142D02*
X0272320Y0109142D01*
X0272320Y0109190D02*
X0272739Y0109190D01*
X0272707Y0109239D02*
X0272320Y0109239D01*
X0272320Y0109287D02*
X0272677Y0109287D01*
X0272653Y0109336D02*
X0272320Y0109336D01*
X0272320Y0109385D02*
X0272629Y0109385D01*
X0272604Y0109433D02*
X0272320Y0109433D01*
X0272320Y0109482D02*
X0272588Y0109482D01*
X0272580Y0109530D02*
X0272320Y0109530D01*
X0272320Y0109579D02*
X0272571Y0109579D01*
X0272562Y0109627D02*
X0272320Y0109627D01*
X0272320Y0109676D02*
X0272554Y0109676D01*
X0272545Y0109724D02*
X0272320Y0109724D01*
X0272320Y0109773D02*
X0272536Y0109773D01*
X0272528Y0109821D02*
X0272320Y0109821D01*
X0272320Y0109870D02*
X0272520Y0109870D01*
X0272516Y0109918D02*
X0272320Y0109918D01*
X0272320Y0109967D02*
X0272513Y0109967D01*
X0272510Y0110015D02*
X0272320Y0110015D01*
X0272320Y0110064D02*
X0272506Y0110064D01*
X0272513Y0110112D02*
X0272320Y0110112D01*
X0272320Y0110161D02*
X0272521Y0110161D01*
X0272530Y0110209D02*
X0272320Y0110209D01*
X0272320Y0110258D02*
X0272538Y0110258D01*
X0272547Y0110306D02*
X0272320Y0110306D01*
X0272320Y0110355D02*
X0272555Y0110355D01*
X0272564Y0110403D02*
X0272320Y0110403D01*
X0272320Y0110452D02*
X0272572Y0110452D01*
X0272583Y0110500D02*
X0272320Y0110500D01*
X0272320Y0110549D02*
X0272597Y0110549D01*
X0272611Y0110597D02*
X0272320Y0110597D01*
X0272320Y0110646D02*
X0272625Y0110646D01*
X0272645Y0110694D02*
X0272320Y0110694D01*
X0272320Y0110743D02*
X0272678Y0110743D01*
X0272711Y0110791D02*
X0272320Y0110791D01*
X0272320Y0110840D02*
X0272744Y0110840D01*
X0272777Y0110888D02*
X0272320Y0110888D01*
X0272320Y0110937D02*
X0272810Y0110937D01*
X0272843Y0110985D02*
X0272320Y0110985D01*
X0272320Y0111034D02*
X0272876Y0111034D01*
X0272861Y0111082D02*
X0272916Y0111082D01*
X0272851Y0111082D02*
X0272320Y0111082D01*
X0272320Y0111131D02*
X0272757Y0111131D01*
X0272764Y0111131D02*
X0272966Y0111131D01*
X0273021Y0111179D02*
X0272667Y0111179D01*
X0272664Y0111179D02*
X0272320Y0111179D01*
X0272320Y0111228D02*
X0272570Y0111228D01*
X0273097Y0111228D01*
X0273172Y0111276D02*
X0272477Y0111276D01*
X0272473Y0111276D02*
X0272320Y0111276D01*
X0272320Y0111325D02*
X0272376Y0111325D01*
X0272383Y0111325D02*
X0273248Y0111325D01*
X0273324Y0111373D02*
X0272323Y0111373D01*
X0272324Y0111422D02*
X0273461Y0111422D01*
X0273694Y0111471D02*
X0272324Y0111471D01*
X0271360Y0111471D02*
X0271160Y0111471D01*
X0271158Y0111422D02*
X0271310Y0111422D01*
X0271334Y0111422D02*
X0271361Y0111422D01*
X0271361Y0111373D02*
X0271158Y0111373D01*
X0271158Y0111325D02*
X0271361Y0111325D01*
X0271361Y0111276D02*
X0271158Y0111276D01*
X0271158Y0111228D02*
X0271361Y0111228D01*
X0271361Y0111179D02*
X0271158Y0111179D01*
X0271158Y0111131D02*
X0271361Y0111131D01*
X0271361Y0111082D02*
X0271158Y0111082D01*
X0271158Y0111034D02*
X0271361Y0111034D01*
X0271361Y0110985D02*
X0271159Y0110985D01*
X0271159Y0110937D02*
X0271361Y0110937D01*
X0271361Y0110888D02*
X0271159Y0110888D01*
X0271159Y0110840D02*
X0271361Y0110840D01*
X0271361Y0110791D02*
X0271159Y0110791D01*
X0271159Y0110743D02*
X0271361Y0110743D01*
X0271361Y0110694D02*
X0271159Y0110694D01*
X0271159Y0110646D02*
X0271360Y0110646D01*
X0271360Y0110597D02*
X0271159Y0110597D01*
X0271159Y0110549D02*
X0271360Y0110549D01*
X0271360Y0110500D02*
X0271159Y0110500D01*
X0271159Y0110452D02*
X0271360Y0110452D01*
X0271360Y0110403D02*
X0271159Y0110403D01*
X0271159Y0110355D02*
X0271360Y0110355D01*
X0271360Y0110306D02*
X0271159Y0110306D01*
X0271159Y0110258D02*
X0271360Y0110258D01*
X0271360Y0110209D02*
X0271160Y0110209D01*
X0271160Y0110161D02*
X0271360Y0110161D01*
X0271360Y0110112D02*
X0271160Y0110112D01*
X0271160Y0110064D02*
X0271360Y0110064D01*
X0271360Y0110015D02*
X0271160Y0110015D01*
X0271160Y0109967D02*
X0271359Y0109967D01*
X0271359Y0109918D02*
X0271160Y0109918D01*
X0271160Y0109870D02*
X0271359Y0109870D01*
X0271359Y0109821D02*
X0271160Y0109821D01*
X0271160Y0109773D02*
X0271359Y0109773D01*
X0271359Y0109724D02*
X0271160Y0109724D01*
X0271160Y0109676D02*
X0271359Y0109676D01*
X0271359Y0109627D02*
X0271160Y0109627D01*
X0271160Y0109579D02*
X0271359Y0109579D01*
X0271359Y0109530D02*
X0271160Y0109530D01*
X0271161Y0109482D02*
X0271359Y0109482D01*
X0271359Y0109433D02*
X0271161Y0109433D01*
X0271161Y0109385D02*
X0271359Y0109385D01*
X0271359Y0109336D02*
X0271161Y0109336D01*
X0271161Y0109287D02*
X0271359Y0109287D01*
X0271359Y0109239D02*
X0271161Y0109239D01*
X0271161Y0109190D02*
X0271358Y0109190D01*
X0271358Y0109142D02*
X0271161Y0109142D01*
X0271161Y0109093D02*
X0271358Y0109093D01*
X0271358Y0109045D02*
X0271161Y0109045D01*
X0271161Y0108996D02*
X0271358Y0108996D01*
X0271358Y0108948D02*
X0271161Y0108948D01*
X0271161Y0108899D02*
X0271358Y0108899D01*
X0271358Y0108851D02*
X0271161Y0108851D01*
X0271161Y0108802D02*
X0271358Y0108802D01*
X0271358Y0108754D02*
X0271162Y0108754D01*
X0271162Y0108705D02*
X0271358Y0108705D01*
X0271358Y0108657D02*
X0271162Y0108657D01*
X0271162Y0108608D02*
X0271358Y0108608D01*
X0271358Y0108560D02*
X0271162Y0108560D01*
X0270263Y0108560D02*
X0269028Y0108560D01*
X0269046Y0108608D02*
X0270199Y0108608D01*
X0270199Y0108657D02*
X0269063Y0108657D01*
X0269081Y0108705D02*
X0270199Y0108705D01*
X0270199Y0108754D02*
X0269098Y0108754D01*
X0269116Y0108802D02*
X0270199Y0108802D01*
X0270199Y0108851D02*
X0269133Y0108851D01*
X0269151Y0108899D02*
X0270199Y0108899D01*
X0270199Y0108948D02*
X0269169Y0108948D01*
X0269186Y0108996D02*
X0270199Y0108996D01*
X0270199Y0109045D02*
X0269204Y0109045D01*
X0269221Y0109093D02*
X0270199Y0109093D01*
X0270199Y0109142D02*
X0269239Y0109142D01*
X0269256Y0109190D02*
X0270199Y0109190D01*
X0270199Y0109239D02*
X0269274Y0109239D01*
X0269291Y0109287D02*
X0270199Y0109287D01*
X0270199Y0109336D02*
X0269309Y0109336D01*
X0269326Y0109385D02*
X0270199Y0109385D01*
X0270199Y0109433D02*
X0269344Y0109433D01*
X0269362Y0109482D02*
X0270199Y0109482D01*
X0270199Y0109530D02*
X0269379Y0109530D01*
X0269397Y0109579D02*
X0270199Y0109579D01*
X0270199Y0109627D02*
X0269414Y0109627D01*
X0269432Y0109676D02*
X0270199Y0109676D01*
X0270199Y0109724D02*
X0269449Y0109724D01*
X0269467Y0109773D02*
X0270199Y0109773D01*
X0270199Y0109821D02*
X0269484Y0109821D01*
X0269502Y0109870D02*
X0270199Y0109870D01*
X0270199Y0109918D02*
X0269519Y0109918D01*
X0269537Y0109967D02*
X0270199Y0109967D01*
X0270199Y0110015D02*
X0269555Y0110015D01*
X0269572Y0110064D02*
X0270199Y0110064D01*
X0270199Y0110112D02*
X0269590Y0110112D01*
X0269607Y0110161D02*
X0270199Y0110161D01*
X0270199Y0110209D02*
X0269625Y0110209D01*
X0269642Y0110258D02*
X0270199Y0110258D01*
X0270199Y0110306D02*
X0269660Y0110306D01*
X0269677Y0110355D02*
X0270199Y0110355D01*
X0270199Y0110403D02*
X0269695Y0110403D01*
X0269712Y0110452D02*
X0270199Y0110452D01*
X0270199Y0110500D02*
X0269730Y0110500D01*
X0269748Y0110549D02*
X0270199Y0110549D01*
X0270199Y0110597D02*
X0269765Y0110597D01*
X0269783Y0110646D02*
X0270199Y0110646D01*
X0270199Y0110694D02*
X0269800Y0110694D01*
X0269818Y0110743D02*
X0270199Y0110743D01*
X0270199Y0110791D02*
X0269835Y0110791D01*
X0269853Y0110840D02*
X0270199Y0110840D01*
X0270199Y0110888D02*
X0269870Y0110888D01*
X0269888Y0110937D02*
X0270199Y0110937D01*
X0270199Y0110985D02*
X0269905Y0110985D01*
X0269923Y0111034D02*
X0270199Y0111034D01*
X0270199Y0111082D02*
X0269941Y0111082D01*
X0269958Y0111131D02*
X0270199Y0111131D01*
X0270199Y0111179D02*
X0269976Y0111179D01*
X0269993Y0111228D02*
X0270199Y0111228D01*
X0270199Y0111276D02*
X0270011Y0111276D01*
X0270028Y0111325D02*
X0270199Y0111325D01*
X0270199Y0111373D02*
X0270046Y0111373D01*
X0270062Y0111422D02*
X0270199Y0111422D01*
X0270199Y0111471D02*
X0270079Y0111471D01*
X0269137Y0111471D02*
X0267980Y0111471D01*
X0267994Y0111422D02*
X0269123Y0111422D01*
X0269108Y0111373D02*
X0268008Y0111373D01*
X0268022Y0111325D02*
X0269093Y0111325D01*
X0269079Y0111276D02*
X0268037Y0111276D01*
X0268051Y0111228D02*
X0269064Y0111228D01*
X0269049Y0111179D02*
X0268065Y0111179D01*
X0268079Y0111131D02*
X0269035Y0111131D01*
X0269020Y0111082D02*
X0268093Y0111082D01*
X0268108Y0111034D02*
X0269005Y0111034D01*
X0268991Y0110985D02*
X0268122Y0110985D01*
X0268136Y0110937D02*
X0268976Y0110937D01*
X0268961Y0110888D02*
X0268150Y0110888D01*
X0268165Y0110840D02*
X0268947Y0110840D01*
X0268932Y0110791D02*
X0268179Y0110791D01*
X0268193Y0110743D02*
X0268917Y0110743D01*
X0268903Y0110694D02*
X0268207Y0110694D01*
X0268221Y0110646D02*
X0268888Y0110646D01*
X0268873Y0110597D02*
X0268236Y0110597D01*
X0268250Y0110549D02*
X0268858Y0110549D01*
X0268844Y0110500D02*
X0268264Y0110500D01*
X0268278Y0110452D02*
X0268829Y0110452D01*
X0268814Y0110403D02*
X0268292Y0110403D01*
X0268307Y0110355D02*
X0268800Y0110355D01*
X0268785Y0110306D02*
X0268321Y0110306D01*
X0268335Y0110258D02*
X0268770Y0110258D01*
X0268756Y0110209D02*
X0268349Y0110209D01*
X0268364Y0110161D02*
X0268741Y0110161D01*
X0268726Y0110112D02*
X0268378Y0110112D01*
X0268392Y0110064D02*
X0268712Y0110064D01*
X0268697Y0110015D02*
X0268406Y0110015D01*
X0268420Y0109967D02*
X0268682Y0109967D01*
X0268667Y0109918D02*
X0268435Y0109918D01*
X0268449Y0109870D02*
X0268653Y0109870D01*
X0268638Y0109821D02*
X0268463Y0109821D01*
X0268477Y0109773D02*
X0268623Y0109773D01*
X0268609Y0109724D02*
X0268491Y0109724D01*
X0268506Y0109676D02*
X0268594Y0109676D01*
X0268579Y0109627D02*
X0268519Y0109627D01*
X0268533Y0109579D02*
X0268565Y0109579D01*
X0268550Y0109530D02*
X0268546Y0109530D01*
X0267829Y0109287D02*
X0267158Y0109287D01*
X0267143Y0109239D02*
X0267843Y0109239D01*
X0267858Y0109190D02*
X0267128Y0109190D01*
X0267113Y0109142D02*
X0267873Y0109142D01*
X0267888Y0109093D02*
X0267098Y0109093D01*
X0267083Y0109045D02*
X0267903Y0109045D01*
X0267918Y0108996D02*
X0267068Y0108996D01*
X0267052Y0108948D02*
X0267933Y0108948D01*
X0267948Y0108899D02*
X0267037Y0108899D01*
X0267022Y0108851D02*
X0267963Y0108851D01*
X0267978Y0108802D02*
X0267007Y0108802D01*
X0266992Y0108754D02*
X0267993Y0108754D01*
X0268008Y0108705D02*
X0266977Y0108705D01*
X0266962Y0108657D02*
X0268023Y0108657D01*
X0267814Y0109336D02*
X0267173Y0109336D01*
X0267189Y0109385D02*
X0267799Y0109385D01*
X0267784Y0109433D02*
X0267204Y0109433D01*
X0267219Y0109482D02*
X0267769Y0109482D01*
X0267754Y0109530D02*
X0267234Y0109530D01*
X0267249Y0109579D02*
X0267739Y0109579D01*
X0267724Y0109627D02*
X0267264Y0109627D01*
X0267279Y0109676D02*
X0267709Y0109676D01*
X0267694Y0109724D02*
X0267294Y0109724D01*
X0267310Y0109773D02*
X0267679Y0109773D01*
X0267664Y0109821D02*
X0267325Y0109821D01*
X0267340Y0109870D02*
X0267649Y0109870D01*
X0267634Y0109918D02*
X0267355Y0109918D01*
X0267370Y0109967D02*
X0267619Y0109967D01*
X0267604Y0110015D02*
X0267385Y0110015D01*
X0267400Y0110064D02*
X0267589Y0110064D01*
X0267574Y0110112D02*
X0267415Y0110112D01*
X0267431Y0110161D02*
X0267559Y0110161D01*
X0267544Y0110209D02*
X0267447Y0110209D01*
X0267465Y0110258D02*
X0267529Y0110258D01*
X0267514Y0110306D02*
X0267482Y0110306D01*
X0266755Y0110500D02*
X0266178Y0110500D01*
X0266193Y0110452D02*
X0266741Y0110452D01*
X0266728Y0110403D02*
X0266207Y0110403D01*
X0266221Y0110355D02*
X0266714Y0110355D01*
X0266700Y0110306D02*
X0266236Y0110306D01*
X0266250Y0110258D02*
X0266686Y0110258D01*
X0266673Y0110209D02*
X0266264Y0110209D01*
X0266278Y0110161D02*
X0266659Y0110161D01*
X0266645Y0110112D02*
X0266293Y0110112D01*
X0266307Y0110064D02*
X0266632Y0110064D01*
X0266618Y0110015D02*
X0266321Y0110015D01*
X0266336Y0109967D02*
X0266604Y0109967D01*
X0266590Y0109918D02*
X0266350Y0109918D01*
X0266364Y0109870D02*
X0266577Y0109870D01*
X0266563Y0109821D02*
X0266379Y0109821D01*
X0266393Y0109773D02*
X0266549Y0109773D01*
X0266536Y0109724D02*
X0266407Y0109724D01*
X0266422Y0109676D02*
X0266522Y0109676D01*
X0266508Y0109627D02*
X0266436Y0109627D01*
X0265692Y0109336D02*
X0264744Y0109336D01*
X0264744Y0109287D02*
X0265710Y0109287D01*
X0265727Y0109239D02*
X0264745Y0109239D01*
X0264745Y0109190D02*
X0265745Y0109190D01*
X0265763Y0109142D02*
X0264745Y0109142D01*
X0264745Y0109093D02*
X0265780Y0109093D01*
X0265798Y0109045D02*
X0264745Y0109045D01*
X0264745Y0108996D02*
X0265816Y0108996D01*
X0265833Y0108948D02*
X0264745Y0108948D01*
X0264745Y0108899D02*
X0265851Y0108899D01*
X0265868Y0108851D02*
X0264745Y0108851D01*
X0264745Y0108802D02*
X0265886Y0108802D01*
X0265904Y0108754D02*
X0264746Y0108754D01*
X0264746Y0108705D02*
X0265921Y0108705D01*
X0265939Y0108657D02*
X0264746Y0108657D01*
X0264746Y0108608D02*
X0265957Y0108608D01*
X0265974Y0108560D02*
X0264746Y0108560D01*
X0264746Y0108414D02*
X0275577Y0108414D01*
X0275538Y0108366D02*
X0264746Y0108366D01*
X0264746Y0108317D02*
X0275499Y0108317D01*
X0275450Y0108269D02*
X0264747Y0108269D01*
X0264747Y0108220D02*
X0275400Y0108220D01*
X0275350Y0108172D02*
X0264747Y0108172D01*
X0264747Y0108123D02*
X0275290Y0108123D01*
X0275228Y0108075D02*
X0264747Y0108075D01*
X0264747Y0108026D02*
X0275167Y0108026D01*
X0275106Y0107978D02*
X0264747Y0107978D01*
X0264747Y0107929D02*
X0275044Y0107929D01*
X0274966Y0107881D02*
X0264747Y0107881D01*
X0264747Y0107832D02*
X0274876Y0107832D01*
X0274787Y0107784D02*
X0264748Y0107784D01*
X0264748Y0107735D02*
X0274698Y0107735D01*
X0274578Y0107687D02*
X0264748Y0107687D01*
X0264748Y0107638D02*
X0274429Y0107638D01*
X0274281Y0107590D02*
X0264748Y0107590D01*
X0264749Y0107541D02*
X0274068Y0107541D01*
X0275674Y0111568D02*
X0260950Y0111568D01*
X0260990Y0111616D02*
X0275634Y0111616D01*
X0275594Y0111665D02*
X0261030Y0111665D01*
X0261069Y0111713D02*
X0275554Y0111713D01*
X0275511Y0111762D02*
X0261109Y0111762D01*
X0261153Y0111810D02*
X0275467Y0111810D01*
X0275424Y0111859D02*
X0261204Y0111859D01*
X0261255Y0111907D02*
X0275373Y0111907D01*
X0275314Y0111956D02*
X0261309Y0111956D01*
X0261368Y0112004D02*
X0275255Y0112004D01*
X0275197Y0112053D02*
X0261426Y0112053D01*
X0261490Y0112101D02*
X0275138Y0112101D01*
X0275079Y0112150D02*
X0261555Y0112150D01*
X0261623Y0112198D02*
X0274993Y0112198D01*
X0274905Y0112247D02*
X0261713Y0112247D01*
X0261802Y0112295D02*
X0274818Y0112295D01*
X0274496Y0112441D02*
X0262133Y0112441D01*
X0262285Y0112489D02*
X0274333Y0112489D01*
X0274170Y0112538D02*
X0262471Y0112538D01*
X0262845Y0112586D02*
X0273782Y0112586D01*
X0267029Y0111471D02*
X0265892Y0111471D01*
X0265906Y0111422D02*
X0267015Y0111422D01*
X0267002Y0111373D02*
X0265921Y0111373D01*
X0265935Y0111325D02*
X0266988Y0111325D01*
X0266974Y0111276D02*
X0265949Y0111276D01*
X0265964Y0111228D02*
X0266961Y0111228D01*
X0266947Y0111179D02*
X0265978Y0111179D01*
X0265992Y0111131D02*
X0266933Y0111131D01*
X0266919Y0111082D02*
X0266006Y0111082D01*
X0266021Y0111034D02*
X0266906Y0111034D01*
X0266892Y0110985D02*
X0266035Y0110985D01*
X0266049Y0110937D02*
X0266878Y0110937D01*
X0266865Y0110888D02*
X0266064Y0110888D01*
X0266078Y0110840D02*
X0266851Y0110840D01*
X0266837Y0110791D02*
X0266092Y0110791D01*
X0266107Y0110743D02*
X0266824Y0110743D01*
X0266810Y0110694D02*
X0266121Y0110694D01*
X0266135Y0110646D02*
X0266796Y0110646D01*
X0266782Y0110597D02*
X0266150Y0110597D01*
X0266164Y0110549D02*
X0266769Y0110549D01*
X0265427Y0110064D02*
X0264743Y0110064D01*
X0264743Y0110112D02*
X0265410Y0110112D01*
X0265392Y0110161D02*
X0264743Y0110161D01*
X0264743Y0110209D02*
X0265375Y0110209D01*
X0265357Y0110258D02*
X0264742Y0110258D01*
X0264742Y0110306D02*
X0265339Y0110306D01*
X0265322Y0110355D02*
X0264742Y0110355D01*
X0264742Y0110403D02*
X0265304Y0110403D01*
X0265286Y0110452D02*
X0264742Y0110452D01*
X0264742Y0110500D02*
X0265269Y0110500D01*
X0265251Y0110549D02*
X0264742Y0110549D01*
X0264742Y0110597D02*
X0265233Y0110597D01*
X0265216Y0110646D02*
X0264742Y0110646D01*
X0264742Y0110694D02*
X0265198Y0110694D01*
X0265180Y0110743D02*
X0264741Y0110743D01*
X0264741Y0110791D02*
X0265163Y0110791D01*
X0265145Y0110840D02*
X0264741Y0110840D01*
X0264741Y0110888D02*
X0265128Y0110888D01*
X0265110Y0110937D02*
X0264741Y0110937D01*
X0264741Y0110985D02*
X0265092Y0110985D01*
X0265075Y0111034D02*
X0264741Y0111034D01*
X0264741Y0111082D02*
X0265057Y0111082D01*
X0265039Y0111131D02*
X0264741Y0111131D01*
X0264741Y0111179D02*
X0265022Y0111179D01*
X0265004Y0111228D02*
X0264740Y0111228D01*
X0264740Y0111276D02*
X0264986Y0111276D01*
X0264969Y0111325D02*
X0264740Y0111325D01*
X0264737Y0111373D02*
X0264740Y0111373D01*
X0264752Y0111373D02*
X0264951Y0111373D01*
X0264939Y0111422D02*
X0264738Y0111422D01*
X0264739Y0111471D02*
X0264920Y0111471D01*
X0263784Y0111471D02*
X0263244Y0111471D01*
X0263377Y0111422D02*
X0263782Y0111422D01*
X0263780Y0111373D02*
X0263471Y0111373D01*
X0263549Y0111325D02*
X0263780Y0111325D01*
X0263780Y0111276D02*
X0263609Y0111276D01*
X0263668Y0111228D02*
X0263780Y0111228D01*
X0263780Y0111179D02*
X0263731Y0111179D01*
X0263392Y0110694D02*
X0263190Y0110735D01*
X0262988Y0110711D01*
X0262805Y0110627D01*
X0262658Y0110488D01*
X0262558Y0110308D01*
X0262527Y0110104D01*
X0262529Y0109900D01*
X0262565Y0109698D01*
X0262666Y0109518D01*
X0262817Y0109382D01*
X0263002Y0109305D01*
X0263204Y0109286D01*
X0263406Y0109329D01*
X0263570Y0109453D01*
X0263684Y0109621D01*
X0263750Y0109813D01*
X0263778Y0110017D01*
X0263747Y0110221D01*
X0263677Y0110411D01*
X0263559Y0110576D01*
X0263392Y0110694D01*
X0263389Y0110694D02*
X0262952Y0110694D01*
X0262845Y0110646D02*
X0263460Y0110646D01*
X0263529Y0110597D02*
X0262773Y0110597D01*
X0262723Y0110549D02*
X0263579Y0110549D01*
X0263614Y0110500D02*
X0262672Y0110500D01*
X0262638Y0110452D02*
X0263648Y0110452D01*
X0263680Y0110403D02*
X0262611Y0110403D01*
X0262584Y0110355D02*
X0263698Y0110355D01*
X0263716Y0110306D02*
X0262558Y0110306D01*
X0262550Y0110258D02*
X0263734Y0110258D01*
X0263749Y0110209D02*
X0262543Y0110209D01*
X0262535Y0110161D02*
X0263757Y0110161D01*
X0263764Y0110112D02*
X0262528Y0110112D01*
X0262527Y0110064D02*
X0263771Y0110064D01*
X0263778Y0110015D02*
X0262528Y0110015D01*
X0262528Y0109967D02*
X0263771Y0109967D01*
X0263764Y0109918D02*
X0262529Y0109918D01*
X0262534Y0109870D02*
X0263758Y0109870D01*
X0263751Y0109821D02*
X0262543Y0109821D01*
X0262552Y0109773D02*
X0263736Y0109773D01*
X0263719Y0109724D02*
X0262560Y0109724D01*
X0262578Y0109676D02*
X0263703Y0109676D01*
X0263686Y0109627D02*
X0262605Y0109627D01*
X0262632Y0109579D02*
X0263655Y0109579D01*
X0263623Y0109530D02*
X0262659Y0109530D01*
X0262706Y0109482D02*
X0263590Y0109482D01*
X0263544Y0109433D02*
X0262760Y0109433D01*
X0262814Y0109385D02*
X0263480Y0109385D01*
X0263416Y0109336D02*
X0262928Y0109336D01*
X0263192Y0109287D02*
X0263210Y0109287D01*
X0263603Y0108754D02*
X0263780Y0108754D01*
X0263780Y0108802D02*
X0263664Y0108802D01*
X0263716Y0108851D02*
X0263780Y0108851D01*
X0263780Y0108899D02*
X0263767Y0108899D01*
X0263780Y0108705D02*
X0263540Y0108705D01*
X0263469Y0108657D02*
X0263780Y0108657D01*
X0263780Y0108608D02*
X0263367Y0108608D01*
X0263230Y0108560D02*
X0263780Y0108560D01*
X0263780Y0108511D02*
X0260965Y0108511D01*
X0260927Y0108560D02*
X0262574Y0108560D01*
X0262411Y0108608D02*
X0260894Y0108608D01*
X0260861Y0108657D02*
X0262285Y0108657D01*
X0262200Y0108705D02*
X0260828Y0108705D01*
X0260802Y0108754D02*
X0262115Y0108754D01*
X0262058Y0108802D02*
X0260777Y0108802D01*
X0260751Y0108851D02*
X0262004Y0108851D01*
X0261950Y0108899D02*
X0260725Y0108899D01*
X0260700Y0108948D02*
X0261911Y0108948D01*
X0261872Y0108996D02*
X0260674Y0108996D01*
X0260648Y0109045D02*
X0261833Y0109045D01*
X0261801Y0109093D02*
X0260626Y0109093D01*
X0260611Y0109142D02*
X0261772Y0109142D01*
X0261744Y0109190D02*
X0260596Y0109190D01*
X0260581Y0109239D02*
X0261715Y0109239D01*
X0261694Y0109287D02*
X0260566Y0109287D01*
X0260551Y0109336D02*
X0261673Y0109336D01*
X0261652Y0109385D02*
X0260536Y0109385D01*
X0260521Y0109433D02*
X0261631Y0109433D01*
X0261006Y0108463D02*
X0263780Y0108463D01*
X0263780Y0108414D02*
X0261048Y0108414D01*
X0261089Y0108366D02*
X0263780Y0108366D01*
X0263780Y0108317D02*
X0261130Y0108317D01*
X0261172Y0108269D02*
X0263780Y0108269D01*
X0263780Y0108220D02*
X0261213Y0108220D01*
X0261272Y0108172D02*
X0263780Y0108172D01*
X0263780Y0108123D02*
X0261331Y0108123D01*
X0261390Y0108075D02*
X0263780Y0108075D01*
X0263780Y0108026D02*
X0261449Y0108026D01*
X0261507Y0107978D02*
X0263780Y0107978D01*
X0263780Y0107929D02*
X0261581Y0107929D01*
X0261667Y0107881D02*
X0263780Y0107881D01*
X0263780Y0107832D02*
X0261752Y0107832D01*
X0261838Y0107784D02*
X0263780Y0107784D01*
X0263780Y0107735D02*
X0261933Y0107735D01*
X0262045Y0107687D02*
X0263780Y0107687D01*
X0263779Y0107638D02*
X0262186Y0107638D01*
X0262345Y0107590D02*
X0263778Y0107590D01*
X0263776Y0107541D02*
X0262541Y0107541D01*
X0264744Y0109385D02*
X0265674Y0109385D01*
X0265657Y0109433D02*
X0264744Y0109433D01*
X0264744Y0109482D02*
X0265639Y0109482D01*
X0265621Y0109530D02*
X0264744Y0109530D01*
X0264744Y0109579D02*
X0265604Y0109579D01*
X0265586Y0109627D02*
X0264744Y0109627D01*
X0264744Y0109676D02*
X0265569Y0109676D01*
X0265551Y0109724D02*
X0264744Y0109724D01*
X0264743Y0109773D02*
X0265533Y0109773D01*
X0265516Y0109821D02*
X0264743Y0109821D01*
X0264743Y0109870D02*
X0265498Y0109870D01*
X0265480Y0109918D02*
X0264743Y0109918D01*
X0264743Y0109967D02*
X0265463Y0109967D01*
X0265445Y0110015D02*
X0264743Y0110015D01*
D16*
X0247333Y0184539D03*
X0247333Y0192689D03*
X0198333Y0193413D03*
X0146333Y0192177D03*
X0103774Y0191626D03*
X0103735Y0191665D03*
X0102711Y0190445D03*
X0101333Y0189343D03*
X0101333Y0188516D03*
X0100546Y0187177D03*
X0100546Y0187138D03*
X0100507Y0187059D03*
X0100507Y0187020D03*
X0100467Y0186823D03*
X0100467Y0186783D03*
X0100428Y0186705D03*
X0100428Y0186665D03*
X0100388Y0186626D03*
X0100388Y0186587D03*
X0100349Y0186390D03*
X0100349Y0186350D03*
X0100310Y0186272D03*
X0100310Y0186232D03*
X0100270Y0186193D03*
X0100270Y0186154D03*
X0100270Y0186114D03*
X0100231Y0185957D03*
X0100231Y0185917D03*
X0099916Y0184776D03*
X0099916Y0184736D03*
X0099877Y0184657D03*
X0099877Y0184618D03*
X0099837Y0184539D03*
X0099837Y0184500D03*
X0099798Y0184303D03*
X0099798Y0184264D03*
X0099759Y0184185D03*
X0099719Y0184067D03*
X0099680Y0183870D03*
X0099640Y0183752D03*
X0099601Y0183673D03*
X0099601Y0183634D03*
X0099562Y0183476D03*
X0099562Y0183437D03*
X0099522Y0183358D03*
X0099247Y0182256D03*
X0099247Y0182217D03*
X0099207Y0182138D03*
X0099207Y0182098D03*
X0099168Y0182020D03*
X0099168Y0181980D03*
X0099129Y0181823D03*
X0099129Y0181783D03*
X0099129Y0181744D03*
X0099089Y0181705D03*
X0099089Y0181665D03*
X0103420Y0182177D03*
X0103420Y0182217D03*
X0103420Y0182256D03*
X0103459Y0182138D03*
X0103459Y0182098D03*
X0103499Y0182020D03*
X0103499Y0181980D03*
X0103538Y0181823D03*
X0103538Y0181783D03*
X0103538Y0181744D03*
X0103577Y0181705D03*
X0103577Y0181665D03*
X0103144Y0183358D03*
X0103105Y0183437D03*
X0103105Y0183476D03*
X0103066Y0183634D03*
X0103066Y0183673D03*
X0103026Y0183752D03*
X0102987Y0183870D03*
X0102948Y0184067D03*
X0102908Y0184185D03*
X0102869Y0184264D03*
X0102869Y0184303D03*
X0102829Y0184500D03*
X0102829Y0184539D03*
X0102790Y0184618D03*
X0102790Y0184657D03*
X0102751Y0184736D03*
X0102751Y0184776D03*
X0102436Y0185917D03*
X0102436Y0185957D03*
X0102396Y0186114D03*
X0102396Y0186154D03*
X0102396Y0186193D03*
X0102357Y0186232D03*
X0102357Y0186272D03*
X0102318Y0186350D03*
X0102318Y0186390D03*
X0102278Y0186587D03*
X0102278Y0186626D03*
X0102239Y0186665D03*
X0102239Y0186705D03*
X0102199Y0186783D03*
X0102199Y0186823D03*
X0102160Y0187020D03*
X0102160Y0187059D03*
X0102121Y0187138D03*
X0102121Y0187177D03*
X0099955Y0190445D03*
X0098892Y0191626D03*
X0098932Y0191665D03*
D17*
X0100428Y0190681D03*
X0102239Y0190681D03*
X0146333Y0191823D03*
X0146333Y0191862D03*
X0198333Y0193374D03*
X0244381Y0183634D03*
X0244420Y0183594D03*
X0244420Y0183555D03*
X0247333Y0184776D03*
X0250247Y0183594D03*
X0250247Y0183555D03*
X0250286Y0183634D03*
D18*
X0247333Y0184992D03*
X0202822Y0189850D03*
X0202703Y0190087D03*
X0198333Y0193354D03*
X0193963Y0190087D03*
X0193845Y0189850D03*
D19*
X0194593Y0190894D03*
X0194633Y0190933D03*
X0194633Y0190972D03*
X0198333Y0193335D03*
X0202034Y0190972D03*
X0202034Y0190933D03*
X0101333Y0187689D03*
X0101333Y0187650D03*
X0101333Y0187610D03*
D20*
X0101333Y0187295D03*
X0101333Y0187256D03*
X0193727Y0188256D03*
X0194987Y0191248D03*
X0195026Y0191287D03*
X0198333Y0193295D03*
X0201640Y0191287D03*
X0201680Y0191248D03*
X0202625Y0182705D03*
D21*
X0202625Y0182783D03*
X0194042Y0182902D03*
X0195302Y0191484D03*
X0198333Y0193256D03*
X0201365Y0191484D03*
X0247333Y0185445D03*
X0101333Y0190917D03*
D22*
X0195656Y0191661D03*
X0198333Y0193236D03*
X0202703Y0187843D03*
X0202625Y0183000D03*
D23*
X0202644Y0183256D03*
X0202644Y0183295D03*
X0202644Y0183335D03*
X0202644Y0183374D03*
X0202644Y0183413D03*
X0202644Y0183453D03*
X0202644Y0183492D03*
X0202644Y0183531D03*
X0202644Y0183571D03*
X0202644Y0183610D03*
X0202644Y0183650D03*
X0202644Y0183689D03*
X0202644Y0183728D03*
X0202644Y0183768D03*
X0202644Y0183807D03*
X0202644Y0183846D03*
X0202644Y0183886D03*
X0202644Y0183925D03*
X0202644Y0183965D03*
X0202644Y0184004D03*
X0202644Y0184043D03*
X0202644Y0184083D03*
X0202644Y0184122D03*
X0202644Y0184161D03*
X0202644Y0184201D03*
X0202644Y0184240D03*
X0202644Y0184280D03*
X0202644Y0184319D03*
X0202644Y0184358D03*
X0202644Y0184398D03*
X0202644Y0184437D03*
X0202644Y0184476D03*
X0202644Y0184516D03*
X0202644Y0184555D03*
X0202644Y0184594D03*
X0202644Y0184634D03*
X0202644Y0184673D03*
X0202644Y0184713D03*
X0202644Y0184752D03*
X0202644Y0184791D03*
X0202644Y0184831D03*
X0202644Y0184870D03*
X0202644Y0184909D03*
X0202644Y0184949D03*
X0202644Y0184988D03*
X0202644Y0185028D03*
X0202644Y0185067D03*
X0202644Y0185106D03*
X0202644Y0185146D03*
X0202644Y0185185D03*
X0202644Y0185224D03*
X0202644Y0185264D03*
X0202644Y0185303D03*
X0202644Y0185343D03*
X0202644Y0185382D03*
X0202644Y0185421D03*
X0202644Y0185461D03*
X0202644Y0185500D03*
X0202644Y0185539D03*
X0202644Y0185579D03*
X0202644Y0185618D03*
X0202644Y0185657D03*
X0202644Y0185697D03*
X0202644Y0185736D03*
X0202644Y0185776D03*
X0202644Y0185815D03*
X0202644Y0185854D03*
X0202644Y0185894D03*
X0202644Y0185933D03*
X0202644Y0185972D03*
X0202644Y0186012D03*
X0202644Y0186051D03*
X0202644Y0186091D03*
X0202644Y0186130D03*
X0202644Y0186169D03*
X0202644Y0186209D03*
X0202644Y0186248D03*
X0202644Y0186287D03*
X0202644Y0186327D03*
X0202644Y0186366D03*
X0202644Y0186406D03*
X0202644Y0186445D03*
X0202644Y0186484D03*
X0202644Y0186524D03*
X0202644Y0186563D03*
X0202644Y0186602D03*
X0202644Y0186642D03*
X0202644Y0186681D03*
X0202644Y0186720D03*
X0202644Y0186760D03*
X0202644Y0186799D03*
X0202644Y0186839D03*
X0202644Y0186878D03*
X0202644Y0186917D03*
X0202644Y0186957D03*
X0202644Y0186996D03*
X0202644Y0187035D03*
X0202644Y0187075D03*
X0202644Y0187114D03*
X0202644Y0187154D03*
X0202644Y0187193D03*
X0202644Y0187232D03*
X0202644Y0187272D03*
X0202644Y0187311D03*
X0202644Y0187350D03*
X0202644Y0187390D03*
X0202644Y0187429D03*
X0202644Y0187469D03*
X0200912Y0191720D03*
X0198353Y0193217D03*
X0195755Y0191720D03*
X0194022Y0187587D03*
X0194022Y0187547D03*
X0194022Y0187508D03*
X0194022Y0187469D03*
X0194022Y0187429D03*
X0194022Y0187390D03*
X0194022Y0187350D03*
X0194022Y0187311D03*
X0194022Y0187272D03*
X0194022Y0187232D03*
X0194022Y0187193D03*
X0194022Y0187154D03*
X0194022Y0187114D03*
X0194022Y0187075D03*
X0194022Y0187035D03*
X0194022Y0186996D03*
X0194022Y0186957D03*
X0194022Y0186917D03*
X0194022Y0186878D03*
X0194022Y0186839D03*
X0194022Y0186799D03*
X0194022Y0186760D03*
X0194022Y0186720D03*
X0194022Y0186681D03*
X0194022Y0186642D03*
X0194022Y0186602D03*
X0194022Y0186563D03*
X0194022Y0186524D03*
X0194022Y0186484D03*
X0194022Y0186445D03*
X0194022Y0186406D03*
X0194022Y0186366D03*
X0194022Y0186327D03*
X0194022Y0186287D03*
X0194022Y0186248D03*
X0194022Y0186209D03*
X0194022Y0186169D03*
X0194022Y0186130D03*
X0194022Y0186091D03*
X0194022Y0186051D03*
X0194022Y0186012D03*
X0194022Y0185972D03*
X0194022Y0185933D03*
X0194022Y0185894D03*
X0194022Y0185854D03*
X0194022Y0185815D03*
X0194022Y0185776D03*
X0194022Y0185736D03*
X0194022Y0185697D03*
X0194022Y0185657D03*
X0194022Y0185618D03*
X0194022Y0185579D03*
X0194022Y0185539D03*
X0194022Y0185500D03*
X0194022Y0185461D03*
X0194022Y0185421D03*
X0194022Y0185382D03*
X0194022Y0185343D03*
X0194022Y0185303D03*
X0194022Y0185264D03*
X0194022Y0185224D03*
X0194022Y0185185D03*
X0194022Y0185146D03*
X0194022Y0185106D03*
X0194022Y0185067D03*
X0194022Y0185028D03*
X0194022Y0184988D03*
X0194022Y0184949D03*
X0194022Y0184909D03*
X0194022Y0184870D03*
X0194022Y0184831D03*
X0194022Y0184791D03*
X0194022Y0184752D03*
X0194022Y0184713D03*
X0194022Y0184673D03*
X0194022Y0184634D03*
X0194022Y0184594D03*
X0194022Y0184555D03*
X0194022Y0184516D03*
X0194022Y0184476D03*
X0194022Y0184437D03*
X0194022Y0184398D03*
X0194022Y0184358D03*
X0194022Y0184319D03*
X0194022Y0184280D03*
X0194022Y0184240D03*
X0194022Y0184201D03*
X0194022Y0184161D03*
X0194022Y0184122D03*
X0194022Y0184083D03*
X0194022Y0184043D03*
X0194022Y0184004D03*
X0194022Y0183965D03*
X0194022Y0183925D03*
X0194022Y0183886D03*
X0194022Y0183846D03*
X0194022Y0183807D03*
X0194022Y0183768D03*
X0194022Y0183728D03*
X0194022Y0183689D03*
X0194022Y0183650D03*
X0194022Y0183610D03*
X0194022Y0183571D03*
X0194022Y0183531D03*
X0194022Y0183492D03*
X0194022Y0183453D03*
X0194022Y0183413D03*
X0194022Y0183374D03*
X0194022Y0183335D03*
D24*
X0198333Y0193177D03*
X0247333Y0185799D03*
X0101333Y0185524D03*
X0101333Y0185484D03*
X0101333Y0185445D03*
D25*
X0101333Y0185051D03*
X0101333Y0185012D03*
X0198333Y0193138D03*
X0247333Y0185917D03*
X0247333Y0181547D03*
D26*
X0198333Y0193118D03*
D27*
X0198333Y0193098D03*
X0247333Y0186075D03*
X0247333Y0181626D03*
X0101333Y0192374D03*
D28*
X0198333Y0193059D03*
X0247333Y0181665D03*
D29*
X0247333Y0186232D03*
X0198333Y0193020D03*
D30*
X0198333Y0193000D03*
X0247333Y0186331D03*
D31*
X0247333Y0186350D03*
X0247333Y0181823D03*
X0198333Y0192980D03*
D32*
X0198333Y0192941D03*
X0247333Y0186469D03*
X0247333Y0181902D03*
X0101333Y0182925D03*
X0101333Y0182965D03*
X0101333Y0183004D03*
D33*
X0101333Y0182886D03*
X0101333Y0182846D03*
X0101333Y0182807D03*
X0101333Y0182768D03*
X0101333Y0182728D03*
X0198333Y0192902D03*
X0247333Y0186547D03*
X0247333Y0186508D03*
X0247333Y0181941D03*
D34*
X0198333Y0192882D03*
X0101333Y0182512D03*
D35*
X0101333Y0182492D03*
X0101333Y0182453D03*
X0101333Y0182413D03*
X0101333Y0182374D03*
X0101333Y0182335D03*
X0198333Y0192862D03*
X0247333Y0182020D03*
D36*
X0247333Y0182098D03*
X0198333Y0192823D03*
D37*
X0198333Y0192783D03*
X0247333Y0182138D03*
D38*
X0198333Y0192764D03*
D39*
X0198333Y0192744D03*
X0247333Y0182256D03*
X0146333Y0183122D03*
D40*
X0146333Y0181665D03*
X0198333Y0192705D03*
X0247333Y0182295D03*
D41*
X0198333Y0192685D03*
D42*
X0198333Y0192665D03*
X0146333Y0183083D03*
X0146333Y0181705D03*
D43*
X0146333Y0181744D03*
X0146333Y0183043D03*
X0198333Y0192626D03*
D44*
X0198333Y0192587D03*
X0146333Y0183004D03*
X0146333Y0181783D03*
D45*
X0198333Y0192567D03*
D46*
X0198333Y0192547D03*
X0146333Y0182925D03*
X0146333Y0181862D03*
D47*
X0146333Y0181902D03*
X0146333Y0181941D03*
X0146333Y0182846D03*
X0146333Y0182886D03*
X0198333Y0192508D03*
D48*
X0198333Y0192469D03*
X0146333Y0182807D03*
X0146333Y0181980D03*
D49*
X0146333Y0182118D03*
X0146333Y0182669D03*
X0198333Y0192449D03*
D50*
X0198333Y0192429D03*
X0146333Y0182728D03*
X0146333Y0182689D03*
X0146333Y0182650D03*
X0146333Y0182177D03*
X0146333Y0182138D03*
X0146333Y0182098D03*
X0146333Y0182059D03*
D51*
X0198333Y0192390D03*
D52*
X0198333Y0192350D03*
D53*
X0198353Y0192331D03*
D54*
X0198333Y0192311D03*
D55*
X0198333Y0192272D03*
D56*
X0198333Y0192232D03*
D57*
X0198333Y0192213D03*
D58*
X0198333Y0192193D03*
D59*
X0198333Y0192154D03*
D60*
X0198333Y0192114D03*
D61*
X0198333Y0192094D03*
D62*
X0198333Y0192075D03*
D63*
X0198333Y0192035D03*
D64*
X0198333Y0191996D03*
D65*
X0198333Y0191976D03*
D66*
X0198333Y0191957D03*
D67*
X0198333Y0191917D03*
D68*
X0198333Y0191898D03*
D69*
X0198333Y0191878D03*
D70*
X0198333Y0191839D03*
D71*
X0196070Y0191799D03*
X0200597Y0191799D03*
X0247353Y0185878D03*
D72*
X0247333Y0181488D03*
X0200696Y0191780D03*
X0195971Y0191780D03*
X0101333Y0185425D03*
D73*
X0101333Y0185563D03*
X0101333Y0185602D03*
X0101333Y0185642D03*
X0101333Y0192531D03*
X0195853Y0191760D03*
X0200814Y0191760D03*
X0247333Y0185760D03*
D74*
X0247333Y0185642D03*
X0247333Y0185602D03*
X0247333Y0181390D03*
X0202664Y0187705D03*
X0202664Y0187744D03*
X0200971Y0191681D03*
X0195696Y0191681D03*
X0194003Y0187862D03*
X0194003Y0187823D03*
X0194003Y0187783D03*
X0194042Y0183177D03*
X0101333Y0190720D03*
X0101333Y0190760D03*
X0101333Y0192610D03*
D75*
X0194022Y0183118D03*
X0201030Y0191661D03*
D76*
X0201109Y0191642D03*
X0202723Y0187902D03*
X0202723Y0187862D03*
X0195558Y0191642D03*
X0193944Y0188020D03*
X0193944Y0187980D03*
D77*
X0195518Y0191602D03*
X0201148Y0191602D03*
X0202644Y0182902D03*
D78*
X0202782Y0187980D03*
X0202782Y0188020D03*
X0201207Y0191563D03*
X0195459Y0191563D03*
X0193885Y0188098D03*
X0193885Y0188059D03*
X0247333Y0185524D03*
X0247333Y0185484D03*
X0101333Y0190839D03*
D79*
X0195420Y0191543D03*
X0202822Y0188039D03*
D80*
X0201266Y0191543D03*
D81*
X0201306Y0191524D03*
X0202841Y0188059D03*
X0195361Y0191524D03*
X0202605Y0182823D03*
D82*
X0202881Y0188098D03*
X0195282Y0191445D03*
X0193825Y0188177D03*
D83*
X0201404Y0191445D03*
X0247333Y0185406D03*
X0247333Y0185366D03*
X0247333Y0181311D03*
X0101333Y0192689D03*
D84*
X0101333Y0190937D03*
X0195223Y0191425D03*
X0201444Y0191425D03*
X0247333Y0185425D03*
D85*
X0201542Y0191366D03*
X0201503Y0191406D03*
X0195164Y0191406D03*
X0195125Y0191366D03*
X0193786Y0188217D03*
X0194022Y0182862D03*
D86*
X0194062Y0182823D03*
X0195085Y0191327D03*
X0201581Y0191327D03*
D87*
X0201581Y0191307D03*
X0195085Y0191307D03*
X0245699Y0182394D03*
X0248967Y0182394D03*
D88*
X0201739Y0191209D03*
X0194928Y0191209D03*
X0194022Y0182783D03*
D89*
X0194908Y0191189D03*
X0201759Y0191189D03*
X0247333Y0185307D03*
X0101333Y0187354D03*
X0101333Y0187433D03*
D90*
X0194888Y0191169D03*
X0201778Y0191169D03*
X0202644Y0182665D03*
D91*
X0201916Y0191091D03*
X0201837Y0191130D03*
X0194829Y0191130D03*
X0194751Y0191091D03*
X0245522Y0182453D03*
X0247333Y0185209D03*
X0249144Y0182453D03*
X0101333Y0187531D03*
X0101333Y0187571D03*
X0101333Y0191035D03*
D92*
X0194810Y0191110D03*
X0201857Y0191110D03*
D93*
X0201936Y0191051D03*
X0201936Y0191012D03*
X0194731Y0191012D03*
X0194731Y0191051D03*
X0245463Y0182492D03*
X0249203Y0182492D03*
D94*
X0247333Y0181252D03*
X0202625Y0182646D03*
X0201995Y0190992D03*
X0194672Y0190992D03*
X0101333Y0192748D03*
X0101333Y0187669D03*
D95*
X0194022Y0182744D03*
X0202093Y0190894D03*
D96*
X0202113Y0190874D03*
X0194554Y0190874D03*
X0101333Y0191055D03*
X0101333Y0187787D03*
D97*
X0101333Y0187768D03*
X0101333Y0187807D03*
X0101333Y0187846D03*
X0101333Y0187886D03*
X0101333Y0187728D03*
X0194475Y0190776D03*
X0194514Y0190815D03*
X0194554Y0190854D03*
X0202113Y0190854D03*
X0202152Y0190815D03*
X0202192Y0190776D03*
X0247333Y0185169D03*
X0247333Y0185130D03*
D98*
X0202211Y0190756D03*
X0194455Y0190756D03*
D99*
X0194416Y0190736D03*
X0202251Y0190736D03*
D100*
X0202270Y0190697D03*
X0202270Y0190657D03*
X0202388Y0190539D03*
X0194396Y0190657D03*
X0194396Y0190697D03*
X0194278Y0190539D03*
X0202625Y0182626D03*
X0245365Y0182531D03*
X0247333Y0185091D03*
X0249302Y0182531D03*
X0101333Y0187925D03*
X0101333Y0191075D03*
X0101333Y0192768D03*
D101*
X0101333Y0187906D03*
X0194357Y0190638D03*
X0202310Y0190638D03*
D102*
X0202329Y0190618D03*
X0202369Y0190579D03*
X0194337Y0190618D03*
X0194298Y0190579D03*
X0194062Y0182705D03*
X0245266Y0182610D03*
X0245306Y0182571D03*
X0249361Y0182571D03*
X0249400Y0182610D03*
D103*
X0202408Y0190520D03*
X0194259Y0190520D03*
D104*
X0194239Y0190500D03*
X0194199Y0190421D03*
X0194160Y0190382D03*
X0202428Y0190500D03*
X0202467Y0190421D03*
X0202507Y0190382D03*
X0247333Y0181232D03*
X0101333Y0187965D03*
D105*
X0194101Y0190303D03*
X0194140Y0190343D03*
X0194219Y0190461D03*
X0202448Y0190461D03*
X0202526Y0190343D03*
X0202566Y0190303D03*
X0245188Y0182650D03*
X0249479Y0182650D03*
D106*
X0249459Y0182630D03*
X0247333Y0185071D03*
X0245207Y0182630D03*
X0202507Y0190402D03*
X0194160Y0190402D03*
D107*
X0194121Y0190323D03*
X0202546Y0190323D03*
X0202625Y0190205D03*
X0101333Y0188024D03*
D108*
X0101333Y0188004D03*
X0101333Y0191114D03*
X0194003Y0190185D03*
X0194003Y0190146D03*
X0194042Y0190224D03*
X0194081Y0190264D03*
X0202585Y0190264D03*
X0202625Y0190224D03*
X0202664Y0190185D03*
X0202664Y0190146D03*
X0247333Y0185051D03*
X0247333Y0185012D03*
D109*
X0245109Y0182709D03*
X0249558Y0182709D03*
X0202762Y0189969D03*
X0194022Y0190205D03*
X0193904Y0189969D03*
D110*
X0193904Y0189988D03*
X0193944Y0190067D03*
X0193983Y0190106D03*
X0202684Y0190106D03*
X0202723Y0190067D03*
X0202762Y0189988D03*
X0202644Y0182587D03*
X0245070Y0182728D03*
X0245148Y0182689D03*
X0249518Y0182689D03*
X0249597Y0182728D03*
D111*
X0249066Y0186744D03*
X0249184Y0186862D03*
X0249302Y0186980D03*
X0249420Y0187098D03*
X0249538Y0187217D03*
X0245601Y0186744D03*
X0245483Y0186862D03*
X0245365Y0186980D03*
X0245247Y0187098D03*
X0245129Y0187217D03*
X0202940Y0189634D03*
X0202861Y0189791D03*
X0202822Y0189870D03*
X0202822Y0189909D03*
X0202782Y0189949D03*
X0202743Y0190028D03*
X0193924Y0190028D03*
X0193885Y0189949D03*
X0193845Y0189909D03*
X0193845Y0189870D03*
X0193806Y0189791D03*
X0193727Y0189634D03*
X0101333Y0191154D03*
X0101333Y0192807D03*
X0101333Y0188043D03*
D112*
X0100014Y0192256D03*
X0102652Y0192256D03*
X0193707Y0189594D03*
X0193747Y0189673D03*
X0193747Y0189713D03*
X0193786Y0189752D03*
X0193825Y0189831D03*
X0202841Y0189831D03*
X0202881Y0189752D03*
X0202920Y0189713D03*
X0202920Y0189673D03*
X0202959Y0189594D03*
X0245148Y0187177D03*
X0245188Y0187138D03*
X0245266Y0187059D03*
X0245306Y0187020D03*
X0245385Y0186941D03*
X0245424Y0186902D03*
X0245503Y0186823D03*
X0245542Y0186783D03*
X0245621Y0186705D03*
X0245660Y0186665D03*
X0245699Y0186626D03*
X0245739Y0186587D03*
X0248928Y0186587D03*
X0248967Y0186626D03*
X0249007Y0186665D03*
X0249046Y0186705D03*
X0249125Y0186783D03*
X0249164Y0186823D03*
X0249243Y0186902D03*
X0249282Y0186941D03*
X0249361Y0187020D03*
X0249400Y0187059D03*
X0249479Y0187138D03*
X0249518Y0187177D03*
X0249636Y0182768D03*
X0245030Y0182768D03*
D113*
X0245778Y0186567D03*
X0245699Y0186646D03*
X0245581Y0186764D03*
X0245463Y0186882D03*
X0245345Y0187000D03*
X0245227Y0187118D03*
X0245109Y0187236D03*
X0248888Y0186567D03*
X0248967Y0186646D03*
X0249085Y0186764D03*
X0249203Y0186882D03*
X0249322Y0187000D03*
X0249440Y0187118D03*
X0249558Y0187236D03*
X0202959Y0189614D03*
X0202881Y0189732D03*
X0193786Y0189732D03*
X0193707Y0189614D03*
D114*
X0193688Y0189555D03*
X0193648Y0189476D03*
X0193648Y0189437D03*
X0193609Y0189398D03*
X0193609Y0189358D03*
X0193570Y0189319D03*
X0202979Y0189555D03*
X0203018Y0189476D03*
X0203018Y0189437D03*
X0203058Y0189398D03*
X0203058Y0189358D03*
X0203097Y0189319D03*
X0245050Y0187335D03*
X0245050Y0187295D03*
X0245089Y0187256D03*
X0247333Y0184972D03*
X0245010Y0182807D03*
X0247333Y0181193D03*
X0249656Y0182807D03*
X0249577Y0187256D03*
X0249617Y0187295D03*
X0249617Y0187335D03*
D115*
X0249696Y0182827D03*
X0244971Y0182827D03*
X0203097Y0189299D03*
X0203018Y0189417D03*
X0202979Y0189535D03*
X0193688Y0189535D03*
X0193648Y0189417D03*
X0193570Y0189299D03*
D116*
X0193550Y0189280D03*
X0193550Y0189240D03*
X0193550Y0189201D03*
X0193550Y0189161D03*
X0193510Y0189083D03*
X0193471Y0189004D03*
X0193432Y0188846D03*
X0193432Y0188807D03*
X0193668Y0189516D03*
X0194022Y0182665D03*
X0203235Y0188807D03*
X0203235Y0188846D03*
X0203196Y0189004D03*
X0203156Y0189083D03*
X0203117Y0189161D03*
X0203117Y0189201D03*
X0203117Y0189240D03*
X0203117Y0189280D03*
X0202999Y0189516D03*
X0244991Y0187374D03*
X0249676Y0187374D03*
X0249794Y0182925D03*
X0249755Y0182886D03*
X0249715Y0182846D03*
X0244951Y0182846D03*
X0244912Y0182886D03*
X0244873Y0182925D03*
D117*
X0244873Y0182945D03*
X0249794Y0182945D03*
X0249636Y0187354D03*
X0245030Y0187354D03*
X0203235Y0188827D03*
X0203156Y0189063D03*
X0203117Y0189181D03*
X0193550Y0189181D03*
X0193510Y0189063D03*
X0193432Y0188827D03*
D118*
X0193451Y0188886D03*
X0193451Y0188925D03*
X0193451Y0188965D03*
X0193491Y0189043D03*
X0193530Y0189122D03*
X0193412Y0188768D03*
X0193412Y0188728D03*
X0193373Y0188610D03*
X0193333Y0188374D03*
X0193333Y0188335D03*
X0193333Y0188295D03*
X0203136Y0189122D03*
X0203176Y0189043D03*
X0203215Y0188965D03*
X0203215Y0188925D03*
X0203215Y0188886D03*
X0203255Y0188768D03*
X0203255Y0188728D03*
X0203294Y0188610D03*
X0203333Y0188374D03*
X0203333Y0188335D03*
X0203333Y0188295D03*
X0244971Y0187413D03*
X0247333Y0184933D03*
X0244853Y0182965D03*
X0249814Y0182965D03*
X0249696Y0187413D03*
X0101333Y0188083D03*
D119*
X0101333Y0191173D03*
X0193333Y0188394D03*
X0193333Y0188276D03*
X0193412Y0188748D03*
X0193451Y0188945D03*
X0203215Y0188945D03*
X0203255Y0188748D03*
X0203333Y0188394D03*
X0244971Y0187433D03*
X0249696Y0187433D03*
D120*
X0249715Y0187453D03*
X0247353Y0184894D03*
X0249873Y0183043D03*
X0244794Y0183043D03*
X0244951Y0187453D03*
X0203353Y0188177D03*
X0203353Y0188217D03*
X0203353Y0188256D03*
X0203314Y0188413D03*
X0203314Y0188453D03*
X0203314Y0188492D03*
X0203314Y0188531D03*
X0203314Y0188571D03*
X0203274Y0188650D03*
X0203274Y0188689D03*
X0193392Y0188689D03*
X0193392Y0188650D03*
X0193353Y0188571D03*
X0193353Y0188531D03*
X0193353Y0188492D03*
X0193353Y0188453D03*
X0193353Y0188413D03*
D121*
X0193353Y0188512D03*
X0193392Y0188630D03*
X0203274Y0188630D03*
X0203314Y0188512D03*
X0203353Y0188276D03*
X0244755Y0183063D03*
X0249912Y0183063D03*
D122*
X0193845Y0188157D03*
D123*
X0202959Y0188157D03*
D124*
X0193885Y0188138D03*
X0194042Y0182941D03*
X0247333Y0181350D03*
X0101333Y0190878D03*
X0101333Y0192650D03*
D125*
X0101333Y0190957D03*
X0202900Y0188138D03*
X0202625Y0182744D03*
X0247333Y0185327D03*
D126*
X0193924Y0188039D03*
X0101333Y0190819D03*
X0101333Y0192630D03*
D127*
X0193944Y0187961D03*
D128*
X0194022Y0183000D03*
X0202762Y0187961D03*
X0247353Y0181370D03*
D129*
X0202625Y0182980D03*
X0194042Y0183098D03*
X0193963Y0187941D03*
X0101333Y0190799D03*
D130*
X0194042Y0183059D03*
X0194042Y0183020D03*
X0202625Y0182941D03*
X0202743Y0187941D03*
X0247333Y0185563D03*
D131*
X0202684Y0187783D03*
X0202684Y0187823D03*
X0202644Y0183059D03*
X0202644Y0183020D03*
X0194022Y0183138D03*
X0193983Y0187902D03*
D132*
X0194003Y0187843D03*
X0202664Y0187724D03*
X0247333Y0185661D03*
D133*
X0202644Y0187626D03*
X0202644Y0187665D03*
X0202644Y0183098D03*
X0194022Y0183217D03*
X0194022Y0187744D03*
D134*
X0194022Y0187724D03*
X0194022Y0183236D03*
X0202644Y0183118D03*
X0202644Y0187606D03*
D135*
X0202625Y0187587D03*
X0202625Y0187547D03*
X0202625Y0187508D03*
X0202625Y0183217D03*
X0202625Y0183177D03*
X0202625Y0183138D03*
X0194042Y0183256D03*
X0194042Y0183295D03*
X0194042Y0187626D03*
X0194042Y0187665D03*
X0194042Y0187705D03*
X0247333Y0185681D03*
X0247333Y0181429D03*
D136*
X0202625Y0183236D03*
X0194042Y0183315D03*
X0194042Y0187606D03*
D137*
X0194022Y0187488D03*
X0194022Y0187370D03*
X0194022Y0187252D03*
X0194022Y0187173D03*
X0194022Y0187055D03*
X0194022Y0186937D03*
X0194022Y0186819D03*
X0194022Y0186701D03*
X0194022Y0186583D03*
X0194022Y0186465D03*
X0194022Y0186386D03*
X0194022Y0186268D03*
X0194022Y0186150D03*
X0194022Y0186031D03*
X0194022Y0185913D03*
X0194022Y0185795D03*
X0194022Y0185677D03*
X0194022Y0185598D03*
X0194022Y0185480D03*
X0194022Y0185362D03*
X0194022Y0185244D03*
X0194022Y0185126D03*
X0194022Y0185008D03*
X0194022Y0184890D03*
X0194022Y0184811D03*
X0194022Y0184693D03*
X0194022Y0184575D03*
X0194022Y0184457D03*
X0194022Y0184339D03*
X0194022Y0184220D03*
X0194022Y0184102D03*
X0194022Y0184024D03*
X0194022Y0183906D03*
X0194022Y0183787D03*
X0194022Y0183669D03*
X0194022Y0183551D03*
X0194022Y0183433D03*
X0202644Y0183433D03*
X0202644Y0183315D03*
X0202644Y0183551D03*
X0202644Y0183669D03*
X0202644Y0183787D03*
X0202644Y0183906D03*
X0202644Y0184024D03*
X0202644Y0184102D03*
X0202644Y0184220D03*
X0202644Y0184339D03*
X0202644Y0184457D03*
X0202644Y0184575D03*
X0202644Y0184693D03*
X0202644Y0184811D03*
X0202644Y0184890D03*
X0202644Y0185008D03*
X0202644Y0185126D03*
X0202644Y0185244D03*
X0202644Y0185362D03*
X0202644Y0185480D03*
X0202644Y0185598D03*
X0202644Y0185677D03*
X0202644Y0185795D03*
X0202644Y0185913D03*
X0202644Y0186031D03*
X0202644Y0186150D03*
X0202644Y0186268D03*
X0202644Y0186386D03*
X0202644Y0186465D03*
X0202644Y0186583D03*
X0202644Y0186701D03*
X0202644Y0186819D03*
X0202644Y0186937D03*
X0202644Y0187055D03*
X0202644Y0187173D03*
X0202644Y0187252D03*
X0202644Y0187370D03*
X0202644Y0187488D03*
X0101314Y0190701D03*
D138*
X0194022Y0182980D03*
X0202644Y0182862D03*
D139*
X0194022Y0182882D03*
D140*
X0202644Y0182882D03*
D141*
X0194042Y0182764D03*
X0101333Y0187551D03*
D142*
X0202644Y0182764D03*
D143*
X0244066Y0185602D03*
X0247333Y0184382D03*
X0250601Y0185602D03*
X0247333Y0192886D03*
X0103066Y0187531D03*
X0101333Y0189539D03*
X0098774Y0186035D03*
D144*
X0101333Y0188339D03*
X0103971Y0186213D03*
X0247333Y0192866D03*
D145*
X0247333Y0192846D03*
X0103617Y0181193D03*
X0099050Y0181193D03*
X0103066Y0187650D03*
X0101333Y0188358D03*
D146*
X0101333Y0188398D03*
X0101333Y0189461D03*
X0099562Y0189972D03*
X0099562Y0190012D03*
X0099483Y0189894D03*
X0099483Y0189854D03*
X0099444Y0189776D03*
X0099365Y0189579D03*
X0099365Y0188319D03*
X0099365Y0188280D03*
X0099444Y0188122D03*
X0099483Y0188004D03*
X0099522Y0187925D03*
X0099562Y0187886D03*
X0099562Y0187846D03*
X0098262Y0186980D03*
X0098144Y0187138D03*
X0098105Y0187217D03*
X0098066Y0187295D03*
X0098735Y0186272D03*
X0097790Y0189815D03*
X0098026Y0190524D03*
X0098066Y0190563D03*
X0098105Y0190602D03*
X0098105Y0190642D03*
X0098144Y0190720D03*
X0098223Y0190839D03*
X0098262Y0190878D03*
X0101333Y0192886D03*
X0103105Y0190012D03*
X0103105Y0189972D03*
X0103184Y0189894D03*
X0103184Y0189854D03*
X0103223Y0189776D03*
X0103302Y0189579D03*
X0103302Y0188319D03*
X0103302Y0188280D03*
X0103223Y0188122D03*
X0103184Y0188004D03*
X0103144Y0187925D03*
X0103105Y0187886D03*
X0103105Y0187846D03*
X0104404Y0186980D03*
X0104444Y0187020D03*
X0104522Y0187138D03*
X0104562Y0187217D03*
X0104601Y0187295D03*
X0104680Y0187492D03*
X0104010Y0186350D03*
X0104877Y0189815D03*
X0104719Y0190287D03*
X0104640Y0190524D03*
X0104601Y0190563D03*
X0104562Y0190602D03*
X0104562Y0190642D03*
X0104522Y0190720D03*
X0104444Y0190839D03*
X0104404Y0190878D03*
X0103617Y0181272D03*
X0099050Y0181272D03*
X0146333Y0192256D03*
X0244774Y0188122D03*
X0249892Y0188122D03*
X0247333Y0192807D03*
D147*
X0247333Y0192768D03*
X0244066Y0185484D03*
X0247333Y0184500D03*
X0247333Y0184461D03*
X0250601Y0185484D03*
X0247333Y0181114D03*
X0104365Y0186902D03*
X0104286Y0186783D03*
X0104247Y0186744D03*
X0104247Y0186705D03*
X0104207Y0186665D03*
X0104129Y0186587D03*
X0104089Y0186508D03*
X0101333Y0188437D03*
X0101333Y0189382D03*
X0101333Y0189421D03*
X0099759Y0190248D03*
X0099640Y0190130D03*
X0099640Y0190091D03*
X0098420Y0191114D03*
X0098420Y0191154D03*
X0098538Y0191272D03*
X0098302Y0190957D03*
X0102908Y0190248D03*
X0102987Y0190169D03*
X0103026Y0190130D03*
X0103026Y0190091D03*
X0104247Y0191114D03*
X0104247Y0191154D03*
X0104129Y0191272D03*
X0104365Y0190957D03*
X0098538Y0186587D03*
X0098459Y0186665D03*
X0098420Y0186705D03*
X0098420Y0186744D03*
X0098381Y0186783D03*
X0098302Y0186902D03*
X0098617Y0186469D03*
X0098656Y0186429D03*
X0098656Y0186390D03*
X0098696Y0186350D03*
X0099050Y0181350D03*
X0103617Y0181350D03*
D148*
X0104050Y0186449D03*
X0104129Y0186567D03*
X0104365Y0186882D03*
X0101333Y0188457D03*
X0099680Y0190150D03*
X0098459Y0191173D03*
X0101333Y0191291D03*
X0102987Y0190150D03*
X0104207Y0191173D03*
X0098302Y0186882D03*
X0146333Y0192236D03*
X0247333Y0192748D03*
D149*
X0247333Y0192728D03*
X0146333Y0192217D03*
X0104089Y0191311D03*
X0104010Y0191390D03*
X0103971Y0191469D03*
X0103892Y0191508D03*
X0102790Y0190366D03*
X0102829Y0190327D03*
X0102869Y0190287D03*
X0101333Y0188476D03*
X0099798Y0190287D03*
X0099837Y0190327D03*
X0098656Y0191390D03*
X0098696Y0191469D03*
X0098774Y0191508D03*
X0098577Y0191311D03*
X0098577Y0186547D03*
X0099050Y0181508D03*
X0099050Y0181469D03*
X0099050Y0181429D03*
X0099050Y0181390D03*
X0103617Y0181390D03*
X0103617Y0181429D03*
X0103617Y0181469D03*
X0103617Y0181508D03*
D150*
X0101333Y0188555D03*
X0101333Y0188594D03*
X0101333Y0189264D03*
X0101333Y0189303D03*
X0100073Y0190524D03*
X0101333Y0191272D03*
X0102593Y0190524D03*
X0103577Y0191783D03*
X0099089Y0191783D03*
X0244066Y0185366D03*
X0247333Y0184618D03*
X0247333Y0184579D03*
X0250601Y0185366D03*
X0249932Y0187965D03*
X0247333Y0192650D03*
D151*
X0247333Y0192630D03*
X0101333Y0188575D03*
D152*
X0101333Y0188634D03*
X0101333Y0188673D03*
X0101333Y0189224D03*
X0099247Y0191902D03*
X0099286Y0191941D03*
X0103381Y0191941D03*
X0103420Y0191902D03*
X0146333Y0192098D03*
X0146333Y0192138D03*
X0247333Y0192571D03*
X0247333Y0192610D03*
D153*
X0247333Y0192531D03*
X0244774Y0187846D03*
X0249892Y0187846D03*
X0247333Y0184657D03*
X0146333Y0192059D03*
X0102436Y0190602D03*
X0101333Y0189185D03*
X0101333Y0189146D03*
X0101333Y0188713D03*
X0100231Y0190602D03*
D154*
X0101333Y0189126D03*
X0101333Y0188693D03*
X0247333Y0192512D03*
D155*
X0247333Y0192492D03*
X0247333Y0192453D03*
X0247333Y0192413D03*
X0247333Y0192374D03*
X0247333Y0192335D03*
X0247333Y0192295D03*
X0247333Y0192256D03*
X0247333Y0192217D03*
X0247333Y0192177D03*
X0247333Y0192138D03*
X0247333Y0192098D03*
X0247333Y0192059D03*
X0247333Y0192020D03*
X0247333Y0191980D03*
X0247333Y0191941D03*
X0247333Y0191902D03*
X0247333Y0191862D03*
X0247333Y0191823D03*
X0247333Y0191783D03*
X0247333Y0191744D03*
X0247333Y0191705D03*
X0247333Y0191665D03*
X0247333Y0191626D03*
X0247333Y0191587D03*
X0247333Y0191547D03*
X0247333Y0191508D03*
X0247333Y0191469D03*
X0247333Y0191429D03*
X0247333Y0191390D03*
X0247333Y0191350D03*
X0247333Y0191311D03*
X0247333Y0191272D03*
X0247333Y0191232D03*
X0247333Y0191193D03*
X0247333Y0191154D03*
X0247333Y0191114D03*
X0247333Y0191075D03*
X0247333Y0191035D03*
X0247333Y0190996D03*
X0247333Y0190957D03*
X0247333Y0190917D03*
X0247333Y0190878D03*
X0247333Y0190839D03*
X0247333Y0190799D03*
X0247333Y0190760D03*
X0247333Y0190720D03*
X0247333Y0190681D03*
X0247333Y0190642D03*
X0247333Y0190602D03*
X0247333Y0190563D03*
X0247333Y0190524D03*
X0247333Y0190484D03*
X0247333Y0190445D03*
X0247333Y0190406D03*
X0247333Y0190366D03*
X0247333Y0190327D03*
X0247333Y0190287D03*
X0247333Y0190248D03*
X0247333Y0190209D03*
X0247333Y0190169D03*
X0247333Y0190130D03*
X0247333Y0190091D03*
X0247333Y0190051D03*
X0247333Y0190012D03*
X0247333Y0189972D03*
X0247333Y0189933D03*
X0247333Y0189894D03*
X0247333Y0189854D03*
X0247333Y0189815D03*
X0247333Y0189776D03*
X0247333Y0189736D03*
X0247333Y0189697D03*
X0247333Y0189657D03*
X0247333Y0189618D03*
X0247333Y0189579D03*
X0247333Y0189539D03*
X0247333Y0189500D03*
X0247333Y0189461D03*
X0247333Y0189421D03*
X0247333Y0189382D03*
X0247333Y0189343D03*
X0247333Y0189303D03*
X0247333Y0189264D03*
X0247333Y0189224D03*
X0247333Y0189185D03*
X0247333Y0189146D03*
X0247333Y0189106D03*
X0247333Y0189067D03*
X0247333Y0189028D03*
X0247333Y0188988D03*
X0247333Y0188949D03*
X0247333Y0188909D03*
X0247333Y0188870D03*
X0247333Y0188831D03*
X0247333Y0188791D03*
X0247333Y0188752D03*
X0247333Y0188713D03*
X0247333Y0188673D03*
X0247333Y0188634D03*
X0247333Y0188594D03*
X0247333Y0188555D03*
X0247333Y0188516D03*
X0247333Y0188476D03*
X0247333Y0188437D03*
X0247333Y0188398D03*
X0247333Y0188358D03*
X0247333Y0188319D03*
X0247333Y0188280D03*
X0247333Y0188240D03*
X0247333Y0188201D03*
X0247333Y0188161D03*
X0247333Y0188122D03*
X0247333Y0188083D03*
X0247333Y0188043D03*
X0247333Y0188004D03*
X0247333Y0187965D03*
X0247333Y0187925D03*
X0247333Y0187886D03*
X0247333Y0187846D03*
X0247333Y0187807D03*
X0247333Y0187768D03*
X0247333Y0187728D03*
X0247333Y0187689D03*
X0247333Y0187650D03*
X0247333Y0187610D03*
X0247333Y0187571D03*
X0247333Y0187531D03*
X0247333Y0187492D03*
X0247333Y0187453D03*
X0247333Y0187413D03*
X0247333Y0187374D03*
X0247333Y0187335D03*
X0247333Y0187295D03*
X0247333Y0187256D03*
X0247333Y0187217D03*
X0247333Y0187177D03*
X0247333Y0187138D03*
X0247333Y0187098D03*
X0247333Y0187059D03*
X0247333Y0187020D03*
X0247333Y0186980D03*
X0247333Y0186941D03*
X0247333Y0186902D03*
X0247333Y0186862D03*
X0247333Y0186823D03*
X0247333Y0186783D03*
X0247333Y0186744D03*
X0247333Y0186705D03*
X0247333Y0186665D03*
X0247333Y0186626D03*
X0247333Y0186587D03*
X0247333Y0184736D03*
X0247333Y0184697D03*
X0244184Y0184224D03*
X0244105Y0184579D03*
X0244105Y0184618D03*
X0244066Y0184933D03*
X0244066Y0184972D03*
X0244066Y0185012D03*
X0244066Y0185051D03*
X0244066Y0185091D03*
X0244066Y0185130D03*
X0250483Y0184224D03*
X0250562Y0184579D03*
X0250562Y0184618D03*
X0250601Y0184933D03*
X0250601Y0184972D03*
X0250601Y0185012D03*
X0250601Y0185051D03*
X0250601Y0185091D03*
X0250601Y0185130D03*
X0146333Y0192020D03*
X0102357Y0190642D03*
X0101333Y0191232D03*
X0100310Y0190642D03*
X0101333Y0189106D03*
X0101333Y0189067D03*
X0101333Y0189028D03*
X0101333Y0188988D03*
X0101333Y0188949D03*
X0101333Y0188909D03*
X0101333Y0188870D03*
X0101333Y0188831D03*
X0101333Y0188791D03*
X0101333Y0188752D03*
D156*
X0101333Y0188811D03*
X0101333Y0188929D03*
X0101333Y0189008D03*
X0099562Y0192079D03*
X0101333Y0192866D03*
X0103105Y0192079D03*
X0146333Y0192000D03*
X0244066Y0185071D03*
X0244066Y0184992D03*
X0247333Y0186567D03*
X0247333Y0186646D03*
X0247333Y0186764D03*
X0247333Y0186882D03*
X0247333Y0187000D03*
X0247333Y0187118D03*
X0247333Y0187236D03*
X0247333Y0187354D03*
X0247333Y0187433D03*
X0247333Y0187551D03*
X0247333Y0187669D03*
X0247333Y0187787D03*
X0247333Y0187906D03*
X0247333Y0188024D03*
X0247333Y0188142D03*
X0247333Y0188220D03*
X0247333Y0188339D03*
X0247333Y0188457D03*
X0247333Y0188575D03*
X0247333Y0188693D03*
X0247333Y0188811D03*
X0247333Y0188929D03*
X0247333Y0189008D03*
X0247333Y0189126D03*
X0247333Y0189244D03*
X0247333Y0189362D03*
X0247333Y0189480D03*
X0247333Y0189598D03*
X0247333Y0189717D03*
X0247333Y0189795D03*
X0247333Y0189913D03*
X0247333Y0190031D03*
X0247333Y0190150D03*
X0247333Y0190268D03*
X0247333Y0190386D03*
X0247333Y0190504D03*
X0247333Y0190583D03*
X0247333Y0190701D03*
X0247333Y0190819D03*
X0247333Y0190937D03*
X0247333Y0191055D03*
X0247333Y0191173D03*
X0247333Y0191291D03*
X0247333Y0191370D03*
X0247333Y0191488D03*
X0247333Y0191606D03*
X0247333Y0191724D03*
X0247333Y0191843D03*
X0247333Y0191961D03*
X0247333Y0192079D03*
X0247333Y0192157D03*
X0247333Y0192276D03*
X0247333Y0192394D03*
X0250601Y0185071D03*
X0250601Y0184992D03*
X0247333Y0181134D03*
D157*
X0244774Y0188201D03*
X0249892Y0188201D03*
X0103971Y0186114D03*
X0103066Y0187492D03*
X0101333Y0188319D03*
X0099601Y0187531D03*
D158*
X0099581Y0187571D03*
X0103991Y0186193D03*
X0244755Y0188161D03*
X0249912Y0188161D03*
D159*
X0249912Y0188142D03*
X0244755Y0188142D03*
X0244085Y0185543D03*
X0250581Y0185543D03*
X0103046Y0187669D03*
X0098755Y0186213D03*
D160*
X0098715Y0186311D03*
X0098361Y0186823D03*
X0098322Y0186862D03*
X0098282Y0186941D03*
X0098203Y0187020D03*
X0098203Y0187059D03*
X0098164Y0187098D03*
X0098085Y0187256D03*
X0099503Y0187965D03*
X0099542Y0189933D03*
X0099621Y0190051D03*
X0098400Y0191075D03*
X0098361Y0191035D03*
X0098322Y0190996D03*
X0098282Y0190917D03*
X0098203Y0190799D03*
X0098164Y0190760D03*
X0103046Y0190051D03*
X0103125Y0189933D03*
X0104463Y0190799D03*
X0104503Y0190760D03*
X0104385Y0190917D03*
X0104345Y0190996D03*
X0104306Y0191035D03*
X0104266Y0191075D03*
X0103164Y0187965D03*
X0104463Y0187059D03*
X0104503Y0187098D03*
X0104581Y0187256D03*
X0104385Y0186941D03*
X0104345Y0186862D03*
X0104306Y0186823D03*
X0104070Y0186469D03*
X0104030Y0186429D03*
X0104030Y0186390D03*
X0103597Y0181311D03*
X0099070Y0181311D03*
X0244085Y0185524D03*
X0244755Y0188083D03*
X0249912Y0188083D03*
X0250581Y0185524D03*
D161*
X0250581Y0185445D03*
X0249912Y0188043D03*
X0244755Y0188043D03*
X0244085Y0185445D03*
X0104148Y0186626D03*
X0104109Y0186547D03*
X0098597Y0186508D03*
X0098518Y0186626D03*
X0099699Y0190169D03*
X0099739Y0190209D03*
X0098518Y0191232D03*
X0098479Y0191193D03*
X0098597Y0191350D03*
X0102928Y0190209D03*
X0104148Y0191232D03*
X0104188Y0191193D03*
X0104070Y0191350D03*
D162*
X0102770Y0190386D03*
X0099896Y0190386D03*
X0100487Y0186882D03*
X0100408Y0186646D03*
X0100369Y0186449D03*
X0100329Y0186331D03*
X0100290Y0186213D03*
X0100251Y0186094D03*
X0099818Y0184402D03*
X0099699Y0183969D03*
X0099581Y0183496D03*
X0099266Y0182276D03*
X0099148Y0181921D03*
X0099148Y0181843D03*
X0099109Y0181724D03*
X0099070Y0181606D03*
X0103400Y0182276D03*
X0103518Y0181921D03*
X0103518Y0181843D03*
X0103558Y0181724D03*
X0103597Y0181606D03*
X0103085Y0183496D03*
X0102967Y0183969D03*
X0102849Y0184402D03*
X0102416Y0186094D03*
X0102377Y0186213D03*
X0102337Y0186331D03*
X0102298Y0186449D03*
X0102259Y0186646D03*
X0102180Y0186882D03*
X0244085Y0185425D03*
X0244755Y0188024D03*
X0249912Y0188024D03*
X0250581Y0185425D03*
D163*
X0250581Y0185406D03*
X0249912Y0188004D03*
X0244755Y0188004D03*
X0244755Y0187965D03*
X0244085Y0185406D03*
X0103715Y0191705D03*
X0103636Y0191744D03*
X0102652Y0190484D03*
X0100014Y0190484D03*
X0099030Y0191744D03*
X0098951Y0191705D03*
D164*
X0099109Y0191823D03*
X0099188Y0191862D03*
X0100133Y0190563D03*
X0102534Y0190563D03*
X0103479Y0191862D03*
X0103558Y0191823D03*
X0244085Y0185327D03*
X0244755Y0187925D03*
X0249912Y0187925D03*
X0250581Y0185327D03*
D165*
X0247333Y0184638D03*
X0244774Y0187906D03*
X0249892Y0187906D03*
X0146333Y0192118D03*
X0101333Y0189244D03*
D166*
X0099385Y0191980D03*
X0103282Y0191980D03*
X0244085Y0185287D03*
X0244085Y0185248D03*
X0244794Y0187886D03*
X0249873Y0187886D03*
X0250581Y0185287D03*
X0250581Y0185248D03*
D167*
X0250581Y0185209D03*
X0250581Y0185169D03*
X0249873Y0187807D03*
X0244794Y0187807D03*
X0244085Y0185209D03*
X0244085Y0185169D03*
X0103243Y0192020D03*
X0103164Y0192059D03*
X0099503Y0192059D03*
X0099424Y0192020D03*
D168*
X0244085Y0184874D03*
X0244085Y0184756D03*
X0244085Y0184638D03*
X0244125Y0184520D03*
X0244125Y0184402D03*
X0244164Y0184283D03*
X0244203Y0184205D03*
X0244794Y0187787D03*
X0249873Y0187787D03*
X0250581Y0184874D03*
X0250581Y0184756D03*
X0250581Y0184638D03*
X0250542Y0184520D03*
X0250542Y0184402D03*
X0250503Y0184283D03*
X0250463Y0184205D03*
D169*
X0250444Y0184106D03*
X0250444Y0184067D03*
X0250404Y0183949D03*
X0250404Y0183909D03*
X0250325Y0183752D03*
X0249853Y0187728D03*
X0249853Y0187768D03*
X0244814Y0187768D03*
X0244814Y0187728D03*
X0244223Y0184106D03*
X0244223Y0184067D03*
X0244262Y0183949D03*
X0244262Y0183909D03*
X0244341Y0183752D03*
X0146333Y0191902D03*
X0146333Y0191941D03*
X0146333Y0191980D03*
X0103066Y0192098D03*
X0099601Y0192098D03*
D170*
X0099660Y0192138D03*
X0103007Y0192138D03*
X0244243Y0184028D03*
X0244243Y0183988D03*
X0244282Y0183870D03*
X0244322Y0183831D03*
X0244322Y0183791D03*
X0244361Y0183713D03*
X0244361Y0183673D03*
X0244440Y0183516D03*
X0250227Y0183516D03*
X0250306Y0183673D03*
X0250306Y0183713D03*
X0250345Y0183791D03*
X0250345Y0183831D03*
X0250385Y0183870D03*
X0250424Y0183988D03*
X0250424Y0184028D03*
X0249833Y0187689D03*
X0244833Y0187689D03*
D171*
X0244853Y0187669D03*
X0249814Y0187669D03*
X0250247Y0183614D03*
X0250207Y0183496D03*
X0244459Y0183496D03*
X0244420Y0183614D03*
X0146333Y0191882D03*
D172*
X0244479Y0183476D03*
X0244518Y0183437D03*
X0244518Y0183398D03*
X0250148Y0183398D03*
X0250148Y0183437D03*
X0250188Y0183476D03*
X0249794Y0187610D03*
X0249794Y0187650D03*
X0244873Y0187650D03*
X0244873Y0187610D03*
D173*
X0244892Y0187571D03*
X0247333Y0184854D03*
X0247333Y0184815D03*
X0244617Y0183280D03*
X0244617Y0183240D03*
X0244656Y0183201D03*
X0244577Y0183319D03*
X0244538Y0183358D03*
X0247333Y0181154D03*
X0250010Y0183201D03*
X0250050Y0183240D03*
X0250050Y0183280D03*
X0250089Y0183319D03*
X0250129Y0183358D03*
X0249774Y0187571D03*
X0146333Y0191665D03*
X0146333Y0191705D03*
X0146333Y0191744D03*
X0146333Y0191783D03*
X0101333Y0191193D03*
X0101333Y0192846D03*
X0101333Y0188122D03*
D174*
X0244597Y0183299D03*
X0244676Y0183181D03*
X0249991Y0183181D03*
X0250070Y0183299D03*
X0249755Y0187551D03*
X0244912Y0187551D03*
D175*
X0244932Y0187531D03*
X0244932Y0187492D03*
X0249735Y0187492D03*
X0249735Y0187531D03*
X0249971Y0183161D03*
X0249971Y0183122D03*
X0249932Y0183083D03*
X0249853Y0183004D03*
X0244814Y0183004D03*
X0244735Y0183083D03*
X0244696Y0183122D03*
X0244696Y0183161D03*
X0146333Y0186272D03*
X0146333Y0186311D03*
X0146333Y0186350D03*
X0146333Y0186390D03*
X0146333Y0186429D03*
X0146333Y0186469D03*
X0146333Y0186508D03*
X0146333Y0186547D03*
X0146333Y0186587D03*
X0146333Y0186626D03*
X0146333Y0186665D03*
X0146333Y0186705D03*
X0146333Y0186744D03*
X0146333Y0186783D03*
X0146333Y0186823D03*
X0146333Y0186862D03*
X0146333Y0186902D03*
X0146333Y0186941D03*
X0146333Y0186980D03*
X0146333Y0187020D03*
X0146333Y0187059D03*
X0146333Y0187098D03*
X0146333Y0187138D03*
X0146333Y0187177D03*
X0146333Y0187217D03*
X0146333Y0187256D03*
X0146333Y0187295D03*
X0146333Y0187335D03*
X0146333Y0187374D03*
X0146333Y0187413D03*
X0146333Y0187453D03*
X0146333Y0187492D03*
X0146333Y0187531D03*
X0146333Y0187571D03*
X0146333Y0187610D03*
X0146333Y0187650D03*
X0146333Y0187689D03*
X0146333Y0187728D03*
X0146333Y0187768D03*
X0146333Y0187807D03*
X0146333Y0187846D03*
X0146333Y0187886D03*
X0146333Y0187925D03*
X0146333Y0187965D03*
X0146333Y0188004D03*
X0146333Y0188043D03*
X0146333Y0188083D03*
X0146333Y0188122D03*
X0146333Y0188161D03*
X0146333Y0188201D03*
X0146333Y0188240D03*
X0146333Y0188280D03*
X0146333Y0188319D03*
X0146333Y0188358D03*
X0146333Y0188398D03*
X0146333Y0188437D03*
X0146333Y0188476D03*
X0146333Y0188516D03*
X0146333Y0188555D03*
X0146333Y0188594D03*
X0146333Y0188634D03*
X0146333Y0188673D03*
X0146333Y0188713D03*
X0146333Y0188752D03*
X0146333Y0188791D03*
X0146333Y0188831D03*
X0146333Y0188870D03*
X0146333Y0188909D03*
X0146333Y0188949D03*
X0146333Y0188988D03*
X0146333Y0189028D03*
X0146333Y0189067D03*
X0146333Y0189106D03*
X0146333Y0189146D03*
X0146333Y0189185D03*
X0146333Y0189224D03*
X0146333Y0189264D03*
X0146333Y0189303D03*
X0146333Y0189343D03*
X0146333Y0189382D03*
X0146333Y0189421D03*
X0146333Y0189461D03*
X0146333Y0189500D03*
X0146333Y0189539D03*
X0146333Y0189579D03*
X0146333Y0189618D03*
X0146333Y0189657D03*
X0146333Y0189697D03*
X0146333Y0189736D03*
X0146333Y0189776D03*
X0146333Y0189815D03*
X0146333Y0189854D03*
X0146333Y0189894D03*
X0146333Y0189933D03*
X0146333Y0189972D03*
X0146333Y0190012D03*
X0146333Y0190051D03*
X0146333Y0190091D03*
X0146333Y0190130D03*
X0146333Y0190169D03*
X0146333Y0190209D03*
X0146333Y0190248D03*
X0146333Y0190287D03*
X0146333Y0190327D03*
X0146333Y0190366D03*
X0146333Y0190406D03*
X0146333Y0190445D03*
X0146333Y0190484D03*
X0146333Y0190524D03*
X0146333Y0190563D03*
X0146333Y0190602D03*
X0146333Y0190642D03*
X0146333Y0190681D03*
X0146333Y0190720D03*
X0146333Y0190760D03*
X0146333Y0190799D03*
X0146333Y0190839D03*
X0146333Y0190878D03*
X0146333Y0190917D03*
X0146333Y0190957D03*
X0146333Y0190996D03*
X0146333Y0191035D03*
X0146333Y0191075D03*
X0146333Y0191114D03*
X0146333Y0191154D03*
X0146333Y0191193D03*
X0146333Y0191232D03*
X0146333Y0191272D03*
X0146333Y0191311D03*
X0146333Y0191350D03*
X0146333Y0191390D03*
X0146333Y0191429D03*
X0146333Y0191469D03*
X0146333Y0191508D03*
X0146333Y0191547D03*
X0146333Y0191587D03*
X0146333Y0191626D03*
X0102751Y0192217D03*
X0099916Y0192217D03*
D176*
X0101333Y0183181D03*
X0101333Y0183063D03*
X0247333Y0186449D03*
D177*
X0247333Y0186429D03*
X0247333Y0181862D03*
X0101333Y0183043D03*
X0101333Y0183083D03*
X0101333Y0183122D03*
X0101333Y0183161D03*
X0101333Y0183201D03*
X0101333Y0183240D03*
D178*
X0101333Y0183280D03*
X0101333Y0183319D03*
X0247333Y0186390D03*
D179*
X0247333Y0186311D03*
X0247333Y0181783D03*
D180*
X0247333Y0181744D03*
X0247333Y0186272D03*
D181*
X0247333Y0186213D03*
X0247333Y0181724D03*
D182*
X0247333Y0181705D03*
X0247333Y0186193D03*
X0101333Y0192295D03*
D183*
X0101333Y0192335D03*
X0247333Y0186154D03*
D184*
X0247353Y0186114D03*
D185*
X0247333Y0186094D03*
X0101333Y0192394D03*
D186*
X0247333Y0186035D03*
D187*
X0247353Y0185996D03*
D188*
X0247333Y0185976D03*
X0101333Y0184992D03*
X0101333Y0184874D03*
D189*
X0101333Y0184854D03*
X0101333Y0184815D03*
X0101333Y0184894D03*
X0101333Y0184933D03*
X0101333Y0184972D03*
X0101333Y0192453D03*
X0247333Y0185957D03*
X0247333Y0181587D03*
D190*
X0247353Y0185858D03*
D191*
X0247333Y0185839D03*
X0247333Y0181508D03*
X0101333Y0185209D03*
X0101333Y0185248D03*
X0101333Y0185287D03*
X0101333Y0185327D03*
X0101333Y0185366D03*
X0101333Y0185406D03*
D192*
X0101333Y0185543D03*
X0247333Y0185780D03*
D193*
X0247333Y0185720D03*
X0247333Y0181469D03*
X0101333Y0185681D03*
X0101333Y0185720D03*
X0101333Y0185760D03*
X0101333Y0185799D03*
X0101333Y0185839D03*
X0101333Y0192571D03*
D194*
X0099581Y0187650D03*
X0098755Y0186154D03*
X0103991Y0186232D03*
X0244085Y0185563D03*
X0250581Y0185563D03*
D195*
X0247333Y0185543D03*
D196*
X0244085Y0185307D03*
X0250581Y0185307D03*
X0103518Y0191843D03*
X0099148Y0191843D03*
D197*
X0101333Y0190996D03*
X0101333Y0192728D03*
X0101333Y0187492D03*
X0101333Y0187453D03*
X0101333Y0187413D03*
X0101333Y0187374D03*
X0101333Y0187335D03*
X0245601Y0182413D03*
X0247333Y0181272D03*
X0249066Y0182413D03*
X0247333Y0185248D03*
X0247333Y0185287D03*
D198*
X0244085Y0185189D03*
X0250581Y0185189D03*
D199*
X0249243Y0182512D03*
X0247353Y0185189D03*
X0245424Y0182512D03*
D200*
X0244203Y0184146D03*
X0244203Y0184185D03*
X0244164Y0184264D03*
X0244164Y0184303D03*
X0244164Y0184343D03*
X0244164Y0184382D03*
X0244125Y0184421D03*
X0244125Y0184461D03*
X0244125Y0184500D03*
X0244125Y0184539D03*
X0244085Y0184657D03*
X0244085Y0184697D03*
X0244085Y0184736D03*
X0244085Y0184776D03*
X0244085Y0184815D03*
X0244085Y0184854D03*
X0244085Y0184894D03*
X0250463Y0184185D03*
X0250463Y0184146D03*
X0250503Y0184264D03*
X0250503Y0184303D03*
X0250503Y0184343D03*
X0250503Y0184382D03*
X0250542Y0184421D03*
X0250542Y0184461D03*
X0250542Y0184500D03*
X0250542Y0184539D03*
X0250581Y0184657D03*
X0250581Y0184697D03*
X0250581Y0184736D03*
X0250581Y0184776D03*
X0250581Y0184815D03*
X0250581Y0184854D03*
X0250581Y0184894D03*
D201*
X0247333Y0184874D03*
X0146333Y0186252D03*
X0146333Y0186370D03*
X0146333Y0186488D03*
X0146333Y0186606D03*
X0146333Y0186724D03*
X0146333Y0186843D03*
X0146333Y0186961D03*
X0146333Y0187039D03*
X0146333Y0187157D03*
X0146333Y0187276D03*
X0146333Y0187394D03*
X0146333Y0187512D03*
X0146333Y0187630D03*
X0146333Y0187748D03*
X0146333Y0187827D03*
X0146333Y0187945D03*
X0146333Y0188063D03*
X0146333Y0188181D03*
X0146333Y0188299D03*
X0146333Y0188417D03*
X0146333Y0188535D03*
X0146333Y0188614D03*
X0146333Y0188732D03*
X0146333Y0188850D03*
X0146333Y0188969D03*
X0146333Y0189087D03*
X0146333Y0189205D03*
X0146333Y0189323D03*
X0146333Y0189402D03*
X0146333Y0189520D03*
X0146333Y0189638D03*
X0146333Y0189756D03*
X0146333Y0189874D03*
X0146333Y0189992D03*
X0146333Y0190110D03*
X0146333Y0190189D03*
X0146333Y0190307D03*
X0146333Y0190425D03*
X0146333Y0190543D03*
X0146333Y0190661D03*
X0146333Y0190780D03*
X0146333Y0190898D03*
X0146333Y0190976D03*
X0146333Y0191094D03*
X0146333Y0191213D03*
X0146333Y0191331D03*
X0146333Y0191449D03*
X0146333Y0191567D03*
D202*
X0244223Y0184087D03*
X0244262Y0183969D03*
X0244302Y0183850D03*
X0244341Y0183732D03*
X0247333Y0184756D03*
X0250325Y0183732D03*
X0250365Y0183850D03*
X0250404Y0183969D03*
X0250444Y0184087D03*
D203*
X0247333Y0184520D03*
X0103932Y0191488D03*
X0101333Y0189362D03*
X0098735Y0191488D03*
X0099050Y0181488D03*
X0103617Y0181488D03*
D204*
X0103617Y0181232D03*
X0099050Y0181232D03*
X0098735Y0186232D03*
X0097829Y0187886D03*
X0097751Y0188161D03*
X0097751Y0188201D03*
X0097751Y0188240D03*
X0097751Y0188280D03*
X0097711Y0188358D03*
X0097711Y0188398D03*
X0097711Y0188437D03*
X0097711Y0188476D03*
X0097711Y0188516D03*
X0097711Y0188555D03*
X0097711Y0189303D03*
X0097711Y0189343D03*
X0097711Y0189382D03*
X0097711Y0189421D03*
X0097711Y0189461D03*
X0097711Y0189500D03*
X0097751Y0189618D03*
X0097751Y0189657D03*
X0097751Y0189697D03*
X0097829Y0189972D03*
X0097829Y0190012D03*
X0097869Y0190051D03*
X0099325Y0189461D03*
X0099325Y0189421D03*
X0099325Y0189382D03*
X0099286Y0189303D03*
X0099286Y0189264D03*
X0099286Y0189224D03*
X0099286Y0189185D03*
X0099286Y0189146D03*
X0099286Y0189106D03*
X0099286Y0189067D03*
X0099286Y0188831D03*
X0099286Y0188791D03*
X0099286Y0188752D03*
X0099286Y0188713D03*
X0099286Y0188673D03*
X0099286Y0188634D03*
X0099286Y0188594D03*
X0099286Y0188555D03*
X0099325Y0188476D03*
X0099325Y0188437D03*
X0103066Y0187689D03*
X0103341Y0188437D03*
X0103341Y0188476D03*
X0103341Y0188516D03*
X0103381Y0188555D03*
X0103381Y0188594D03*
X0103381Y0188634D03*
X0103381Y0188673D03*
X0103381Y0188713D03*
X0103381Y0188752D03*
X0103381Y0188791D03*
X0103381Y0188831D03*
X0103381Y0189028D03*
X0103381Y0189067D03*
X0103381Y0189106D03*
X0103381Y0189146D03*
X0103381Y0189185D03*
X0103381Y0189224D03*
X0103381Y0189264D03*
X0103381Y0189303D03*
X0103341Y0189382D03*
X0103341Y0189421D03*
X0103341Y0189461D03*
X0104798Y0190051D03*
X0104837Y0190012D03*
X0104837Y0189972D03*
X0104916Y0189697D03*
X0104916Y0189657D03*
X0104916Y0189618D03*
X0104916Y0189579D03*
X0104955Y0189500D03*
X0104955Y0189461D03*
X0104955Y0189421D03*
X0104955Y0189382D03*
X0104955Y0189343D03*
X0104955Y0189303D03*
X0104955Y0188555D03*
X0104955Y0188516D03*
X0104955Y0188476D03*
X0104955Y0188437D03*
X0104955Y0188398D03*
X0104955Y0188358D03*
X0104916Y0188280D03*
X0104916Y0188240D03*
X0104916Y0188201D03*
X0104916Y0188161D03*
X0104837Y0187886D03*
X0104010Y0186311D03*
X0146333Y0192295D03*
X0247333Y0184421D03*
D205*
X0247333Y0184402D03*
X0101333Y0189480D03*
X0099601Y0187669D03*
D206*
X0098774Y0185996D03*
X0247333Y0184343D03*
D207*
X0244518Y0183417D03*
X0250148Y0183417D03*
X0102928Y0192157D03*
X0099739Y0192157D03*
D208*
X0247333Y0182374D03*
D209*
X0247333Y0182335D03*
D210*
X0247333Y0182276D03*
X0146333Y0181646D03*
D211*
X0247333Y0182217D03*
D212*
X0247333Y0182177D03*
D213*
X0247333Y0182157D03*
D214*
X0247333Y0182059D03*
D215*
X0247333Y0182039D03*
X0101333Y0182394D03*
D216*
X0101333Y0182610D03*
X0101333Y0182650D03*
X0101333Y0182689D03*
X0247333Y0181980D03*
D217*
X0247333Y0181921D03*
X0101333Y0182709D03*
X0101333Y0182827D03*
D218*
X0101333Y0183299D03*
X0247333Y0181843D03*
D219*
X0247333Y0181606D03*
D220*
X0146333Y0192354D03*
D221*
X0146333Y0192335D03*
X0098774Y0186075D03*
D222*
X0146333Y0191685D03*
X0146333Y0191764D03*
D223*
X0146333Y0186232D03*
X0146333Y0184736D03*
D224*
X0146333Y0184776D03*
X0146333Y0186193D03*
D225*
X0146333Y0186173D03*
X0146333Y0184795D03*
D226*
X0146333Y0184815D03*
X0146333Y0186154D03*
D227*
X0146333Y0186114D03*
X0146333Y0184854D03*
D228*
X0146333Y0186075D03*
D229*
X0146333Y0186055D03*
X0146333Y0184913D03*
D230*
X0146333Y0184933D03*
X0146333Y0186035D03*
D231*
X0146333Y0185996D03*
X0146333Y0185957D03*
X0146333Y0184972D03*
D232*
X0146333Y0185031D03*
X0146333Y0185937D03*
D233*
X0146333Y0185917D03*
X0146333Y0185051D03*
X0146333Y0185012D03*
D234*
X0146333Y0185091D03*
X0146333Y0185130D03*
X0146333Y0185839D03*
X0146333Y0185878D03*
D235*
X0146333Y0185819D03*
X0146333Y0185150D03*
D236*
X0146333Y0185169D03*
X0146333Y0185799D03*
D237*
X0146333Y0185760D03*
X0146333Y0185720D03*
X0146333Y0185681D03*
X0146333Y0185642D03*
X0146333Y0185327D03*
X0146333Y0185287D03*
X0146333Y0185248D03*
X0146333Y0185209D03*
D238*
X0146333Y0185268D03*
X0146333Y0185701D03*
D239*
X0146333Y0185602D03*
X0146333Y0185563D03*
X0146333Y0185524D03*
X0146333Y0185484D03*
X0146333Y0185445D03*
X0146333Y0185406D03*
X0146333Y0185366D03*
D240*
X0146333Y0185386D03*
X0146333Y0185465D03*
X0146333Y0185583D03*
D241*
X0146333Y0184894D03*
D242*
X0146333Y0183102D03*
D243*
X0146333Y0183024D03*
X0146333Y0181764D03*
D244*
X0146333Y0181823D03*
X0146333Y0182965D03*
D245*
X0146333Y0182906D03*
X0146333Y0181882D03*
D246*
X0146333Y0182000D03*
X0146333Y0182787D03*
D247*
X0146333Y0182768D03*
X0146333Y0182020D03*
D248*
X0146333Y0182217D03*
X0146333Y0182256D03*
X0146333Y0182295D03*
X0146333Y0182335D03*
X0146333Y0182374D03*
X0146333Y0182413D03*
X0146333Y0182453D03*
X0146333Y0182492D03*
X0146333Y0182531D03*
X0146333Y0182571D03*
X0146333Y0182610D03*
D249*
X0146333Y0182551D03*
X0146333Y0182433D03*
X0146333Y0182315D03*
X0146333Y0182236D03*
D250*
X0101333Y0185307D03*
X0101333Y0192512D03*
D251*
X0101333Y0192492D03*
X0101333Y0185169D03*
X0101333Y0185130D03*
X0101333Y0185091D03*
D252*
X0101333Y0192413D03*
D253*
X0101333Y0192276D03*
D254*
X0099818Y0192177D03*
X0102849Y0192177D03*
D255*
X0103322Y0191961D03*
X0102495Y0190583D03*
X0100172Y0190583D03*
X0099345Y0191961D03*
D256*
X0098991Y0191724D03*
X0100054Y0190504D03*
X0102613Y0190504D03*
X0103676Y0191724D03*
D257*
X0103814Y0191606D03*
X0098853Y0191606D03*
X0100585Y0187236D03*
X0100546Y0187118D03*
X0100507Y0187000D03*
X0100467Y0186764D03*
X0100388Y0186567D03*
X0100231Y0185976D03*
X0100192Y0185858D03*
X0099916Y0184756D03*
X0099877Y0184638D03*
X0099837Y0184520D03*
X0099798Y0184283D03*
X0099759Y0184205D03*
X0099719Y0184087D03*
X0099680Y0183850D03*
X0099640Y0183732D03*
X0099601Y0183614D03*
X0099562Y0183417D03*
X0099207Y0182157D03*
X0099168Y0182039D03*
X0103105Y0183417D03*
X0103066Y0183614D03*
X0103026Y0183732D03*
X0102987Y0183850D03*
X0102948Y0184087D03*
X0102908Y0184205D03*
X0102869Y0184283D03*
X0102829Y0184520D03*
X0102790Y0184638D03*
X0102751Y0184756D03*
X0102475Y0185858D03*
X0102436Y0185976D03*
X0102278Y0186567D03*
X0102199Y0186764D03*
X0102160Y0187000D03*
X0102121Y0187118D03*
X0102081Y0187236D03*
X0103459Y0182157D03*
X0103499Y0182039D03*
D258*
X0103479Y0182059D03*
X0103518Y0181941D03*
X0103518Y0181902D03*
X0103518Y0181862D03*
X0103597Y0181626D03*
X0103597Y0181587D03*
X0103597Y0181547D03*
X0103400Y0182295D03*
X0103125Y0183398D03*
X0103085Y0183516D03*
X0103085Y0183555D03*
X0103085Y0183594D03*
X0103046Y0183713D03*
X0103007Y0183791D03*
X0103007Y0183831D03*
X0102967Y0183909D03*
X0102967Y0183949D03*
X0102967Y0183988D03*
X0102967Y0184028D03*
X0102928Y0184106D03*
X0102928Y0184146D03*
X0102888Y0184224D03*
X0102849Y0184343D03*
X0102849Y0184382D03*
X0102849Y0184421D03*
X0102849Y0184461D03*
X0102810Y0184579D03*
X0102770Y0184697D03*
X0102455Y0185878D03*
X0102416Y0185996D03*
X0102416Y0186035D03*
X0102416Y0186075D03*
X0102337Y0186311D03*
X0102298Y0186429D03*
X0102298Y0186469D03*
X0102298Y0186508D03*
X0102298Y0186547D03*
X0102219Y0186744D03*
X0102180Y0186862D03*
X0102180Y0186902D03*
X0102180Y0186941D03*
X0102180Y0186980D03*
X0102140Y0187098D03*
X0102101Y0187217D03*
X0100566Y0187217D03*
X0100526Y0187098D03*
X0100487Y0186980D03*
X0100487Y0186941D03*
X0100487Y0186902D03*
X0100487Y0186862D03*
X0100448Y0186744D03*
X0100369Y0186547D03*
X0100369Y0186508D03*
X0100369Y0186469D03*
X0100369Y0186429D03*
X0100329Y0186311D03*
X0100251Y0186075D03*
X0100251Y0186035D03*
X0100251Y0185996D03*
X0100211Y0185878D03*
X0099896Y0184697D03*
X0099857Y0184579D03*
X0099818Y0184461D03*
X0099818Y0184421D03*
X0099818Y0184382D03*
X0099818Y0184343D03*
X0099778Y0184224D03*
X0099739Y0184146D03*
X0099739Y0184106D03*
X0099699Y0184028D03*
X0099699Y0183988D03*
X0099699Y0183949D03*
X0099699Y0183909D03*
X0099660Y0183831D03*
X0099660Y0183791D03*
X0099621Y0183713D03*
X0099581Y0183594D03*
X0099581Y0183555D03*
X0099581Y0183516D03*
X0099542Y0183398D03*
X0099266Y0182295D03*
X0099227Y0182177D03*
X0099188Y0182059D03*
X0099148Y0181941D03*
X0099148Y0181902D03*
X0099148Y0181862D03*
X0099070Y0181626D03*
X0099070Y0181587D03*
X0099070Y0181547D03*
X0099857Y0190366D03*
X0099936Y0190406D03*
X0098794Y0191547D03*
X0098833Y0191587D03*
X0098676Y0191429D03*
X0102731Y0190406D03*
X0103873Y0191547D03*
X0103833Y0191587D03*
X0103991Y0191429D03*
D259*
X0104030Y0191370D03*
X0104109Y0191291D03*
X0102888Y0190268D03*
X0099778Y0190268D03*
X0098636Y0191370D03*
X0098558Y0191291D03*
X0098479Y0186646D03*
X0098558Y0186567D03*
X0098636Y0186449D03*
X0104188Y0186646D03*
X0103597Y0181370D03*
X0099070Y0181370D03*
D260*
X0098715Y0186331D03*
X0098400Y0186764D03*
X0098164Y0187118D03*
X0099542Y0187906D03*
X0098203Y0190819D03*
X0098282Y0190937D03*
X0098361Y0191055D03*
X0103125Y0187906D03*
X0104503Y0187118D03*
X0104266Y0186764D03*
X0104463Y0190819D03*
X0104385Y0190937D03*
X0104306Y0191055D03*
D261*
X0104522Y0190701D03*
X0104601Y0190583D03*
X0104640Y0190504D03*
X0103144Y0189913D03*
X0103066Y0190031D03*
X0099601Y0190031D03*
X0099522Y0189913D03*
X0098144Y0190701D03*
X0098066Y0190583D03*
X0098026Y0190504D03*
X0097987Y0190386D03*
X0097948Y0187551D03*
X0098026Y0187354D03*
X0098105Y0187236D03*
X0098223Y0187000D03*
X0104444Y0187000D03*
X0104562Y0187236D03*
X0104640Y0187354D03*
X0104719Y0187551D03*
D262*
X0104699Y0187531D03*
X0104739Y0187571D03*
X0104739Y0187610D03*
X0104778Y0187650D03*
X0104778Y0187689D03*
X0104778Y0187728D03*
X0104778Y0187768D03*
X0104818Y0187807D03*
X0104818Y0187846D03*
X0104857Y0187925D03*
X0104857Y0187965D03*
X0104857Y0188004D03*
X0104896Y0188043D03*
X0104896Y0188083D03*
X0104896Y0188122D03*
X0104975Y0188594D03*
X0104975Y0188634D03*
X0104975Y0188673D03*
X0104975Y0188713D03*
X0104975Y0188752D03*
X0104975Y0188791D03*
X0104975Y0188831D03*
X0104975Y0188870D03*
X0104975Y0188909D03*
X0104975Y0188949D03*
X0104975Y0188988D03*
X0104975Y0189028D03*
X0104975Y0189067D03*
X0104975Y0189106D03*
X0104975Y0189146D03*
X0104975Y0189185D03*
X0104975Y0189224D03*
X0104975Y0189264D03*
X0104896Y0189736D03*
X0104896Y0189776D03*
X0104857Y0189854D03*
X0104857Y0189894D03*
X0104857Y0189933D03*
X0104778Y0190091D03*
X0104778Y0190130D03*
X0104778Y0190169D03*
X0104778Y0190209D03*
X0104739Y0190248D03*
X0104699Y0190327D03*
X0104699Y0190366D03*
X0104660Y0190406D03*
X0104660Y0190445D03*
X0104660Y0190484D03*
X0104542Y0190681D03*
X0103203Y0189815D03*
X0103243Y0189736D03*
X0103282Y0189697D03*
X0103282Y0189657D03*
X0103282Y0189618D03*
X0103322Y0189539D03*
X0103322Y0189500D03*
X0103400Y0188988D03*
X0103400Y0188949D03*
X0103400Y0188909D03*
X0103400Y0188870D03*
X0103322Y0188398D03*
X0103322Y0188358D03*
X0103282Y0188240D03*
X0103282Y0188201D03*
X0103243Y0188161D03*
X0103203Y0188083D03*
X0103203Y0188043D03*
X0103085Y0187807D03*
X0103085Y0187768D03*
X0103085Y0187728D03*
X0104542Y0187177D03*
X0104621Y0187335D03*
X0104660Y0187374D03*
X0104660Y0187413D03*
X0104660Y0187453D03*
X0099581Y0187728D03*
X0099581Y0187768D03*
X0099581Y0187807D03*
X0099463Y0188043D03*
X0099463Y0188083D03*
X0099424Y0188161D03*
X0099385Y0188201D03*
X0099385Y0188240D03*
X0099345Y0188358D03*
X0099345Y0188398D03*
X0099266Y0188870D03*
X0099266Y0188909D03*
X0099266Y0188949D03*
X0099266Y0188988D03*
X0099266Y0189028D03*
X0099345Y0189500D03*
X0099345Y0189539D03*
X0099385Y0189618D03*
X0099385Y0189657D03*
X0099385Y0189697D03*
X0099424Y0189736D03*
X0099463Y0189815D03*
X0098007Y0190406D03*
X0098007Y0190445D03*
X0098007Y0190484D03*
X0097967Y0190366D03*
X0097967Y0190327D03*
X0097928Y0190287D03*
X0097928Y0190248D03*
X0097888Y0190209D03*
X0097888Y0190169D03*
X0097888Y0190130D03*
X0097888Y0190091D03*
X0097810Y0189933D03*
X0097810Y0189894D03*
X0097810Y0189854D03*
X0097770Y0189776D03*
X0097770Y0189736D03*
X0097692Y0189264D03*
X0097692Y0189224D03*
X0097692Y0189185D03*
X0097692Y0189146D03*
X0097692Y0189106D03*
X0097692Y0189067D03*
X0097692Y0189028D03*
X0097692Y0188988D03*
X0097692Y0188949D03*
X0097692Y0188909D03*
X0097692Y0188870D03*
X0097692Y0188831D03*
X0097692Y0188791D03*
X0097692Y0188752D03*
X0097692Y0188713D03*
X0097692Y0188673D03*
X0097692Y0188634D03*
X0097692Y0188594D03*
X0097770Y0188122D03*
X0097770Y0188083D03*
X0097770Y0188043D03*
X0097810Y0188004D03*
X0097810Y0187965D03*
X0097810Y0187925D03*
X0097849Y0187846D03*
X0097849Y0187807D03*
X0097888Y0187768D03*
X0097888Y0187728D03*
X0097888Y0187689D03*
X0097888Y0187650D03*
X0097928Y0187610D03*
X0097928Y0187571D03*
X0097967Y0187531D03*
X0097967Y0187492D03*
X0098007Y0187453D03*
X0098007Y0187413D03*
X0098007Y0187374D03*
X0098046Y0187335D03*
X0098125Y0187177D03*
X0098125Y0190681D03*
D263*
X0097928Y0190268D03*
X0097888Y0190150D03*
X0097849Y0190031D03*
X0097810Y0189913D03*
X0097770Y0189795D03*
X0097770Y0189717D03*
X0097692Y0189244D03*
X0097692Y0189126D03*
X0097692Y0189008D03*
X0097692Y0188811D03*
X0097692Y0188693D03*
X0097770Y0188142D03*
X0097810Y0188024D03*
X0097888Y0187669D03*
X0098007Y0187433D03*
X0099463Y0188024D03*
X0099424Y0188142D03*
X0099385Y0188220D03*
X0099345Y0188339D03*
X0099266Y0188929D03*
X0099266Y0189008D03*
X0099345Y0189480D03*
X0099385Y0189598D03*
X0099424Y0189717D03*
X0099463Y0189795D03*
X0099581Y0187787D03*
X0103085Y0187787D03*
X0103203Y0188024D03*
X0103243Y0188142D03*
X0103282Y0188220D03*
X0103322Y0188339D03*
X0103400Y0188929D03*
X0103400Y0189008D03*
X0103322Y0189480D03*
X0103282Y0189598D03*
X0103243Y0189717D03*
X0103203Y0189795D03*
X0104660Y0190386D03*
X0104739Y0190268D03*
X0104778Y0190150D03*
X0104818Y0190031D03*
X0104857Y0189913D03*
X0104896Y0189795D03*
X0104896Y0189717D03*
X0104975Y0189244D03*
X0104975Y0189126D03*
X0104975Y0189008D03*
X0104975Y0188811D03*
X0104975Y0188693D03*
X0104896Y0188142D03*
X0104857Y0188024D03*
X0104778Y0187669D03*
X0104660Y0187433D03*
X0103636Y0181252D03*
X0099030Y0181252D03*
D264*
X0104010Y0186331D03*
X0104798Y0187787D03*
X0104837Y0187906D03*
X0104916Y0188220D03*
X0104955Y0188339D03*
X0104955Y0188457D03*
X0104955Y0188575D03*
X0104995Y0188929D03*
X0104955Y0189362D03*
X0104955Y0189480D03*
X0104916Y0189598D03*
X0103381Y0189244D03*
X0103381Y0189126D03*
X0103341Y0189362D03*
X0103381Y0188811D03*
X0103381Y0188693D03*
X0103381Y0188575D03*
X0103341Y0188457D03*
X0099325Y0188457D03*
X0099286Y0188575D03*
X0099286Y0188693D03*
X0099286Y0188811D03*
X0099286Y0189126D03*
X0099286Y0189244D03*
X0099325Y0189362D03*
X0097751Y0189598D03*
X0097711Y0189480D03*
X0097711Y0189362D03*
X0097672Y0188929D03*
X0097711Y0188575D03*
X0097711Y0188457D03*
X0097711Y0188339D03*
X0097751Y0188220D03*
X0097829Y0187906D03*
X0097869Y0187787D03*
D265*
X0097731Y0188319D03*
X0097731Y0189539D03*
X0097731Y0189579D03*
X0099306Y0189343D03*
X0099306Y0188516D03*
X0099581Y0187689D03*
X0098755Y0186193D03*
X0103991Y0186272D03*
X0104936Y0188319D03*
X0104936Y0189539D03*
X0103361Y0189343D03*
D266*
X0103066Y0187610D03*
X0103066Y0187571D03*
X0101333Y0189500D03*
X0099601Y0187610D03*
X0098774Y0186114D03*
X0099050Y0181154D03*
X0103617Y0181154D03*
D267*
X0103597Y0181134D03*
X0099070Y0181134D03*
X0099581Y0187551D03*
D268*
X0103066Y0187551D03*
D269*
X0099581Y0187492D03*
D270*
X0103991Y0186154D03*
D271*
X0098794Y0186094D03*
D272*
X0101333Y0185780D03*
X0101333Y0185661D03*
D273*
X0101333Y0185189D03*
D274*
X0101333Y0185071D03*
D275*
X0101333Y0182945D03*
D276*
X0101333Y0182630D03*
D277*
X0101333Y0182571D03*
X0101333Y0182531D03*
D278*
X0099050Y0181114D03*
X0103617Y0181114D03*
D279*
X0136483Y0127205D03*
X0136483Y0125787D03*
X0137900Y0125787D03*
X0137900Y0122953D03*
X0136483Y0122953D03*
X0132703Y0123110D03*
X0131916Y0125787D03*
X0140892Y0124843D03*
X0140892Y0123898D03*
X0143727Y0124055D03*
X0147034Y0122953D03*
X0147034Y0125787D03*
X0147034Y0127205D03*
X0159318Y0122953D03*
X0162310Y0122953D03*
X0165932Y0122953D03*
X0169396Y0122953D03*
X0175696Y0122953D03*
X0175696Y0125787D03*
X0178845Y0125787D03*
X0180105Y0125787D03*
X0181522Y0125787D03*
X0181522Y0122953D03*
X0180105Y0122953D03*
X0178845Y0122953D03*
X0183570Y0122953D03*
X0184829Y0123740D03*
X0189081Y0123898D03*
X0189239Y0124843D03*
X0193806Y0125787D03*
X0193806Y0127205D03*
X0193806Y0122953D03*
X0196325Y0122953D03*
X0199790Y0122795D03*
X0201995Y0122953D03*
X0201995Y0125787D03*
D280*
X0200499Y0123740D03*
X0197507Y0125787D03*
X0195144Y0125787D03*
X0191680Y0122795D03*
X0173570Y0122953D03*
X0167585Y0124055D03*
X0150420Y0122953D03*
X0137979Y0127205D03*
X0135144Y0125787D03*
X0133570Y0125787D03*
X0134357Y0122953D03*
X0132782Y0122953D03*
X0130892Y0122953D03*
D281*
X0131837Y0125630D03*
X0133570Y0125630D03*
X0135144Y0125630D03*
X0136562Y0126417D03*
X0137979Y0126417D03*
X0137979Y0126575D03*
X0137979Y0126732D03*
X0137979Y0126890D03*
X0137979Y0127047D03*
X0137979Y0125630D03*
X0137979Y0125472D03*
X0137979Y0125315D03*
X0137979Y0125157D03*
X0137979Y0125000D03*
X0137979Y0124843D03*
X0137979Y0124685D03*
X0137979Y0124528D03*
X0137979Y0124370D03*
X0137979Y0124213D03*
X0137979Y0124055D03*
X0137979Y0123898D03*
X0137979Y0123740D03*
X0137979Y0123583D03*
X0137979Y0123425D03*
X0137979Y0123268D03*
X0137979Y0123110D03*
X0134357Y0123110D03*
X0134357Y0123268D03*
X0129003Y0127047D03*
X0143806Y0125945D03*
X0145381Y0126102D03*
X0147113Y0126417D03*
X0148845Y0126732D03*
X0148845Y0126890D03*
X0150420Y0126890D03*
X0150420Y0126732D03*
X0150420Y0126575D03*
X0150420Y0126417D03*
X0150420Y0126260D03*
X0150420Y0126102D03*
X0150420Y0125945D03*
X0150420Y0125787D03*
X0150420Y0125630D03*
X0150420Y0125472D03*
X0150420Y0125315D03*
X0150420Y0125157D03*
X0150420Y0123898D03*
X0150420Y0123740D03*
X0150420Y0123583D03*
X0150420Y0123425D03*
X0150420Y0123268D03*
X0150420Y0123110D03*
X0152310Y0123110D03*
X0152310Y0122953D03*
X0152310Y0123268D03*
X0152310Y0123425D03*
X0154987Y0125157D03*
X0154987Y0125315D03*
X0154987Y0125472D03*
X0154987Y0125630D03*
X0155932Y0127047D03*
X0157034Y0125630D03*
X0159396Y0126890D03*
X0159396Y0123110D03*
X0162231Y0123110D03*
X0165853Y0123110D03*
X0165853Y0123268D03*
X0167585Y0124213D03*
X0169318Y0123110D03*
X0173570Y0123110D03*
X0173570Y0123268D03*
X0173570Y0123425D03*
X0173570Y0123583D03*
X0173570Y0123740D03*
X0173570Y0123898D03*
X0173570Y0124055D03*
X0173570Y0124213D03*
X0173570Y0124370D03*
X0173570Y0124528D03*
X0173570Y0124685D03*
X0173570Y0124843D03*
X0173570Y0125000D03*
X0173570Y0125157D03*
X0173570Y0125315D03*
X0173570Y0125472D03*
X0173570Y0125630D03*
X0173570Y0125787D03*
X0173570Y0125945D03*
X0173570Y0126102D03*
X0176877Y0125787D03*
X0182703Y0125787D03*
X0183491Y0124528D03*
X0183491Y0124370D03*
X0183491Y0124213D03*
X0183491Y0124055D03*
X0183491Y0123898D03*
X0183491Y0123740D03*
X0183491Y0123583D03*
X0183491Y0123425D03*
X0183491Y0123268D03*
X0183491Y0123110D03*
X0184908Y0125000D03*
X0186325Y0123740D03*
X0192467Y0124685D03*
X0192467Y0124843D03*
X0193727Y0126417D03*
X0195144Y0125630D03*
X0197507Y0125630D03*
X0201916Y0123268D03*
X0201916Y0123110D03*
X0203176Y0125787D03*
X0169318Y0126890D03*
X0165853Y0126890D03*
X0084699Y0113472D03*
X0084699Y0111583D03*
X0079148Y0112528D03*
X0077849Y0113472D03*
X0078794Y0114417D03*
D282*
X0127507Y0124370D03*
X0127507Y0124528D03*
X0127507Y0124685D03*
X0127507Y0124843D03*
X0127507Y0125000D03*
X0127507Y0125157D03*
X0127507Y0125315D03*
X0127507Y0125472D03*
X0130499Y0125472D03*
X0130499Y0125315D03*
X0130499Y0125157D03*
X0130499Y0125000D03*
X0130499Y0124843D03*
X0130499Y0124685D03*
X0130499Y0124528D03*
X0130499Y0124370D03*
X0130341Y0124213D03*
X0130814Y0123110D03*
X0132703Y0123268D03*
X0132703Y0123425D03*
X0132073Y0124843D03*
X0132073Y0125000D03*
X0131916Y0125157D03*
X0131916Y0125315D03*
X0131916Y0125472D03*
X0133491Y0125472D03*
X0133491Y0125315D03*
X0135066Y0125157D03*
X0135066Y0125000D03*
X0135223Y0125472D03*
X0136483Y0125472D03*
X0136483Y0125315D03*
X0136483Y0125157D03*
X0136483Y0125000D03*
X0136483Y0124843D03*
X0136483Y0124685D03*
X0136483Y0124528D03*
X0136483Y0124370D03*
X0136483Y0124213D03*
X0136483Y0124055D03*
X0136483Y0123898D03*
X0136483Y0123740D03*
X0136483Y0123583D03*
X0136483Y0123425D03*
X0136483Y0123268D03*
X0136483Y0123110D03*
X0136483Y0125630D03*
X0136483Y0126575D03*
X0136483Y0126732D03*
X0136483Y0126890D03*
X0136483Y0127047D03*
X0139318Y0124528D03*
X0139318Y0124370D03*
X0139318Y0124213D03*
X0143727Y0125787D03*
X0143885Y0125630D03*
X0143885Y0126102D03*
X0144672Y0127047D03*
X0147034Y0127047D03*
X0147034Y0126890D03*
X0147034Y0126732D03*
X0147034Y0126575D03*
X0147034Y0125630D03*
X0147034Y0125472D03*
X0147034Y0125315D03*
X0147034Y0125157D03*
X0147034Y0125000D03*
X0147034Y0124843D03*
X0147034Y0124685D03*
X0147034Y0124528D03*
X0147034Y0124370D03*
X0147034Y0124213D03*
X0147034Y0124055D03*
X0147034Y0123898D03*
X0147034Y0123740D03*
X0147034Y0123583D03*
X0147034Y0123425D03*
X0147034Y0123268D03*
X0147034Y0123110D03*
X0145774Y0124055D03*
X0145774Y0124213D03*
X0145617Y0123898D03*
X0148451Y0125157D03*
X0148609Y0125315D03*
X0148609Y0125472D03*
X0148609Y0125630D03*
X0148609Y0125787D03*
X0148766Y0125945D03*
X0148766Y0126102D03*
X0148766Y0126260D03*
X0148766Y0126417D03*
X0148924Y0126575D03*
X0152703Y0124528D03*
X0152546Y0124213D03*
X0152388Y0123898D03*
X0152388Y0123740D03*
X0152388Y0123583D03*
X0153333Y0125630D03*
X0153491Y0125787D03*
X0153491Y0125945D03*
X0155066Y0125945D03*
X0155066Y0125787D03*
X0156955Y0125787D03*
X0156955Y0125945D03*
X0156955Y0125472D03*
X0156955Y0125315D03*
X0159318Y0125157D03*
X0159318Y0125000D03*
X0159318Y0124843D03*
X0159318Y0124685D03*
X0159318Y0124528D03*
X0159318Y0124370D03*
X0159318Y0124213D03*
X0159318Y0124055D03*
X0159318Y0123898D03*
X0159318Y0123740D03*
X0159318Y0123583D03*
X0159318Y0123425D03*
X0159318Y0123268D03*
X0162310Y0123268D03*
X0162310Y0123425D03*
X0162310Y0123583D03*
X0162310Y0123740D03*
X0162310Y0123898D03*
X0162310Y0124055D03*
X0162310Y0124213D03*
X0162310Y0124370D03*
X0162310Y0125630D03*
X0162310Y0125787D03*
X0162310Y0125945D03*
X0159318Y0126732D03*
X0165932Y0126732D03*
X0165932Y0124843D03*
X0165932Y0124685D03*
X0165932Y0124528D03*
X0165932Y0124370D03*
X0165932Y0124213D03*
X0165932Y0124055D03*
X0165932Y0123898D03*
X0165932Y0123740D03*
X0165932Y0123583D03*
X0165932Y0123425D03*
X0169396Y0123425D03*
X0169396Y0123268D03*
X0169396Y0123583D03*
X0169396Y0123740D03*
X0169396Y0123898D03*
X0169396Y0124055D03*
X0169396Y0124213D03*
X0169396Y0124370D03*
X0169396Y0124528D03*
X0169396Y0124685D03*
X0169396Y0124843D03*
X0169396Y0125000D03*
X0169239Y0126732D03*
X0175696Y0124685D03*
X0175696Y0124528D03*
X0175696Y0124370D03*
X0175696Y0124213D03*
X0175696Y0124055D03*
X0175696Y0123898D03*
X0175696Y0123740D03*
X0175696Y0123583D03*
X0175696Y0123425D03*
X0175696Y0123268D03*
X0175696Y0123110D03*
X0178058Y0124213D03*
X0178058Y0124370D03*
X0178058Y0124528D03*
X0180105Y0124370D03*
X0181522Y0124370D03*
X0181522Y0124213D03*
X0181522Y0124055D03*
X0181522Y0123898D03*
X0181522Y0123740D03*
X0181522Y0123583D03*
X0181522Y0123425D03*
X0181522Y0123268D03*
X0181522Y0123110D03*
X0181522Y0124528D03*
X0181522Y0124685D03*
X0183412Y0124685D03*
X0184987Y0124843D03*
X0187664Y0124685D03*
X0187664Y0124528D03*
X0187664Y0124370D03*
X0187664Y0124213D03*
X0187664Y0124055D03*
X0190499Y0124685D03*
X0193806Y0124685D03*
X0193806Y0124528D03*
X0193806Y0124370D03*
X0193806Y0124213D03*
X0193806Y0124055D03*
X0193806Y0123898D03*
X0193806Y0123740D03*
X0193806Y0123583D03*
X0193806Y0123425D03*
X0193806Y0123268D03*
X0193806Y0123110D03*
X0193806Y0124843D03*
X0193806Y0125000D03*
X0193806Y0125157D03*
X0193806Y0125315D03*
X0193806Y0125472D03*
X0193806Y0125630D03*
X0193806Y0126575D03*
X0193806Y0126732D03*
X0193806Y0126890D03*
X0193806Y0127047D03*
X0195066Y0125472D03*
X0195223Y0125157D03*
X0195381Y0124843D03*
X0195538Y0124685D03*
X0195696Y0124370D03*
X0196955Y0124370D03*
X0197113Y0124685D03*
X0197428Y0125157D03*
X0197428Y0125315D03*
X0197585Y0125472D03*
X0198688Y0124685D03*
X0198688Y0123898D03*
X0200577Y0124685D03*
X0200577Y0124843D03*
X0201995Y0124685D03*
X0201995Y0124528D03*
X0201995Y0124370D03*
X0201995Y0124213D03*
X0201995Y0124055D03*
X0201995Y0123898D03*
X0201995Y0123740D03*
X0201995Y0123583D03*
X0201995Y0123425D03*
X0196325Y0123268D03*
X0196325Y0123110D03*
D283*
X0199711Y0125945D03*
X0191522Y0125945D03*
X0189160Y0124685D03*
X0189160Y0124055D03*
X0186325Y0125000D03*
X0184751Y0123898D03*
X0177034Y0124843D03*
X0159396Y0127047D03*
X0150420Y0127047D03*
X0148688Y0127047D03*
X0144751Y0122795D03*
X0140971Y0124055D03*
X0140971Y0124685D03*
X0137979Y0126260D03*
D284*
X0140341Y0125472D03*
X0140341Y0123268D03*
X0144751Y0126732D03*
X0152782Y0127047D03*
X0162861Y0125472D03*
X0166483Y0125315D03*
X0168845Y0125315D03*
X0168845Y0125472D03*
X0176247Y0125000D03*
X0185538Y0125157D03*
X0185538Y0125315D03*
X0185696Y0125472D03*
X0185538Y0123110D03*
X0188688Y0125472D03*
X0191680Y0123110D03*
X0199711Y0123110D03*
X0202546Y0125000D03*
X0202546Y0125157D03*
X0202546Y0125315D03*
X0202546Y0125630D03*
X0129003Y0126732D03*
X0129003Y0123110D03*
D285*
X0140184Y0123740D03*
X0140184Y0125000D03*
X0144751Y0126575D03*
X0163018Y0125315D03*
X0163018Y0124528D03*
X0163333Y0127047D03*
X0182231Y0125630D03*
X0185538Y0123425D03*
X0185538Y0123268D03*
X0188530Y0123583D03*
X0188530Y0125157D03*
X0191522Y0125315D03*
X0191522Y0123425D03*
X0199396Y0124055D03*
X0199554Y0123583D03*
X0199711Y0123268D03*
D286*
X0203255Y0124843D03*
X0185617Y0125945D03*
X0185459Y0122795D03*
X0169396Y0127047D03*
X0165932Y0127047D03*
X0158373Y0125157D03*
D287*
X0173570Y0127047D03*
X0133570Y0124370D03*
X0133570Y0124213D03*
X0129003Y0126102D03*
X0129003Y0126260D03*
D288*
X0129003Y0126890D03*
X0140341Y0125630D03*
X0144751Y0126890D03*
X0156089Y0124370D03*
X0158924Y0125472D03*
X0158924Y0125945D03*
X0166325Y0125630D03*
X0167585Y0124843D03*
X0169003Y0125787D03*
X0185381Y0124685D03*
X0191680Y0122953D03*
D289*
X0191444Y0124370D03*
X0191444Y0124528D03*
X0199475Y0124370D03*
X0199633Y0124528D03*
X0199633Y0125000D03*
X0182467Y0125000D03*
X0182467Y0124843D03*
X0179160Y0124843D03*
X0179160Y0125000D03*
X0179160Y0125157D03*
X0179160Y0123898D03*
X0179160Y0123740D03*
X0179160Y0123583D03*
X0156168Y0122953D03*
X0156010Y0126102D03*
X0152703Y0126260D03*
X0152703Y0126417D03*
X0152703Y0126575D03*
X0152703Y0126732D03*
X0152703Y0126890D03*
X0149396Y0125000D03*
X0149396Y0124843D03*
X0149396Y0124685D03*
X0149396Y0124528D03*
X0149396Y0124370D03*
X0149396Y0124213D03*
X0144672Y0123740D03*
X0144672Y0123583D03*
D290*
X0140420Y0123110D03*
X0130184Y0123898D03*
X0155696Y0124055D03*
X0155853Y0124213D03*
X0156325Y0124528D03*
X0156483Y0124685D03*
X0156010Y0126890D03*
X0159003Y0126102D03*
X0159003Y0125315D03*
X0166247Y0125787D03*
X0166247Y0125945D03*
X0169081Y0125945D03*
X0169081Y0126102D03*
X0185932Y0124055D03*
X0188609Y0123110D03*
X0188609Y0125630D03*
X0196325Y0123898D03*
X0196325Y0123740D03*
X0199790Y0122953D03*
D291*
X0163333Y0126102D03*
X0163333Y0126890D03*
X0156089Y0123740D03*
X0156089Y0123583D03*
X0156089Y0123425D03*
X0156089Y0123268D03*
X0156089Y0123110D03*
X0129003Y0126417D03*
D292*
X0173570Y0126417D03*
X0173570Y0126575D03*
X0173570Y0126732D03*
X0173570Y0126890D03*
D293*
X0168924Y0125630D03*
X0166404Y0125472D03*
X0158845Y0125630D03*
X0158845Y0125787D03*
X0156010Y0126732D03*
X0145144Y0124685D03*
X0144357Y0125315D03*
X0144672Y0123110D03*
X0185459Y0124528D03*
X0185617Y0124370D03*
X0185774Y0124213D03*
X0185617Y0125630D03*
X0188609Y0123268D03*
X0191601Y0125630D03*
X0196325Y0124055D03*
X0199633Y0125630D03*
D294*
X0167034Y0125000D03*
X0163412Y0126260D03*
X0163412Y0126417D03*
X0163412Y0126575D03*
X0163412Y0126732D03*
X0133491Y0124055D03*
D295*
X0129003Y0126575D03*
X0152782Y0126102D03*
X0179239Y0125315D03*
X0179239Y0123425D03*
X0182388Y0125157D03*
X0182388Y0125315D03*
X0191365Y0124213D03*
X0191522Y0125000D03*
X0191522Y0125157D03*
X0199554Y0124213D03*
X0086944Y0112528D03*
X0086589Y0114417D03*
D296*
X0140262Y0123425D03*
X0140262Y0123583D03*
X0140262Y0125157D03*
X0140262Y0125315D03*
X0144672Y0125157D03*
X0144829Y0125000D03*
X0144987Y0124843D03*
X0144672Y0123268D03*
X0156010Y0126575D03*
X0176325Y0125630D03*
X0176325Y0125472D03*
X0176325Y0125315D03*
X0176325Y0125157D03*
X0179318Y0125630D03*
X0179318Y0123110D03*
X0185617Y0123583D03*
X0188451Y0123740D03*
X0188609Y0123425D03*
X0188451Y0125000D03*
X0188609Y0125315D03*
X0191601Y0125472D03*
X0191601Y0123268D03*
X0196325Y0124213D03*
X0199633Y0125472D03*
X0202625Y0125472D03*
D297*
X0202073Y0124843D03*
X0198766Y0124843D03*
X0197349Y0125000D03*
X0197192Y0124843D03*
X0197034Y0124528D03*
X0195617Y0124528D03*
X0195302Y0125000D03*
X0195144Y0125315D03*
X0190577Y0124843D03*
X0190577Y0123898D03*
X0190735Y0123740D03*
X0188688Y0122953D03*
X0186168Y0123898D03*
X0188688Y0125787D03*
X0180026Y0124685D03*
X0180026Y0124528D03*
X0180026Y0124213D03*
X0180026Y0124055D03*
X0178136Y0124055D03*
X0178136Y0124685D03*
X0175774Y0124843D03*
X0169318Y0126575D03*
X0167585Y0124370D03*
X0166010Y0126417D03*
X0166010Y0126575D03*
X0159239Y0126575D03*
X0156877Y0125157D03*
X0153255Y0125472D03*
X0153097Y0125315D03*
X0153097Y0125157D03*
X0152940Y0125000D03*
X0152940Y0124843D03*
X0152782Y0124685D03*
X0152625Y0124370D03*
X0152467Y0124055D03*
X0145696Y0124370D03*
X0143806Y0123898D03*
X0140341Y0122953D03*
X0139554Y0123898D03*
X0139396Y0124055D03*
X0139396Y0124685D03*
X0139554Y0124843D03*
X0140341Y0125787D03*
X0135144Y0125315D03*
X0133570Y0125157D03*
X0134357Y0123740D03*
X0134357Y0123583D03*
X0134357Y0123425D03*
X0132782Y0123583D03*
X0130262Y0124055D03*
X0130420Y0125630D03*
X0130262Y0125787D03*
X0127743Y0125787D03*
X0127585Y0125630D03*
X0127585Y0124213D03*
X0127743Y0124055D03*
D298*
X0134121Y0124843D03*
X0144672Y0126260D03*
X0144672Y0126417D03*
X0144672Y0123425D03*
X0149554Y0124055D03*
X0156010Y0123898D03*
X0156010Y0126260D03*
X0156010Y0126417D03*
X0163097Y0125157D03*
X0163097Y0125000D03*
X0163097Y0124843D03*
X0163097Y0124685D03*
X0179318Y0125472D03*
X0179318Y0123268D03*
X0182310Y0125472D03*
X0191286Y0124055D03*
X0191444Y0123583D03*
X0199633Y0123425D03*
X0199633Y0125157D03*
X0199633Y0125315D03*
D299*
X0198845Y0123740D03*
X0196325Y0123583D03*
X0196325Y0123425D03*
X0191601Y0125787D03*
X0187822Y0124843D03*
X0187822Y0123898D03*
X0169239Y0126417D03*
X0167664Y0124528D03*
X0166089Y0126260D03*
X0159160Y0126417D03*
X0156798Y0125000D03*
X0156640Y0124843D03*
X0144672Y0122953D03*
X0144042Y0125472D03*
X0133491Y0125000D03*
X0132703Y0123898D03*
X0132703Y0123740D03*
X0130184Y0125945D03*
X0127822Y0125945D03*
D300*
X0129081Y0122795D03*
X0136483Y0126260D03*
X0143727Y0124213D03*
X0145459Y0125945D03*
X0147034Y0126260D03*
X0192388Y0123740D03*
X0193806Y0126260D03*
X0083282Y0114417D03*
X0081983Y0113472D03*
X0081156Y0112528D03*
X0080329Y0113472D03*
X0079266Y0113000D03*
D301*
X0127900Y0123898D03*
X0129003Y0122953D03*
X0134357Y0123898D03*
X0145381Y0124528D03*
X0159081Y0126260D03*
X0166168Y0126102D03*
X0167585Y0124685D03*
X0169160Y0126260D03*
X0185696Y0125787D03*
X0185538Y0122953D03*
X0199711Y0125787D03*
D302*
X0173570Y0126260D03*
X0133570Y0124685D03*
X0129475Y0123425D03*
D303*
X0167664Y0125157D03*
D304*
X0133491Y0124528D03*
X0129554Y0123268D03*
D305*
X0129396Y0123583D03*
X0129239Y0123740D03*
D306*
X0072487Y0171169D03*
D307*
X0072487Y0164969D03*
D308*
X0069672Y0164732D03*
X0069554Y0164732D03*
X0069672Y0157173D03*
X0069672Y0155874D03*
X0071050Y0155874D03*
X0071050Y0157173D03*
X0071916Y0154220D03*
X0071916Y0152567D03*
X0085723Y0164618D03*
X0086668Y0166390D03*
X0087613Y0163437D03*
X0070696Y0171465D03*
X0070105Y0175598D03*
X0072388Y0176898D03*
X0261723Y0160882D03*
X0263062Y0160882D03*
X0261999Y0157575D03*
D309*
X0261133Y0159406D03*
X0086944Y0161724D03*
X0086668Y0161724D03*
X0086550Y0161724D03*
X0085172Y0161724D03*
X0085054Y0161724D03*
X0085054Y0163378D03*
X0086944Y0164677D03*
X0086550Y0166331D03*
X0086471Y0166331D03*
X0072388Y0171169D03*
X0070617Y0170106D03*
X0070105Y0170106D03*
X0070105Y0168689D03*
X0070617Y0168689D03*
X0070105Y0167508D03*
X0070105Y0166091D03*
X0070696Y0163492D03*
X0070105Y0158295D03*
X0069554Y0157232D03*
X0069554Y0155815D03*
X0071168Y0155815D03*
X0071168Y0157232D03*
X0072034Y0154161D03*
X0072034Y0152508D03*
X0070696Y0174240D03*
X0070223Y0175539D03*
X0071444Y0175539D03*
D310*
X0071168Y0175362D03*
X0071050Y0175362D03*
X0070971Y0175362D03*
X0070696Y0175362D03*
X0070617Y0175362D03*
X0070499Y0175362D03*
X0070617Y0174299D03*
X0070026Y0174299D03*
X0070617Y0172882D03*
X0070696Y0172882D03*
X0070499Y0170165D03*
X0070223Y0170165D03*
X0070223Y0168630D03*
X0070499Y0168630D03*
X0070499Y0167567D03*
X0070617Y0167567D03*
X0070696Y0167567D03*
X0070971Y0167567D03*
X0071050Y0167567D03*
X0071168Y0167567D03*
X0070223Y0167567D03*
X0070223Y0166031D03*
X0070499Y0166031D03*
X0070617Y0166031D03*
X0070696Y0166031D03*
X0070971Y0166031D03*
X0071050Y0166031D03*
X0071168Y0166031D03*
X0071168Y0164969D03*
X0071050Y0164969D03*
X0070971Y0164969D03*
X0070696Y0164969D03*
X0070617Y0164969D03*
X0070499Y0164969D03*
X0070223Y0164969D03*
X0070105Y0164969D03*
X0070026Y0164969D03*
X0069278Y0164614D03*
X0070026Y0163433D03*
X0070105Y0163433D03*
X0070223Y0163433D03*
X0070499Y0163433D03*
X0070617Y0163433D03*
X0071562Y0163433D03*
X0071640Y0163433D03*
X0071916Y0163433D03*
X0072034Y0163433D03*
X0072034Y0164969D03*
X0072113Y0164969D03*
X0071916Y0164969D03*
X0071640Y0164969D03*
X0071562Y0164969D03*
X0071444Y0164969D03*
X0072388Y0164969D03*
X0071168Y0161898D03*
X0071050Y0161898D03*
X0070971Y0161898D03*
X0070696Y0161898D03*
X0069751Y0161898D03*
X0069672Y0161898D03*
X0069554Y0161898D03*
X0070105Y0159772D03*
X0070223Y0159772D03*
X0070026Y0159654D03*
X0070499Y0159772D03*
X0070617Y0159772D03*
X0070696Y0159772D03*
X0070971Y0159772D03*
X0071050Y0159772D03*
X0071168Y0159772D03*
X0071444Y0159772D03*
X0071562Y0159654D03*
X0071562Y0158354D03*
X0071444Y0158236D03*
X0071168Y0158236D03*
X0071050Y0158236D03*
X0070971Y0158236D03*
X0070696Y0158236D03*
X0070617Y0158236D03*
X0070499Y0158236D03*
X0070223Y0158236D03*
X0070026Y0158354D03*
X0070026Y0154102D03*
X0070105Y0154102D03*
X0070223Y0154102D03*
X0070499Y0154102D03*
X0070617Y0154102D03*
X0070696Y0154102D03*
X0070971Y0154102D03*
X0072113Y0154102D03*
X0069751Y0154102D03*
X0069672Y0154102D03*
X0069554Y0154102D03*
X0085251Y0161783D03*
X0086471Y0161783D03*
X0087062Y0161783D03*
X0087534Y0163319D03*
X0085172Y0163319D03*
X0085605Y0164736D03*
X0086196Y0166272D03*
X0071562Y0177252D03*
X0071444Y0177252D03*
X0071168Y0177252D03*
X0071050Y0177252D03*
X0070971Y0177252D03*
X0070696Y0177252D03*
X0070617Y0177252D03*
X0070499Y0177252D03*
X0070223Y0177252D03*
X0070105Y0177252D03*
X0261251Y0159346D03*
X0261605Y0160882D03*
X0262117Y0157457D03*
D311*
X0087416Y0163260D03*
X0087062Y0164795D03*
X0086117Y0166213D03*
X0085999Y0166213D03*
X0085251Y0163260D03*
X0085526Y0161843D03*
X0072388Y0159004D03*
X0072113Y0163492D03*
X0069278Y0163020D03*
X0069278Y0169516D03*
X0069554Y0171642D03*
X0069672Y0171642D03*
X0069751Y0171642D03*
X0070026Y0171642D03*
X0070105Y0171642D03*
X0070223Y0171642D03*
X0070499Y0171642D03*
X0070617Y0171642D03*
X0071562Y0171642D03*
X0071640Y0171642D03*
X0072113Y0152390D03*
X0070971Y0152390D03*
X0070696Y0152390D03*
X0070617Y0152390D03*
X0070499Y0152390D03*
X0070223Y0152390D03*
X0070105Y0152390D03*
X0070026Y0152390D03*
X0069751Y0152390D03*
X0069672Y0152390D03*
X0069554Y0152390D03*
X0069278Y0152390D03*
D312*
X0072388Y0152331D03*
X0072388Y0154102D03*
X0070971Y0154811D03*
X0086471Y0167689D03*
X0262550Y0159228D03*
X0262668Y0159228D03*
D313*
X0072251Y0176780D03*
X0071306Y0171465D03*
X0069416Y0166622D03*
X0070833Y0163315D03*
X0071306Y0163315D03*
D314*
X0069888Y0163256D03*
X0069888Y0164791D03*
X0072251Y0159004D03*
X0070361Y0156524D03*
X0071778Y0154280D03*
X0071778Y0152626D03*
X0086333Y0164559D03*
X0085388Y0167630D03*
X0072251Y0171287D03*
D315*
X0070361Y0170165D03*
X0070361Y0168630D03*
X0070361Y0167567D03*
X0070833Y0167567D03*
X0071306Y0167567D03*
X0070833Y0166031D03*
X0070361Y0166031D03*
X0070361Y0164969D03*
X0070833Y0164969D03*
X0071306Y0164969D03*
X0071778Y0164969D03*
X0072251Y0164969D03*
X0071778Y0163433D03*
X0070361Y0163433D03*
X0070833Y0161898D03*
X0069888Y0161898D03*
X0069416Y0161898D03*
X0070361Y0159772D03*
X0070833Y0159772D03*
X0071306Y0159772D03*
X0071306Y0158236D03*
X0070833Y0158236D03*
X0070361Y0158236D03*
X0070361Y0154102D03*
X0070833Y0154102D03*
X0069888Y0154102D03*
X0069416Y0154102D03*
X0085388Y0161783D03*
X0086333Y0166272D03*
X0070833Y0175362D03*
X0071306Y0175480D03*
X0071306Y0177252D03*
X0070833Y0177252D03*
X0070361Y0177252D03*
D316*
X0072251Y0163492D03*
X0086333Y0163024D03*
X0261388Y0158224D03*
D317*
X0260916Y0157339D03*
X0261388Y0159346D03*
X0087278Y0163201D03*
X0085388Y0163201D03*
X0085861Y0166154D03*
X0071306Y0161898D03*
X0072251Y0154102D03*
X0072251Y0152331D03*
D318*
X0069751Y0159063D03*
X0069554Y0166622D03*
X0069554Y0169220D03*
X0071168Y0169220D03*
X0071050Y0173591D03*
X0070971Y0173591D03*
X0069672Y0173591D03*
X0072113Y0176661D03*
X0085054Y0170287D03*
X0085054Y0159421D03*
D319*
X0084778Y0161724D03*
X0085999Y0164559D03*
X0086117Y0164559D03*
X0086196Y0164559D03*
X0086471Y0164559D03*
X0086550Y0164559D03*
X0086668Y0164559D03*
X0086944Y0166449D03*
X0087062Y0166449D03*
X0072113Y0171287D03*
X0071916Y0171406D03*
X0071444Y0173531D03*
X0071562Y0175657D03*
X0069751Y0164791D03*
X0069672Y0163138D03*
X0069554Y0163138D03*
X0069278Y0159004D03*
X0261054Y0159406D03*
D320*
X0087613Y0166626D03*
X0085054Y0167689D03*
X0084778Y0163555D03*
X0071444Y0163315D03*
X0072113Y0159063D03*
X0071562Y0154457D03*
X0071444Y0154457D03*
X0071168Y0154457D03*
X0071444Y0152803D03*
X0069278Y0176780D03*
D321*
X0069554Y0176602D03*
X0072034Y0176602D03*
X0070223Y0173650D03*
X0069751Y0169280D03*
X0069672Y0169280D03*
X0070971Y0169280D03*
X0071050Y0169280D03*
X0069672Y0166681D03*
X0071640Y0159004D03*
X0070971Y0156524D03*
X0069751Y0156524D03*
X0084778Y0159598D03*
X0084778Y0170110D03*
X0260778Y0159642D03*
D322*
X0087140Y0166508D03*
X0085251Y0167689D03*
X0072034Y0171346D03*
X0069278Y0173472D03*
X0069751Y0163197D03*
X0071050Y0152685D03*
X0071640Y0152685D03*
D323*
X0070617Y0156524D03*
X0070105Y0156524D03*
X0069554Y0159004D03*
X0072034Y0159004D03*
X0071444Y0171524D03*
D324*
X0070499Y0173591D03*
X0069672Y0176543D03*
X0071916Y0176543D03*
X0070696Y0169339D03*
X0070026Y0169339D03*
X0070026Y0166740D03*
X0069751Y0166740D03*
X0085172Y0170287D03*
X0085251Y0170287D03*
X0085251Y0159421D03*
X0085172Y0159421D03*
X0261054Y0155213D03*
X0263613Y0155213D03*
X0263888Y0155331D03*
X0263613Y0163008D03*
D325*
X0071916Y0159004D03*
X0069672Y0159004D03*
X0070026Y0156524D03*
X0070696Y0156524D03*
X0070971Y0171524D03*
X0071050Y0171524D03*
X0071168Y0171524D03*
X0070105Y0173768D03*
X0069751Y0173650D03*
X0069554Y0173531D03*
D326*
X0071778Y0176484D03*
X0085388Y0159362D03*
D327*
X0084916Y0161665D03*
X0084916Y0163437D03*
X0085861Y0164618D03*
X0086806Y0164618D03*
X0086806Y0166390D03*
X0071778Y0171465D03*
X0069888Y0174181D03*
X0069416Y0164732D03*
X0069416Y0163079D03*
D328*
X0071778Y0159063D03*
D329*
X0085526Y0159421D03*
X0085605Y0159421D03*
X0086471Y0159303D03*
X0086550Y0159303D03*
X0086668Y0159303D03*
X0086944Y0159303D03*
X0087534Y0159539D03*
X0085526Y0170287D03*
X0071640Y0176425D03*
X0070026Y0176425D03*
X0261526Y0163126D03*
X0263140Y0158283D03*
X0263140Y0155094D03*
X0263062Y0155094D03*
X0261605Y0155094D03*
X0261526Y0155094D03*
D330*
X0087534Y0166567D03*
X0087416Y0166567D03*
X0085172Y0167630D03*
X0070499Y0156524D03*
X0070223Y0156524D03*
X0071050Y0154398D03*
X0071640Y0154398D03*
X0071562Y0152744D03*
X0071168Y0152744D03*
D331*
X0070971Y0153098D03*
X0070696Y0162783D03*
X0085054Y0165976D03*
X0085172Y0165976D03*
X0086117Y0163024D03*
X0086196Y0163024D03*
X0086471Y0163024D03*
X0086550Y0163024D03*
X0071562Y0173531D03*
X0262471Y0159169D03*
D332*
X0262196Y0158992D03*
X0262196Y0157339D03*
X0263140Y0160882D03*
X0086117Y0167689D03*
X0085723Y0166154D03*
X0084778Y0166035D03*
X0085526Y0164854D03*
X0071444Y0166031D03*
X0071444Y0167567D03*
X0071444Y0168630D03*
X0071444Y0169575D03*
X0069278Y0168630D03*
X0069278Y0166976D03*
X0069278Y0166031D03*
X0069278Y0161898D03*
X0069278Y0154102D03*
X0069278Y0171583D03*
X0069160Y0173472D03*
D333*
X0085526Y0166094D03*
X0085605Y0166094D03*
X0085605Y0163142D03*
X0085526Y0163142D03*
X0087062Y0163142D03*
X0087140Y0163142D03*
X0071444Y0157232D03*
X0071444Y0155815D03*
X0069278Y0155815D03*
X0069278Y0157232D03*
X0069160Y0159004D03*
X0070026Y0161839D03*
X0261054Y0157280D03*
X0261133Y0157280D03*
X0261526Y0158224D03*
X0261605Y0158224D03*
X0262117Y0159051D03*
X0261526Y0159287D03*
X0262944Y0157280D03*
D334*
X0260916Y0159465D03*
X0087751Y0166626D03*
X0071306Y0173591D03*
X0071306Y0154457D03*
X0071306Y0152803D03*
D335*
X0071306Y0169161D03*
X0069416Y0169161D03*
X0069416Y0176720D03*
D336*
X0069416Y0171642D03*
X0069888Y0171642D03*
X0070361Y0171642D03*
X0071306Y0166091D03*
X0071306Y0157232D03*
X0071306Y0155815D03*
X0069416Y0155815D03*
X0069416Y0157232D03*
X0069416Y0152390D03*
X0069888Y0152390D03*
X0070361Y0152390D03*
X0070833Y0152390D03*
X0262333Y0158933D03*
D337*
X0084778Y0167689D03*
X0071168Y0163315D03*
X0071050Y0163315D03*
X0070971Y0163315D03*
X0071168Y0173591D03*
D338*
X0070833Y0173591D03*
X0070361Y0173709D03*
X0070833Y0169339D03*
X0069888Y0169339D03*
X0069888Y0166740D03*
X0260916Y0155213D03*
X0263751Y0155213D03*
D339*
X0084916Y0167630D03*
X0070833Y0171524D03*
X0069416Y0173531D03*
D340*
X0084916Y0170228D03*
X0084916Y0159480D03*
X0070833Y0156524D03*
X0069888Y0156524D03*
X0069888Y0159004D03*
D341*
X0070617Y0161898D03*
X0085723Y0163083D03*
X0085999Y0163083D03*
X0086668Y0163083D03*
X0086944Y0163083D03*
X0085251Y0166035D03*
X0086196Y0167689D03*
X0261251Y0157220D03*
X0261526Y0157220D03*
X0261605Y0157220D03*
X0261723Y0157220D03*
X0262471Y0157220D03*
X0262550Y0157220D03*
X0262668Y0157220D03*
X0261723Y0158165D03*
X0261999Y0159110D03*
X0261723Y0159228D03*
X0261605Y0159228D03*
X0262944Y0159228D03*
D342*
X0086806Y0161724D03*
X0070361Y0175421D03*
D343*
X0069888Y0176425D03*
X0085388Y0170287D03*
X0086333Y0159303D03*
X0086806Y0159303D03*
X0087278Y0159421D03*
X0261388Y0163126D03*
X0263278Y0163126D03*
X0263751Y0162890D03*
X0263278Y0158283D03*
X0263278Y0155094D03*
X0261388Y0155094D03*
D344*
X0261861Y0157280D03*
X0262333Y0157280D03*
X0261861Y0157988D03*
X0261861Y0159169D03*
X0069888Y0172941D03*
D345*
X0069751Y0176484D03*
X0087062Y0159362D03*
X0087140Y0159362D03*
X0087416Y0159480D03*
X0261054Y0162949D03*
X0261133Y0163067D03*
X0261251Y0163067D03*
X0263416Y0163067D03*
X0263495Y0163067D03*
X0263062Y0158224D03*
X0263416Y0155154D03*
X0263495Y0155154D03*
X0261251Y0155154D03*
X0261133Y0155154D03*
D346*
X0069416Y0159004D03*
D347*
X0081215Y0115343D03*
X0081215Y0110657D03*
D348*
X0081215Y0110776D03*
X0081215Y0115224D03*
D349*
X0081215Y0115126D03*
D350*
X0081215Y0115008D03*
D351*
X0081215Y0114870D03*
X0081215Y0111091D03*
D352*
X0081215Y0111209D03*
X0081215Y0114752D03*
D353*
X0081215Y0114654D03*
D354*
X0077022Y0114555D03*
D355*
X0081156Y0114555D03*
D356*
X0085349Y0114555D03*
D357*
X0075546Y0114417D03*
X0075546Y0111583D03*
D358*
X0080329Y0114417D03*
X0081983Y0114417D03*
X0082928Y0111583D03*
D359*
X0086766Y0111445D03*
X0087003Y0111839D03*
X0087003Y0111917D03*
X0075664Y0111445D03*
X0075546Y0111720D03*
X0075546Y0114280D03*
D360*
X0078853Y0114280D03*
X0079207Y0112862D03*
X0080270Y0113728D03*
X0083223Y0113335D03*
X0083223Y0113217D03*
D361*
X0083046Y0112390D03*
X0083046Y0112272D03*
X0084699Y0111720D03*
X0084699Y0113335D03*
X0081983Y0114201D03*
X0081983Y0114280D03*
X0080329Y0114280D03*
X0080329Y0114201D03*
X0081156Y0111839D03*
X0081156Y0111720D03*
X0077849Y0113217D03*
X0077849Y0113335D03*
X0077849Y0113610D03*
D362*
X0078971Y0114083D03*
X0079089Y0113807D03*
X0079207Y0113335D03*
X0079207Y0113217D03*
X0080270Y0113335D03*
X0083341Y0114083D03*
X0083341Y0114201D03*
X0083341Y0114280D03*
D363*
X0086707Y0114280D03*
X0086825Y0114201D03*
X0087062Y0112862D03*
X0086944Y0112272D03*
X0078676Y0111839D03*
X0078676Y0111720D03*
X0075369Y0112390D03*
X0075369Y0112665D03*
X0075369Y0112783D03*
X0075369Y0112862D03*
X0075369Y0113138D03*
X0075369Y0113217D03*
X0075369Y0113335D03*
X0075369Y0113610D03*
D364*
X0075487Y0114083D03*
X0075487Y0114201D03*
X0075487Y0111917D03*
X0075487Y0111839D03*
X0078558Y0112193D03*
D365*
X0079266Y0113138D03*
X0078912Y0114201D03*
X0080329Y0113610D03*
X0081156Y0112390D03*
X0081156Y0112272D03*
X0081983Y0113335D03*
X0081983Y0113610D03*
X0083282Y0113610D03*
X0083282Y0113728D03*
X0083282Y0113807D03*
D366*
X0083105Y0112783D03*
X0083105Y0112665D03*
X0084640Y0113138D03*
X0084640Y0113217D03*
X0084640Y0113610D03*
X0084640Y0111917D03*
X0084640Y0111839D03*
X0081924Y0114083D03*
X0080270Y0114083D03*
X0079207Y0112665D03*
X0077790Y0113138D03*
D367*
X0078617Y0111917D03*
X0075428Y0112193D03*
X0075428Y0112272D03*
X0075428Y0113728D03*
X0075428Y0113807D03*
X0086885Y0114083D03*
X0087003Y0113807D03*
X0087003Y0113728D03*
X0087121Y0113610D03*
X0087121Y0113335D03*
X0087121Y0113217D03*
X0087121Y0113138D03*
X0087003Y0112193D03*
D368*
X0087003Y0112055D03*
X0087121Y0113472D03*
X0087003Y0113945D03*
X0078617Y0112055D03*
X0075428Y0112055D03*
X0075428Y0113945D03*
D369*
X0079030Y0113945D03*
X0081983Y0113000D03*
D370*
X0081983Y0113945D03*
X0083164Y0113000D03*
X0084581Y0112055D03*
X0081156Y0112055D03*
X0080329Y0113945D03*
D371*
X0079207Y0113472D03*
X0083341Y0113945D03*
D372*
X0083164Y0113138D03*
X0083164Y0112862D03*
X0081983Y0113728D03*
X0081983Y0113807D03*
X0080329Y0113807D03*
X0079266Y0112783D03*
X0077731Y0113728D03*
X0081156Y0112193D03*
X0081156Y0111917D03*
X0084581Y0112193D03*
X0084581Y0113728D03*
D373*
X0081983Y0113217D03*
X0081983Y0113138D03*
X0081156Y0112862D03*
X0081156Y0112783D03*
X0081156Y0112665D03*
X0080329Y0113138D03*
X0080329Y0113217D03*
X0079148Y0113610D03*
X0079148Y0113728D03*
D374*
X0078676Y0111583D03*
X0075369Y0112528D03*
X0075369Y0113000D03*
X0075369Y0113472D03*
X0087062Y0113000D03*
D375*
X0083223Y0113472D03*
D376*
X0080270Y0113000D03*
D377*
X0087003Y0112783D03*
X0087003Y0112390D03*
D378*
X0086944Y0112665D03*
X0078676Y0111445D03*
D379*
X0083105Y0112528D03*
D380*
X0081097Y0111445D03*
X0079089Y0112390D03*
D381*
X0078912Y0112272D03*
D382*
X0082987Y0112193D03*
X0082987Y0111917D03*
D383*
X0082987Y0112055D03*
X0081097Y0111583D03*
D384*
X0082928Y0111720D03*
X0082928Y0111839D03*
X0084699Y0111445D03*
D385*
X0086944Y0111720D03*
D386*
X0086944Y0111583D03*
D387*
X0082928Y0111445D03*
D388*
X0081215Y0111327D03*
D389*
X0081215Y0111012D03*
D390*
X0081215Y0110894D03*
D391*
X0259991Y0159110D03*
X0264676Y0159110D03*
D392*
X0264558Y0159110D03*
X0260109Y0159110D03*
D393*
X0260207Y0159110D03*
D394*
X0260325Y0159110D03*
D395*
X0260463Y0159110D03*
X0264243Y0159110D03*
D396*
X0264125Y0159110D03*
X0260581Y0159110D03*
D397*
X0260680Y0159110D03*
D398*
X0260778Y0156039D03*
D399*
X0260778Y0162535D03*
X0086196Y0170169D03*
D400*
X0260916Y0162831D03*
X0261861Y0155035D03*
X0262333Y0155035D03*
X0262806Y0155035D03*
D401*
X0262806Y0157220D03*
X0261388Y0157220D03*
X0086806Y0163083D03*
X0085861Y0163083D03*
X0085388Y0166035D03*
X0084916Y0166035D03*
X0086333Y0167689D03*
D402*
X0085605Y0170228D03*
X0087613Y0159717D03*
X0086196Y0159362D03*
X0086117Y0159362D03*
X0261605Y0163067D03*
X0263140Y0163067D03*
X0263888Y0162713D03*
X0263416Y0158343D03*
X0262944Y0155035D03*
X0262668Y0155035D03*
X0262550Y0155035D03*
X0262471Y0155035D03*
X0262196Y0155035D03*
X0262117Y0155035D03*
X0261999Y0155035D03*
X0261723Y0155035D03*
D403*
X0263613Y0158461D03*
X0261723Y0163067D03*
X0086117Y0170228D03*
X0085999Y0170228D03*
D404*
X0261861Y0162358D03*
D405*
X0261999Y0162299D03*
X0262117Y0162299D03*
X0262668Y0162299D03*
D406*
X0262550Y0162240D03*
X0262471Y0162240D03*
X0262196Y0162240D03*
D407*
X0262333Y0162240D03*
D408*
X0262806Y0159228D03*
D409*
X0262806Y0162299D03*
D410*
X0262944Y0162358D03*
D411*
X0263062Y0163008D03*
X0263495Y0158402D03*
X0085999Y0159421D03*
X0085723Y0159421D03*
X0085723Y0170287D03*
D412*
X0263751Y0158579D03*
D413*
X0263888Y0158638D03*
D414*
X0264007Y0159110D03*
D415*
X0264322Y0159110D03*
D416*
X0264440Y0159110D03*
D417*
X0088676Y0164854D03*
X0083991Y0164854D03*
D418*
X0084109Y0164854D03*
X0088558Y0164854D03*
D419*
X0088459Y0164854D03*
D420*
X0088341Y0164854D03*
D421*
X0088203Y0164854D03*
X0084424Y0164854D03*
D422*
X0084542Y0164854D03*
X0088085Y0164854D03*
D423*
X0087987Y0164854D03*
D424*
X0087888Y0164854D03*
D425*
X0087751Y0169638D03*
X0087278Y0169874D03*
D426*
X0087278Y0166508D03*
X0087751Y0163555D03*
D427*
X0087751Y0159776D03*
X0085861Y0159421D03*
D428*
X0087613Y0169638D03*
X0087534Y0169756D03*
X0087416Y0169756D03*
X0087140Y0169874D03*
X0086944Y0169992D03*
D429*
X0087062Y0169933D03*
X0086668Y0170051D03*
D430*
X0086806Y0170051D03*
D431*
X0086550Y0170110D03*
X0086471Y0170110D03*
D432*
X0086333Y0170169D03*
D433*
X0085861Y0170228D03*
D434*
X0084660Y0164854D03*
D435*
X0084345Y0164854D03*
D436*
X0084227Y0164854D03*
M02*
