G75*
%MOIN*%
%OFA0B0*%
%FSLAX25Y25*%
%IPPOS*%
%LPD*%
%AMOC8*
5,1,8,0,0,1.08239X$1,22.5*
%
%ADD10C,0.01100*%
%ADD11C,0.00600*%
%ADD12C,0.02200*%
%ADD13C,0.02000*%
D10*
X0243641Y0062550D02*
X0246918Y0062550D01*
X0245280Y0062550D02*
X0245280Y0068450D01*
X0246918Y0067139D01*
X0253072Y0065500D02*
X0253070Y0065362D01*
X0253064Y0065224D01*
X0253054Y0065087D01*
X0253041Y0064950D01*
X0253023Y0064813D01*
X0253002Y0064677D01*
X0252977Y0064541D01*
X0252947Y0064407D01*
X0252915Y0064273D01*
X0252878Y0064140D01*
X0252838Y0064008D01*
X0252793Y0063878D01*
X0252746Y0063748D01*
X0252694Y0063621D01*
X0252639Y0063494D01*
X0252580Y0063369D01*
X0252745Y0063861D02*
X0250122Y0067139D01*
X0250287Y0067630D02*
X0250311Y0067694D01*
X0250338Y0067757D01*
X0250369Y0067818D01*
X0250404Y0067877D01*
X0250441Y0067934D01*
X0250482Y0067989D01*
X0250526Y0068041D01*
X0250573Y0068091D01*
X0250622Y0068138D01*
X0250674Y0068183D01*
X0250729Y0068224D01*
X0250786Y0068262D01*
X0250845Y0068297D01*
X0250905Y0068329D01*
X0250968Y0068357D01*
X0251031Y0068381D01*
X0251097Y0068402D01*
X0251163Y0068419D01*
X0251230Y0068433D01*
X0251297Y0068442D01*
X0251366Y0068448D01*
X0251434Y0068450D01*
X0251502Y0068448D01*
X0251571Y0068442D01*
X0251638Y0068433D01*
X0251705Y0068419D01*
X0251771Y0068402D01*
X0251837Y0068381D01*
X0251900Y0068357D01*
X0251963Y0068329D01*
X0252023Y0068297D01*
X0252082Y0068262D01*
X0252139Y0068224D01*
X0252194Y0068183D01*
X0252246Y0068138D01*
X0252295Y0068091D01*
X0252342Y0068041D01*
X0252386Y0067989D01*
X0252427Y0067934D01*
X0252464Y0067877D01*
X0252499Y0067818D01*
X0252530Y0067757D01*
X0252557Y0067694D01*
X0252581Y0067630D01*
X0250287Y0067631D02*
X0250228Y0067506D01*
X0250173Y0067379D01*
X0250121Y0067252D01*
X0250074Y0067122D01*
X0250029Y0066992D01*
X0249989Y0066860D01*
X0249952Y0066727D01*
X0249920Y0066593D01*
X0249890Y0066459D01*
X0249865Y0066323D01*
X0249844Y0066187D01*
X0249826Y0066050D01*
X0249813Y0065913D01*
X0249803Y0065776D01*
X0249797Y0065638D01*
X0249795Y0065500D01*
X0253072Y0065500D02*
X0253070Y0065638D01*
X0253064Y0065776D01*
X0253054Y0065913D01*
X0253041Y0066050D01*
X0253023Y0066187D01*
X0253002Y0066323D01*
X0252977Y0066459D01*
X0252947Y0066593D01*
X0252915Y0066727D01*
X0252878Y0066860D01*
X0252838Y0066992D01*
X0252793Y0067122D01*
X0252746Y0067252D01*
X0252694Y0067379D01*
X0252639Y0067506D01*
X0252580Y0067631D01*
X0249795Y0065500D02*
X0249797Y0065362D01*
X0249803Y0065224D01*
X0249813Y0065087D01*
X0249826Y0064950D01*
X0249844Y0064813D01*
X0249865Y0064677D01*
X0249890Y0064541D01*
X0249920Y0064407D01*
X0249952Y0064273D01*
X0249989Y0064140D01*
X0250029Y0064008D01*
X0250074Y0063878D01*
X0250121Y0063748D01*
X0250173Y0063621D01*
X0250228Y0063494D01*
X0250287Y0063369D01*
X0251434Y0062550D02*
X0251502Y0062552D01*
X0251571Y0062558D01*
X0251638Y0062567D01*
X0251705Y0062581D01*
X0251771Y0062598D01*
X0251837Y0062619D01*
X0251900Y0062643D01*
X0251963Y0062671D01*
X0252023Y0062703D01*
X0252082Y0062738D01*
X0252139Y0062776D01*
X0252194Y0062817D01*
X0252246Y0062862D01*
X0252295Y0062909D01*
X0252342Y0062959D01*
X0252386Y0063011D01*
X0252427Y0063066D01*
X0252464Y0063123D01*
X0252499Y0063182D01*
X0252530Y0063243D01*
X0252557Y0063306D01*
X0252581Y0063370D01*
X0251434Y0062550D02*
X0251366Y0062552D01*
X0251297Y0062558D01*
X0251230Y0062567D01*
X0251163Y0062581D01*
X0251097Y0062598D01*
X0251031Y0062619D01*
X0250968Y0062643D01*
X0250905Y0062671D01*
X0250845Y0062703D01*
X0250786Y0062738D01*
X0250729Y0062776D01*
X0250674Y0062817D01*
X0250622Y0062862D01*
X0250573Y0062909D01*
X0250526Y0062959D01*
X0250482Y0063011D01*
X0250441Y0063066D01*
X0250404Y0063123D01*
X0250369Y0063182D01*
X0250338Y0063243D01*
X0250311Y0063306D01*
X0250287Y0063370D01*
X0255661Y0062550D02*
X0258283Y0066483D01*
X0255661Y0066483D02*
X0258283Y0062550D01*
D11*
X0078318Y0062540D02*
X0075567Y0061400D01*
X0242457Y0061400D01*
X0241991Y0061867D01*
X0241991Y0063233D01*
X0242957Y0064200D01*
X0243630Y0064200D01*
X0243630Y0068359D01*
X0243564Y0068947D01*
X0243630Y0069029D01*
X0243630Y0069133D01*
X0244048Y0069552D01*
X0244418Y0070014D01*
X0244522Y0070026D01*
X0244596Y0070100D01*
X0245188Y0070100D01*
X0245777Y0070165D01*
X0245858Y0070100D01*
X0245963Y0070100D01*
X0246382Y0069681D01*
X0248483Y0068000D01*
X0248510Y0067753D01*
X0248537Y0067806D01*
X0248558Y0068000D01*
X0248678Y0068096D01*
X0248759Y0068262D01*
X0249023Y0069034D01*
X0249023Y0069034D01*
X0249023Y0069034D01*
X0250516Y0070100D01*
X0252351Y0070100D01*
X0253844Y0069034D01*
X0253844Y0069034D01*
X0254109Y0068262D01*
X0254414Y0067635D01*
X0255315Y0068235D01*
X0256655Y0067967D01*
X0256972Y0067491D01*
X0257290Y0067967D01*
X0258630Y0068235D01*
X0259767Y0067477D01*
X0260035Y0066137D01*
X0258955Y0064517D01*
X0260035Y0062897D01*
X0259767Y0061556D01*
X0259533Y0061400D01*
X0266100Y0061400D01*
X0263349Y0062540D01*
X0263349Y0062540D01*
X0260873Y0065015D01*
X0260873Y0065015D01*
X0259533Y0068250D01*
X0259533Y0071750D01*
X0260873Y0074985D01*
X0260873Y0074985D01*
X0263349Y0077460D01*
X0263349Y0077460D01*
X0266583Y0078800D01*
X0270084Y0078800D01*
X0273318Y0077460D01*
X0273318Y0077460D01*
X0275794Y0074985D01*
X0275794Y0074985D01*
X0276933Y0072233D01*
X0276933Y0157489D01*
X0276245Y0156800D01*
X0275113Y0156800D01*
X0266733Y0148420D01*
X0266733Y0129711D01*
X0267533Y0128911D01*
X0267533Y0127089D01*
X0266245Y0125800D01*
X0264422Y0125800D01*
X0263133Y0127089D01*
X0263133Y0128911D01*
X0263933Y0129711D01*
X0263933Y0149580D01*
X0264753Y0150400D01*
X0273133Y0158780D01*
X0273133Y0159911D01*
X0274422Y0161200D01*
X0276245Y0161200D01*
X0276933Y0160511D01*
X0276933Y0182767D01*
X0275794Y0180015D01*
X0275794Y0180015D01*
X0273318Y0177540D01*
X0273318Y0177540D01*
X0270084Y0176200D01*
X0266583Y0176200D01*
X0263349Y0177540D01*
X0263349Y0177540D01*
X0260873Y0180015D01*
X0260873Y0180015D01*
X0259533Y0183250D01*
X0259533Y0186750D01*
X0260873Y0189985D01*
X0260873Y0189985D01*
X0263349Y0192460D01*
X0266100Y0193600D01*
X0075567Y0193600D01*
X0078318Y0192460D01*
X0078318Y0192460D01*
X0080794Y0189985D01*
X0080794Y0189985D01*
X0082133Y0186750D01*
X0082133Y0183250D01*
X0080794Y0180015D01*
X0080794Y0180015D01*
X0078318Y0177540D01*
X0078318Y0177540D01*
X0075084Y0176200D01*
X0075084Y0176200D01*
X0073955Y0176200D01*
X0071583Y0176200D01*
X0068349Y0177540D01*
X0068349Y0177540D01*
X0065873Y0180015D01*
X0065873Y0180015D01*
X0064733Y0182767D01*
X0064733Y0072233D01*
X0065873Y0074985D01*
X0065873Y0074985D01*
X0068349Y0077460D01*
X0068349Y0077460D01*
X0071583Y0078800D01*
X0075084Y0078800D01*
X0078318Y0077460D01*
X0078318Y0077460D01*
X0080794Y0074985D01*
X0080794Y0074985D01*
X0082133Y0071750D01*
X0082133Y0068250D01*
X0080794Y0065015D01*
X0080794Y0065015D01*
X0078318Y0062540D01*
X0078318Y0062540D01*
X0077966Y0062394D02*
X0241991Y0062394D01*
X0241991Y0062993D02*
X0078771Y0062993D01*
X0079369Y0063591D02*
X0242348Y0063591D01*
X0242947Y0064190D02*
X0079968Y0064190D01*
X0080566Y0064788D02*
X0243630Y0064788D01*
X0243630Y0065387D02*
X0080947Y0065387D01*
X0081195Y0065985D02*
X0243630Y0065985D01*
X0243630Y0066584D02*
X0081443Y0066584D01*
X0081691Y0067182D02*
X0209040Y0067182D01*
X0209422Y0066800D02*
X0211245Y0066800D01*
X0212533Y0068089D01*
X0212533Y0069220D01*
X0218913Y0075600D01*
X0218913Y0075600D01*
X0219733Y0076420D01*
X0219733Y0119289D01*
X0220533Y0120089D01*
X0220533Y0121911D01*
X0219245Y0123200D01*
X0217422Y0123200D01*
X0216133Y0121911D01*
X0216133Y0120089D01*
X0216933Y0119289D01*
X0216933Y0077580D01*
X0210553Y0071200D01*
X0209422Y0071200D01*
X0208133Y0069911D01*
X0208133Y0068089D01*
X0209422Y0066800D01*
X0208441Y0067781D02*
X0081939Y0067781D01*
X0082133Y0068379D02*
X0208133Y0068379D01*
X0208133Y0068978D02*
X0082133Y0068978D01*
X0082133Y0069576D02*
X0208133Y0069576D01*
X0208397Y0070175D02*
X0082133Y0070175D01*
X0082133Y0070773D02*
X0208995Y0070773D01*
X0210725Y0071372D02*
X0082133Y0071372D01*
X0082042Y0071970D02*
X0211324Y0071970D01*
X0211922Y0072569D02*
X0081794Y0072569D01*
X0081546Y0073167D02*
X0212521Y0073167D01*
X0213119Y0073766D02*
X0081299Y0073766D01*
X0081051Y0074364D02*
X0213718Y0074364D01*
X0214316Y0074963D02*
X0080803Y0074963D01*
X0080217Y0075561D02*
X0214915Y0075561D01*
X0215513Y0076160D02*
X0079619Y0076160D01*
X0079020Y0076758D02*
X0216112Y0076758D01*
X0216710Y0077357D02*
X0078422Y0077357D01*
X0077123Y0077955D02*
X0216933Y0077955D01*
X0216933Y0078554D02*
X0075678Y0078554D01*
X0070989Y0078554D02*
X0064733Y0078554D01*
X0064733Y0079152D02*
X0216933Y0079152D01*
X0216933Y0079751D02*
X0064733Y0079751D01*
X0064733Y0080349D02*
X0216933Y0080349D01*
X0216933Y0080948D02*
X0064733Y0080948D01*
X0064733Y0081546D02*
X0216933Y0081546D01*
X0216933Y0082145D02*
X0165590Y0082145D01*
X0165245Y0081800D02*
X0166533Y0083089D01*
X0166533Y0084911D01*
X0165733Y0085711D01*
X0165733Y0114420D01*
X0210113Y0158800D01*
X0211245Y0158800D01*
X0212533Y0160089D01*
X0212533Y0161911D01*
X0211245Y0163200D01*
X0209422Y0163200D01*
X0208133Y0161911D01*
X0208133Y0160780D01*
X0163753Y0116400D01*
X0162933Y0115580D01*
X0162933Y0085711D01*
X0162133Y0084911D01*
X0162133Y0083089D01*
X0163422Y0081800D01*
X0165245Y0081800D01*
X0166188Y0082743D02*
X0216933Y0082743D01*
X0216933Y0083342D02*
X0166533Y0083342D01*
X0166533Y0083940D02*
X0216933Y0083940D01*
X0216933Y0084539D02*
X0166533Y0084539D01*
X0166307Y0085137D02*
X0216933Y0085137D01*
X0216933Y0085736D02*
X0165733Y0085736D01*
X0165733Y0086334D02*
X0216933Y0086334D01*
X0216933Y0086933D02*
X0165733Y0086933D01*
X0165733Y0087532D02*
X0216933Y0087532D01*
X0216933Y0088130D02*
X0165733Y0088130D01*
X0165733Y0088729D02*
X0216933Y0088729D01*
X0216933Y0089327D02*
X0165733Y0089327D01*
X0165733Y0089926D02*
X0216933Y0089926D01*
X0216933Y0090524D02*
X0165733Y0090524D01*
X0165733Y0091123D02*
X0216933Y0091123D01*
X0216933Y0091721D02*
X0165733Y0091721D01*
X0165733Y0092320D02*
X0216933Y0092320D01*
X0216933Y0092918D02*
X0165733Y0092918D01*
X0165733Y0093517D02*
X0216933Y0093517D01*
X0216933Y0094115D02*
X0165733Y0094115D01*
X0165733Y0094714D02*
X0216933Y0094714D01*
X0216933Y0095312D02*
X0165733Y0095312D01*
X0165733Y0095911D02*
X0216933Y0095911D01*
X0216933Y0096509D02*
X0165733Y0096509D01*
X0165733Y0097108D02*
X0216933Y0097108D01*
X0216933Y0097706D02*
X0165733Y0097706D01*
X0165733Y0098305D02*
X0216933Y0098305D01*
X0216933Y0098903D02*
X0165733Y0098903D01*
X0165733Y0099502D02*
X0216933Y0099502D01*
X0216933Y0100100D02*
X0165733Y0100100D01*
X0165733Y0100699D02*
X0216933Y0100699D01*
X0216933Y0101297D02*
X0165733Y0101297D01*
X0165733Y0101896D02*
X0216933Y0101896D01*
X0216933Y0102494D02*
X0165733Y0102494D01*
X0165733Y0103093D02*
X0216933Y0103093D01*
X0216933Y0103691D02*
X0165733Y0103691D01*
X0165733Y0104290D02*
X0216933Y0104290D01*
X0216933Y0104888D02*
X0165733Y0104888D01*
X0165733Y0105487D02*
X0216933Y0105487D01*
X0216933Y0106085D02*
X0189530Y0106085D01*
X0189245Y0105800D02*
X0190533Y0107089D01*
X0190533Y0108220D01*
X0193733Y0111420D01*
X0193733Y0135289D01*
X0194533Y0136089D01*
X0194533Y0137911D01*
X0193245Y0139200D01*
X0191422Y0139200D01*
X0190133Y0137911D01*
X0190133Y0136089D01*
X0190933Y0135289D01*
X0190933Y0112580D01*
X0188553Y0110200D01*
X0187422Y0110200D01*
X0186133Y0108911D01*
X0186133Y0107089D01*
X0187422Y0105800D01*
X0189245Y0105800D01*
X0190128Y0106684D02*
X0216933Y0106684D01*
X0216933Y0107282D02*
X0190533Y0107282D01*
X0190533Y0107881D02*
X0216933Y0107881D01*
X0216933Y0108479D02*
X0190793Y0108479D01*
X0191391Y0109078D02*
X0216933Y0109078D01*
X0216933Y0109676D02*
X0191990Y0109676D01*
X0192588Y0110275D02*
X0216933Y0110275D01*
X0216933Y0110873D02*
X0193187Y0110873D01*
X0193733Y0111472D02*
X0216933Y0111472D01*
X0216933Y0112070D02*
X0193733Y0112070D01*
X0193733Y0112669D02*
X0216933Y0112669D01*
X0216933Y0113268D02*
X0193733Y0113268D01*
X0193733Y0113866D02*
X0216933Y0113866D01*
X0216933Y0114465D02*
X0193733Y0114465D01*
X0193733Y0115063D02*
X0216933Y0115063D01*
X0216933Y0115662D02*
X0193733Y0115662D01*
X0193733Y0116260D02*
X0216933Y0116260D01*
X0216933Y0116859D02*
X0193733Y0116859D01*
X0193733Y0117457D02*
X0216933Y0117457D01*
X0216933Y0118056D02*
X0193733Y0118056D01*
X0193733Y0118654D02*
X0216933Y0118654D01*
X0216933Y0119253D02*
X0193733Y0119253D01*
X0193733Y0119851D02*
X0216371Y0119851D01*
X0216133Y0120450D02*
X0193733Y0120450D01*
X0193733Y0121048D02*
X0216133Y0121048D01*
X0216133Y0121647D02*
X0193733Y0121647D01*
X0193733Y0122245D02*
X0216467Y0122245D01*
X0217066Y0122844D02*
X0193733Y0122844D01*
X0193733Y0123442D02*
X0232911Y0123442D01*
X0232313Y0124041D02*
X0193733Y0124041D01*
X0193733Y0124639D02*
X0231714Y0124639D01*
X0231116Y0125238D02*
X0193733Y0125238D01*
X0193733Y0125836D02*
X0230517Y0125836D01*
X0229919Y0126435D02*
X0193733Y0126435D01*
X0193733Y0127033D02*
X0229320Y0127033D01*
X0228722Y0127632D02*
X0193733Y0127632D01*
X0193733Y0128230D02*
X0228123Y0128230D01*
X0227753Y0128600D02*
X0236933Y0119420D01*
X0236933Y0081711D01*
X0236133Y0080911D01*
X0236133Y0079089D01*
X0237422Y0077800D01*
X0239245Y0077800D01*
X0240533Y0079089D01*
X0240533Y0080911D01*
X0239733Y0081711D01*
X0239733Y0120580D01*
X0238913Y0121400D01*
X0228913Y0131400D01*
X0208913Y0131400D01*
X0203533Y0136780D01*
X0203533Y0137911D01*
X0202245Y0139200D01*
X0200422Y0139200D01*
X0199133Y0137911D01*
X0199133Y0136089D01*
X0200422Y0134800D01*
X0201553Y0134800D01*
X0206933Y0129420D01*
X0207753Y0128600D01*
X0227753Y0128600D01*
X0228333Y0130000D02*
X0238333Y0120000D01*
X0238333Y0080000D01*
X0236768Y0081546D02*
X0219733Y0081546D01*
X0219733Y0080948D02*
X0236170Y0080948D01*
X0236133Y0080349D02*
X0219733Y0080349D01*
X0219733Y0079751D02*
X0236133Y0079751D01*
X0236133Y0079152D02*
X0219733Y0079152D01*
X0219733Y0078554D02*
X0236668Y0078554D01*
X0237267Y0077955D02*
X0219733Y0077955D01*
X0219733Y0077357D02*
X0263245Y0077357D01*
X0262647Y0076758D02*
X0219733Y0076758D01*
X0219473Y0076160D02*
X0262048Y0076160D01*
X0261450Y0075561D02*
X0218875Y0075561D01*
X0218276Y0074963D02*
X0260864Y0074963D01*
X0260616Y0074364D02*
X0217677Y0074364D01*
X0217079Y0073766D02*
X0260368Y0073766D01*
X0260120Y0073167D02*
X0216480Y0073167D01*
X0215882Y0072569D02*
X0259872Y0072569D01*
X0259624Y0071970D02*
X0215283Y0071970D01*
X0214685Y0071372D02*
X0259533Y0071372D01*
X0259533Y0070773D02*
X0214086Y0070773D01*
X0213488Y0070175D02*
X0259533Y0070175D01*
X0259533Y0069576D02*
X0253084Y0069576D01*
X0253863Y0068978D02*
X0259533Y0068978D01*
X0259533Y0068379D02*
X0254068Y0068379D01*
X0254343Y0067781D02*
X0254633Y0067781D01*
X0256779Y0067781D02*
X0257165Y0067781D01*
X0259312Y0067781D02*
X0259728Y0067781D01*
X0259826Y0067182D02*
X0259975Y0067182D01*
X0259946Y0066584D02*
X0260223Y0066584D01*
X0260471Y0065985D02*
X0259934Y0065985D01*
X0259535Y0065387D02*
X0260719Y0065387D01*
X0261100Y0064788D02*
X0259136Y0064788D01*
X0259173Y0064190D02*
X0261699Y0064190D01*
X0262297Y0063591D02*
X0259572Y0063591D01*
X0259971Y0062993D02*
X0262896Y0062993D01*
X0263700Y0062394D02*
X0259935Y0062394D01*
X0259815Y0061796D02*
X0265145Y0061796D01*
X0249783Y0069576D02*
X0246513Y0069576D01*
X0247261Y0068978D02*
X0249004Y0068978D01*
X0248799Y0068379D02*
X0248009Y0068379D01*
X0248507Y0067781D02*
X0248524Y0067781D01*
X0244068Y0069576D02*
X0212889Y0069576D01*
X0212533Y0068978D02*
X0243589Y0068978D01*
X0243627Y0068379D02*
X0212533Y0068379D01*
X0212225Y0067781D02*
X0243630Y0067781D01*
X0243630Y0067182D02*
X0211627Y0067182D01*
X0210333Y0069000D02*
X0218333Y0077000D01*
X0218333Y0121000D01*
X0220533Y0121048D02*
X0235305Y0121048D01*
X0234707Y0121647D02*
X0220533Y0121647D01*
X0220199Y0122245D02*
X0234108Y0122245D01*
X0233510Y0122844D02*
X0219601Y0122844D01*
X0220533Y0120450D02*
X0235904Y0120450D01*
X0236502Y0119851D02*
X0220296Y0119851D01*
X0219733Y0119253D02*
X0236933Y0119253D01*
X0236933Y0118654D02*
X0219733Y0118654D01*
X0219733Y0118056D02*
X0236933Y0118056D01*
X0236933Y0117457D02*
X0219733Y0117457D01*
X0219733Y0116859D02*
X0236933Y0116859D01*
X0236933Y0116260D02*
X0219733Y0116260D01*
X0219733Y0115662D02*
X0236933Y0115662D01*
X0236933Y0115063D02*
X0219733Y0115063D01*
X0219733Y0114465D02*
X0236933Y0114465D01*
X0236933Y0113866D02*
X0219733Y0113866D01*
X0219733Y0113268D02*
X0236933Y0113268D01*
X0236933Y0112669D02*
X0219733Y0112669D01*
X0219733Y0112070D02*
X0236933Y0112070D01*
X0236933Y0111472D02*
X0219733Y0111472D01*
X0219733Y0110873D02*
X0236933Y0110873D01*
X0236933Y0110275D02*
X0219733Y0110275D01*
X0219733Y0109676D02*
X0236933Y0109676D01*
X0236933Y0109078D02*
X0219733Y0109078D01*
X0219733Y0108479D02*
X0236933Y0108479D01*
X0236933Y0107881D02*
X0219733Y0107881D01*
X0219733Y0107282D02*
X0236933Y0107282D01*
X0236933Y0106684D02*
X0219733Y0106684D01*
X0219733Y0106085D02*
X0236933Y0106085D01*
X0236933Y0105487D02*
X0219733Y0105487D01*
X0219733Y0104888D02*
X0236933Y0104888D01*
X0236933Y0104290D02*
X0219733Y0104290D01*
X0219733Y0103691D02*
X0236933Y0103691D01*
X0236933Y0103093D02*
X0219733Y0103093D01*
X0219733Y0102494D02*
X0236933Y0102494D01*
X0236933Y0101896D02*
X0219733Y0101896D01*
X0219733Y0101297D02*
X0236933Y0101297D01*
X0236933Y0100699D02*
X0219733Y0100699D01*
X0219733Y0100100D02*
X0236933Y0100100D01*
X0236933Y0099502D02*
X0219733Y0099502D01*
X0219733Y0098903D02*
X0236933Y0098903D01*
X0236933Y0098305D02*
X0219733Y0098305D01*
X0219733Y0097706D02*
X0236933Y0097706D01*
X0236933Y0097108D02*
X0219733Y0097108D01*
X0219733Y0096509D02*
X0236933Y0096509D01*
X0236933Y0095911D02*
X0219733Y0095911D01*
X0219733Y0095312D02*
X0236933Y0095312D01*
X0236933Y0094714D02*
X0219733Y0094714D01*
X0219733Y0094115D02*
X0236933Y0094115D01*
X0236933Y0093517D02*
X0219733Y0093517D01*
X0219733Y0092918D02*
X0236933Y0092918D01*
X0236933Y0092320D02*
X0219733Y0092320D01*
X0219733Y0091721D02*
X0236933Y0091721D01*
X0236933Y0091123D02*
X0219733Y0091123D01*
X0219733Y0090524D02*
X0236933Y0090524D01*
X0236933Y0089926D02*
X0219733Y0089926D01*
X0219733Y0089327D02*
X0236933Y0089327D01*
X0236933Y0088729D02*
X0219733Y0088729D01*
X0219733Y0088130D02*
X0236933Y0088130D01*
X0236933Y0087532D02*
X0219733Y0087532D01*
X0219733Y0086933D02*
X0236933Y0086933D01*
X0236933Y0086334D02*
X0219733Y0086334D01*
X0219733Y0085736D02*
X0236933Y0085736D01*
X0236933Y0085137D02*
X0219733Y0085137D01*
X0219733Y0084539D02*
X0236933Y0084539D01*
X0236933Y0083940D02*
X0219733Y0083940D01*
X0219733Y0083342D02*
X0236933Y0083342D01*
X0236933Y0082743D02*
X0219733Y0082743D01*
X0219733Y0082145D02*
X0236933Y0082145D01*
X0239733Y0082145D02*
X0276933Y0082145D01*
X0276933Y0082743D02*
X0239733Y0082743D01*
X0239733Y0083342D02*
X0276933Y0083342D01*
X0276933Y0083940D02*
X0239733Y0083940D01*
X0239733Y0084539D02*
X0276933Y0084539D01*
X0276933Y0085137D02*
X0239733Y0085137D01*
X0239733Y0085736D02*
X0276933Y0085736D01*
X0276933Y0086334D02*
X0239733Y0086334D01*
X0239733Y0086933D02*
X0276933Y0086933D01*
X0276933Y0087532D02*
X0239733Y0087532D01*
X0239733Y0088130D02*
X0276933Y0088130D01*
X0276933Y0088729D02*
X0239733Y0088729D01*
X0239733Y0089327D02*
X0276933Y0089327D01*
X0276933Y0089926D02*
X0239733Y0089926D01*
X0239733Y0090524D02*
X0276933Y0090524D01*
X0276933Y0091123D02*
X0239733Y0091123D01*
X0239733Y0091721D02*
X0276933Y0091721D01*
X0276933Y0092320D02*
X0239733Y0092320D01*
X0239733Y0092918D02*
X0276933Y0092918D01*
X0276933Y0093517D02*
X0239733Y0093517D01*
X0239733Y0094115D02*
X0276933Y0094115D01*
X0276933Y0094714D02*
X0239733Y0094714D01*
X0239733Y0095312D02*
X0276933Y0095312D01*
X0276933Y0095911D02*
X0239733Y0095911D01*
X0239733Y0096509D02*
X0276933Y0096509D01*
X0276933Y0097108D02*
X0239733Y0097108D01*
X0239733Y0097706D02*
X0276933Y0097706D01*
X0276933Y0098305D02*
X0239733Y0098305D01*
X0239733Y0098903D02*
X0276933Y0098903D01*
X0276933Y0099502D02*
X0239733Y0099502D01*
X0239733Y0100100D02*
X0276933Y0100100D01*
X0276933Y0100699D02*
X0239733Y0100699D01*
X0239733Y0101297D02*
X0276933Y0101297D01*
X0276933Y0101896D02*
X0239733Y0101896D01*
X0239733Y0102494D02*
X0276933Y0102494D01*
X0276933Y0103093D02*
X0239733Y0103093D01*
X0239733Y0103691D02*
X0276933Y0103691D01*
X0276933Y0104290D02*
X0239733Y0104290D01*
X0239733Y0104888D02*
X0276933Y0104888D01*
X0276933Y0105487D02*
X0239733Y0105487D01*
X0239733Y0106085D02*
X0276933Y0106085D01*
X0276933Y0106684D02*
X0239733Y0106684D01*
X0239733Y0107282D02*
X0276933Y0107282D01*
X0276933Y0107881D02*
X0239733Y0107881D01*
X0239733Y0108479D02*
X0276933Y0108479D01*
X0276933Y0109078D02*
X0239733Y0109078D01*
X0239733Y0109676D02*
X0276933Y0109676D01*
X0276933Y0110275D02*
X0239733Y0110275D01*
X0239733Y0110873D02*
X0276933Y0110873D01*
X0276933Y0111472D02*
X0239733Y0111472D01*
X0239733Y0112070D02*
X0276933Y0112070D01*
X0276933Y0112669D02*
X0239733Y0112669D01*
X0239733Y0113268D02*
X0276933Y0113268D01*
X0276933Y0113866D02*
X0239733Y0113866D01*
X0239733Y0114465D02*
X0276933Y0114465D01*
X0276933Y0115063D02*
X0239733Y0115063D01*
X0239733Y0115662D02*
X0276933Y0115662D01*
X0276933Y0116260D02*
X0239733Y0116260D01*
X0239733Y0116859D02*
X0276933Y0116859D01*
X0276933Y0117457D02*
X0239733Y0117457D01*
X0239733Y0118056D02*
X0276933Y0118056D01*
X0276933Y0118654D02*
X0239733Y0118654D01*
X0239733Y0119253D02*
X0276933Y0119253D01*
X0276933Y0119851D02*
X0239733Y0119851D01*
X0239733Y0120450D02*
X0276933Y0120450D01*
X0276933Y0121048D02*
X0239265Y0121048D01*
X0238667Y0121647D02*
X0276933Y0121647D01*
X0276933Y0122245D02*
X0238068Y0122245D01*
X0237470Y0122844D02*
X0276933Y0122844D01*
X0276933Y0123442D02*
X0236871Y0123442D01*
X0236273Y0124041D02*
X0276933Y0124041D01*
X0276933Y0124639D02*
X0235674Y0124639D01*
X0235075Y0125238D02*
X0276933Y0125238D01*
X0276933Y0125836D02*
X0266281Y0125836D01*
X0266879Y0126435D02*
X0276933Y0126435D01*
X0276933Y0127033D02*
X0267478Y0127033D01*
X0267533Y0127632D02*
X0276933Y0127632D01*
X0276933Y0128230D02*
X0267533Y0128230D01*
X0267533Y0128829D02*
X0276933Y0128829D01*
X0276933Y0129427D02*
X0267017Y0129427D01*
X0266733Y0130026D02*
X0276933Y0130026D01*
X0276933Y0130624D02*
X0266733Y0130624D01*
X0266733Y0131223D02*
X0276933Y0131223D01*
X0276933Y0131821D02*
X0266733Y0131821D01*
X0266733Y0132420D02*
X0276933Y0132420D01*
X0276933Y0133018D02*
X0266733Y0133018D01*
X0266733Y0133617D02*
X0276933Y0133617D01*
X0276933Y0134215D02*
X0266733Y0134215D01*
X0266733Y0134814D02*
X0276933Y0134814D01*
X0276933Y0135412D02*
X0266733Y0135412D01*
X0266733Y0136011D02*
X0276933Y0136011D01*
X0276933Y0136609D02*
X0266733Y0136609D01*
X0266733Y0137208D02*
X0276933Y0137208D01*
X0276933Y0137806D02*
X0266733Y0137806D01*
X0266733Y0138405D02*
X0276933Y0138405D01*
X0276933Y0139003D02*
X0266733Y0139003D01*
X0266733Y0139602D02*
X0276933Y0139602D01*
X0276933Y0140201D02*
X0266733Y0140201D01*
X0266733Y0140799D02*
X0276933Y0140799D01*
X0276933Y0141398D02*
X0266733Y0141398D01*
X0266733Y0141996D02*
X0276933Y0141996D01*
X0276933Y0142595D02*
X0266733Y0142595D01*
X0266733Y0143193D02*
X0276933Y0143193D01*
X0276933Y0143792D02*
X0266733Y0143792D01*
X0266733Y0144390D02*
X0276933Y0144390D01*
X0276933Y0144989D02*
X0266733Y0144989D01*
X0266733Y0145587D02*
X0276933Y0145587D01*
X0276933Y0146186D02*
X0266733Y0146186D01*
X0266733Y0146784D02*
X0276933Y0146784D01*
X0276933Y0147383D02*
X0266733Y0147383D01*
X0266733Y0147981D02*
X0276933Y0147981D01*
X0276933Y0148580D02*
X0266893Y0148580D01*
X0267491Y0149178D02*
X0276933Y0149178D01*
X0276933Y0149777D02*
X0268090Y0149777D01*
X0268688Y0150375D02*
X0276933Y0150375D01*
X0276933Y0150974D02*
X0269287Y0150974D01*
X0269885Y0151572D02*
X0276933Y0151572D01*
X0276933Y0152171D02*
X0270484Y0152171D01*
X0271082Y0152769D02*
X0276933Y0152769D01*
X0276933Y0153368D02*
X0271681Y0153368D01*
X0272280Y0153966D02*
X0276933Y0153966D01*
X0276933Y0154565D02*
X0272878Y0154565D01*
X0273477Y0155163D02*
X0276933Y0155163D01*
X0276933Y0155762D02*
X0274075Y0155762D01*
X0274674Y0156360D02*
X0276933Y0156360D01*
X0276933Y0156959D02*
X0276403Y0156959D01*
X0275333Y0159000D02*
X0265333Y0149000D01*
X0265333Y0128000D01*
X0263787Y0126435D02*
X0233878Y0126435D01*
X0233280Y0127033D02*
X0263189Y0127033D01*
X0263133Y0127632D02*
X0232681Y0127632D01*
X0232083Y0128230D02*
X0263133Y0128230D01*
X0263133Y0128829D02*
X0231484Y0128829D01*
X0230886Y0129427D02*
X0263649Y0129427D01*
X0263933Y0130026D02*
X0230287Y0130026D01*
X0229689Y0130624D02*
X0263933Y0130624D01*
X0263933Y0131223D02*
X0229090Y0131223D01*
X0228333Y0130000D02*
X0208333Y0130000D01*
X0201333Y0137000D01*
X0199810Y0135412D02*
X0193857Y0135412D01*
X0193733Y0134814D02*
X0200408Y0134814D01*
X0199211Y0136011D02*
X0194456Y0136011D01*
X0194533Y0136609D02*
X0199133Y0136609D01*
X0199133Y0137208D02*
X0194533Y0137208D01*
X0194533Y0137806D02*
X0199133Y0137806D01*
X0199627Y0138405D02*
X0194040Y0138405D01*
X0193441Y0139003D02*
X0200226Y0139003D01*
X0202441Y0139003D02*
X0263933Y0139003D01*
X0263933Y0138405D02*
X0203040Y0138405D01*
X0203533Y0137806D02*
X0263933Y0137806D01*
X0263933Y0137208D02*
X0203533Y0137208D01*
X0203704Y0136609D02*
X0263933Y0136609D01*
X0263933Y0136011D02*
X0204302Y0136011D01*
X0204901Y0135412D02*
X0263933Y0135412D01*
X0263933Y0134814D02*
X0205499Y0134814D01*
X0206098Y0134215D02*
X0263933Y0134215D01*
X0263933Y0133617D02*
X0206696Y0133617D01*
X0207295Y0133018D02*
X0263933Y0133018D01*
X0263933Y0132420D02*
X0207893Y0132420D01*
X0208492Y0131821D02*
X0263933Y0131821D01*
X0264386Y0125836D02*
X0234477Y0125836D01*
X0207525Y0128829D02*
X0193733Y0128829D01*
X0193733Y0129427D02*
X0206926Y0129427D01*
X0206328Y0130026D02*
X0193733Y0130026D01*
X0193733Y0130624D02*
X0205729Y0130624D01*
X0205131Y0131223D02*
X0193733Y0131223D01*
X0193733Y0131821D02*
X0204532Y0131821D01*
X0203934Y0132420D02*
X0193733Y0132420D01*
X0193733Y0133018D02*
X0203335Y0133018D01*
X0202737Y0133617D02*
X0193733Y0133617D01*
X0193733Y0134215D02*
X0202138Y0134215D01*
X0192333Y0137000D02*
X0192333Y0112000D01*
X0188333Y0108000D01*
X0186133Y0107881D02*
X0165733Y0107881D01*
X0165733Y0108479D02*
X0186133Y0108479D01*
X0186300Y0109078D02*
X0165733Y0109078D01*
X0165733Y0109676D02*
X0186898Y0109676D01*
X0188628Y0110275D02*
X0165733Y0110275D01*
X0165733Y0110873D02*
X0189227Y0110873D01*
X0189825Y0111472D02*
X0165733Y0111472D01*
X0165733Y0112070D02*
X0190424Y0112070D01*
X0190933Y0112669D02*
X0165733Y0112669D01*
X0165733Y0113268D02*
X0190933Y0113268D01*
X0190933Y0113866D02*
X0165733Y0113866D01*
X0165778Y0114465D02*
X0190933Y0114465D01*
X0190933Y0115063D02*
X0166376Y0115063D01*
X0166975Y0115662D02*
X0190933Y0115662D01*
X0190933Y0116260D02*
X0167573Y0116260D01*
X0168172Y0116859D02*
X0190933Y0116859D01*
X0190933Y0117457D02*
X0168770Y0117457D01*
X0169369Y0118056D02*
X0190933Y0118056D01*
X0190933Y0118654D02*
X0169967Y0118654D01*
X0170566Y0119253D02*
X0190933Y0119253D01*
X0190933Y0119851D02*
X0171164Y0119851D01*
X0171763Y0120450D02*
X0190933Y0120450D01*
X0190933Y0121048D02*
X0172361Y0121048D01*
X0172960Y0121647D02*
X0190933Y0121647D01*
X0190933Y0122245D02*
X0173558Y0122245D01*
X0174157Y0122844D02*
X0190933Y0122844D01*
X0190933Y0123442D02*
X0174755Y0123442D01*
X0175354Y0124041D02*
X0190933Y0124041D01*
X0190933Y0124639D02*
X0175952Y0124639D01*
X0176551Y0125238D02*
X0190933Y0125238D01*
X0190933Y0125836D02*
X0177149Y0125836D01*
X0177748Y0126435D02*
X0190933Y0126435D01*
X0190933Y0127033D02*
X0178346Y0127033D01*
X0178945Y0127632D02*
X0190933Y0127632D01*
X0190933Y0128230D02*
X0179544Y0128230D01*
X0180142Y0128829D02*
X0190933Y0128829D01*
X0190933Y0129427D02*
X0180741Y0129427D01*
X0181339Y0130026D02*
X0190933Y0130026D01*
X0190933Y0130624D02*
X0181938Y0130624D01*
X0182536Y0131223D02*
X0190933Y0131223D01*
X0190933Y0131821D02*
X0183135Y0131821D01*
X0183733Y0132420D02*
X0190933Y0132420D01*
X0190933Y0133018D02*
X0184332Y0133018D01*
X0184930Y0133617D02*
X0190933Y0133617D01*
X0190933Y0134215D02*
X0185529Y0134215D01*
X0186127Y0134814D02*
X0190933Y0134814D01*
X0190810Y0135412D02*
X0186726Y0135412D01*
X0187324Y0136011D02*
X0190211Y0136011D01*
X0190133Y0136609D02*
X0187923Y0136609D01*
X0188521Y0137208D02*
X0190133Y0137208D01*
X0190133Y0137806D02*
X0189120Y0137806D01*
X0189718Y0138405D02*
X0190627Y0138405D01*
X0190317Y0139003D02*
X0191226Y0139003D01*
X0190915Y0139602D02*
X0263933Y0139602D01*
X0263933Y0140201D02*
X0191514Y0140201D01*
X0192112Y0140799D02*
X0263933Y0140799D01*
X0263933Y0141398D02*
X0192711Y0141398D01*
X0193309Y0141996D02*
X0263933Y0141996D01*
X0263933Y0142595D02*
X0193908Y0142595D01*
X0194506Y0143193D02*
X0263933Y0143193D01*
X0263933Y0143792D02*
X0195105Y0143792D01*
X0195703Y0144390D02*
X0263933Y0144390D01*
X0263933Y0144989D02*
X0196302Y0144989D01*
X0196900Y0145587D02*
X0263933Y0145587D01*
X0263933Y0146186D02*
X0197499Y0146186D01*
X0198097Y0146784D02*
X0263933Y0146784D01*
X0263933Y0147383D02*
X0198696Y0147383D01*
X0199294Y0147981D02*
X0263933Y0147981D01*
X0263933Y0148580D02*
X0199893Y0148580D01*
X0200491Y0149178D02*
X0220994Y0149178D01*
X0220480Y0149391D02*
X0222331Y0148624D01*
X0224335Y0148624D01*
X0226187Y0149391D01*
X0227603Y0150808D01*
X0228370Y0152659D01*
X0228370Y0154663D01*
X0227603Y0156515D01*
X0226187Y0157932D01*
X0224335Y0158698D01*
X0222331Y0158698D01*
X0220480Y0157932D01*
X0219063Y0156515D01*
X0218296Y0154663D01*
X0218296Y0152659D01*
X0219063Y0150808D01*
X0220480Y0149391D01*
X0220095Y0149777D02*
X0201090Y0149777D01*
X0201688Y0150375D02*
X0219496Y0150375D01*
X0218995Y0150974D02*
X0202287Y0150974D01*
X0202885Y0151572D02*
X0218747Y0151572D01*
X0218499Y0152171D02*
X0203484Y0152171D01*
X0204082Y0152769D02*
X0218296Y0152769D01*
X0218296Y0153368D02*
X0204681Y0153368D01*
X0205280Y0153966D02*
X0218296Y0153966D01*
X0218296Y0154565D02*
X0205878Y0154565D01*
X0206477Y0155163D02*
X0218503Y0155163D01*
X0218751Y0155762D02*
X0207075Y0155762D01*
X0207674Y0156360D02*
X0218999Y0156360D01*
X0219507Y0156959D02*
X0208272Y0156959D01*
X0208871Y0157557D02*
X0220106Y0157557D01*
X0221022Y0158156D02*
X0209469Y0158156D01*
X0210068Y0158754D02*
X0273108Y0158754D01*
X0273133Y0159353D02*
X0211797Y0159353D01*
X0212396Y0159951D02*
X0273173Y0159951D01*
X0273772Y0160550D02*
X0212533Y0160550D01*
X0212533Y0161148D02*
X0274370Y0161148D01*
X0276296Y0161148D02*
X0276933Y0161148D01*
X0276933Y0160550D02*
X0276895Y0160550D01*
X0276933Y0161747D02*
X0212533Y0161747D01*
X0212099Y0162345D02*
X0276933Y0162345D01*
X0276933Y0162944D02*
X0211501Y0162944D01*
X0211245Y0164800D02*
X0212533Y0166089D01*
X0212533Y0167911D01*
X0211245Y0169200D01*
X0209422Y0169200D01*
X0208133Y0167911D01*
X0208133Y0166780D01*
X0158753Y0117400D01*
X0157933Y0116580D01*
X0157933Y0091711D01*
X0157133Y0090911D01*
X0157133Y0089089D01*
X0158422Y0087800D01*
X0160245Y0087800D01*
X0161533Y0089089D01*
X0161533Y0090911D01*
X0160733Y0091711D01*
X0160733Y0115420D01*
X0210113Y0164800D01*
X0211245Y0164800D01*
X0211783Y0165338D02*
X0276933Y0165338D01*
X0276933Y0165937D02*
X0212381Y0165937D01*
X0212533Y0166535D02*
X0276933Y0166535D01*
X0276933Y0167134D02*
X0212533Y0167134D01*
X0212533Y0167732D02*
X0276933Y0167732D01*
X0276933Y0168331D02*
X0212114Y0168331D01*
X0211516Y0168929D02*
X0276933Y0168929D01*
X0276933Y0169528D02*
X0064733Y0169528D01*
X0064733Y0170126D02*
X0276933Y0170126D01*
X0276933Y0170725D02*
X0064733Y0170725D01*
X0064733Y0171323D02*
X0276933Y0171323D01*
X0276933Y0171922D02*
X0064733Y0171922D01*
X0064733Y0172520D02*
X0276933Y0172520D01*
X0276933Y0173119D02*
X0064733Y0173119D01*
X0064733Y0173717D02*
X0276933Y0173717D01*
X0276933Y0174316D02*
X0064733Y0174316D01*
X0064733Y0174914D02*
X0276933Y0174914D01*
X0276933Y0175513D02*
X0064733Y0175513D01*
X0064733Y0176111D02*
X0276933Y0176111D01*
X0276933Y0176710D02*
X0271314Y0176710D01*
X0272759Y0177308D02*
X0276933Y0177308D01*
X0276933Y0177907D02*
X0273685Y0177907D01*
X0274284Y0178505D02*
X0276933Y0178505D01*
X0276933Y0179104D02*
X0274882Y0179104D01*
X0275481Y0179702D02*
X0276933Y0179702D01*
X0276933Y0180301D02*
X0275912Y0180301D01*
X0276160Y0180899D02*
X0276933Y0180899D01*
X0276933Y0181498D02*
X0276408Y0181498D01*
X0276656Y0182096D02*
X0276933Y0182096D01*
X0276904Y0182695D02*
X0276933Y0182695D01*
X0265352Y0176710D02*
X0225606Y0176710D01*
X0226187Y0176950D02*
X0224335Y0176183D01*
X0222331Y0176183D01*
X0220480Y0176950D01*
X0219063Y0178367D01*
X0218296Y0180219D01*
X0218296Y0182222D01*
X0219063Y0184074D01*
X0220480Y0185491D01*
X0222331Y0186257D01*
X0224335Y0186257D01*
X0226187Y0185491D01*
X0227603Y0184074D01*
X0228370Y0182222D01*
X0228370Y0180219D01*
X0227603Y0178367D01*
X0226187Y0176950D01*
X0226544Y0177308D02*
X0263907Y0177308D01*
X0262982Y0177907D02*
X0227143Y0177907D01*
X0227661Y0178505D02*
X0262383Y0178505D01*
X0261784Y0179104D02*
X0227909Y0179104D01*
X0228156Y0179702D02*
X0261186Y0179702D01*
X0260755Y0180301D02*
X0228370Y0180301D01*
X0228370Y0180899D02*
X0260507Y0180899D01*
X0260259Y0181498D02*
X0228370Y0181498D01*
X0228370Y0182096D02*
X0260011Y0182096D01*
X0259763Y0182695D02*
X0228175Y0182695D01*
X0227927Y0183293D02*
X0259533Y0183293D01*
X0259533Y0183892D02*
X0227679Y0183892D01*
X0227187Y0184490D02*
X0259533Y0184490D01*
X0259533Y0185089D02*
X0226588Y0185089D01*
X0225712Y0185687D02*
X0259533Y0185687D01*
X0259533Y0186286D02*
X0082133Y0186286D01*
X0082133Y0185687D02*
X0170955Y0185687D01*
X0170480Y0185491D02*
X0169063Y0184074D01*
X0168296Y0182222D01*
X0168296Y0180219D01*
X0169063Y0178367D01*
X0170480Y0176950D01*
X0172331Y0176183D01*
X0174335Y0176183D01*
X0176187Y0176950D01*
X0177603Y0178367D01*
X0178370Y0180219D01*
X0178370Y0182222D01*
X0177603Y0184074D01*
X0176187Y0185491D01*
X0174335Y0186257D01*
X0172331Y0186257D01*
X0170480Y0185491D01*
X0170078Y0185089D02*
X0082133Y0185089D01*
X0082133Y0184490D02*
X0169480Y0184490D01*
X0168988Y0183892D02*
X0082133Y0183892D01*
X0082133Y0183293D02*
X0168740Y0183293D01*
X0168492Y0182695D02*
X0081904Y0182695D01*
X0081656Y0182096D02*
X0168296Y0182096D01*
X0168296Y0181498D02*
X0081408Y0181498D01*
X0081160Y0180899D02*
X0168296Y0180899D01*
X0168296Y0180301D02*
X0080912Y0180301D01*
X0080481Y0179702D02*
X0168510Y0179702D01*
X0168758Y0179104D02*
X0079882Y0179104D01*
X0079284Y0178505D02*
X0169006Y0178505D01*
X0169524Y0177907D02*
X0078685Y0177907D01*
X0077759Y0177308D02*
X0170122Y0177308D01*
X0171061Y0176710D02*
X0076314Y0176710D01*
X0070352Y0176710D02*
X0064733Y0176710D01*
X0064733Y0177308D02*
X0068907Y0177308D01*
X0067982Y0177907D02*
X0064733Y0177907D01*
X0064733Y0178505D02*
X0067383Y0178505D01*
X0066784Y0179104D02*
X0064733Y0179104D01*
X0064733Y0179702D02*
X0066186Y0179702D01*
X0065755Y0180301D02*
X0064733Y0180301D01*
X0064733Y0180899D02*
X0065507Y0180899D01*
X0065259Y0181498D02*
X0064733Y0181498D01*
X0064733Y0182096D02*
X0065011Y0182096D01*
X0064763Y0182695D02*
X0064733Y0182695D01*
X0079106Y0191672D02*
X0262561Y0191672D01*
X0261962Y0191074D02*
X0079704Y0191074D01*
X0080303Y0190475D02*
X0261364Y0190475D01*
X0260828Y0189877D02*
X0080838Y0189877D01*
X0081086Y0189278D02*
X0260580Y0189278D01*
X0260333Y0188680D02*
X0081334Y0188680D01*
X0081582Y0188081D02*
X0260085Y0188081D01*
X0259837Y0187483D02*
X0081830Y0187483D01*
X0082078Y0186884D02*
X0259589Y0186884D01*
X0263159Y0192271D02*
X0078507Y0192271D01*
X0077330Y0192870D02*
X0264337Y0192870D01*
X0265781Y0193468D02*
X0075885Y0193468D01*
X0064733Y0168929D02*
X0209151Y0168929D01*
X0208553Y0168331D02*
X0064733Y0168331D01*
X0064733Y0167732D02*
X0208133Y0167732D01*
X0208133Y0167134D02*
X0064733Y0167134D01*
X0064733Y0166535D02*
X0207888Y0166535D01*
X0207290Y0165937D02*
X0064733Y0165937D01*
X0064733Y0165338D02*
X0206691Y0165338D01*
X0206093Y0164739D02*
X0064733Y0164739D01*
X0064733Y0164141D02*
X0205494Y0164141D01*
X0204896Y0163542D02*
X0064733Y0163542D01*
X0064733Y0162944D02*
X0204297Y0162944D01*
X0203699Y0162345D02*
X0064733Y0162345D01*
X0064733Y0161747D02*
X0203100Y0161747D01*
X0202502Y0161148D02*
X0064733Y0161148D01*
X0064733Y0160550D02*
X0201903Y0160550D01*
X0201305Y0159951D02*
X0064733Y0159951D01*
X0064733Y0159353D02*
X0200706Y0159353D01*
X0200108Y0158754D02*
X0064733Y0158754D01*
X0064733Y0158156D02*
X0171022Y0158156D01*
X0170480Y0157932D02*
X0169063Y0156515D01*
X0168296Y0154663D01*
X0168296Y0152659D01*
X0169063Y0150808D01*
X0170480Y0149391D01*
X0172331Y0148624D01*
X0174335Y0148624D01*
X0176187Y0149391D01*
X0177603Y0150808D01*
X0178370Y0152659D01*
X0178370Y0154663D01*
X0177603Y0156515D01*
X0176187Y0157932D01*
X0174335Y0158698D01*
X0172331Y0158698D01*
X0170480Y0157932D01*
X0170106Y0157557D02*
X0064733Y0157557D01*
X0064733Y0156959D02*
X0082181Y0156959D01*
X0082422Y0157200D02*
X0081133Y0155911D01*
X0081133Y0154089D01*
X0082422Y0152800D01*
X0083553Y0152800D01*
X0118933Y0117420D01*
X0118933Y0115711D01*
X0118133Y0114911D01*
X0118133Y0113089D01*
X0119422Y0111800D01*
X0121245Y0111800D01*
X0122533Y0113089D01*
X0122533Y0114911D01*
X0121733Y0115711D01*
X0121733Y0118580D01*
X0120913Y0119400D01*
X0085533Y0154780D01*
X0085533Y0155911D01*
X0084245Y0157200D01*
X0082422Y0157200D01*
X0081582Y0156360D02*
X0064733Y0156360D01*
X0064733Y0155762D02*
X0081133Y0155762D01*
X0081133Y0155163D02*
X0064733Y0155163D01*
X0064733Y0154565D02*
X0081133Y0154565D01*
X0081256Y0153966D02*
X0064733Y0153966D01*
X0064733Y0153368D02*
X0081854Y0153368D01*
X0083584Y0152769D02*
X0064733Y0152769D01*
X0064733Y0152171D02*
X0084183Y0152171D01*
X0084781Y0151572D02*
X0064733Y0151572D01*
X0064733Y0150974D02*
X0085380Y0150974D01*
X0085978Y0150375D02*
X0064733Y0150375D01*
X0064733Y0149777D02*
X0086577Y0149777D01*
X0087175Y0149178D02*
X0064733Y0149178D01*
X0064733Y0148580D02*
X0087774Y0148580D01*
X0088372Y0147981D02*
X0064733Y0147981D01*
X0064733Y0147383D02*
X0088971Y0147383D01*
X0089569Y0146784D02*
X0064733Y0146784D01*
X0064733Y0146186D02*
X0090168Y0146186D01*
X0090766Y0145587D02*
X0064733Y0145587D01*
X0064733Y0144989D02*
X0091365Y0144989D01*
X0091963Y0144390D02*
X0064733Y0144390D01*
X0064733Y0143792D02*
X0092562Y0143792D01*
X0093160Y0143193D02*
X0064733Y0143193D01*
X0064733Y0142595D02*
X0093759Y0142595D01*
X0094357Y0141996D02*
X0064733Y0141996D01*
X0064733Y0141398D02*
X0094956Y0141398D01*
X0095554Y0140799D02*
X0064733Y0140799D01*
X0064733Y0140201D02*
X0096153Y0140201D01*
X0096751Y0139602D02*
X0064733Y0139602D01*
X0064733Y0139003D02*
X0097350Y0139003D01*
X0097948Y0138405D02*
X0064733Y0138405D01*
X0064733Y0137806D02*
X0098547Y0137806D01*
X0099145Y0137208D02*
X0064733Y0137208D01*
X0064733Y0136609D02*
X0099744Y0136609D01*
X0100342Y0136011D02*
X0064733Y0136011D01*
X0064733Y0135412D02*
X0100941Y0135412D01*
X0101540Y0134814D02*
X0064733Y0134814D01*
X0064733Y0134215D02*
X0102138Y0134215D01*
X0102737Y0133617D02*
X0072828Y0133617D01*
X0072245Y0134200D02*
X0070422Y0134200D01*
X0069133Y0132911D01*
X0069133Y0131089D01*
X0069233Y0130989D01*
X0069233Y0100011D01*
X0069133Y0099911D01*
X0069133Y0098089D01*
X0070422Y0096800D01*
X0072245Y0096800D01*
X0073533Y0098089D01*
X0073533Y0099911D01*
X0073433Y0100011D01*
X0073433Y0130989D01*
X0073533Y0131089D01*
X0073533Y0132911D01*
X0072245Y0134200D01*
X0073426Y0133018D02*
X0103335Y0133018D01*
X0103934Y0132420D02*
X0073533Y0132420D01*
X0073533Y0131821D02*
X0104532Y0131821D01*
X0105131Y0131223D02*
X0073533Y0131223D01*
X0073433Y0130624D02*
X0105729Y0130624D01*
X0106328Y0130026D02*
X0091419Y0130026D01*
X0091245Y0130200D02*
X0089422Y0130200D01*
X0088133Y0128911D01*
X0088133Y0127089D01*
X0089222Y0126000D01*
X0088133Y0124911D01*
X0088133Y0123089D01*
X0089422Y0121800D01*
X0091245Y0121800D01*
X0092045Y0122600D01*
X0092753Y0122600D01*
X0093933Y0121420D01*
X0093933Y0113420D01*
X0094753Y0112600D01*
X0099753Y0107600D01*
X0111622Y0107600D01*
X0112222Y0107000D01*
X0111622Y0106400D01*
X0093913Y0106400D01*
X0078733Y0121580D01*
X0078733Y0126289D01*
X0079533Y0127089D01*
X0079533Y0128911D01*
X0078245Y0130200D01*
X0076422Y0130200D01*
X0075133Y0128911D01*
X0075133Y0127089D01*
X0075933Y0126289D01*
X0075933Y0120420D01*
X0092753Y0103600D01*
X0111622Y0103600D01*
X0112422Y0102800D01*
X0114245Y0102800D01*
X0115045Y0103600D01*
X0122973Y0103600D01*
X0123793Y0104420D01*
X0140143Y0120770D01*
X0141275Y0120770D01*
X0142563Y0122059D01*
X0142563Y0123881D01*
X0141275Y0125170D01*
X0140533Y0125170D01*
X0140533Y0126911D01*
X0139245Y0128200D01*
X0137422Y0128200D01*
X0136133Y0126911D01*
X0136133Y0125780D01*
X0120753Y0110400D01*
X0115045Y0110400D01*
X0114245Y0111200D01*
X0112422Y0111200D01*
X0111622Y0110400D01*
X0100913Y0110400D01*
X0096733Y0114580D01*
X0096733Y0122580D01*
X0095913Y0123400D01*
X0094733Y0124580D01*
X0093913Y0125400D01*
X0092045Y0125400D01*
X0091445Y0126000D01*
X0092533Y0127089D01*
X0092533Y0128911D01*
X0091245Y0130200D01*
X0092017Y0129427D02*
X0106926Y0129427D01*
X0107525Y0128829D02*
X0092533Y0128829D01*
X0092533Y0128230D02*
X0108123Y0128230D01*
X0108722Y0127632D02*
X0092533Y0127632D01*
X0092478Y0127033D02*
X0109320Y0127033D01*
X0109919Y0126435D02*
X0091879Y0126435D01*
X0091608Y0125836D02*
X0110517Y0125836D01*
X0111116Y0125238D02*
X0094075Y0125238D01*
X0094674Y0124639D02*
X0111714Y0124639D01*
X0112313Y0124041D02*
X0095273Y0124041D01*
X0095871Y0123442D02*
X0112911Y0123442D01*
X0113510Y0122844D02*
X0096470Y0122844D01*
X0096733Y0122245D02*
X0114108Y0122245D01*
X0114707Y0121647D02*
X0096733Y0121647D01*
X0096733Y0121048D02*
X0115305Y0121048D01*
X0115904Y0120450D02*
X0096733Y0120450D01*
X0096733Y0119851D02*
X0116502Y0119851D01*
X0117101Y0119253D02*
X0096733Y0119253D01*
X0096733Y0118654D02*
X0117699Y0118654D01*
X0118298Y0118056D02*
X0096733Y0118056D01*
X0096733Y0117457D02*
X0118896Y0117457D01*
X0118933Y0116859D02*
X0096733Y0116859D01*
X0096733Y0116260D02*
X0118933Y0116260D01*
X0118884Y0115662D02*
X0096733Y0115662D01*
X0096733Y0115063D02*
X0118285Y0115063D01*
X0118133Y0114465D02*
X0096849Y0114465D01*
X0097447Y0113866D02*
X0118133Y0113866D01*
X0118133Y0113268D02*
X0098046Y0113268D01*
X0098644Y0112669D02*
X0118553Y0112669D01*
X0119152Y0112070D02*
X0099243Y0112070D01*
X0099841Y0111472D02*
X0121825Y0111472D01*
X0121515Y0112070D02*
X0122424Y0112070D01*
X0122114Y0112669D02*
X0123022Y0112669D01*
X0122533Y0113268D02*
X0123621Y0113268D01*
X0124219Y0113866D02*
X0122533Y0113866D01*
X0122533Y0114465D02*
X0124818Y0114465D01*
X0125416Y0115063D02*
X0122382Y0115063D01*
X0121783Y0115662D02*
X0126015Y0115662D01*
X0126613Y0116260D02*
X0121733Y0116260D01*
X0121733Y0116859D02*
X0127212Y0116859D01*
X0127811Y0117457D02*
X0121733Y0117457D01*
X0121733Y0118056D02*
X0128409Y0118056D01*
X0129008Y0118654D02*
X0121659Y0118654D01*
X0121061Y0119253D02*
X0129606Y0119253D01*
X0130205Y0119851D02*
X0120462Y0119851D01*
X0119864Y0120450D02*
X0130803Y0120450D01*
X0131402Y0121048D02*
X0119265Y0121048D01*
X0118667Y0121647D02*
X0132000Y0121647D01*
X0132599Y0122245D02*
X0118068Y0122245D01*
X0117470Y0122844D02*
X0133197Y0122844D01*
X0133796Y0123442D02*
X0116871Y0123442D01*
X0116273Y0124041D02*
X0134394Y0124041D01*
X0134993Y0124639D02*
X0115674Y0124639D01*
X0115075Y0125238D02*
X0135591Y0125238D01*
X0136133Y0125836D02*
X0114477Y0125836D01*
X0113878Y0126435D02*
X0136133Y0126435D01*
X0136255Y0127033D02*
X0113280Y0127033D01*
X0112681Y0127632D02*
X0136854Y0127632D01*
X0138333Y0126000D02*
X0121333Y0109000D01*
X0113333Y0109000D01*
X0100333Y0109000D01*
X0095333Y0114000D01*
X0095333Y0122000D01*
X0093333Y0124000D01*
X0090333Y0124000D01*
X0088133Y0124041D02*
X0078733Y0124041D01*
X0078733Y0124639D02*
X0088133Y0124639D01*
X0088460Y0125238D02*
X0078733Y0125238D01*
X0078733Y0125836D02*
X0089058Y0125836D01*
X0088787Y0126435D02*
X0078879Y0126435D01*
X0079478Y0127033D02*
X0088189Y0127033D01*
X0088133Y0127632D02*
X0079533Y0127632D01*
X0079533Y0128230D02*
X0088133Y0128230D01*
X0088133Y0128829D02*
X0079533Y0128829D01*
X0079017Y0129427D02*
X0088649Y0129427D01*
X0089248Y0130026D02*
X0078419Y0130026D01*
X0076248Y0130026D02*
X0073433Y0130026D01*
X0073433Y0129427D02*
X0075649Y0129427D01*
X0075133Y0128829D02*
X0073433Y0128829D01*
X0073433Y0128230D02*
X0075133Y0128230D01*
X0075133Y0127632D02*
X0073433Y0127632D01*
X0073433Y0127033D02*
X0075189Y0127033D01*
X0075787Y0126435D02*
X0073433Y0126435D01*
X0073433Y0125836D02*
X0075933Y0125836D01*
X0075933Y0125238D02*
X0073433Y0125238D01*
X0073433Y0124639D02*
X0075933Y0124639D01*
X0075933Y0124041D02*
X0073433Y0124041D01*
X0073433Y0123442D02*
X0075933Y0123442D01*
X0075933Y0122844D02*
X0073433Y0122844D01*
X0073433Y0122245D02*
X0075933Y0122245D01*
X0075933Y0121647D02*
X0073433Y0121647D01*
X0073433Y0121048D02*
X0075933Y0121048D01*
X0075933Y0120450D02*
X0073433Y0120450D01*
X0073433Y0119851D02*
X0076502Y0119851D01*
X0077101Y0119253D02*
X0073433Y0119253D01*
X0073433Y0118654D02*
X0077699Y0118654D01*
X0078298Y0118056D02*
X0073433Y0118056D01*
X0073433Y0117457D02*
X0078896Y0117457D01*
X0079495Y0116859D02*
X0073433Y0116859D01*
X0073433Y0116260D02*
X0080093Y0116260D01*
X0080692Y0115662D02*
X0073433Y0115662D01*
X0073433Y0115063D02*
X0081290Y0115063D01*
X0081889Y0114465D02*
X0073433Y0114465D01*
X0073433Y0113866D02*
X0082487Y0113866D01*
X0083086Y0113268D02*
X0073433Y0113268D01*
X0073433Y0112669D02*
X0083684Y0112669D01*
X0084283Y0112070D02*
X0073433Y0112070D01*
X0073433Y0111472D02*
X0084881Y0111472D01*
X0085480Y0110873D02*
X0073433Y0110873D01*
X0073433Y0110275D02*
X0086078Y0110275D01*
X0086677Y0109676D02*
X0073433Y0109676D01*
X0073433Y0109078D02*
X0087275Y0109078D01*
X0087874Y0108479D02*
X0073433Y0108479D01*
X0073433Y0107881D02*
X0088473Y0107881D01*
X0089071Y0107282D02*
X0073433Y0107282D01*
X0073433Y0106684D02*
X0089670Y0106684D01*
X0090268Y0106085D02*
X0073433Y0106085D01*
X0073433Y0105487D02*
X0090867Y0105487D01*
X0091465Y0104888D02*
X0073433Y0104888D01*
X0073433Y0104290D02*
X0092064Y0104290D01*
X0092662Y0103691D02*
X0073433Y0103691D01*
X0073433Y0103093D02*
X0112129Y0103093D01*
X0113333Y0105000D02*
X0093333Y0105000D01*
X0077333Y0121000D01*
X0077333Y0128000D01*
X0069839Y0133617D02*
X0064733Y0133617D01*
X0064733Y0133018D02*
X0069240Y0133018D01*
X0069133Y0132420D02*
X0064733Y0132420D01*
X0064733Y0131821D02*
X0069133Y0131821D01*
X0069133Y0131223D02*
X0064733Y0131223D01*
X0064733Y0130624D02*
X0069233Y0130624D01*
X0069233Y0130026D02*
X0064733Y0130026D01*
X0064733Y0129427D02*
X0069233Y0129427D01*
X0069233Y0128829D02*
X0064733Y0128829D01*
X0064733Y0128230D02*
X0069233Y0128230D01*
X0069233Y0127632D02*
X0064733Y0127632D01*
X0064733Y0127033D02*
X0069233Y0127033D01*
X0069233Y0126435D02*
X0064733Y0126435D01*
X0064733Y0125836D02*
X0069233Y0125836D01*
X0069233Y0125238D02*
X0064733Y0125238D01*
X0064733Y0124639D02*
X0069233Y0124639D01*
X0069233Y0124041D02*
X0064733Y0124041D01*
X0064733Y0123442D02*
X0069233Y0123442D01*
X0069233Y0122844D02*
X0064733Y0122844D01*
X0064733Y0122245D02*
X0069233Y0122245D01*
X0069233Y0121647D02*
X0064733Y0121647D01*
X0064733Y0121048D02*
X0069233Y0121048D01*
X0069233Y0120450D02*
X0064733Y0120450D01*
X0064733Y0119851D02*
X0069233Y0119851D01*
X0069233Y0119253D02*
X0064733Y0119253D01*
X0064733Y0118654D02*
X0069233Y0118654D01*
X0069233Y0118056D02*
X0064733Y0118056D01*
X0064733Y0117457D02*
X0069233Y0117457D01*
X0069233Y0116859D02*
X0064733Y0116859D01*
X0064733Y0116260D02*
X0069233Y0116260D01*
X0069233Y0115662D02*
X0064733Y0115662D01*
X0064733Y0115063D02*
X0069233Y0115063D01*
X0069233Y0114465D02*
X0064733Y0114465D01*
X0064733Y0113866D02*
X0069233Y0113866D01*
X0069233Y0113268D02*
X0064733Y0113268D01*
X0064733Y0112669D02*
X0069233Y0112669D01*
X0069233Y0112070D02*
X0064733Y0112070D01*
X0064733Y0111472D02*
X0069233Y0111472D01*
X0069233Y0110873D02*
X0064733Y0110873D01*
X0064733Y0110275D02*
X0069233Y0110275D01*
X0069233Y0109676D02*
X0064733Y0109676D01*
X0064733Y0109078D02*
X0069233Y0109078D01*
X0069233Y0108479D02*
X0064733Y0108479D01*
X0064733Y0107881D02*
X0069233Y0107881D01*
X0069233Y0107282D02*
X0064733Y0107282D01*
X0064733Y0106684D02*
X0069233Y0106684D01*
X0069233Y0106085D02*
X0064733Y0106085D01*
X0064733Y0105487D02*
X0069233Y0105487D01*
X0069233Y0104888D02*
X0064733Y0104888D01*
X0064733Y0104290D02*
X0069233Y0104290D01*
X0069233Y0103691D02*
X0064733Y0103691D01*
X0064733Y0103093D02*
X0069233Y0103093D01*
X0069233Y0102494D02*
X0064733Y0102494D01*
X0064733Y0101896D02*
X0069233Y0101896D01*
X0069233Y0101297D02*
X0064733Y0101297D01*
X0064733Y0100699D02*
X0069233Y0100699D01*
X0069233Y0100100D02*
X0064733Y0100100D01*
X0064733Y0099502D02*
X0069133Y0099502D01*
X0069133Y0098903D02*
X0064733Y0098903D01*
X0064733Y0098305D02*
X0069133Y0098305D01*
X0069516Y0097706D02*
X0064733Y0097706D01*
X0064733Y0097108D02*
X0070114Y0097108D01*
X0072552Y0097108D02*
X0113133Y0097108D01*
X0113133Y0097706D02*
X0073151Y0097706D01*
X0073533Y0098305D02*
X0113527Y0098305D01*
X0113133Y0097911D02*
X0113133Y0096089D01*
X0114422Y0094800D01*
X0116245Y0094800D01*
X0117045Y0095600D01*
X0130913Y0095600D01*
X0131733Y0096420D01*
X0135133Y0099820D01*
X0135133Y0099780D01*
X0126753Y0091400D01*
X0115045Y0091400D01*
X0114245Y0092200D01*
X0112422Y0092200D01*
X0111133Y0090911D01*
X0111133Y0089089D01*
X0112422Y0087800D01*
X0114245Y0087800D01*
X0115045Y0088600D01*
X0127913Y0088600D01*
X0137113Y0097800D01*
X0138245Y0097800D01*
X0139533Y0099089D01*
X0139533Y0100911D01*
X0138445Y0102000D01*
X0139533Y0103089D01*
X0139533Y0104911D01*
X0138245Y0106200D01*
X0136422Y0106200D01*
X0135133Y0104911D01*
X0135133Y0103780D01*
X0129753Y0098400D01*
X0117045Y0098400D01*
X0116245Y0099200D01*
X0114422Y0099200D01*
X0113133Y0097911D01*
X0113133Y0096509D02*
X0064733Y0096509D01*
X0064733Y0095911D02*
X0113311Y0095911D01*
X0113910Y0095312D02*
X0064733Y0095312D01*
X0064733Y0094714D02*
X0130067Y0094714D01*
X0130666Y0095312D02*
X0116757Y0095312D01*
X0115333Y0097000D02*
X0130333Y0097000D01*
X0137333Y0104000D01*
X0138939Y0102494D02*
X0157933Y0102494D01*
X0157933Y0101896D02*
X0138549Y0101896D01*
X0139147Y0101297D02*
X0157933Y0101297D01*
X0157933Y0100699D02*
X0139533Y0100699D01*
X0139533Y0100100D02*
X0157933Y0100100D01*
X0157933Y0099502D02*
X0139533Y0099502D01*
X0139348Y0098903D02*
X0157933Y0098903D01*
X0157933Y0098305D02*
X0138749Y0098305D01*
X0137019Y0097706D02*
X0157933Y0097706D01*
X0157933Y0097108D02*
X0136421Y0097108D01*
X0135822Y0096509D02*
X0157933Y0096509D01*
X0157933Y0095911D02*
X0135224Y0095911D01*
X0134625Y0095312D02*
X0157933Y0095312D01*
X0157933Y0094714D02*
X0134027Y0094714D01*
X0133428Y0094115D02*
X0157933Y0094115D01*
X0157933Y0093517D02*
X0132830Y0093517D01*
X0132231Y0092918D02*
X0157933Y0092918D01*
X0157933Y0092320D02*
X0131633Y0092320D01*
X0131034Y0091721D02*
X0157933Y0091721D01*
X0157345Y0091123D02*
X0130436Y0091123D01*
X0129837Y0090524D02*
X0157133Y0090524D01*
X0157133Y0089926D02*
X0129239Y0089926D01*
X0128640Y0089327D02*
X0157133Y0089327D01*
X0157494Y0088729D02*
X0128042Y0088729D01*
X0127333Y0090000D02*
X0137333Y0100000D01*
X0134855Y0099502D02*
X0134815Y0099502D01*
X0134257Y0098903D02*
X0134216Y0098903D01*
X0133658Y0098305D02*
X0133618Y0098305D01*
X0133060Y0097706D02*
X0133019Y0097706D01*
X0132461Y0097108D02*
X0132421Y0097108D01*
X0131863Y0096509D02*
X0131822Y0096509D01*
X0131264Y0095911D02*
X0131224Y0095911D01*
X0129469Y0094115D02*
X0064733Y0094115D01*
X0064733Y0093517D02*
X0128870Y0093517D01*
X0128272Y0092918D02*
X0064733Y0092918D01*
X0064733Y0092320D02*
X0127673Y0092320D01*
X0127075Y0091721D02*
X0114723Y0091721D01*
X0113333Y0090000D02*
X0127333Y0090000D01*
X0130257Y0098903D02*
X0116541Y0098903D01*
X0114125Y0098903D02*
X0073533Y0098903D01*
X0073533Y0099502D02*
X0130855Y0099502D01*
X0131454Y0100100D02*
X0073433Y0100100D01*
X0073433Y0100699D02*
X0132052Y0100699D01*
X0132651Y0101297D02*
X0073433Y0101297D01*
X0073433Y0101896D02*
X0133249Y0101896D01*
X0133848Y0102494D02*
X0073433Y0102494D01*
X0089440Y0110873D02*
X0096480Y0110873D01*
X0097078Y0110275D02*
X0090038Y0110275D01*
X0090637Y0109676D02*
X0097677Y0109676D01*
X0098275Y0109078D02*
X0091235Y0109078D01*
X0091834Y0108479D02*
X0098874Y0108479D01*
X0099473Y0107881D02*
X0092432Y0107881D01*
X0093031Y0107282D02*
X0111940Y0107282D01*
X0111906Y0106684D02*
X0093629Y0106684D01*
X0100440Y0110873D02*
X0112096Y0110873D01*
X0114571Y0110873D02*
X0121227Y0110873D01*
X0120333Y0114000D02*
X0120333Y0118000D01*
X0083333Y0155000D01*
X0085533Y0155163D02*
X0168503Y0155163D01*
X0168296Y0154565D02*
X0085748Y0154565D01*
X0086347Y0153966D02*
X0168296Y0153966D01*
X0168296Y0153368D02*
X0086945Y0153368D01*
X0087544Y0152769D02*
X0168296Y0152769D01*
X0168499Y0152171D02*
X0088142Y0152171D01*
X0088741Y0151572D02*
X0168747Y0151572D01*
X0168995Y0150974D02*
X0089339Y0150974D01*
X0089938Y0150375D02*
X0169496Y0150375D01*
X0170095Y0149777D02*
X0090537Y0149777D01*
X0091135Y0149178D02*
X0170994Y0149178D01*
X0175672Y0149178D02*
X0190532Y0149178D01*
X0191130Y0149777D02*
X0176572Y0149777D01*
X0177171Y0150375D02*
X0191729Y0150375D01*
X0192327Y0150974D02*
X0177672Y0150974D01*
X0177920Y0151572D02*
X0192926Y0151572D01*
X0193524Y0152171D02*
X0178168Y0152171D01*
X0178370Y0152769D02*
X0194123Y0152769D01*
X0194721Y0153368D02*
X0178370Y0153368D01*
X0178370Y0153966D02*
X0195320Y0153966D01*
X0195918Y0154565D02*
X0178370Y0154565D01*
X0178163Y0155163D02*
X0196517Y0155163D01*
X0197115Y0155762D02*
X0177915Y0155762D01*
X0177667Y0156360D02*
X0197714Y0156360D01*
X0198312Y0156959D02*
X0177159Y0156959D01*
X0176561Y0157557D02*
X0198911Y0157557D01*
X0199509Y0158156D02*
X0175645Y0158156D01*
X0169507Y0156959D02*
X0084486Y0156959D01*
X0085084Y0156360D02*
X0168999Y0156360D01*
X0168751Y0155762D02*
X0085533Y0155762D01*
X0091734Y0148580D02*
X0189933Y0148580D01*
X0189335Y0147981D02*
X0092332Y0147981D01*
X0092931Y0147383D02*
X0188736Y0147383D01*
X0188138Y0146784D02*
X0093529Y0146784D01*
X0094128Y0146186D02*
X0187539Y0146186D01*
X0186941Y0145587D02*
X0094726Y0145587D01*
X0095325Y0144989D02*
X0186342Y0144989D01*
X0185744Y0144390D02*
X0095923Y0144390D01*
X0096522Y0143792D02*
X0185145Y0143792D01*
X0184547Y0143193D02*
X0097120Y0143193D01*
X0097719Y0142595D02*
X0183948Y0142595D01*
X0183349Y0141996D02*
X0098317Y0141996D01*
X0098916Y0141398D02*
X0182751Y0141398D01*
X0182152Y0140799D02*
X0099514Y0140799D01*
X0100113Y0140201D02*
X0181554Y0140201D01*
X0180955Y0139602D02*
X0100711Y0139602D01*
X0101310Y0139003D02*
X0180357Y0139003D01*
X0179758Y0138405D02*
X0101908Y0138405D01*
X0102507Y0137806D02*
X0179160Y0137806D01*
X0178561Y0137208D02*
X0103105Y0137208D01*
X0103704Y0136609D02*
X0177963Y0136609D01*
X0177364Y0136011D02*
X0104302Y0136011D01*
X0104901Y0135412D02*
X0176766Y0135412D01*
X0176167Y0134814D02*
X0105499Y0134814D01*
X0106098Y0134215D02*
X0175569Y0134215D01*
X0174970Y0133617D02*
X0106696Y0133617D01*
X0107295Y0133018D02*
X0174372Y0133018D01*
X0173773Y0132420D02*
X0107893Y0132420D01*
X0108492Y0131821D02*
X0173175Y0131821D01*
X0172576Y0131223D02*
X0109090Y0131223D01*
X0109689Y0130624D02*
X0171978Y0130624D01*
X0171379Y0130026D02*
X0110287Y0130026D01*
X0110886Y0129427D02*
X0170781Y0129427D01*
X0170182Y0128829D02*
X0111484Y0128829D01*
X0112083Y0128230D02*
X0169584Y0128230D01*
X0168985Y0127632D02*
X0139813Y0127632D01*
X0140411Y0127033D02*
X0168387Y0127033D01*
X0167788Y0126435D02*
X0140533Y0126435D01*
X0140533Y0125836D02*
X0167190Y0125836D01*
X0166591Y0125238D02*
X0140533Y0125238D01*
X0141805Y0124639D02*
X0165993Y0124639D01*
X0165394Y0124041D02*
X0142404Y0124041D01*
X0142563Y0123442D02*
X0164796Y0123442D01*
X0164197Y0122844D02*
X0142563Y0122844D01*
X0142563Y0122245D02*
X0163599Y0122245D01*
X0163000Y0121647D02*
X0142151Y0121647D01*
X0141553Y0121048D02*
X0162402Y0121048D01*
X0161803Y0120450D02*
X0139823Y0120450D01*
X0139224Y0119851D02*
X0161205Y0119851D01*
X0160606Y0119253D02*
X0138626Y0119253D01*
X0138027Y0118654D02*
X0160008Y0118654D01*
X0159409Y0118056D02*
X0137429Y0118056D01*
X0136830Y0117457D02*
X0158811Y0117457D01*
X0158212Y0116859D02*
X0136232Y0116859D01*
X0135633Y0116260D02*
X0157933Y0116260D01*
X0157933Y0115662D02*
X0135035Y0115662D01*
X0134436Y0115063D02*
X0157933Y0115063D01*
X0157933Y0114465D02*
X0133838Y0114465D01*
X0133239Y0113866D02*
X0157933Y0113866D01*
X0157933Y0113268D02*
X0132641Y0113268D01*
X0132042Y0112669D02*
X0157933Y0112669D01*
X0157933Y0112070D02*
X0131444Y0112070D01*
X0130845Y0111472D02*
X0157933Y0111472D01*
X0157933Y0110873D02*
X0130247Y0110873D01*
X0129648Y0110275D02*
X0157933Y0110275D01*
X0157933Y0109676D02*
X0129050Y0109676D01*
X0128451Y0109078D02*
X0157933Y0109078D01*
X0157933Y0108479D02*
X0127853Y0108479D01*
X0127254Y0107881D02*
X0157933Y0107881D01*
X0157933Y0107282D02*
X0126656Y0107282D01*
X0126057Y0106684D02*
X0157933Y0106684D01*
X0157933Y0106085D02*
X0138359Y0106085D01*
X0138958Y0105487D02*
X0157933Y0105487D01*
X0157933Y0104888D02*
X0139533Y0104888D01*
X0139533Y0104290D02*
X0157933Y0104290D01*
X0157933Y0103691D02*
X0139533Y0103691D01*
X0139533Y0103093D02*
X0157933Y0103093D01*
X0160733Y0103093D02*
X0162933Y0103093D01*
X0162933Y0103691D02*
X0160733Y0103691D01*
X0160733Y0104290D02*
X0162933Y0104290D01*
X0162933Y0104888D02*
X0160733Y0104888D01*
X0160733Y0105487D02*
X0162933Y0105487D01*
X0162933Y0106085D02*
X0160733Y0106085D01*
X0160733Y0106684D02*
X0162933Y0106684D01*
X0162933Y0107282D02*
X0160733Y0107282D01*
X0160733Y0107881D02*
X0162933Y0107881D01*
X0162933Y0108479D02*
X0160733Y0108479D01*
X0160733Y0109078D02*
X0162933Y0109078D01*
X0162933Y0109676D02*
X0160733Y0109676D01*
X0160733Y0110275D02*
X0162933Y0110275D01*
X0162933Y0110873D02*
X0160733Y0110873D01*
X0160733Y0111472D02*
X0162933Y0111472D01*
X0162933Y0112070D02*
X0160733Y0112070D01*
X0160733Y0112669D02*
X0162933Y0112669D01*
X0162933Y0113268D02*
X0160733Y0113268D01*
X0160733Y0113866D02*
X0162933Y0113866D01*
X0162933Y0114465D02*
X0160733Y0114465D01*
X0160733Y0115063D02*
X0162933Y0115063D01*
X0163015Y0115662D02*
X0160975Y0115662D01*
X0161573Y0116260D02*
X0163613Y0116260D01*
X0164212Y0116859D02*
X0162172Y0116859D01*
X0162770Y0117457D02*
X0164811Y0117457D01*
X0165409Y0118056D02*
X0163369Y0118056D01*
X0163967Y0118654D02*
X0166008Y0118654D01*
X0166606Y0119253D02*
X0164566Y0119253D01*
X0165164Y0119851D02*
X0167205Y0119851D01*
X0167803Y0120450D02*
X0165763Y0120450D01*
X0166361Y0121048D02*
X0168402Y0121048D01*
X0169000Y0121647D02*
X0166960Y0121647D01*
X0167558Y0122245D02*
X0169599Y0122245D01*
X0170197Y0122844D02*
X0168157Y0122844D01*
X0168755Y0123442D02*
X0170796Y0123442D01*
X0171394Y0124041D02*
X0169354Y0124041D01*
X0169952Y0124639D02*
X0171993Y0124639D01*
X0172591Y0125238D02*
X0170551Y0125238D01*
X0171149Y0125836D02*
X0173190Y0125836D01*
X0173788Y0126435D02*
X0171748Y0126435D01*
X0172346Y0127033D02*
X0174387Y0127033D01*
X0174985Y0127632D02*
X0172945Y0127632D01*
X0173544Y0128230D02*
X0175584Y0128230D01*
X0176182Y0128829D02*
X0174142Y0128829D01*
X0174741Y0129427D02*
X0176781Y0129427D01*
X0177379Y0130026D02*
X0175339Y0130026D01*
X0175938Y0130624D02*
X0177978Y0130624D01*
X0178576Y0131223D02*
X0176536Y0131223D01*
X0177135Y0131821D02*
X0179175Y0131821D01*
X0179773Y0132420D02*
X0177733Y0132420D01*
X0178332Y0133018D02*
X0180372Y0133018D01*
X0180970Y0133617D02*
X0178930Y0133617D01*
X0179529Y0134215D02*
X0181569Y0134215D01*
X0182167Y0134814D02*
X0180127Y0134814D01*
X0180726Y0135412D02*
X0182766Y0135412D01*
X0183364Y0136011D02*
X0181324Y0136011D01*
X0181923Y0136609D02*
X0183963Y0136609D01*
X0184561Y0137208D02*
X0182521Y0137208D01*
X0183120Y0137806D02*
X0185160Y0137806D01*
X0185758Y0138405D02*
X0183718Y0138405D01*
X0184317Y0139003D02*
X0186357Y0139003D01*
X0186955Y0139602D02*
X0184915Y0139602D01*
X0185514Y0140201D02*
X0187554Y0140201D01*
X0188152Y0140799D02*
X0186112Y0140799D01*
X0186711Y0141398D02*
X0188751Y0141398D01*
X0189349Y0141996D02*
X0187309Y0141996D01*
X0187908Y0142595D02*
X0189948Y0142595D01*
X0190547Y0143193D02*
X0188506Y0143193D01*
X0189105Y0143792D02*
X0191145Y0143792D01*
X0191744Y0144390D02*
X0189703Y0144390D01*
X0190302Y0144989D02*
X0192342Y0144989D01*
X0192941Y0145587D02*
X0190900Y0145587D01*
X0191499Y0146186D02*
X0193539Y0146186D01*
X0194138Y0146784D02*
X0192097Y0146784D01*
X0192696Y0147383D02*
X0194736Y0147383D01*
X0195335Y0147981D02*
X0193294Y0147981D01*
X0193893Y0148580D02*
X0195933Y0148580D01*
X0196532Y0149178D02*
X0194491Y0149178D01*
X0195090Y0149777D02*
X0197130Y0149777D01*
X0197729Y0150375D02*
X0195688Y0150375D01*
X0196287Y0150974D02*
X0198327Y0150974D01*
X0198926Y0151572D02*
X0196885Y0151572D01*
X0197484Y0152171D02*
X0199524Y0152171D01*
X0200123Y0152769D02*
X0198082Y0152769D01*
X0198681Y0153368D02*
X0200721Y0153368D01*
X0201320Y0153966D02*
X0199280Y0153966D01*
X0199878Y0154565D02*
X0201918Y0154565D01*
X0202517Y0155163D02*
X0200477Y0155163D01*
X0201075Y0155762D02*
X0203115Y0155762D01*
X0203714Y0156360D02*
X0201674Y0156360D01*
X0202272Y0156959D02*
X0204312Y0156959D01*
X0204911Y0157557D02*
X0202871Y0157557D01*
X0203469Y0158156D02*
X0205509Y0158156D01*
X0206108Y0158754D02*
X0204068Y0158754D01*
X0204666Y0159353D02*
X0206706Y0159353D01*
X0207305Y0159951D02*
X0205265Y0159951D01*
X0205863Y0160550D02*
X0207903Y0160550D01*
X0208133Y0161148D02*
X0206462Y0161148D01*
X0207060Y0161747D02*
X0208133Y0161747D01*
X0208567Y0162345D02*
X0207659Y0162345D01*
X0208257Y0162944D02*
X0209166Y0162944D01*
X0208856Y0163542D02*
X0276933Y0163542D01*
X0276933Y0164141D02*
X0209454Y0164141D01*
X0210053Y0164739D02*
X0276933Y0164739D01*
X0272509Y0158156D02*
X0225645Y0158156D01*
X0226561Y0157557D02*
X0271911Y0157557D01*
X0271312Y0156959D02*
X0227159Y0156959D01*
X0227667Y0156360D02*
X0270714Y0156360D01*
X0270115Y0155762D02*
X0227915Y0155762D01*
X0228163Y0155163D02*
X0269517Y0155163D01*
X0268918Y0154565D02*
X0228370Y0154565D01*
X0228370Y0153966D02*
X0268320Y0153966D01*
X0267721Y0153368D02*
X0228370Y0153368D01*
X0228370Y0152769D02*
X0267123Y0152769D01*
X0266524Y0152171D02*
X0228168Y0152171D01*
X0227920Y0151572D02*
X0265926Y0151572D01*
X0265327Y0150974D02*
X0227672Y0150974D01*
X0227171Y0150375D02*
X0264729Y0150375D01*
X0264130Y0149777D02*
X0226572Y0149777D01*
X0225672Y0149178D02*
X0263933Y0149178D01*
X0221061Y0176710D02*
X0175606Y0176710D01*
X0176544Y0177308D02*
X0220122Y0177308D01*
X0219524Y0177907D02*
X0177143Y0177907D01*
X0177661Y0178505D02*
X0219006Y0178505D01*
X0218758Y0179104D02*
X0177909Y0179104D01*
X0178156Y0179702D02*
X0218510Y0179702D01*
X0218296Y0180301D02*
X0178370Y0180301D01*
X0178370Y0180899D02*
X0218296Y0180899D01*
X0218296Y0181498D02*
X0178370Y0181498D01*
X0178370Y0182096D02*
X0218296Y0182096D01*
X0218492Y0182695D02*
X0178175Y0182695D01*
X0177927Y0183293D02*
X0218740Y0183293D01*
X0218988Y0183892D02*
X0177679Y0183892D01*
X0177187Y0184490D02*
X0219480Y0184490D01*
X0220078Y0185089D02*
X0176588Y0185089D01*
X0175712Y0185687D02*
X0220955Y0185687D01*
X0210333Y0167000D02*
X0159333Y0116000D01*
X0159333Y0090000D01*
X0161533Y0089926D02*
X0162933Y0089926D01*
X0162933Y0090524D02*
X0161533Y0090524D01*
X0161322Y0091123D02*
X0162933Y0091123D01*
X0162933Y0091721D02*
X0160733Y0091721D01*
X0160733Y0092320D02*
X0162933Y0092320D01*
X0162933Y0092918D02*
X0160733Y0092918D01*
X0160733Y0093517D02*
X0162933Y0093517D01*
X0162933Y0094115D02*
X0160733Y0094115D01*
X0160733Y0094714D02*
X0162933Y0094714D01*
X0162933Y0095312D02*
X0160733Y0095312D01*
X0160733Y0095911D02*
X0162933Y0095911D01*
X0162933Y0096509D02*
X0160733Y0096509D01*
X0160733Y0097108D02*
X0162933Y0097108D01*
X0162933Y0097706D02*
X0160733Y0097706D01*
X0160733Y0098305D02*
X0162933Y0098305D01*
X0162933Y0098903D02*
X0160733Y0098903D01*
X0160733Y0099502D02*
X0162933Y0099502D01*
X0162933Y0100100D02*
X0160733Y0100100D01*
X0160733Y0100699D02*
X0162933Y0100699D01*
X0162933Y0101297D02*
X0160733Y0101297D01*
X0160733Y0101896D02*
X0162933Y0101896D01*
X0162933Y0102494D02*
X0160733Y0102494D01*
X0165733Y0106085D02*
X0187137Y0106085D01*
X0186538Y0106684D02*
X0165733Y0106684D01*
X0165733Y0107282D02*
X0186133Y0107282D01*
X0164333Y0115000D02*
X0164333Y0084000D01*
X0162133Y0083940D02*
X0064733Y0083940D01*
X0064733Y0083342D02*
X0162133Y0083342D01*
X0162479Y0082743D02*
X0064733Y0082743D01*
X0064733Y0082145D02*
X0163077Y0082145D01*
X0162133Y0084539D02*
X0064733Y0084539D01*
X0064733Y0085137D02*
X0162360Y0085137D01*
X0162933Y0085736D02*
X0064733Y0085736D01*
X0064733Y0086334D02*
X0162933Y0086334D01*
X0162933Y0086933D02*
X0064733Y0086933D01*
X0064733Y0087532D02*
X0162933Y0087532D01*
X0162933Y0088130D02*
X0160575Y0088130D01*
X0161173Y0088729D02*
X0162933Y0088729D01*
X0162933Y0089327D02*
X0161533Y0089327D01*
X0158092Y0088130D02*
X0114575Y0088130D01*
X0112092Y0088130D02*
X0064733Y0088130D01*
X0064733Y0088729D02*
X0111494Y0088729D01*
X0111133Y0089327D02*
X0064733Y0089327D01*
X0064733Y0089926D02*
X0111133Y0089926D01*
X0111133Y0090524D02*
X0064733Y0090524D01*
X0064733Y0091123D02*
X0111345Y0091123D01*
X0111943Y0091721D02*
X0064733Y0091721D01*
X0064733Y0077955D02*
X0069544Y0077955D01*
X0068245Y0077357D02*
X0064733Y0077357D01*
X0064733Y0076758D02*
X0067647Y0076758D01*
X0067048Y0076160D02*
X0064733Y0076160D01*
X0064733Y0075561D02*
X0066450Y0075561D01*
X0065864Y0074963D02*
X0064733Y0074963D01*
X0064733Y0074364D02*
X0065616Y0074364D01*
X0065368Y0073766D02*
X0064733Y0073766D01*
X0064733Y0073167D02*
X0065120Y0073167D01*
X0064872Y0072569D02*
X0064733Y0072569D01*
X0076521Y0061796D02*
X0242062Y0061796D01*
X0239400Y0077955D02*
X0264544Y0077955D01*
X0265989Y0078554D02*
X0239998Y0078554D01*
X0240533Y0079152D02*
X0276933Y0079152D01*
X0276933Y0078554D02*
X0270678Y0078554D01*
X0272123Y0077955D02*
X0276933Y0077955D01*
X0276933Y0077357D02*
X0273422Y0077357D01*
X0274020Y0076758D02*
X0276933Y0076758D01*
X0276933Y0076160D02*
X0274619Y0076160D01*
X0275217Y0075561D02*
X0276933Y0075561D01*
X0276933Y0074963D02*
X0275803Y0074963D01*
X0276051Y0074364D02*
X0276933Y0074364D01*
X0276933Y0073766D02*
X0276299Y0073766D01*
X0276546Y0073167D02*
X0276933Y0073167D01*
X0276933Y0072569D02*
X0276794Y0072569D01*
X0276933Y0079751D02*
X0240533Y0079751D01*
X0240533Y0080349D02*
X0276933Y0080349D01*
X0276933Y0080948D02*
X0240497Y0080948D01*
X0239898Y0081546D02*
X0276933Y0081546D01*
X0210333Y0161000D02*
X0164333Y0115000D01*
X0140363Y0122970D02*
X0122393Y0105000D01*
X0113333Y0105000D01*
X0114537Y0103093D02*
X0134446Y0103093D01*
X0135045Y0103691D02*
X0123065Y0103691D01*
X0123663Y0104290D02*
X0135133Y0104290D01*
X0135133Y0104888D02*
X0124262Y0104888D01*
X0124860Y0105487D02*
X0135709Y0105487D01*
X0136307Y0106085D02*
X0125459Y0106085D01*
X0095881Y0111472D02*
X0088841Y0111472D01*
X0088243Y0112070D02*
X0095283Y0112070D01*
X0094684Y0112669D02*
X0087644Y0112669D01*
X0087046Y0113268D02*
X0094086Y0113268D01*
X0093933Y0113866D02*
X0086447Y0113866D01*
X0085849Y0114465D02*
X0093933Y0114465D01*
X0093933Y0115063D02*
X0085250Y0115063D01*
X0084652Y0115662D02*
X0093933Y0115662D01*
X0093933Y0116260D02*
X0084053Y0116260D01*
X0083455Y0116859D02*
X0093933Y0116859D01*
X0093933Y0117457D02*
X0082856Y0117457D01*
X0082258Y0118056D02*
X0093933Y0118056D01*
X0093933Y0118654D02*
X0081659Y0118654D01*
X0081061Y0119253D02*
X0093933Y0119253D01*
X0093933Y0119851D02*
X0080462Y0119851D01*
X0079864Y0120450D02*
X0093933Y0120450D01*
X0093933Y0121048D02*
X0079265Y0121048D01*
X0078733Y0121647D02*
X0093707Y0121647D01*
X0093108Y0122245D02*
X0091690Y0122245D01*
X0088977Y0122245D02*
X0078733Y0122245D01*
X0078733Y0122844D02*
X0088378Y0122844D01*
X0088133Y0123442D02*
X0078733Y0123442D01*
D12*
X0077333Y0128000D03*
X0071333Y0132000D03*
X0088333Y0140000D03*
X0090333Y0128000D03*
X0090333Y0124000D03*
X0108333Y0115000D03*
X0113333Y0109000D03*
X0113333Y0105000D03*
X0115333Y0097000D03*
X0113333Y0090000D03*
X0112833Y0085000D03*
X0121333Y0085000D03*
X0138333Y0090000D03*
X0137333Y0100000D03*
X0137333Y0104000D03*
X0148333Y0110000D03*
X0140363Y0122970D03*
X0138333Y0126000D03*
X0120333Y0114000D03*
X0159333Y0090000D03*
X0164333Y0084000D03*
X0178333Y0080000D03*
X0199333Y0083000D03*
X0210333Y0069000D03*
X0238333Y0080000D03*
X0253333Y0105000D03*
X0218333Y0121000D03*
X0201333Y0137000D03*
X0192333Y0137000D03*
X0155333Y0156000D03*
X0148333Y0175000D03*
X0098333Y0165000D03*
X0083333Y0155000D03*
X0071333Y0099000D03*
X0103333Y0073000D03*
X0121333Y0067000D03*
X0188333Y0108000D03*
X0178333Y0110000D03*
X0198333Y0105000D03*
X0265333Y0128000D03*
X0275333Y0159000D03*
X0253333Y0175000D03*
X0210333Y0167000D03*
X0210333Y0161000D03*
X0208333Y0175000D03*
D13*
X0071333Y0132000D02*
X0071333Y0099000D01*
M02*
