G75*
%MOIN*%
%OFA0B0*%
%FSLAX25Y25*%
%IPPOS*%
%LPD*%
%AMOC8*
5,1,8,0,0,1.08239X$1,22.5*
%
%ADD10R,0.04331X0.03937*%
%ADD11R,0.03937X0.04331*%
%ADD12R,0.09843X0.04724*%
%ADD13C,0.01181*%
%ADD14R,0.09843X0.07874*%
%ADD15R,0.07874X0.09843*%
%ADD16R,0.07874X0.13780*%
%ADD17R,0.07874X0.23622*%
%ADD18R,0.07874X0.04724*%
%ADD19R,0.05315X0.02362*%
%ADD20C,0.01047*%
%ADD21R,0.01339X0.01339*%
%ADD22R,0.02264X0.02315*%
%ADD23R,0.02252X0.02406*%
%ADD24R,0.02390X0.02402*%
%ADD25R,0.02417X0.02339*%
%ADD26R,0.02362X0.04724*%
%ADD27R,0.07087X0.03937*%
D10*
X0099987Y0083500D03*
X0106680Y0083500D03*
X0084680Y0099000D03*
X0077987Y0099000D03*
X0099987Y0107000D03*
X0106680Y0107000D03*
X0106680Y0121000D03*
X0099987Y0121000D03*
X0099987Y0128000D03*
X0106680Y0128000D03*
X0143987Y0090000D03*
X0150680Y0090000D03*
X0150680Y0084000D03*
X0143987Y0084000D03*
X0195987Y0074000D03*
X0202680Y0074000D03*
X0210987Y0074000D03*
X0217680Y0074000D03*
X0225987Y0074000D03*
X0232680Y0074000D03*
X0232680Y0116000D03*
X0225987Y0116000D03*
X0217680Y0116000D03*
X0210987Y0116000D03*
X0202680Y0116000D03*
X0195987Y0116000D03*
X0248987Y0155000D03*
X0255680Y0155000D03*
X0255680Y0163000D03*
X0248987Y0163000D03*
D11*
X0117333Y0071654D03*
X0117333Y0078346D03*
X0125333Y0078346D03*
X0133333Y0078346D03*
X0133333Y0071654D03*
X0125333Y0071654D03*
X0078333Y0148154D03*
X0078333Y0154846D03*
X0146333Y0161654D03*
X0155333Y0161654D03*
X0155333Y0168346D03*
X0146333Y0168346D03*
X0192333Y0167346D03*
X0201333Y0167346D03*
X0201333Y0160654D03*
X0192333Y0160654D03*
D12*
X0186916Y0189094D03*
X0236916Y0189094D03*
X0238333Y0101496D03*
X0238333Y0088504D03*
X0188333Y0088504D03*
X0188333Y0101496D03*
D13*
X0086164Y0105622D02*
X0086164Y0108378D01*
X0086164Y0105622D02*
X0083408Y0105622D01*
X0083408Y0108378D01*
X0086164Y0108378D01*
X0086164Y0106744D02*
X0083408Y0106744D01*
X0083408Y0107866D02*
X0086164Y0107866D01*
X0079259Y0108378D02*
X0079259Y0105622D01*
X0076503Y0105622D01*
X0076503Y0108378D01*
X0079259Y0108378D01*
X0079259Y0106744D02*
X0076503Y0106744D01*
X0076503Y0107866D02*
X0079259Y0107866D01*
D14*
X0159751Y0148937D03*
X0186916Y0178071D03*
X0209751Y0185551D03*
X0236916Y0178071D03*
X0209751Y0148937D03*
X0159751Y0185551D03*
D15*
X0176286Y0132992D03*
X0226286Y0132992D03*
D16*
X0131207Y0145831D03*
X0115459Y0145831D03*
D17*
X0115459Y0182248D03*
X0131207Y0182248D03*
D18*
X0068865Y0141024D03*
X0068865Y0118976D03*
X0272802Y0118976D03*
X0272802Y0141024D03*
D19*
X0258333Y0135906D03*
X0258333Y0131969D03*
X0258333Y0128031D03*
X0258333Y0124094D03*
X0083333Y0124094D03*
X0083333Y0128031D03*
X0083333Y0131969D03*
X0083333Y0135906D03*
D20*
X0123353Y0107934D02*
X0123409Y0107934D01*
X0123409Y0106578D01*
X0123353Y0106578D01*
X0123353Y0107934D01*
X0123353Y0107573D02*
X0123409Y0107573D01*
X0125321Y0107934D02*
X0125377Y0107934D01*
X0125377Y0106578D01*
X0125321Y0106578D01*
X0125321Y0107934D01*
X0125321Y0107573D02*
X0125377Y0107573D01*
X0127290Y0107934D02*
X0127346Y0107934D01*
X0127346Y0106578D01*
X0127290Y0106578D01*
X0127290Y0107934D01*
X0127290Y0107573D02*
X0127346Y0107573D01*
X0129258Y0107934D02*
X0129314Y0107934D01*
X0129314Y0106578D01*
X0129258Y0106578D01*
X0129258Y0107934D01*
X0129258Y0107573D02*
X0129314Y0107573D01*
X0130911Y0104981D02*
X0130911Y0104925D01*
X0130911Y0104981D02*
X0132267Y0104981D01*
X0132267Y0104925D01*
X0130911Y0104925D01*
X0130911Y0103012D02*
X0130911Y0102956D01*
X0130911Y0103012D02*
X0132267Y0103012D01*
X0132267Y0102956D01*
X0130911Y0102956D01*
X0130911Y0101044D02*
X0130911Y0100988D01*
X0130911Y0101044D02*
X0132267Y0101044D01*
X0132267Y0100988D01*
X0130911Y0100988D01*
X0130911Y0099075D02*
X0130911Y0099019D01*
X0130911Y0099075D02*
X0132267Y0099075D01*
X0132267Y0099019D01*
X0130911Y0099019D01*
X0129314Y0096066D02*
X0129258Y0096066D01*
X0129258Y0097422D01*
X0129314Y0097422D01*
X0129314Y0096066D01*
X0129314Y0097061D02*
X0129258Y0097061D01*
X0127346Y0096066D02*
X0127290Y0096066D01*
X0127290Y0097422D01*
X0127346Y0097422D01*
X0127346Y0096066D01*
X0127346Y0097061D02*
X0127290Y0097061D01*
X0125377Y0096066D02*
X0125321Y0096066D01*
X0125321Y0097422D01*
X0125377Y0097422D01*
X0125377Y0096066D01*
X0125377Y0097061D02*
X0125321Y0097061D01*
X0123409Y0096066D02*
X0123353Y0096066D01*
X0123353Y0097422D01*
X0123409Y0097422D01*
X0123409Y0096066D01*
X0123409Y0097061D02*
X0123353Y0097061D01*
X0121755Y0099019D02*
X0121755Y0099075D01*
X0121755Y0099019D02*
X0120399Y0099019D01*
X0120399Y0099075D01*
X0121755Y0099075D01*
X0121755Y0100988D02*
X0121755Y0101044D01*
X0121755Y0100988D02*
X0120399Y0100988D01*
X0120399Y0101044D01*
X0121755Y0101044D01*
X0121755Y0102956D02*
X0121755Y0103012D01*
X0121755Y0102956D02*
X0120399Y0102956D01*
X0120399Y0103012D01*
X0121755Y0103012D01*
X0121755Y0104925D02*
X0121755Y0104981D01*
X0121755Y0104925D02*
X0120399Y0104925D01*
X0120399Y0104981D01*
X0121755Y0104981D01*
D21*
X0121353Y0106980D03*
X0131314Y0107020D03*
X0131314Y0097020D03*
X0121353Y0097020D03*
D22*
X0127863Y0103594D03*
D23*
X0127869Y0100604D03*
D24*
X0124855Y0100618D03*
D25*
X0124881Y0103555D03*
D26*
X0205833Y0106024D03*
X0210833Y0106024D03*
X0215833Y0106024D03*
X0220833Y0106024D03*
X0220833Y0083976D03*
X0215833Y0083976D03*
X0210833Y0083976D03*
X0205833Y0083976D03*
D27*
X0106333Y0090079D03*
X0106333Y0099921D03*
M02*
