G75*
%MOIN*%
%OFA0B0*%
%FSLAX25Y25*%
%IPPOS*%
%LPD*%
%AMOC8*
5,1,8,0,0,1.08239X$1,22.5*
%
%ADD10C,0.00600*%
%ADD11C,0.00000*%
D10*
X0063333Y0060000D02*
X0278333Y0060000D01*
X0278333Y0195000D01*
X0063333Y0195000D01*
X0063333Y0060000D01*
D11*
X0066833Y0070000D02*
X0066835Y0070161D01*
X0066841Y0070321D01*
X0066851Y0070482D01*
X0066865Y0070642D01*
X0066883Y0070802D01*
X0066904Y0070961D01*
X0066930Y0071120D01*
X0066960Y0071278D01*
X0066993Y0071435D01*
X0067031Y0071592D01*
X0067072Y0071747D01*
X0067117Y0071901D01*
X0067166Y0072054D01*
X0067219Y0072206D01*
X0067275Y0072357D01*
X0067336Y0072506D01*
X0067399Y0072654D01*
X0067467Y0072800D01*
X0067538Y0072944D01*
X0067612Y0073086D01*
X0067690Y0073227D01*
X0067772Y0073365D01*
X0067857Y0073502D01*
X0067945Y0073636D01*
X0068037Y0073768D01*
X0068132Y0073898D01*
X0068230Y0074026D01*
X0068331Y0074151D01*
X0068435Y0074273D01*
X0068542Y0074393D01*
X0068652Y0074510D01*
X0068765Y0074625D01*
X0068881Y0074736D01*
X0069000Y0074845D01*
X0069121Y0074950D01*
X0069245Y0075053D01*
X0069371Y0075153D01*
X0069499Y0075249D01*
X0069630Y0075342D01*
X0069764Y0075432D01*
X0069899Y0075519D01*
X0070037Y0075602D01*
X0070176Y0075682D01*
X0070318Y0075758D01*
X0070461Y0075831D01*
X0070606Y0075900D01*
X0070753Y0075966D01*
X0070901Y0076028D01*
X0071051Y0076086D01*
X0071202Y0076141D01*
X0071355Y0076192D01*
X0071509Y0076239D01*
X0071664Y0076282D01*
X0071820Y0076321D01*
X0071976Y0076357D01*
X0072134Y0076388D01*
X0072292Y0076416D01*
X0072451Y0076440D01*
X0072611Y0076460D01*
X0072771Y0076476D01*
X0072931Y0076488D01*
X0073092Y0076496D01*
X0073253Y0076500D01*
X0073413Y0076500D01*
X0073574Y0076496D01*
X0073735Y0076488D01*
X0073895Y0076476D01*
X0074055Y0076460D01*
X0074215Y0076440D01*
X0074374Y0076416D01*
X0074532Y0076388D01*
X0074690Y0076357D01*
X0074846Y0076321D01*
X0075002Y0076282D01*
X0075157Y0076239D01*
X0075311Y0076192D01*
X0075464Y0076141D01*
X0075615Y0076086D01*
X0075765Y0076028D01*
X0075913Y0075966D01*
X0076060Y0075900D01*
X0076205Y0075831D01*
X0076348Y0075758D01*
X0076490Y0075682D01*
X0076629Y0075602D01*
X0076767Y0075519D01*
X0076902Y0075432D01*
X0077036Y0075342D01*
X0077167Y0075249D01*
X0077295Y0075153D01*
X0077421Y0075053D01*
X0077545Y0074950D01*
X0077666Y0074845D01*
X0077785Y0074736D01*
X0077901Y0074625D01*
X0078014Y0074510D01*
X0078124Y0074393D01*
X0078231Y0074273D01*
X0078335Y0074151D01*
X0078436Y0074026D01*
X0078534Y0073898D01*
X0078629Y0073768D01*
X0078721Y0073636D01*
X0078809Y0073502D01*
X0078894Y0073365D01*
X0078976Y0073227D01*
X0079054Y0073086D01*
X0079128Y0072944D01*
X0079199Y0072800D01*
X0079267Y0072654D01*
X0079330Y0072506D01*
X0079391Y0072357D01*
X0079447Y0072206D01*
X0079500Y0072054D01*
X0079549Y0071901D01*
X0079594Y0071747D01*
X0079635Y0071592D01*
X0079673Y0071435D01*
X0079706Y0071278D01*
X0079736Y0071120D01*
X0079762Y0070961D01*
X0079783Y0070802D01*
X0079801Y0070642D01*
X0079815Y0070482D01*
X0079825Y0070321D01*
X0079831Y0070161D01*
X0079833Y0070000D01*
X0079831Y0069839D01*
X0079825Y0069679D01*
X0079815Y0069518D01*
X0079801Y0069358D01*
X0079783Y0069198D01*
X0079762Y0069039D01*
X0079736Y0068880D01*
X0079706Y0068722D01*
X0079673Y0068565D01*
X0079635Y0068408D01*
X0079594Y0068253D01*
X0079549Y0068099D01*
X0079500Y0067946D01*
X0079447Y0067794D01*
X0079391Y0067643D01*
X0079330Y0067494D01*
X0079267Y0067346D01*
X0079199Y0067200D01*
X0079128Y0067056D01*
X0079054Y0066914D01*
X0078976Y0066773D01*
X0078894Y0066635D01*
X0078809Y0066498D01*
X0078721Y0066364D01*
X0078629Y0066232D01*
X0078534Y0066102D01*
X0078436Y0065974D01*
X0078335Y0065849D01*
X0078231Y0065727D01*
X0078124Y0065607D01*
X0078014Y0065490D01*
X0077901Y0065375D01*
X0077785Y0065264D01*
X0077666Y0065155D01*
X0077545Y0065050D01*
X0077421Y0064947D01*
X0077295Y0064847D01*
X0077167Y0064751D01*
X0077036Y0064658D01*
X0076902Y0064568D01*
X0076767Y0064481D01*
X0076629Y0064398D01*
X0076490Y0064318D01*
X0076348Y0064242D01*
X0076205Y0064169D01*
X0076060Y0064100D01*
X0075913Y0064034D01*
X0075765Y0063972D01*
X0075615Y0063914D01*
X0075464Y0063859D01*
X0075311Y0063808D01*
X0075157Y0063761D01*
X0075002Y0063718D01*
X0074846Y0063679D01*
X0074690Y0063643D01*
X0074532Y0063612D01*
X0074374Y0063584D01*
X0074215Y0063560D01*
X0074055Y0063540D01*
X0073895Y0063524D01*
X0073735Y0063512D01*
X0073574Y0063504D01*
X0073413Y0063500D01*
X0073253Y0063500D01*
X0073092Y0063504D01*
X0072931Y0063512D01*
X0072771Y0063524D01*
X0072611Y0063540D01*
X0072451Y0063560D01*
X0072292Y0063584D01*
X0072134Y0063612D01*
X0071976Y0063643D01*
X0071820Y0063679D01*
X0071664Y0063718D01*
X0071509Y0063761D01*
X0071355Y0063808D01*
X0071202Y0063859D01*
X0071051Y0063914D01*
X0070901Y0063972D01*
X0070753Y0064034D01*
X0070606Y0064100D01*
X0070461Y0064169D01*
X0070318Y0064242D01*
X0070176Y0064318D01*
X0070037Y0064398D01*
X0069899Y0064481D01*
X0069764Y0064568D01*
X0069630Y0064658D01*
X0069499Y0064751D01*
X0069371Y0064847D01*
X0069245Y0064947D01*
X0069121Y0065050D01*
X0069000Y0065155D01*
X0068881Y0065264D01*
X0068765Y0065375D01*
X0068652Y0065490D01*
X0068542Y0065607D01*
X0068435Y0065727D01*
X0068331Y0065849D01*
X0068230Y0065974D01*
X0068132Y0066102D01*
X0068037Y0066232D01*
X0067945Y0066364D01*
X0067857Y0066498D01*
X0067772Y0066635D01*
X0067690Y0066773D01*
X0067612Y0066914D01*
X0067538Y0067056D01*
X0067467Y0067200D01*
X0067399Y0067346D01*
X0067336Y0067494D01*
X0067275Y0067643D01*
X0067219Y0067794D01*
X0067166Y0067946D01*
X0067117Y0068099D01*
X0067072Y0068253D01*
X0067031Y0068408D01*
X0066993Y0068565D01*
X0066960Y0068722D01*
X0066930Y0068880D01*
X0066904Y0069039D01*
X0066883Y0069198D01*
X0066865Y0069358D01*
X0066851Y0069518D01*
X0066841Y0069679D01*
X0066835Y0069839D01*
X0066833Y0070000D01*
X0169396Y0153661D02*
X0169398Y0153786D01*
X0169404Y0153911D01*
X0169414Y0154035D01*
X0169428Y0154159D01*
X0169445Y0154283D01*
X0169467Y0154406D01*
X0169493Y0154528D01*
X0169522Y0154650D01*
X0169555Y0154770D01*
X0169593Y0154889D01*
X0169633Y0155008D01*
X0169678Y0155124D01*
X0169726Y0155239D01*
X0169778Y0155353D01*
X0169834Y0155465D01*
X0169893Y0155575D01*
X0169955Y0155683D01*
X0170021Y0155790D01*
X0170090Y0155894D01*
X0170163Y0155995D01*
X0170238Y0156095D01*
X0170317Y0156192D01*
X0170399Y0156286D01*
X0170484Y0156378D01*
X0170571Y0156467D01*
X0170662Y0156553D01*
X0170755Y0156636D01*
X0170851Y0156717D01*
X0170949Y0156794D01*
X0171049Y0156868D01*
X0171152Y0156939D01*
X0171257Y0157006D01*
X0171365Y0157071D01*
X0171474Y0157131D01*
X0171585Y0157189D01*
X0171698Y0157242D01*
X0171812Y0157292D01*
X0171928Y0157339D01*
X0172045Y0157381D01*
X0172164Y0157420D01*
X0172284Y0157456D01*
X0172405Y0157487D01*
X0172527Y0157515D01*
X0172649Y0157538D01*
X0172773Y0157558D01*
X0172897Y0157574D01*
X0173021Y0157586D01*
X0173146Y0157594D01*
X0173271Y0157598D01*
X0173395Y0157598D01*
X0173520Y0157594D01*
X0173645Y0157586D01*
X0173769Y0157574D01*
X0173893Y0157558D01*
X0174017Y0157538D01*
X0174139Y0157515D01*
X0174261Y0157487D01*
X0174382Y0157456D01*
X0174502Y0157420D01*
X0174621Y0157381D01*
X0174738Y0157339D01*
X0174854Y0157292D01*
X0174968Y0157242D01*
X0175081Y0157189D01*
X0175192Y0157131D01*
X0175302Y0157071D01*
X0175409Y0157006D01*
X0175514Y0156939D01*
X0175617Y0156868D01*
X0175717Y0156794D01*
X0175815Y0156717D01*
X0175911Y0156636D01*
X0176004Y0156553D01*
X0176095Y0156467D01*
X0176182Y0156378D01*
X0176267Y0156286D01*
X0176349Y0156192D01*
X0176428Y0156095D01*
X0176503Y0155995D01*
X0176576Y0155894D01*
X0176645Y0155790D01*
X0176711Y0155683D01*
X0176773Y0155575D01*
X0176832Y0155465D01*
X0176888Y0155353D01*
X0176940Y0155239D01*
X0176988Y0155124D01*
X0177033Y0155008D01*
X0177073Y0154889D01*
X0177111Y0154770D01*
X0177144Y0154650D01*
X0177173Y0154528D01*
X0177199Y0154406D01*
X0177221Y0154283D01*
X0177238Y0154159D01*
X0177252Y0154035D01*
X0177262Y0153911D01*
X0177268Y0153786D01*
X0177270Y0153661D01*
X0177268Y0153536D01*
X0177262Y0153411D01*
X0177252Y0153287D01*
X0177238Y0153163D01*
X0177221Y0153039D01*
X0177199Y0152916D01*
X0177173Y0152794D01*
X0177144Y0152672D01*
X0177111Y0152552D01*
X0177073Y0152433D01*
X0177033Y0152314D01*
X0176988Y0152198D01*
X0176940Y0152083D01*
X0176888Y0151969D01*
X0176832Y0151857D01*
X0176773Y0151747D01*
X0176711Y0151639D01*
X0176645Y0151532D01*
X0176576Y0151428D01*
X0176503Y0151327D01*
X0176428Y0151227D01*
X0176349Y0151130D01*
X0176267Y0151036D01*
X0176182Y0150944D01*
X0176095Y0150855D01*
X0176004Y0150769D01*
X0175911Y0150686D01*
X0175815Y0150605D01*
X0175717Y0150528D01*
X0175617Y0150454D01*
X0175514Y0150383D01*
X0175409Y0150316D01*
X0175301Y0150251D01*
X0175192Y0150191D01*
X0175081Y0150133D01*
X0174968Y0150080D01*
X0174854Y0150030D01*
X0174738Y0149983D01*
X0174621Y0149941D01*
X0174502Y0149902D01*
X0174382Y0149866D01*
X0174261Y0149835D01*
X0174139Y0149807D01*
X0174017Y0149784D01*
X0173893Y0149764D01*
X0173769Y0149748D01*
X0173645Y0149736D01*
X0173520Y0149728D01*
X0173395Y0149724D01*
X0173271Y0149724D01*
X0173146Y0149728D01*
X0173021Y0149736D01*
X0172897Y0149748D01*
X0172773Y0149764D01*
X0172649Y0149784D01*
X0172527Y0149807D01*
X0172405Y0149835D01*
X0172284Y0149866D01*
X0172164Y0149902D01*
X0172045Y0149941D01*
X0171928Y0149983D01*
X0171812Y0150030D01*
X0171698Y0150080D01*
X0171585Y0150133D01*
X0171474Y0150191D01*
X0171364Y0150251D01*
X0171257Y0150316D01*
X0171152Y0150383D01*
X0171049Y0150454D01*
X0170949Y0150528D01*
X0170851Y0150605D01*
X0170755Y0150686D01*
X0170662Y0150769D01*
X0170571Y0150855D01*
X0170484Y0150944D01*
X0170399Y0151036D01*
X0170317Y0151130D01*
X0170238Y0151227D01*
X0170163Y0151327D01*
X0170090Y0151428D01*
X0170021Y0151532D01*
X0169955Y0151639D01*
X0169893Y0151747D01*
X0169834Y0151857D01*
X0169778Y0151969D01*
X0169726Y0152083D01*
X0169678Y0152198D01*
X0169633Y0152314D01*
X0169593Y0152433D01*
X0169555Y0152552D01*
X0169522Y0152672D01*
X0169493Y0152794D01*
X0169467Y0152916D01*
X0169445Y0153039D01*
X0169428Y0153163D01*
X0169414Y0153287D01*
X0169404Y0153411D01*
X0169398Y0153536D01*
X0169396Y0153661D01*
X0169396Y0181220D02*
X0169398Y0181345D01*
X0169404Y0181470D01*
X0169414Y0181594D01*
X0169428Y0181718D01*
X0169445Y0181842D01*
X0169467Y0181965D01*
X0169493Y0182087D01*
X0169522Y0182209D01*
X0169555Y0182329D01*
X0169593Y0182448D01*
X0169633Y0182567D01*
X0169678Y0182683D01*
X0169726Y0182798D01*
X0169778Y0182912D01*
X0169834Y0183024D01*
X0169893Y0183134D01*
X0169955Y0183242D01*
X0170021Y0183349D01*
X0170090Y0183453D01*
X0170163Y0183554D01*
X0170238Y0183654D01*
X0170317Y0183751D01*
X0170399Y0183845D01*
X0170484Y0183937D01*
X0170571Y0184026D01*
X0170662Y0184112D01*
X0170755Y0184195D01*
X0170851Y0184276D01*
X0170949Y0184353D01*
X0171049Y0184427D01*
X0171152Y0184498D01*
X0171257Y0184565D01*
X0171365Y0184630D01*
X0171474Y0184690D01*
X0171585Y0184748D01*
X0171698Y0184801D01*
X0171812Y0184851D01*
X0171928Y0184898D01*
X0172045Y0184940D01*
X0172164Y0184979D01*
X0172284Y0185015D01*
X0172405Y0185046D01*
X0172527Y0185074D01*
X0172649Y0185097D01*
X0172773Y0185117D01*
X0172897Y0185133D01*
X0173021Y0185145D01*
X0173146Y0185153D01*
X0173271Y0185157D01*
X0173395Y0185157D01*
X0173520Y0185153D01*
X0173645Y0185145D01*
X0173769Y0185133D01*
X0173893Y0185117D01*
X0174017Y0185097D01*
X0174139Y0185074D01*
X0174261Y0185046D01*
X0174382Y0185015D01*
X0174502Y0184979D01*
X0174621Y0184940D01*
X0174738Y0184898D01*
X0174854Y0184851D01*
X0174968Y0184801D01*
X0175081Y0184748D01*
X0175192Y0184690D01*
X0175302Y0184630D01*
X0175409Y0184565D01*
X0175514Y0184498D01*
X0175617Y0184427D01*
X0175717Y0184353D01*
X0175815Y0184276D01*
X0175911Y0184195D01*
X0176004Y0184112D01*
X0176095Y0184026D01*
X0176182Y0183937D01*
X0176267Y0183845D01*
X0176349Y0183751D01*
X0176428Y0183654D01*
X0176503Y0183554D01*
X0176576Y0183453D01*
X0176645Y0183349D01*
X0176711Y0183242D01*
X0176773Y0183134D01*
X0176832Y0183024D01*
X0176888Y0182912D01*
X0176940Y0182798D01*
X0176988Y0182683D01*
X0177033Y0182567D01*
X0177073Y0182448D01*
X0177111Y0182329D01*
X0177144Y0182209D01*
X0177173Y0182087D01*
X0177199Y0181965D01*
X0177221Y0181842D01*
X0177238Y0181718D01*
X0177252Y0181594D01*
X0177262Y0181470D01*
X0177268Y0181345D01*
X0177270Y0181220D01*
X0177268Y0181095D01*
X0177262Y0180970D01*
X0177252Y0180846D01*
X0177238Y0180722D01*
X0177221Y0180598D01*
X0177199Y0180475D01*
X0177173Y0180353D01*
X0177144Y0180231D01*
X0177111Y0180111D01*
X0177073Y0179992D01*
X0177033Y0179873D01*
X0176988Y0179757D01*
X0176940Y0179642D01*
X0176888Y0179528D01*
X0176832Y0179416D01*
X0176773Y0179306D01*
X0176711Y0179198D01*
X0176645Y0179091D01*
X0176576Y0178987D01*
X0176503Y0178886D01*
X0176428Y0178786D01*
X0176349Y0178689D01*
X0176267Y0178595D01*
X0176182Y0178503D01*
X0176095Y0178414D01*
X0176004Y0178328D01*
X0175911Y0178245D01*
X0175815Y0178164D01*
X0175717Y0178087D01*
X0175617Y0178013D01*
X0175514Y0177942D01*
X0175409Y0177875D01*
X0175301Y0177810D01*
X0175192Y0177750D01*
X0175081Y0177692D01*
X0174968Y0177639D01*
X0174854Y0177589D01*
X0174738Y0177542D01*
X0174621Y0177500D01*
X0174502Y0177461D01*
X0174382Y0177425D01*
X0174261Y0177394D01*
X0174139Y0177366D01*
X0174017Y0177343D01*
X0173893Y0177323D01*
X0173769Y0177307D01*
X0173645Y0177295D01*
X0173520Y0177287D01*
X0173395Y0177283D01*
X0173271Y0177283D01*
X0173146Y0177287D01*
X0173021Y0177295D01*
X0172897Y0177307D01*
X0172773Y0177323D01*
X0172649Y0177343D01*
X0172527Y0177366D01*
X0172405Y0177394D01*
X0172284Y0177425D01*
X0172164Y0177461D01*
X0172045Y0177500D01*
X0171928Y0177542D01*
X0171812Y0177589D01*
X0171698Y0177639D01*
X0171585Y0177692D01*
X0171474Y0177750D01*
X0171364Y0177810D01*
X0171257Y0177875D01*
X0171152Y0177942D01*
X0171049Y0178013D01*
X0170949Y0178087D01*
X0170851Y0178164D01*
X0170755Y0178245D01*
X0170662Y0178328D01*
X0170571Y0178414D01*
X0170484Y0178503D01*
X0170399Y0178595D01*
X0170317Y0178689D01*
X0170238Y0178786D01*
X0170163Y0178886D01*
X0170090Y0178987D01*
X0170021Y0179091D01*
X0169955Y0179198D01*
X0169893Y0179306D01*
X0169834Y0179416D01*
X0169778Y0179528D01*
X0169726Y0179642D01*
X0169678Y0179757D01*
X0169633Y0179873D01*
X0169593Y0179992D01*
X0169555Y0180111D01*
X0169522Y0180231D01*
X0169493Y0180353D01*
X0169467Y0180475D01*
X0169445Y0180598D01*
X0169428Y0180722D01*
X0169414Y0180846D01*
X0169404Y0180970D01*
X0169398Y0181095D01*
X0169396Y0181220D01*
X0219396Y0181220D02*
X0219398Y0181345D01*
X0219404Y0181470D01*
X0219414Y0181594D01*
X0219428Y0181718D01*
X0219445Y0181842D01*
X0219467Y0181965D01*
X0219493Y0182087D01*
X0219522Y0182209D01*
X0219555Y0182329D01*
X0219593Y0182448D01*
X0219633Y0182567D01*
X0219678Y0182683D01*
X0219726Y0182798D01*
X0219778Y0182912D01*
X0219834Y0183024D01*
X0219893Y0183134D01*
X0219955Y0183242D01*
X0220021Y0183349D01*
X0220090Y0183453D01*
X0220163Y0183554D01*
X0220238Y0183654D01*
X0220317Y0183751D01*
X0220399Y0183845D01*
X0220484Y0183937D01*
X0220571Y0184026D01*
X0220662Y0184112D01*
X0220755Y0184195D01*
X0220851Y0184276D01*
X0220949Y0184353D01*
X0221049Y0184427D01*
X0221152Y0184498D01*
X0221257Y0184565D01*
X0221365Y0184630D01*
X0221474Y0184690D01*
X0221585Y0184748D01*
X0221698Y0184801D01*
X0221812Y0184851D01*
X0221928Y0184898D01*
X0222045Y0184940D01*
X0222164Y0184979D01*
X0222284Y0185015D01*
X0222405Y0185046D01*
X0222527Y0185074D01*
X0222649Y0185097D01*
X0222773Y0185117D01*
X0222897Y0185133D01*
X0223021Y0185145D01*
X0223146Y0185153D01*
X0223271Y0185157D01*
X0223395Y0185157D01*
X0223520Y0185153D01*
X0223645Y0185145D01*
X0223769Y0185133D01*
X0223893Y0185117D01*
X0224017Y0185097D01*
X0224139Y0185074D01*
X0224261Y0185046D01*
X0224382Y0185015D01*
X0224502Y0184979D01*
X0224621Y0184940D01*
X0224738Y0184898D01*
X0224854Y0184851D01*
X0224968Y0184801D01*
X0225081Y0184748D01*
X0225192Y0184690D01*
X0225302Y0184630D01*
X0225409Y0184565D01*
X0225514Y0184498D01*
X0225617Y0184427D01*
X0225717Y0184353D01*
X0225815Y0184276D01*
X0225911Y0184195D01*
X0226004Y0184112D01*
X0226095Y0184026D01*
X0226182Y0183937D01*
X0226267Y0183845D01*
X0226349Y0183751D01*
X0226428Y0183654D01*
X0226503Y0183554D01*
X0226576Y0183453D01*
X0226645Y0183349D01*
X0226711Y0183242D01*
X0226773Y0183134D01*
X0226832Y0183024D01*
X0226888Y0182912D01*
X0226940Y0182798D01*
X0226988Y0182683D01*
X0227033Y0182567D01*
X0227073Y0182448D01*
X0227111Y0182329D01*
X0227144Y0182209D01*
X0227173Y0182087D01*
X0227199Y0181965D01*
X0227221Y0181842D01*
X0227238Y0181718D01*
X0227252Y0181594D01*
X0227262Y0181470D01*
X0227268Y0181345D01*
X0227270Y0181220D01*
X0227268Y0181095D01*
X0227262Y0180970D01*
X0227252Y0180846D01*
X0227238Y0180722D01*
X0227221Y0180598D01*
X0227199Y0180475D01*
X0227173Y0180353D01*
X0227144Y0180231D01*
X0227111Y0180111D01*
X0227073Y0179992D01*
X0227033Y0179873D01*
X0226988Y0179757D01*
X0226940Y0179642D01*
X0226888Y0179528D01*
X0226832Y0179416D01*
X0226773Y0179306D01*
X0226711Y0179198D01*
X0226645Y0179091D01*
X0226576Y0178987D01*
X0226503Y0178886D01*
X0226428Y0178786D01*
X0226349Y0178689D01*
X0226267Y0178595D01*
X0226182Y0178503D01*
X0226095Y0178414D01*
X0226004Y0178328D01*
X0225911Y0178245D01*
X0225815Y0178164D01*
X0225717Y0178087D01*
X0225617Y0178013D01*
X0225514Y0177942D01*
X0225409Y0177875D01*
X0225301Y0177810D01*
X0225192Y0177750D01*
X0225081Y0177692D01*
X0224968Y0177639D01*
X0224854Y0177589D01*
X0224738Y0177542D01*
X0224621Y0177500D01*
X0224502Y0177461D01*
X0224382Y0177425D01*
X0224261Y0177394D01*
X0224139Y0177366D01*
X0224017Y0177343D01*
X0223893Y0177323D01*
X0223769Y0177307D01*
X0223645Y0177295D01*
X0223520Y0177287D01*
X0223395Y0177283D01*
X0223271Y0177283D01*
X0223146Y0177287D01*
X0223021Y0177295D01*
X0222897Y0177307D01*
X0222773Y0177323D01*
X0222649Y0177343D01*
X0222527Y0177366D01*
X0222405Y0177394D01*
X0222284Y0177425D01*
X0222164Y0177461D01*
X0222045Y0177500D01*
X0221928Y0177542D01*
X0221812Y0177589D01*
X0221698Y0177639D01*
X0221585Y0177692D01*
X0221474Y0177750D01*
X0221364Y0177810D01*
X0221257Y0177875D01*
X0221152Y0177942D01*
X0221049Y0178013D01*
X0220949Y0178087D01*
X0220851Y0178164D01*
X0220755Y0178245D01*
X0220662Y0178328D01*
X0220571Y0178414D01*
X0220484Y0178503D01*
X0220399Y0178595D01*
X0220317Y0178689D01*
X0220238Y0178786D01*
X0220163Y0178886D01*
X0220090Y0178987D01*
X0220021Y0179091D01*
X0219955Y0179198D01*
X0219893Y0179306D01*
X0219834Y0179416D01*
X0219778Y0179528D01*
X0219726Y0179642D01*
X0219678Y0179757D01*
X0219633Y0179873D01*
X0219593Y0179992D01*
X0219555Y0180111D01*
X0219522Y0180231D01*
X0219493Y0180353D01*
X0219467Y0180475D01*
X0219445Y0180598D01*
X0219428Y0180722D01*
X0219414Y0180846D01*
X0219404Y0180970D01*
X0219398Y0181095D01*
X0219396Y0181220D01*
X0219396Y0153661D02*
X0219398Y0153786D01*
X0219404Y0153911D01*
X0219414Y0154035D01*
X0219428Y0154159D01*
X0219445Y0154283D01*
X0219467Y0154406D01*
X0219493Y0154528D01*
X0219522Y0154650D01*
X0219555Y0154770D01*
X0219593Y0154889D01*
X0219633Y0155008D01*
X0219678Y0155124D01*
X0219726Y0155239D01*
X0219778Y0155353D01*
X0219834Y0155465D01*
X0219893Y0155575D01*
X0219955Y0155683D01*
X0220021Y0155790D01*
X0220090Y0155894D01*
X0220163Y0155995D01*
X0220238Y0156095D01*
X0220317Y0156192D01*
X0220399Y0156286D01*
X0220484Y0156378D01*
X0220571Y0156467D01*
X0220662Y0156553D01*
X0220755Y0156636D01*
X0220851Y0156717D01*
X0220949Y0156794D01*
X0221049Y0156868D01*
X0221152Y0156939D01*
X0221257Y0157006D01*
X0221365Y0157071D01*
X0221474Y0157131D01*
X0221585Y0157189D01*
X0221698Y0157242D01*
X0221812Y0157292D01*
X0221928Y0157339D01*
X0222045Y0157381D01*
X0222164Y0157420D01*
X0222284Y0157456D01*
X0222405Y0157487D01*
X0222527Y0157515D01*
X0222649Y0157538D01*
X0222773Y0157558D01*
X0222897Y0157574D01*
X0223021Y0157586D01*
X0223146Y0157594D01*
X0223271Y0157598D01*
X0223395Y0157598D01*
X0223520Y0157594D01*
X0223645Y0157586D01*
X0223769Y0157574D01*
X0223893Y0157558D01*
X0224017Y0157538D01*
X0224139Y0157515D01*
X0224261Y0157487D01*
X0224382Y0157456D01*
X0224502Y0157420D01*
X0224621Y0157381D01*
X0224738Y0157339D01*
X0224854Y0157292D01*
X0224968Y0157242D01*
X0225081Y0157189D01*
X0225192Y0157131D01*
X0225302Y0157071D01*
X0225409Y0157006D01*
X0225514Y0156939D01*
X0225617Y0156868D01*
X0225717Y0156794D01*
X0225815Y0156717D01*
X0225911Y0156636D01*
X0226004Y0156553D01*
X0226095Y0156467D01*
X0226182Y0156378D01*
X0226267Y0156286D01*
X0226349Y0156192D01*
X0226428Y0156095D01*
X0226503Y0155995D01*
X0226576Y0155894D01*
X0226645Y0155790D01*
X0226711Y0155683D01*
X0226773Y0155575D01*
X0226832Y0155465D01*
X0226888Y0155353D01*
X0226940Y0155239D01*
X0226988Y0155124D01*
X0227033Y0155008D01*
X0227073Y0154889D01*
X0227111Y0154770D01*
X0227144Y0154650D01*
X0227173Y0154528D01*
X0227199Y0154406D01*
X0227221Y0154283D01*
X0227238Y0154159D01*
X0227252Y0154035D01*
X0227262Y0153911D01*
X0227268Y0153786D01*
X0227270Y0153661D01*
X0227268Y0153536D01*
X0227262Y0153411D01*
X0227252Y0153287D01*
X0227238Y0153163D01*
X0227221Y0153039D01*
X0227199Y0152916D01*
X0227173Y0152794D01*
X0227144Y0152672D01*
X0227111Y0152552D01*
X0227073Y0152433D01*
X0227033Y0152314D01*
X0226988Y0152198D01*
X0226940Y0152083D01*
X0226888Y0151969D01*
X0226832Y0151857D01*
X0226773Y0151747D01*
X0226711Y0151639D01*
X0226645Y0151532D01*
X0226576Y0151428D01*
X0226503Y0151327D01*
X0226428Y0151227D01*
X0226349Y0151130D01*
X0226267Y0151036D01*
X0226182Y0150944D01*
X0226095Y0150855D01*
X0226004Y0150769D01*
X0225911Y0150686D01*
X0225815Y0150605D01*
X0225717Y0150528D01*
X0225617Y0150454D01*
X0225514Y0150383D01*
X0225409Y0150316D01*
X0225301Y0150251D01*
X0225192Y0150191D01*
X0225081Y0150133D01*
X0224968Y0150080D01*
X0224854Y0150030D01*
X0224738Y0149983D01*
X0224621Y0149941D01*
X0224502Y0149902D01*
X0224382Y0149866D01*
X0224261Y0149835D01*
X0224139Y0149807D01*
X0224017Y0149784D01*
X0223893Y0149764D01*
X0223769Y0149748D01*
X0223645Y0149736D01*
X0223520Y0149728D01*
X0223395Y0149724D01*
X0223271Y0149724D01*
X0223146Y0149728D01*
X0223021Y0149736D01*
X0222897Y0149748D01*
X0222773Y0149764D01*
X0222649Y0149784D01*
X0222527Y0149807D01*
X0222405Y0149835D01*
X0222284Y0149866D01*
X0222164Y0149902D01*
X0222045Y0149941D01*
X0221928Y0149983D01*
X0221812Y0150030D01*
X0221698Y0150080D01*
X0221585Y0150133D01*
X0221474Y0150191D01*
X0221364Y0150251D01*
X0221257Y0150316D01*
X0221152Y0150383D01*
X0221049Y0150454D01*
X0220949Y0150528D01*
X0220851Y0150605D01*
X0220755Y0150686D01*
X0220662Y0150769D01*
X0220571Y0150855D01*
X0220484Y0150944D01*
X0220399Y0151036D01*
X0220317Y0151130D01*
X0220238Y0151227D01*
X0220163Y0151327D01*
X0220090Y0151428D01*
X0220021Y0151532D01*
X0219955Y0151639D01*
X0219893Y0151747D01*
X0219834Y0151857D01*
X0219778Y0151969D01*
X0219726Y0152083D01*
X0219678Y0152198D01*
X0219633Y0152314D01*
X0219593Y0152433D01*
X0219555Y0152552D01*
X0219522Y0152672D01*
X0219493Y0152794D01*
X0219467Y0152916D01*
X0219445Y0153039D01*
X0219428Y0153163D01*
X0219414Y0153287D01*
X0219404Y0153411D01*
X0219398Y0153536D01*
X0219396Y0153661D01*
X0261833Y0185000D02*
X0261835Y0185161D01*
X0261841Y0185321D01*
X0261851Y0185482D01*
X0261865Y0185642D01*
X0261883Y0185802D01*
X0261904Y0185961D01*
X0261930Y0186120D01*
X0261960Y0186278D01*
X0261993Y0186435D01*
X0262031Y0186592D01*
X0262072Y0186747D01*
X0262117Y0186901D01*
X0262166Y0187054D01*
X0262219Y0187206D01*
X0262275Y0187357D01*
X0262336Y0187506D01*
X0262399Y0187654D01*
X0262467Y0187800D01*
X0262538Y0187944D01*
X0262612Y0188086D01*
X0262690Y0188227D01*
X0262772Y0188365D01*
X0262857Y0188502D01*
X0262945Y0188636D01*
X0263037Y0188768D01*
X0263132Y0188898D01*
X0263230Y0189026D01*
X0263331Y0189151D01*
X0263435Y0189273D01*
X0263542Y0189393D01*
X0263652Y0189510D01*
X0263765Y0189625D01*
X0263881Y0189736D01*
X0264000Y0189845D01*
X0264121Y0189950D01*
X0264245Y0190053D01*
X0264371Y0190153D01*
X0264499Y0190249D01*
X0264630Y0190342D01*
X0264764Y0190432D01*
X0264899Y0190519D01*
X0265037Y0190602D01*
X0265176Y0190682D01*
X0265318Y0190758D01*
X0265461Y0190831D01*
X0265606Y0190900D01*
X0265753Y0190966D01*
X0265901Y0191028D01*
X0266051Y0191086D01*
X0266202Y0191141D01*
X0266355Y0191192D01*
X0266509Y0191239D01*
X0266664Y0191282D01*
X0266820Y0191321D01*
X0266976Y0191357D01*
X0267134Y0191388D01*
X0267292Y0191416D01*
X0267451Y0191440D01*
X0267611Y0191460D01*
X0267771Y0191476D01*
X0267931Y0191488D01*
X0268092Y0191496D01*
X0268253Y0191500D01*
X0268413Y0191500D01*
X0268574Y0191496D01*
X0268735Y0191488D01*
X0268895Y0191476D01*
X0269055Y0191460D01*
X0269215Y0191440D01*
X0269374Y0191416D01*
X0269532Y0191388D01*
X0269690Y0191357D01*
X0269846Y0191321D01*
X0270002Y0191282D01*
X0270157Y0191239D01*
X0270311Y0191192D01*
X0270464Y0191141D01*
X0270615Y0191086D01*
X0270765Y0191028D01*
X0270913Y0190966D01*
X0271060Y0190900D01*
X0271205Y0190831D01*
X0271348Y0190758D01*
X0271490Y0190682D01*
X0271629Y0190602D01*
X0271767Y0190519D01*
X0271902Y0190432D01*
X0272036Y0190342D01*
X0272167Y0190249D01*
X0272295Y0190153D01*
X0272421Y0190053D01*
X0272545Y0189950D01*
X0272666Y0189845D01*
X0272785Y0189736D01*
X0272901Y0189625D01*
X0273014Y0189510D01*
X0273124Y0189393D01*
X0273231Y0189273D01*
X0273335Y0189151D01*
X0273436Y0189026D01*
X0273534Y0188898D01*
X0273629Y0188768D01*
X0273721Y0188636D01*
X0273809Y0188502D01*
X0273894Y0188365D01*
X0273976Y0188227D01*
X0274054Y0188086D01*
X0274128Y0187944D01*
X0274199Y0187800D01*
X0274267Y0187654D01*
X0274330Y0187506D01*
X0274391Y0187357D01*
X0274447Y0187206D01*
X0274500Y0187054D01*
X0274549Y0186901D01*
X0274594Y0186747D01*
X0274635Y0186592D01*
X0274673Y0186435D01*
X0274706Y0186278D01*
X0274736Y0186120D01*
X0274762Y0185961D01*
X0274783Y0185802D01*
X0274801Y0185642D01*
X0274815Y0185482D01*
X0274825Y0185321D01*
X0274831Y0185161D01*
X0274833Y0185000D01*
X0274831Y0184839D01*
X0274825Y0184679D01*
X0274815Y0184518D01*
X0274801Y0184358D01*
X0274783Y0184198D01*
X0274762Y0184039D01*
X0274736Y0183880D01*
X0274706Y0183722D01*
X0274673Y0183565D01*
X0274635Y0183408D01*
X0274594Y0183253D01*
X0274549Y0183099D01*
X0274500Y0182946D01*
X0274447Y0182794D01*
X0274391Y0182643D01*
X0274330Y0182494D01*
X0274267Y0182346D01*
X0274199Y0182200D01*
X0274128Y0182056D01*
X0274054Y0181914D01*
X0273976Y0181773D01*
X0273894Y0181635D01*
X0273809Y0181498D01*
X0273721Y0181364D01*
X0273629Y0181232D01*
X0273534Y0181102D01*
X0273436Y0180974D01*
X0273335Y0180849D01*
X0273231Y0180727D01*
X0273124Y0180607D01*
X0273014Y0180490D01*
X0272901Y0180375D01*
X0272785Y0180264D01*
X0272666Y0180155D01*
X0272545Y0180050D01*
X0272421Y0179947D01*
X0272295Y0179847D01*
X0272167Y0179751D01*
X0272036Y0179658D01*
X0271902Y0179568D01*
X0271767Y0179481D01*
X0271629Y0179398D01*
X0271490Y0179318D01*
X0271348Y0179242D01*
X0271205Y0179169D01*
X0271060Y0179100D01*
X0270913Y0179034D01*
X0270765Y0178972D01*
X0270615Y0178914D01*
X0270464Y0178859D01*
X0270311Y0178808D01*
X0270157Y0178761D01*
X0270002Y0178718D01*
X0269846Y0178679D01*
X0269690Y0178643D01*
X0269532Y0178612D01*
X0269374Y0178584D01*
X0269215Y0178560D01*
X0269055Y0178540D01*
X0268895Y0178524D01*
X0268735Y0178512D01*
X0268574Y0178504D01*
X0268413Y0178500D01*
X0268253Y0178500D01*
X0268092Y0178504D01*
X0267931Y0178512D01*
X0267771Y0178524D01*
X0267611Y0178540D01*
X0267451Y0178560D01*
X0267292Y0178584D01*
X0267134Y0178612D01*
X0266976Y0178643D01*
X0266820Y0178679D01*
X0266664Y0178718D01*
X0266509Y0178761D01*
X0266355Y0178808D01*
X0266202Y0178859D01*
X0266051Y0178914D01*
X0265901Y0178972D01*
X0265753Y0179034D01*
X0265606Y0179100D01*
X0265461Y0179169D01*
X0265318Y0179242D01*
X0265176Y0179318D01*
X0265037Y0179398D01*
X0264899Y0179481D01*
X0264764Y0179568D01*
X0264630Y0179658D01*
X0264499Y0179751D01*
X0264371Y0179847D01*
X0264245Y0179947D01*
X0264121Y0180050D01*
X0264000Y0180155D01*
X0263881Y0180264D01*
X0263765Y0180375D01*
X0263652Y0180490D01*
X0263542Y0180607D01*
X0263435Y0180727D01*
X0263331Y0180849D01*
X0263230Y0180974D01*
X0263132Y0181102D01*
X0263037Y0181232D01*
X0262945Y0181364D01*
X0262857Y0181498D01*
X0262772Y0181635D01*
X0262690Y0181773D01*
X0262612Y0181914D01*
X0262538Y0182056D01*
X0262467Y0182200D01*
X0262399Y0182346D01*
X0262336Y0182494D01*
X0262275Y0182643D01*
X0262219Y0182794D01*
X0262166Y0182946D01*
X0262117Y0183099D01*
X0262072Y0183253D01*
X0262031Y0183408D01*
X0261993Y0183565D01*
X0261960Y0183722D01*
X0261930Y0183880D01*
X0261904Y0184039D01*
X0261883Y0184198D01*
X0261865Y0184358D01*
X0261851Y0184518D01*
X0261841Y0184679D01*
X0261835Y0184839D01*
X0261833Y0185000D01*
X0066833Y0185000D02*
X0066835Y0185161D01*
X0066841Y0185321D01*
X0066851Y0185482D01*
X0066865Y0185642D01*
X0066883Y0185802D01*
X0066904Y0185961D01*
X0066930Y0186120D01*
X0066960Y0186278D01*
X0066993Y0186435D01*
X0067031Y0186592D01*
X0067072Y0186747D01*
X0067117Y0186901D01*
X0067166Y0187054D01*
X0067219Y0187206D01*
X0067275Y0187357D01*
X0067336Y0187506D01*
X0067399Y0187654D01*
X0067467Y0187800D01*
X0067538Y0187944D01*
X0067612Y0188086D01*
X0067690Y0188227D01*
X0067772Y0188365D01*
X0067857Y0188502D01*
X0067945Y0188636D01*
X0068037Y0188768D01*
X0068132Y0188898D01*
X0068230Y0189026D01*
X0068331Y0189151D01*
X0068435Y0189273D01*
X0068542Y0189393D01*
X0068652Y0189510D01*
X0068765Y0189625D01*
X0068881Y0189736D01*
X0069000Y0189845D01*
X0069121Y0189950D01*
X0069245Y0190053D01*
X0069371Y0190153D01*
X0069499Y0190249D01*
X0069630Y0190342D01*
X0069764Y0190432D01*
X0069899Y0190519D01*
X0070037Y0190602D01*
X0070176Y0190682D01*
X0070318Y0190758D01*
X0070461Y0190831D01*
X0070606Y0190900D01*
X0070753Y0190966D01*
X0070901Y0191028D01*
X0071051Y0191086D01*
X0071202Y0191141D01*
X0071355Y0191192D01*
X0071509Y0191239D01*
X0071664Y0191282D01*
X0071820Y0191321D01*
X0071976Y0191357D01*
X0072134Y0191388D01*
X0072292Y0191416D01*
X0072451Y0191440D01*
X0072611Y0191460D01*
X0072771Y0191476D01*
X0072931Y0191488D01*
X0073092Y0191496D01*
X0073253Y0191500D01*
X0073413Y0191500D01*
X0073574Y0191496D01*
X0073735Y0191488D01*
X0073895Y0191476D01*
X0074055Y0191460D01*
X0074215Y0191440D01*
X0074374Y0191416D01*
X0074532Y0191388D01*
X0074690Y0191357D01*
X0074846Y0191321D01*
X0075002Y0191282D01*
X0075157Y0191239D01*
X0075311Y0191192D01*
X0075464Y0191141D01*
X0075615Y0191086D01*
X0075765Y0191028D01*
X0075913Y0190966D01*
X0076060Y0190900D01*
X0076205Y0190831D01*
X0076348Y0190758D01*
X0076490Y0190682D01*
X0076629Y0190602D01*
X0076767Y0190519D01*
X0076902Y0190432D01*
X0077036Y0190342D01*
X0077167Y0190249D01*
X0077295Y0190153D01*
X0077421Y0190053D01*
X0077545Y0189950D01*
X0077666Y0189845D01*
X0077785Y0189736D01*
X0077901Y0189625D01*
X0078014Y0189510D01*
X0078124Y0189393D01*
X0078231Y0189273D01*
X0078335Y0189151D01*
X0078436Y0189026D01*
X0078534Y0188898D01*
X0078629Y0188768D01*
X0078721Y0188636D01*
X0078809Y0188502D01*
X0078894Y0188365D01*
X0078976Y0188227D01*
X0079054Y0188086D01*
X0079128Y0187944D01*
X0079199Y0187800D01*
X0079267Y0187654D01*
X0079330Y0187506D01*
X0079391Y0187357D01*
X0079447Y0187206D01*
X0079500Y0187054D01*
X0079549Y0186901D01*
X0079594Y0186747D01*
X0079635Y0186592D01*
X0079673Y0186435D01*
X0079706Y0186278D01*
X0079736Y0186120D01*
X0079762Y0185961D01*
X0079783Y0185802D01*
X0079801Y0185642D01*
X0079815Y0185482D01*
X0079825Y0185321D01*
X0079831Y0185161D01*
X0079833Y0185000D01*
X0079831Y0184839D01*
X0079825Y0184679D01*
X0079815Y0184518D01*
X0079801Y0184358D01*
X0079783Y0184198D01*
X0079762Y0184039D01*
X0079736Y0183880D01*
X0079706Y0183722D01*
X0079673Y0183565D01*
X0079635Y0183408D01*
X0079594Y0183253D01*
X0079549Y0183099D01*
X0079500Y0182946D01*
X0079447Y0182794D01*
X0079391Y0182643D01*
X0079330Y0182494D01*
X0079267Y0182346D01*
X0079199Y0182200D01*
X0079128Y0182056D01*
X0079054Y0181914D01*
X0078976Y0181773D01*
X0078894Y0181635D01*
X0078809Y0181498D01*
X0078721Y0181364D01*
X0078629Y0181232D01*
X0078534Y0181102D01*
X0078436Y0180974D01*
X0078335Y0180849D01*
X0078231Y0180727D01*
X0078124Y0180607D01*
X0078014Y0180490D01*
X0077901Y0180375D01*
X0077785Y0180264D01*
X0077666Y0180155D01*
X0077545Y0180050D01*
X0077421Y0179947D01*
X0077295Y0179847D01*
X0077167Y0179751D01*
X0077036Y0179658D01*
X0076902Y0179568D01*
X0076767Y0179481D01*
X0076629Y0179398D01*
X0076490Y0179318D01*
X0076348Y0179242D01*
X0076205Y0179169D01*
X0076060Y0179100D01*
X0075913Y0179034D01*
X0075765Y0178972D01*
X0075615Y0178914D01*
X0075464Y0178859D01*
X0075311Y0178808D01*
X0075157Y0178761D01*
X0075002Y0178718D01*
X0074846Y0178679D01*
X0074690Y0178643D01*
X0074532Y0178612D01*
X0074374Y0178584D01*
X0074215Y0178560D01*
X0074055Y0178540D01*
X0073895Y0178524D01*
X0073735Y0178512D01*
X0073574Y0178504D01*
X0073413Y0178500D01*
X0073253Y0178500D01*
X0073092Y0178504D01*
X0072931Y0178512D01*
X0072771Y0178524D01*
X0072611Y0178540D01*
X0072451Y0178560D01*
X0072292Y0178584D01*
X0072134Y0178612D01*
X0071976Y0178643D01*
X0071820Y0178679D01*
X0071664Y0178718D01*
X0071509Y0178761D01*
X0071355Y0178808D01*
X0071202Y0178859D01*
X0071051Y0178914D01*
X0070901Y0178972D01*
X0070753Y0179034D01*
X0070606Y0179100D01*
X0070461Y0179169D01*
X0070318Y0179242D01*
X0070176Y0179318D01*
X0070037Y0179398D01*
X0069899Y0179481D01*
X0069764Y0179568D01*
X0069630Y0179658D01*
X0069499Y0179751D01*
X0069371Y0179847D01*
X0069245Y0179947D01*
X0069121Y0180050D01*
X0069000Y0180155D01*
X0068881Y0180264D01*
X0068765Y0180375D01*
X0068652Y0180490D01*
X0068542Y0180607D01*
X0068435Y0180727D01*
X0068331Y0180849D01*
X0068230Y0180974D01*
X0068132Y0181102D01*
X0068037Y0181232D01*
X0067945Y0181364D01*
X0067857Y0181498D01*
X0067772Y0181635D01*
X0067690Y0181773D01*
X0067612Y0181914D01*
X0067538Y0182056D01*
X0067467Y0182200D01*
X0067399Y0182346D01*
X0067336Y0182494D01*
X0067275Y0182643D01*
X0067219Y0182794D01*
X0067166Y0182946D01*
X0067117Y0183099D01*
X0067072Y0183253D01*
X0067031Y0183408D01*
X0066993Y0183565D01*
X0066960Y0183722D01*
X0066930Y0183880D01*
X0066904Y0184039D01*
X0066883Y0184198D01*
X0066865Y0184358D01*
X0066851Y0184518D01*
X0066841Y0184679D01*
X0066835Y0184839D01*
X0066833Y0185000D01*
X0261833Y0070000D02*
X0261835Y0070161D01*
X0261841Y0070321D01*
X0261851Y0070482D01*
X0261865Y0070642D01*
X0261883Y0070802D01*
X0261904Y0070961D01*
X0261930Y0071120D01*
X0261960Y0071278D01*
X0261993Y0071435D01*
X0262031Y0071592D01*
X0262072Y0071747D01*
X0262117Y0071901D01*
X0262166Y0072054D01*
X0262219Y0072206D01*
X0262275Y0072357D01*
X0262336Y0072506D01*
X0262399Y0072654D01*
X0262467Y0072800D01*
X0262538Y0072944D01*
X0262612Y0073086D01*
X0262690Y0073227D01*
X0262772Y0073365D01*
X0262857Y0073502D01*
X0262945Y0073636D01*
X0263037Y0073768D01*
X0263132Y0073898D01*
X0263230Y0074026D01*
X0263331Y0074151D01*
X0263435Y0074273D01*
X0263542Y0074393D01*
X0263652Y0074510D01*
X0263765Y0074625D01*
X0263881Y0074736D01*
X0264000Y0074845D01*
X0264121Y0074950D01*
X0264245Y0075053D01*
X0264371Y0075153D01*
X0264499Y0075249D01*
X0264630Y0075342D01*
X0264764Y0075432D01*
X0264899Y0075519D01*
X0265037Y0075602D01*
X0265176Y0075682D01*
X0265318Y0075758D01*
X0265461Y0075831D01*
X0265606Y0075900D01*
X0265753Y0075966D01*
X0265901Y0076028D01*
X0266051Y0076086D01*
X0266202Y0076141D01*
X0266355Y0076192D01*
X0266509Y0076239D01*
X0266664Y0076282D01*
X0266820Y0076321D01*
X0266976Y0076357D01*
X0267134Y0076388D01*
X0267292Y0076416D01*
X0267451Y0076440D01*
X0267611Y0076460D01*
X0267771Y0076476D01*
X0267931Y0076488D01*
X0268092Y0076496D01*
X0268253Y0076500D01*
X0268413Y0076500D01*
X0268574Y0076496D01*
X0268735Y0076488D01*
X0268895Y0076476D01*
X0269055Y0076460D01*
X0269215Y0076440D01*
X0269374Y0076416D01*
X0269532Y0076388D01*
X0269690Y0076357D01*
X0269846Y0076321D01*
X0270002Y0076282D01*
X0270157Y0076239D01*
X0270311Y0076192D01*
X0270464Y0076141D01*
X0270615Y0076086D01*
X0270765Y0076028D01*
X0270913Y0075966D01*
X0271060Y0075900D01*
X0271205Y0075831D01*
X0271348Y0075758D01*
X0271490Y0075682D01*
X0271629Y0075602D01*
X0271767Y0075519D01*
X0271902Y0075432D01*
X0272036Y0075342D01*
X0272167Y0075249D01*
X0272295Y0075153D01*
X0272421Y0075053D01*
X0272545Y0074950D01*
X0272666Y0074845D01*
X0272785Y0074736D01*
X0272901Y0074625D01*
X0273014Y0074510D01*
X0273124Y0074393D01*
X0273231Y0074273D01*
X0273335Y0074151D01*
X0273436Y0074026D01*
X0273534Y0073898D01*
X0273629Y0073768D01*
X0273721Y0073636D01*
X0273809Y0073502D01*
X0273894Y0073365D01*
X0273976Y0073227D01*
X0274054Y0073086D01*
X0274128Y0072944D01*
X0274199Y0072800D01*
X0274267Y0072654D01*
X0274330Y0072506D01*
X0274391Y0072357D01*
X0274447Y0072206D01*
X0274500Y0072054D01*
X0274549Y0071901D01*
X0274594Y0071747D01*
X0274635Y0071592D01*
X0274673Y0071435D01*
X0274706Y0071278D01*
X0274736Y0071120D01*
X0274762Y0070961D01*
X0274783Y0070802D01*
X0274801Y0070642D01*
X0274815Y0070482D01*
X0274825Y0070321D01*
X0274831Y0070161D01*
X0274833Y0070000D01*
X0274831Y0069839D01*
X0274825Y0069679D01*
X0274815Y0069518D01*
X0274801Y0069358D01*
X0274783Y0069198D01*
X0274762Y0069039D01*
X0274736Y0068880D01*
X0274706Y0068722D01*
X0274673Y0068565D01*
X0274635Y0068408D01*
X0274594Y0068253D01*
X0274549Y0068099D01*
X0274500Y0067946D01*
X0274447Y0067794D01*
X0274391Y0067643D01*
X0274330Y0067494D01*
X0274267Y0067346D01*
X0274199Y0067200D01*
X0274128Y0067056D01*
X0274054Y0066914D01*
X0273976Y0066773D01*
X0273894Y0066635D01*
X0273809Y0066498D01*
X0273721Y0066364D01*
X0273629Y0066232D01*
X0273534Y0066102D01*
X0273436Y0065974D01*
X0273335Y0065849D01*
X0273231Y0065727D01*
X0273124Y0065607D01*
X0273014Y0065490D01*
X0272901Y0065375D01*
X0272785Y0065264D01*
X0272666Y0065155D01*
X0272545Y0065050D01*
X0272421Y0064947D01*
X0272295Y0064847D01*
X0272167Y0064751D01*
X0272036Y0064658D01*
X0271902Y0064568D01*
X0271767Y0064481D01*
X0271629Y0064398D01*
X0271490Y0064318D01*
X0271348Y0064242D01*
X0271205Y0064169D01*
X0271060Y0064100D01*
X0270913Y0064034D01*
X0270765Y0063972D01*
X0270615Y0063914D01*
X0270464Y0063859D01*
X0270311Y0063808D01*
X0270157Y0063761D01*
X0270002Y0063718D01*
X0269846Y0063679D01*
X0269690Y0063643D01*
X0269532Y0063612D01*
X0269374Y0063584D01*
X0269215Y0063560D01*
X0269055Y0063540D01*
X0268895Y0063524D01*
X0268735Y0063512D01*
X0268574Y0063504D01*
X0268413Y0063500D01*
X0268253Y0063500D01*
X0268092Y0063504D01*
X0267931Y0063512D01*
X0267771Y0063524D01*
X0267611Y0063540D01*
X0267451Y0063560D01*
X0267292Y0063584D01*
X0267134Y0063612D01*
X0266976Y0063643D01*
X0266820Y0063679D01*
X0266664Y0063718D01*
X0266509Y0063761D01*
X0266355Y0063808D01*
X0266202Y0063859D01*
X0266051Y0063914D01*
X0265901Y0063972D01*
X0265753Y0064034D01*
X0265606Y0064100D01*
X0265461Y0064169D01*
X0265318Y0064242D01*
X0265176Y0064318D01*
X0265037Y0064398D01*
X0264899Y0064481D01*
X0264764Y0064568D01*
X0264630Y0064658D01*
X0264499Y0064751D01*
X0264371Y0064847D01*
X0264245Y0064947D01*
X0264121Y0065050D01*
X0264000Y0065155D01*
X0263881Y0065264D01*
X0263765Y0065375D01*
X0263652Y0065490D01*
X0263542Y0065607D01*
X0263435Y0065727D01*
X0263331Y0065849D01*
X0263230Y0065974D01*
X0263132Y0066102D01*
X0263037Y0066232D01*
X0262945Y0066364D01*
X0262857Y0066498D01*
X0262772Y0066635D01*
X0262690Y0066773D01*
X0262612Y0066914D01*
X0262538Y0067056D01*
X0262467Y0067200D01*
X0262399Y0067346D01*
X0262336Y0067494D01*
X0262275Y0067643D01*
X0262219Y0067794D01*
X0262166Y0067946D01*
X0262117Y0068099D01*
X0262072Y0068253D01*
X0262031Y0068408D01*
X0261993Y0068565D01*
X0261960Y0068722D01*
X0261930Y0068880D01*
X0261904Y0069039D01*
X0261883Y0069198D01*
X0261865Y0069358D01*
X0261851Y0069518D01*
X0261841Y0069679D01*
X0261835Y0069839D01*
X0261833Y0070000D01*
M02*
