G75*
%MOIN*%
%OFA0B0*%
%FSLAX25Y25*%
%IPPOS*%
%LPD*%
%AMOC8*
5,1,8,0,0,1.08239X$1,22.5*
%
%ADD10C,0.08674*%
%ADD11C,0.13800*%
D10*
X0138500Y0132411D03*
X0138500Y0159970D03*
X0188500Y0159970D03*
X0188500Y0132411D03*
X0355500Y0132411D03*
X0355500Y0159970D03*
X0405500Y0159970D03*
X0405500Y0132411D03*
X0572500Y0132411D03*
X0572500Y0159970D03*
X0622500Y0159970D03*
X0622500Y0132411D03*
X0622500Y0279411D03*
X0622500Y0306970D03*
X0572500Y0306970D03*
X0572500Y0279411D03*
X0405500Y0279411D03*
X0405500Y0306970D03*
X0355500Y0306970D03*
X0355500Y0279411D03*
X0188500Y0279411D03*
X0188500Y0306970D03*
X0138500Y0306970D03*
X0138500Y0279411D03*
X0138500Y0426411D03*
X0138500Y0453970D03*
X0188500Y0453970D03*
X0188500Y0426411D03*
X0355500Y0426411D03*
X0355500Y0453970D03*
X0405500Y0453970D03*
X0405500Y0426411D03*
X0572500Y0426411D03*
X0572500Y0453970D03*
X0622500Y0453970D03*
X0622500Y0426411D03*
D11*
X0038500Y0048750D03*
X0038500Y0163750D03*
X0038500Y0195750D03*
X0038500Y0310750D03*
X0038500Y0342750D03*
X0038500Y0457750D03*
X0233500Y0457750D03*
X0255500Y0457750D03*
X0255500Y0342750D03*
X0233500Y0342750D03*
X0233500Y0310750D03*
X0255500Y0310750D03*
X0255500Y0195750D03*
X0233500Y0195750D03*
X0233500Y0163750D03*
X0255500Y0163750D03*
X0255500Y0048750D03*
X0233500Y0048750D03*
X0450500Y0048750D03*
X0472500Y0048750D03*
X0472500Y0163750D03*
X0450500Y0163750D03*
X0450500Y0195750D03*
X0472500Y0195750D03*
X0472500Y0310750D03*
X0450500Y0310750D03*
X0450500Y0342750D03*
X0472500Y0342750D03*
X0472500Y0457750D03*
X0450500Y0457750D03*
X0667500Y0457750D03*
X0667500Y0342750D03*
X0667500Y0310750D03*
X0667500Y0195750D03*
X0667500Y0163750D03*
X0667500Y0048750D03*
M02*
