%
M48
M72
T01C0.0120
T02C0.0787
T03C0.1300
%
T01
X6850Y5175
X7800Y6375
X7850Y6875
X8050Y7575
X7850Y8375
X7850Y8775
X7350Y9375
X8550Y9275
X10250Y8275
X10250Y7875
X10350Y6875
X8650Y6375
X8650Y4575
X12450Y6875
X12950Y6275
X14350Y5875
X16450Y6175
X17550Y4775
X20350Y5875
X21850Y8375
X23050Y10675
X25350Y11075
X25950Y10675
X27250Y10675
X27250Y10275
X27050Y11875
X26550Y13375
X28050Y14375
X24050Y13775
X21850Y15375
X17550Y14575
X17550Y13975
X17350Y15375
X16650Y11575
X15750Y11575
X18350Y9975
X16350Y8375
X15350Y8675
X14350Y8875
X11350Y8875
X10553Y10172
X10350Y10475
X12050Y13475
X11350Y15375
X8650Y19275
X8650Y21075
X7800Y21075
X7850Y21575
X8050Y22275
X7850Y23075
X7850Y23475
X8550Y23975
X7350Y24075
X5550Y24975
X5550Y25375
X4250Y25375
X3650Y25775
X5350Y26575
X4850Y28075
X6350Y29075
X10350Y25175
X10553Y24872
X11350Y23575
X10250Y22975
X10250Y22575
X10350Y21575
X12450Y21575
X12950Y20975
X14350Y20575
X16450Y20875
X17550Y19475
X20350Y20575
X21850Y23075
X23050Y25375
X25350Y25775
X25950Y25375
X27250Y25375
X27250Y24975
X27050Y26575
X26550Y28075
X28050Y29075
X24050Y28475
X21850Y30075
X17550Y29275
X17550Y28675
X17350Y30075
X16650Y26275
X15750Y26275
X18350Y24675
X16350Y23075
X15350Y23375
X14350Y23575
X12050Y28175
X11350Y30075
X8650Y33975
X8650Y35775
X7800Y35775
X7850Y36275
X8050Y36975
X7850Y37775
X7850Y38175
X7350Y38775
X8550Y38675
X10250Y37675
X10250Y37275
X10350Y36275
X12450Y36275
X12950Y35675
X14350Y35275
X16450Y35575
X17550Y34175
X20350Y35275
X21850Y37775
X23050Y40075
X25350Y40475
X25950Y40075
X27250Y40075
X27250Y39675
X27050Y41275
X26550Y42775
X28050Y43775
X24050Y43175
X21850Y44775
X17550Y43975
X17550Y43375
X17350Y44775
X16650Y40975
X15750Y40975
X18350Y39375
X16350Y37775
X15350Y38075
X14350Y38275
X11350Y38275
X10553Y39572
X10350Y39875
X12050Y42875
X11350Y44775
X6350Y43775
X4850Y42775
X5350Y41275
X5550Y40075
X5550Y39675
X4250Y40075
X3650Y40475
X3650Y37175
X6850Y34575
X3650Y22475
X6850Y19875
X6350Y14375
X4850Y13375
X5350Y11875
X5550Y10675
X5550Y10275
X4250Y10675
X3650Y11075
X3650Y7775
X25350Y7775
X28550Y5175
X29500Y6375
X29550Y6875
X29750Y7575
X29550Y8375
X29550Y8775
X29050Y9375
X30250Y9275
X31950Y8275
X31950Y7875
X32050Y6875
X30350Y6375
X30350Y4575
X34150Y6875
X34650Y6275
X36050Y5875
X38150Y6175
X39250Y4775
X42050Y5875
X43550Y8375
X44750Y10675
X47050Y11075
X47650Y10675
X48950Y10675
X48950Y10275
X50750Y9375
X51250Y8775
X51250Y8375
X51950Y9275
X53650Y8275
X53650Y7875
X53750Y6875
X52050Y6375
X51200Y6375
X51250Y6875
X51450Y7575
X50250Y5175
X52050Y4575
X55850Y6875
X56350Y6275
X57750Y5875
X59850Y6175
X60950Y4775
X63750Y5875
X65250Y8375
X66450Y10675
X67450Y13775
X65250Y15375
X60950Y14575
X60950Y13975
X60750Y15375
X60050Y11575
X59150Y11575
X61750Y9975
X59750Y8375
X58750Y8675
X57750Y8875
X54750Y8875
X53953Y10172
X53750Y10475
X55450Y13475
X54750Y15375
X52050Y19275
X50250Y19875
X51200Y21075
X51250Y21575
X51450Y22275
X51250Y23075
X51250Y23475
X51950Y23975
X50750Y24075
X48950Y24975
X48950Y25375
X48750Y26575
X47650Y25375
X47050Y25775
X44750Y25375
X43550Y23075
X42050Y20575
X39250Y19475
X38150Y20875
X36050Y20575
X34650Y20975
X34150Y21575
X32050Y21575
X31950Y22575
X31950Y22975
X33050Y23575
X32253Y24872
X32050Y25175
X30250Y23975
X29550Y23475
X29550Y23075
X29750Y22275
X29550Y21575
X29500Y21075
X30350Y21075
X28550Y19875
X30350Y19275
X33050Y15375
X33750Y13475
X32050Y10475
X32253Y10172
X33050Y8875
X36050Y8875
X37050Y8675
X38050Y8375
X40050Y9975
X38350Y11575
X37450Y11575
X39250Y13975
X39250Y14575
X39050Y15375
X43550Y15375
X45750Y13775
X48250Y13375
X49750Y14375
X48750Y11875
X47050Y7775
X60950Y19475
X59850Y20875
X57750Y20575
X56350Y20975
X55850Y21575
X53750Y21575
X53650Y22575
X53650Y22975
X54750Y23575
X53953Y24872
X53750Y25175
X55450Y28175
X54750Y30075
X52050Y33975
X50250Y34575
X51200Y35775
X51250Y36275
X51450Y36975
X51250Y37775
X51250Y38175
X50750Y38775
X51950Y38675
X53650Y37675
X53650Y37275
X53750Y36275
X52050Y35775
X54750Y38275
X53953Y39572
X53750Y39875
X57750Y38275
X58750Y38075
X59750Y37775
X61750Y39375
X60050Y40975
X59150Y40975
X60950Y43375
X60950Y43975
X60750Y44775
X65250Y44775
X67450Y43175
X66450Y40075
X65250Y37775
X63750Y35275
X60950Y34175
X59850Y35575
X57750Y35275
X56350Y35675
X55850Y36275
X48950Y39675
X48950Y40075
X48750Y41275
X47650Y40075
X47050Y40475
X44750Y40075
X43550Y37775
X42050Y35275
X39250Y34175
X38150Y35575
X36050Y35275
X34650Y35675
X34150Y36275
X32050Y36275
X31950Y37275
X31950Y37675
X33050Y38275
X32253Y39572
X32050Y39875
X30250Y38675
X29550Y38175
X29550Y37775
X29050Y38775
X29750Y36975
X29550Y36275
X29500Y35775
X30350Y35775
X28550Y34575
X30350Y33975
X33050Y30075
X33750Y28175
X37450Y26275
X38350Y26275
X40050Y24675
X38050Y23075
X37050Y23375
X36050Y23575
X39250Y28675
X39250Y29275
X39050Y30075
X43550Y30075
X45750Y28475
X48250Y28075
X49750Y29075
X57750Y23575
X58750Y23375
X59750Y23075
X61750Y24675
X60050Y26275
X59150Y26275
X60950Y28675
X60950Y29275
X60750Y30075
X65250Y30075
X67450Y28475
X66450Y25375
X65250Y23075
X63750Y20575
X52050Y21075
X47050Y22475
X29050Y24075
X25350Y22475
X25350Y37175
X33750Y42875
X33050Y44775
X37450Y40975
X38350Y40975
X40050Y39375
X38050Y37775
X37050Y38075
X36050Y38275
X39250Y43375
X39250Y43975
X39050Y44775
X43550Y44775
X45750Y43175
X48250Y42775
X49750Y43775
X54750Y44775
X55450Y42875
X47050Y37175
T02
X40550Y42641
X40550Y45397
X35550Y45397
X35550Y42641
X35550Y30697
X35550Y27941
X40550Y27941
X40550Y30697
X57250Y30697
X57250Y27941
X62250Y27941
X62250Y30697
X62250Y42641
X62250Y45397
X57250Y45397
X57250Y42641
X57250Y15997
X57250Y13241
X62250Y13241
X62250Y15997
X40550Y15997
X40550Y13241
X35550Y13241
X35550Y15997
X18850Y15997
X18850Y13241
X13850Y13241
X13850Y15997
X13850Y27941
X13850Y30697
X18850Y30697
X18850Y27941
X18850Y42641
X18850Y45397
X13850Y45397
X13850Y42641
T03
X3850Y4875
X3850Y16375
X3850Y19575
X3850Y31075
X3850Y34275
X3850Y45775
X23350Y45775
X25550Y45775
X25550Y34275
X23350Y34275
X23350Y31075
X25550Y31075
X25550Y19575
X23350Y19575
X23350Y16375
X25550Y16375
X25550Y4875
X23350Y4875
X45050Y4875
X47250Y4875
X47250Y16375
X45050Y16375
X45050Y19575
X47250Y19575
X47250Y31075
X45050Y31075
X45050Y34275
X47250Y34275
X47250Y45775
X45050Y45775
X66750Y45775
X66750Y34275
X66750Y31075
X66750Y19575
X66750Y16375
X66750Y4875
M30
