%
M48
M72
T01C0.0120
T02C0.0787
T03C0.1300
%
T01
X3650Y7775
X5550Y10275
X5550Y10675
X5350Y11875
X4250Y10675
X3650Y11075
X4850Y13375
X6350Y14375
X7350Y9375
X7850Y8775
X7850Y8375
X8550Y9275
X8050Y7575
X7850Y6875
X7800Y6375
X8650Y6375
X8650Y4575
X6850Y5175
X10250Y7875
X10250Y8275
X11350Y8875
X10553Y10172
X10350Y10475
X12050Y13475
X11350Y15375
X8650Y19275
X8650Y21075
X7850Y21575
X7800Y21075
X8050Y22275
X7850Y23075
X7850Y23475
X8550Y23975
X7350Y24075
X5550Y24975
X5550Y25375
X5350Y26575
X4250Y25375
X3650Y25775
X4850Y28075
X6350Y29075
X8650Y33975
X8650Y35775
X7850Y36275
X7800Y35775
X8050Y36975
X7850Y37775
X7850Y38175
X7350Y38775
X8550Y38675
X10250Y37675
X10250Y37275
X10350Y36275
X12450Y36275
X12950Y35675
X14350Y35275
X16450Y35575
X17550Y34175
X20350Y35275
X21850Y37775
X23050Y40075
X25350Y40475
X25950Y40075
X27250Y40075
X27250Y39675
X27050Y41275
X26550Y42775
X28050Y43775
X24050Y43175
X21850Y44775
X17550Y43975
X17550Y43375
X17350Y44775
X16650Y40975
X15750Y40975
X14350Y38275
X15350Y38075
X16350Y37775
X18350Y39375
X12050Y42875
X11350Y44775
X10350Y39875
X10553Y39572
X11350Y38275
X6850Y34575
X3650Y37175
X5550Y39675
X5550Y40075
X5350Y41275
X4250Y40075
X3650Y40475
X4850Y42775
X6350Y43775
X11350Y30075
X12050Y28175
X10350Y25175
X10553Y24872
X11350Y23575
X10250Y22975
X10250Y22575
X10350Y21575
X12450Y21575
X12950Y20975
X14350Y20575
X16450Y20875
X17550Y19475
X20350Y20575
X21850Y23075
X23050Y25375
X25350Y25775
X25950Y25375
X27250Y25375
X27250Y24975
X27050Y26575
X26550Y28075
X28050Y29075
X24050Y28475
X21850Y30075
X17550Y29275
X17550Y28675
X17350Y30075
X16650Y26275
X15750Y26275
X14350Y23575
X15350Y23375
X16350Y23075
X18350Y24675
X25350Y22475
X28550Y19875
X29500Y21075
X29550Y21575
X29750Y22275
X29550Y23075
X29550Y23475
X30250Y23975
X29050Y24075
X31950Y22975
X31950Y22575
X32050Y21575
X30350Y21075
X30350Y19275
X34150Y21575
X34650Y20975
X36050Y20575
X38150Y20875
X39250Y19475
X42050Y20575
X43550Y23075
X44750Y25375
X45750Y28475
X43550Y30075
X39250Y29275
X39250Y28675
X39050Y30075
X38350Y26275
X37450Y26275
X36050Y23575
X37050Y23375
X38050Y23075
X40050Y24675
X33750Y28175
X33050Y30075
X30350Y33975
X30350Y35775
X29500Y35775
X29550Y36275
X29750Y36975
X29550Y37775
X29550Y38175
X29050Y38775
X30250Y38675
X31950Y37675
X31950Y37275
X32050Y36275
X34150Y36275
X34650Y35675
X36050Y35275
X38150Y35575
X39250Y34175
X42050Y35275
X43550Y37775
X44750Y40075
X45750Y43175
X43550Y44775
X39250Y43975
X39250Y43375
X39050Y44775
X38350Y40975
X37450Y40975
X36050Y38275
X37050Y38075
X38050Y37775
X40050Y39375
X33750Y42875
X33050Y44775
X32050Y39875
X32253Y39572
X33050Y38275
X28550Y34575
X25350Y37175
X32050Y25175
X32253Y24872
X33050Y23575
X33050Y15375
X33750Y13475
X32050Y10475
X32253Y10172
X33050Y8875
X31950Y8275
X31950Y7875
X32050Y6875
X30350Y6375
X29500Y6375
X29550Y6875
X29750Y7575
X29550Y8375
X29550Y8775
X29050Y9375
X30250Y9275
X27250Y10275
X27250Y10675
X27050Y11875
X25950Y10675
X25350Y11075
X23050Y10675
X21850Y8375
X20350Y5875
X17550Y4775
X16450Y6175
X14350Y5875
X12950Y6275
X12450Y6875
X10350Y6875
X14350Y8875
X15350Y8675
X16350Y8375
X18350Y9975
X16650Y11575
X15750Y11575
X17550Y13975
X17550Y14575
X17350Y15375
X21850Y15375
X24050Y13775
X26550Y13375
X28050Y14375
X25350Y7775
X28550Y5175
X30350Y4575
X34150Y6875
X34650Y6275
X36050Y5875
X38150Y6175
X39250Y4775
X42050Y5875
X43550Y8375
X44750Y10675
X45750Y13775
X43550Y15375
X39250Y14575
X39250Y13975
X39050Y15375
X38350Y11575
X37450Y11575
X36050Y8875
X37050Y8675
X38050Y8375
X40050Y9975
X6850Y19875
X3650Y22475
T02
X13850Y27941
X13850Y30697
X18850Y30697
X18850Y27941
X18850Y15997
X18850Y13241
X13850Y13241
X13850Y15997
X35550Y15997
X35550Y13241
X40550Y13241
X40550Y15997
X40550Y27941
X40550Y30697
X35550Y30697
X35550Y27941
X35550Y42641
X35550Y45397
X40550Y45397
X40550Y42641
X18850Y42641
X18850Y45397
X13850Y45397
X13850Y42641
T03
X3850Y4875
X3850Y16375
X3850Y19575
X3850Y31075
X3850Y34275
X3850Y45775
X23350Y45775
X25550Y45775
X25550Y34275
X23350Y34275
X23350Y31075
X25550Y31075
X25550Y19575
X23350Y19575
X23350Y16375
X25550Y16375
X25550Y4875
X23350Y4875
X45050Y4875
X45050Y16375
X45050Y19575
X45050Y31075
X45050Y34275
X45050Y45775
M30
